<svg width="65" height="60" viewBox="0 0 65 60" fill="none" xmlns="http://www.w3.org/2000/svg">
<path d="M29.6555 30.2134L28.8628 31.7988L30.0518 32.2368M32.6281 33.186L32.529 29.8171M32.6281 33.186L30.0518 32.2368M32.6281 33.186L35.0557 32.1864M32.529 29.8171H27.4756L21.3323 20.3049L26.0884 10H38.9695L43.5275 20.3049L37.5823 29.8171H35.0557M32.529 29.8171H35.0557M35.0557 29.8171L35.997 31.7988L35.0557 32.1864M30.0518 32.2368V44.0854M30.0518 46.6616L32.0336 47.8506L34.4116 46.8598M30.0518 46.6616V44.0854M30.0518 46.6616C30.0518 46.6616 30.0102 47.6417 29.997 48.2469M34.4116 46.8598L35.0557 32.1864M34.4116 46.8598C34.4116 46.8598 34.2134 48.9075 34.0153 49.2378C33.8171 49.5681 33.6982 50.4665 32.4299 50.625C31.1616 50.7835 30.184 49.5681 30.0518 49.0396C29.994 48.8081 29.9868 48.7191 29.997 48.2469M30.0518 44.0854L27.872 45.2744L26.4848 43.2927H24.3049V49.6341H26.8811L27.4756 48.2469H29.997M28.0701 12.7744H36.3933L39.9604 20.3049L36.3933 27.2409H28.4665L24.7012 20.3049L28.0701 12.7744Z" stroke="#FFB948" stroke-width="0.792683"/>
<path d="M35.0062 37.9422C35.4025 37.3477 36.433 36.1587 37.3842 36.1587C38.5732 36.1587 39.7623 35.5642 39.5641 34.7715C39.4395 34.2732 40.3327 36.9066 39.3404 38.7349M38.9696 39.2711C38.2806 40.0613 37.0717 40.5633 35.0062 40.3203C35.8649 41.0469 37.8598 42.3416 38.9696 41.7075C40.3568 40.9148 41.9421 39.3294 42.7348 40.7166C42.4045 39.7529 41.1891 38.1147 38.9696 39.2711ZM38.9696 39.2711C39.1154 39.1038 39.238 38.9237 39.3404 38.7349M39.3404 38.7349C39.8533 38.4193 40.4829 37.9848 41.1495 37.4588M46.1037 30.0154C42.1403 29.0642 42.0743 26.1841 42.5367 24.8629C43.6569 24.9947 44.4507 25.6332 45.0007 26.4483M46.1037 30.0154C46.0651 29.089 45.7739 27.5942 45.0007 26.4483M46.1037 30.0154C46.1037 32.3481 44.2584 34.6971 42.3385 36.45M45.0007 26.4483C44.906 25.2593 45.3903 22.6831 48.0854 21.8904C47.8212 22.617 47.4513 24.1495 48.0854 24.4666C48.8781 24.8629 49.2745 27.6373 46.1037 29.0245M44.5184 33.7806C44.994 31.4026 43.2633 29.7512 42.3385 29.2227C42.4706 29.4869 42.6556 30.1343 42.3385 30.6099C41.9421 31.2044 40.9294 31.8858 40.7531 32.9879C40.5183 34.4563 40.9513 35.1559 42.3385 36.45M42.3385 36.45C41.9401 36.8137 41.5385 37.1518 41.1495 37.4588M41.1495 37.4588C41.9421 38.0453 43.8049 39.0424 44.9147 38.3386C46.3019 37.4588 46.3019 36.1467 48.0854 36.45C49.5123 36.6925 49.869 37.0174 49.869 37.1495C49.6047 36.4229 48.8385 35.0093 47.8873 35.1678C46.7643 34.9116 43.8446 35.011 41.1495 37.4588ZM44.7165 34.177C46.6982 34.177 50.6617 32.9087 50.6617 27.8355C49.1423 29.2888 45.8263 32.5916 44.7165 34.177Z" stroke="#FFB948" stroke-width="0.396341"/>
<path d="M29.6555 37.9422C29.2592 37.3477 28.2287 36.1587 27.2775 36.1587C26.0884 36.1587 24.8994 35.5642 25.0976 34.7715C25.2221 34.2732 24.3289 36.9066 25.3213 38.7349M25.6921 39.2711C26.3811 40.0613 27.5899 40.5633 29.6555 40.3203C28.7968 41.0469 26.8019 42.3416 25.6921 41.7075C24.3049 40.9148 22.7195 39.3294 21.9269 40.7166C22.2571 39.7529 23.4726 38.1147 25.6921 39.2711ZM25.6921 39.2711C25.5463 39.1038 25.4237 38.9237 25.3213 38.7349M25.3213 38.7349C24.8084 38.4193 24.1788 37.9848 23.5122 37.4588M18.558 30.0154C22.5214 29.0642 22.5874 26.1841 22.125 24.8629C21.0048 24.9947 20.211 25.6332 19.661 26.4483M18.558 30.0154C18.5966 29.089 18.8878 27.5942 19.661 26.4483M18.558 30.0154C18.558 32.3481 20.4033 34.6971 22.3232 36.45M19.661 26.4483C19.7557 25.2593 19.2714 22.6831 16.5762 21.8904C16.8405 22.617 17.2104 24.1495 16.5762 24.4666C15.7836 24.8629 15.3872 27.6373 18.558 29.0245M20.1433 33.7806C19.6677 31.4026 21.3984 29.7512 22.3232 29.2227C22.1911 29.4869 22.0061 30.1343 22.3232 30.6099C22.7195 31.2044 23.7323 31.8858 23.9086 32.9879C24.1434 34.4563 23.7104 35.1559 22.3232 36.45M22.3232 36.45C22.7216 36.8137 23.1232 37.1518 23.5122 37.4588M23.5122 37.4588C22.7195 38.0453 20.8567 39.0424 19.747 38.3386C18.3598 37.4588 18.3598 36.1467 16.5762 36.45C15.1494 36.6925 14.7927 37.0174 14.7927 37.1495C15.0569 36.4229 15.8232 35.0093 16.7744 35.1678C17.8974 34.9116 20.8171 35.011 23.5122 37.4588ZM19.9452 34.177C17.9634 34.177 14 32.9087 14 27.8355C15.5193 29.2888 18.8354 32.5916 19.9452 34.177Z" stroke="#FFB948" stroke-width="0.396341"/>
<path d="M32.2317 15.5488V11.1891L29.8536 15.3507L32.2317 15.5488Z" fill="#FFB948"/>
<path d="M32.2318 24.0704L32.2318 28.4302L34.6098 24.2686L32.2318 24.0704Z" fill="#FFB948"/>
<path d="M36.1951 20.1068L40.5549 20.1068L36.3933 17.7288L36.1951 20.1068Z" fill="#FFB948"/>
<path d="M28.2683 20.1068L23.9085 20.1068L28.0701 22.4849L28.2683 20.1068Z" fill="#FFB948"/>
<path d="M32.2318 15.5488V11.1891L34.6098 15.3507L32.2318 15.5488Z" fill="#8E5B23"/>
<path d="M32.2317 24.0704L32.2317 28.4302L29.8536 24.2686L32.2317 24.0704Z" fill="#8E5B23"/>
<path d="M36.1951 20.1068L40.5549 20.1068L36.3933 22.4849L36.1951 20.1068Z" fill="#8E5B23"/>
<path d="M28.2683 20.1068L23.9085 20.1068L28.0701 17.7288L28.2683 20.1068Z" fill="#8E5B23"/>
<circle cx="32.2317" cy="19.7104" r="5.15244" fill="#FFB948"/>
<circle cx="32.2316" cy="19.7105" r="4.35976" fill="#8E5B23"/>
<circle cx="32.2317" cy="19.7105" r="3.56707" fill="#FFB948"/>
</svg>
