<svg width="65" height="60" viewBox="0 0 65 60" fill="none" xmlns="http://www.w3.org/2000/svg">
<g clip-path="url(#clip0)">
<path d="M37.256 24.7712L34.4816 28.1401C34.5706 28.3924 34.7036 28.6953 34.8779 29.0079M40.0304 28.1401L38.0487 30.9145C37.7707 30.984 37.5062 30.998 37.256 30.9676M34.8779 29.0079L32.1035 32.6981M34.8779 29.0079C35.3663 29.8839 36.1787 30.8366 37.256 30.9676M37.256 30.9676L34.0853 35.4725M30.1218 35.2743L24.1767 43.2011M24.1767 43.2011C24.1107 43.9938 24.5334 45.4999 26.7529 45.1828M24.1767 43.2011C23.2519 43.3332 21.3627 43.7164 21.2042 44.192C21.006 44.7865 21.6005 49.1462 21.9968 49.1462C22.3932 49.1462 26.3566 48.9481 26.5548 48.1554C26.7133 47.5212 26.7529 45.9095 26.7529 45.1828M26.7529 45.1828L32.1035 38.0487" stroke="#FFB948" stroke-width="0.792683"/>
<path d="M38.6432 25.564L36.8596 19.817L42.6066 21.6006L43.3993 23.3841C44.6675 26.7134 49.2123 26.6209 51.3261 26.1585C51.1675 30.2804 45.7112 32.7642 43.0029 33.4908C45.0639 30.4786 42.1442 27.6117 40.4267 26.5548L38.6432 25.564Z" stroke="#FFB948" stroke-width="0.396341"/>
<path d="M42.8047 15.2591L48.5517 13.0792M42.8047 15.2591V18.628L41.6157 20.2134L43.2011 20.8079M42.8047 15.2591L44.9846 18.0335M48.5517 13.0792V18.8262M48.5517 13.0792L44.9846 18.0335M48.5517 18.8262L44.9846 20.2134L43.9938 21.6006L43.2011 20.8079M48.5517 18.8262L44.9846 18.0335M43.2011 20.8079L44.9846 18.0335" stroke="#FFB948" stroke-width="0.792683"/>
<path d="M41.0213 20.0152C40.6249 19.3546 39.9511 17.756 40.4267 16.6463C40.6249 16.1839 40.9024 15.2987 40.4267 15.4572C39.3804 15.9945 37.8717 16.9507 36.4633 18.192M36.8596 23.7804C36.1991 23.8465 34.2834 24.2164 33.4908 24.3749C32.6981 24.5335 32.632 24.441 32.6981 24.3749C32.833 22.621 34.0081 20.8328 35.2743 19.4207" stroke="#FFB948" stroke-width="0.792683"/>
<path d="M38.0488 27.1493L34.7884 18.274C34.6701 17.952 34.9891 17.6419 35.3077 17.7694L43.3994 21.006C43.7957 22.5914 45.3811 23.7804 47.3628 23.7804C48.9969 23.7804 51.3262 22.7896 51.3262 21.2042C51.3262 19.9359 52.1189 19.751 52.5152 19.817C55.5274 23.1463 54.2988 27.2814 53.3079 28.9329L53.9024 30.1219C52.7134 33.2926 50.9299 34.2835 49.7408 35.2743L47.7591 32.8963L47.3628 36.6615C46.8872 37.2957 43.4654 37.3221 41.814 37.256C40.5589 36.7936 37.8902 35.7499 37.2561 35.2743C36.6219 34.7987 37.2561 34.5477 37.6524 34.4816C42.25 33.0548 41.0213 29.3953 39.8323 27.7438L38.0488 27.1493Z" stroke="#FFB948" stroke-width="0.792683"/>
<circle cx="40.8231" cy="23.7804" r="2.57622" stroke="#FFB948" stroke-width="0.396341"/>
<path d="M27.0696 25.1676L29.844 28.5365C29.7549 28.7887 29.6219 29.0916 29.4476 29.4043M24.2952 28.5365L26.2769 31.3109C26.5549 31.3804 26.8194 31.3943 27.0696 31.3639M29.4476 29.4043C28.9593 30.2802 28.1469 31.233 27.0696 31.3639M29.4476 29.4043L40.1488 43.5975M27.0696 31.3639L37.5726 45.5792M40.1488 43.5975C40.2149 44.3902 39.7921 45.8963 37.5726 45.5792M40.1488 43.5975C41.0736 43.7296 42.9629 44.1127 43.1214 44.5883C43.3196 45.1828 42.7251 49.5426 42.3287 49.5426C41.9324 49.5426 37.9689 49.3444 37.7708 48.5517C37.6123 47.9176 37.5726 46.3058 37.5726 45.5792" stroke="#FFB948" stroke-width="0.792683"/>
<path d="M25.6824 25.9603L27.4659 20.2134L21.719 21.9969L20.9263 23.7805C19.658 27.1097 15.1133 27.0172 12.9995 26.5548C13.158 30.6768 18.6143 33.1605 21.3226 33.8872C19.2617 30.875 22.1814 28.0081 23.8989 26.9512L25.6824 25.9603Z" stroke="#FFB948" stroke-width="0.396341"/>
<path d="M21.5208 15.6555L15.7739 13.4756M21.5208 15.6555V19.0244L22.7098 20.6097L21.1245 21.2042M21.5208 15.6555L19.3409 18.4299M15.7739 13.4756V19.2225M15.7739 13.4756L19.3409 18.4299M15.7739 19.2225L19.3409 20.6097L20.3318 21.9969L21.1245 21.2042M15.7739 19.2225L19.3409 18.4299M21.1245 21.2042L19.3409 18.4299" stroke="#FFB948" stroke-width="0.792683"/>
<path d="M23.3043 20.4115C23.7007 19.751 24.3744 18.1524 23.8988 17.0426C23.7006 16.5802 23.4232 15.6951 23.8988 15.8536C24.9451 16.3909 26.4539 17.347 27.8623 18.5884M27.4659 24.1768C28.1265 24.2428 30.0421 24.6128 30.8348 24.7713C31.6275 24.9298 31.6935 24.8374 31.6275 24.7713C31.4926 23.0174 30.3175 21.2292 29.0513 19.817" stroke="#FFB948" stroke-width="0.792683"/>
<path d="M26.2769 27.5457L29.5372 18.6704C29.6555 18.3483 29.3366 18.0383 29.018 18.1657L20.9263 21.4024C20.53 22.9878 18.9446 24.1768 16.9629 24.1768C15.3287 24.1768 12.9995 23.1859 12.9995 21.6006C12.9995 20.3323 12.2068 20.1473 11.8105 20.2134C8.79826 23.5426 10.0269 27.6778 11.0178 29.3292L10.4233 30.5183C11.6123 33.689 13.3958 34.6798 14.5848 35.6707L16.5666 33.2926L16.9629 37.0579C17.4385 37.692 20.8603 37.7185 22.5117 37.6524C23.7668 37.19 26.4355 36.1463 27.0696 35.6707C27.7038 35.1951 27.0696 34.9441 26.6733 34.878C22.0757 33.4512 23.3044 29.7916 24.4934 28.1402L26.2769 27.5457Z" stroke="#FFB948" stroke-width="0.792683"/>
<circle r="2.57622" transform="matrix(-1 0 0 1 23.5025 24.1769)" stroke="#FFB948" stroke-width="0.396341"/>
</g>
<defs>
<clipPath id="clip0">
<rect width="65" height="60" fill="white"/>
</clipPath>
</defs>
</svg>
