<svg xmlns="http://www.w3.org/2000/svg" viewBox="0 0 22 22">
  <title>Zero to Heroes - logo</title>
  <path id="path8536" d="M5.65,12s-1.88,8.84,5.84,8.84c6.91,0,5.22-8.9,5.22-8.9l-2-3.17L7.47,8.1Z" fill="#fff"/>
    <path d="M7.3,3.7,5.6,12.1C8,8.9,14.3,9.2,16.7,12L14.5,3.6ZM17.9,2.2a.2.2,0,0,0-.5-.2l-.3.9.4-1.2a.2.2,0,1,0-.5-.2v.3a.2.2,0,1,0-.5-.2l-.3.9-.5-.2a.2.2,0,0,0-.3.2h0a.2.2,0,0,0,.2.3l1.7.5a.2.2,0,0,0,.3-.2h0Zm-1.2.6h0l.3-.9Zm.1.7h0a.4.4,0,0,0-.6.3c-.1.5-.2,1.1-.3,1.6S15.6,7,15.6,7l.7-1.4L17,4.1A.4.4,0,0,0,16.7,3.6ZM6.7,2.8h0a.2.2,0,0,0-.3-.2l-.5.2-.3-.9a.2.2,0,1,0-.5.2V1.7a.2.2,0,1,0-.5.2l.4,1.2-.3-.9a.2.2,0,0,0-.5.2l.3,1.1h0a.2.2,0,0,0,.3.2l1.7-.5A.2.2,0,0,0,6.7,2.8ZM6.4,7.1s-.2-1.4-.3-1.5S6,4.5,5.8,4a.5.5,0,0,0-.9.3l.7,1.4Z"/>
    <path d="M5.6,14.8c-.7,8,11.4,8.3,11.1.5l-1.5-1.1-2.3,1.5-2.2-2.6L8.1,16.5Z" fill="#ece8e8"/>
    <path d="M10.9,12.7c.4-.9,3.8-5.6,3.8-8.4A3.5,3.5,0,0,0,11,1,3.7,3.7,0,0,0,7.2,4.9c.1,2.6,2.7,6.5,3.7,7.9Z" fill="#ece8e8"/>
    <path d="M10.9,12.7C8.6,8.3,7.1,3,9.7,1.2A3.8,3.8,0,0,0,7.2,4.9C7.3,7.4,9.9,11.3,10.9,12.7Z" fill="#beb2b2"/>
    <path d="M5.6,14.8c-.5,6,6.1,7.7,9.4,4.9C9.8,22.7,5.7,18,6,15.1Z" fill="#beb2b2"/>
    <path d="M7.3,11.8l-.7.9.7,1.9,1.4-1.3Z" fill="#ece8e8"/>
    <path d="M14.3,11.5l-.5-.3-1,.3.7.7Z" fill="#beb2b2"/>
    <path d="M14.5,3.4a26,26,0,0,1-7.1.1,3.6,3.6,0,0,0-.2,1.3,7.6,7.6,0,0,0,.5,2.2A27.3,27.3,0,0,1,14,7a7.6,7.6,0,0,0,.7-2.6,3,3,0,0,0-.1-.9Z"/>
    <path d="M12.4,4.5a.5.5,0,1,0,.5.5A.5.5,0,0,0,12.4,4.5Zm-2.9.1a.4.4,0,1,0,.4.4A.4.4,0,0,0,9.5,4.6Z" fill="#fff"/>
</svg>
