<svg width="65" height="60" viewBox="0 0 65 60" fill="none" xmlns="http://www.w3.org/2000/svg">
<path d="M21.8738 26.6139C21.8738 26.6139 21.4018 21.3069 25.3412 16C25.3412 16 30.853 19.5403 31.561 25.7878" stroke="#FFB948" stroke-width="0.694172" stroke-miterlimit="10"/>
<path d="M26.6671 25.7773L23.9737 26.0238C23.9737 26.0238 23.6822 22.8861 25.8445 19.5853L26.6671 25.7773Z" fill="#FFB948"/>
<path d="M29.4507 25.5205L26.6671 25.7773L25.8445 19.5853C25.8514 19.5714 25.8618 19.554 25.8722 19.5402C25.8722 19.5402 28.9752 22.119 29.4507 25.5205Z" fill="#8E5B23"/>
<path d="M42.5498 26.6139C42.5498 26.6139 43.0219 21.3069 39.0825 16C39.0825 16 33.5707 19.5403 32.8627 25.7878" stroke="#FFB948" stroke-width="0.694172" stroke-miterlimit="10"/>
<path d="M37.7566 25.7773L40.45 26.0238C40.45 26.0238 40.7415 22.8861 38.5792 19.5853L37.7566 25.7773Z" fill="#8E5B23"/>
<path d="M34.9729 25.5205L37.7565 25.7773L38.5791 19.5853C38.5722 19.5714 38.5618 19.554 38.5514 19.5402C38.5514 19.5402 35.4484 22.119 34.9729 25.5205Z" fill="#FFB948"/>
<path d="M18.1773 28.1826C18.1773 28.1826 16.8966 28.6755 15.8345 29.4287L11.7007 25.0207C12.8114 24.9617 16.1954 25.0623 18.1773 28.1826Z" fill="#FFB948"/>
<path d="M15.9976 34.9716L10 22.3099C10 22.3099 16.9383 21.7997 20.3779 26.9574" stroke="#FFB948" stroke-width="0.694172" stroke-miterlimit="10"/>
<path d="M15.8345 29.1579C15.0952 29.6855 14.4739 30.3484 14.5538 31.053L11.6903 25.1248C11.6903 25.1248 13.1377 25.1248 13.5646 25.1803L15.8345 29.1579Z" fill="#FFB948"/>
<path d="M53.299 24.8541C53.299 24.8541 48.6897 24.1877 46.208 28.0959C46.208 28.0959 50.5743 29.8105 50.196 31.5494C49.8212 33.2883 50.196 31.5494 50.196 31.5494L53.299 24.8541Z" fill="#8E5B23"/>
<path d="M49.2486 33.1599L54.441 22.1052C54.441 22.1052 47.3813 21.5846 43.8792 26.836" stroke="#FFB948" stroke-width="0.694172" stroke-miterlimit="10"/>
<path d="M46.51 39.1714C46.51 39.4907 46.4024 39.7996 46.1976 40.0981C44.837 42.1147 39.1066 43.6349 32.2447 43.6349C25.3794 43.6349 19.649 42.1147 18.2919 40.0981C18.0871 39.7996 17.9795 39.4907 17.9795 39.1714C17.9795 38.1475 19.0763 37.2069 20.9124 36.4537C22.0508 35.9886 23.4773 35.5964 25.1086 35.2979C27.205 34.9196 29.6451 34.7009 32.2447 34.7009C34.8062 34.7009 37.2081 34.9126 39.2836 35.2806C40.9358 35.5721 42.3796 35.9678 43.5354 36.4398C45.3993 37.193 46.51 38.1406 46.51 39.1714Z" stroke="#FFB948" stroke-width="0.694172" stroke-miterlimit="10"/>
<path d="M18.2955 40.0982L15.1925 33.1669L14.5435 31.6779C14.5435 28.6305 22.464 25.4685 32.231 25.4685C42.0015 25.4685 49.9185 28.6305 49.9185 31.6779L49.2694 33.1669L46.4754 39.5602H46.3817" stroke="#FFB948" stroke-width="0.694172" stroke-miterlimit="10"/>
<path d="M15.1924 32.8233C16.9799 30.3659 23.814 27.8322 32.2308 27.8322C40.3527 27.8322 47.1903 30.4978 49.2693 32.8233" stroke="#FFB948" stroke-width="0.694172" stroke-miterlimit="10"/>
<path d="M32.2448 32.2748C29.6451 32.2748 27.2051 32.4934 25.1087 32.8718C23.4774 33.1703 22.0508 33.559 20.9124 34.0276C20.9124 34.0276 17.4034 35.3638 17.0806 36.9674" stroke="#FFB948" stroke-width="0.694172" stroke-miterlimit="10"/>
<path d="M32.2274 32.2748C34.8271 32.2748 37.2671 32.4934 39.3635 32.8718C40.9948 33.1703 42.4213 33.559 43.5598 34.0276C43.5598 34.0276 48.1448 35.7734 47.3118 37.6685" stroke="#FFB948" stroke-width="0.694172" stroke-miterlimit="10"/>
</svg>
