<svg width="65" height="60" viewBox="0 0 65 60" fill="none" xmlns="http://www.w3.org/2000/svg">
<path d="M52.8293 44.8235C52.8293 44.9568 52.8213 45.0902 52.8052 45.2196H52.8293V44.8235Z" fill="#FFB948"/>
<path d="M52.8294 13.0703V41.5291H16.457C15.4911 41.5291 14.6178 41.9134 13.982 42.5331C13.4749 43.0233 13.1288 43.6546 13 44.3605V16.5017C13 14.6076 14.5776 13.0703 16.5213 13.0703H52.8294Z" stroke="#FFB948" stroke-width="0.802008" stroke-miterlimit="10"/>
<path d="M28.9849 31.3331H16.457C15.4911 31.3331 14.6178 31.7174 13.982 32.3371C13.4749 32.8273 13.1288 33.4625 13 34.1684V30.7135V28.1331C13.1288 27.4272 13.4749 26.7959 13.9779 26.3057C14.6138 25.6861 15.4871 25.3018 16.4529 25.3018H27.19" stroke="#FFB948" stroke-width="0.802008" stroke-miterlimit="10"/>
<path d="M41.1626 25.3018H52.8293V28.1331V31.3331H39.4563" stroke="#FFB948" stroke-width="0.802008" stroke-miterlimit="10"/>
<path d="M34.2206 20.7764C35.1583 21.4313 37.2993 22.6862 40.6033 23.2626C40.7602 25.2862 40.7924 32.2626 34.2206 35.0862C31.0574 33.7293 29.0292 31.2901 28.1921 27.8313C27.7212 25.8862 27.7695 24.1215 27.8379 23.2626C31.142 22.6862 33.2829 21.4313 34.2206 20.7764ZM34.2206 19.7803C34.2206 19.7803 31.7979 21.9175 27.1055 22.5842C27.1055 22.5842 25.5118 32.4705 34.2206 35.9411C42.9294 32.4744 41.3398 22.5842 41.3398 22.5842C36.6433 21.9175 34.2206 19.7803 34.2206 19.7803Z" fill="#FFB948"/>
<path d="M34.2206 33.3725V22.349C34.2206 22.349 35.8746 23.8078 39.078 24.2627C39.078 24.2627 40.1606 31.0078 34.2206 33.3725Z" fill="#8E5B23"/>
<path d="M34.2207 22.349V33.3725C28.2807 31.0039 29.3673 24.2627 29.3673 24.2627C32.5667 23.8078 34.2207 22.349 34.2207 22.349Z" fill="#FFB948"/>
<path d="M13 44.3607L13.004 45.1567C13.004 47.0038 14.5534 48.5136 16.4489 48.5136H48.7809H52.8334V41.5293" stroke="#FFB948" stroke-width="0.802008" stroke-miterlimit="10"/>
<path d="M52.8294 45.0233H17.0284" stroke="#FFB948" stroke-width="0.802008" stroke-miterlimit="10"/>
<path d="M24.4373 13.0708L16.8473 20.412V13.0708H24.4373Z" fill="#FFB948"/>
<path d="M52.8293 20.4392L45.2957 13.0431H52.8293V20.4392Z" fill="#FFB948"/>
<path d="M45.2394 41.5371L52.8294 34.1959V41.5371H45.2394Z" fill="#FFB948"/>
<path d="M16.8473 34.1685L24.385 41.5645H16.8473V34.1685Z" fill="#FFB948"/>
<path d="M44.6479 45.251H40.0963V53.5059H44.6479V45.251Z" fill="#FFB948"/>
<path d="M37.5006 45.251H32.949V50.6118H37.5006V45.251Z" fill="#FFB948"/>
<path d="M29.7576 8.302H25.2061V12.7373H29.7576V8.302Z" fill="#FFB948"/>
<path d="M37.1224 6H32.5708V12.7373H37.1224V6Z" fill="#FFB948"/>
</svg>
