<svg width="65" height="60" viewBox="0 0 65 60" fill="none" xmlns="http://www.w3.org/2000/svg">
<path d="M22.647 16.0018C20.8748 13.1663 17.4782 12.1621 16.0014 12.0144C16.4444 16.7402 20.166 25.7488 31.5079 23.9766L35.7169 22.6475C31.2864 24.4197 26.1914 28.4071 20.8748 27.964C15.5583 27.521 13.7861 19.9892 15.5583 20.8753C17.3305 21.7614 20.8748 22.2044 21.3179 22.2044" stroke="#FFB948"/>
<path d="M20.2103 33.2806C20.3756 31.4614 20.8504 29.4007 21.1836 27.9641M43.4701 31.0654C44.2258 27.9169 40.1665 19.7933 34.8308 17.774" stroke="#FFB948"/>
<path d="M26.4129 36.3819C25.3496 34.2553 21.0225 32.8375 19.1027 32.8375C19.1027 33.9008 17.6259 36.5296 16.8875 37.711L17.7735 39.0401C19.2504 39.4832 23.6083 39.5458 26.1914 41.6984C28.8497 43.9136 28.4066 44.7997 33.2801 47.458C37.1789 49.5846 41.1811 50.5593 42.8056 49.6732C42.5102 49.6732 42.4955 49.053 42.141 48.3441C41.7866 47.6352 41.698 38.0064 41.698 33.2806L39.0397 32.8375C38.5967 32.6898 38.2089 32.7089 37.5 32C36.7911 31.2911 36.5291 30.0316 36.8245 29.7362C37.1198 29.7362 37.9764 29.8248 39.0397 30.1792C40.103 30.5337 41.2549 31.8037 41.698 32.3945L43.9132 32.8375C43.9132 32.8375 44.3562 31.2317 44.3562 30.1792C44.3562 28.8501 39.0397 26.848 39.0397 26.848L33.9447 26.6349L33.0586 31.5084C33.5016 33.5759 34.0776 34.8755 35.4953 35.9388C36.9131 37.0021 38.1536 36.9726 38.5967 36.8249V46.1289L27.9636 38.5971C27.8159 38.4494 27.4762 38.5085 26.4129 36.3819Z" fill="#FFB948"/>
<path d="M40.1473 35.9388C36.2485 35.9388 33.0586 34.1667 35.7169 26.6349H33.9447C33.6054 28.1617 32.6155 31.5084 32.6155 31.5084C32.6155 31.5084 33.0586 36.987 38.3751 36.987L37.9321 44.7997L28.6281 38.1541C25.9699 34.1667 23.3116 32.8375 18.8811 32.8375L17.9951 35.9388C18.4381 36.3819 19.7144 35.7085 21.0964 35.9388C23.7546 36.3819 25.0838 37.5633 26.4129 39.0401L39.2612 48.3441L40.1473 35.9388Z" fill="#8E5B23"/>
<path d="M23.0901 16.8879C20.9634 14.4069 23.09 8.47009 23.7546 5.36877C26.5901 6.14591 29.3665 11.776 29.9573 13.3436C36.6029 16.8879 36.6029 23.0906 36.6029 23.0906C35.3498 21.8375 25.7483 19.9893 23.0901 16.8879Z" stroke="#FFB948"/>
</svg>
