<svg width="65" height="60" viewBox="0 0 65 60" fill="none" xmlns="http://www.w3.org/2000/svg">
<path d="M50.1781 31.8473L18.6892 23.4098C17.429 23.0722 16.1336 23.82 15.796 25.0802L11.3938 41.5092C11.0562 42.7694 11.804 44.0648 13.0642 44.4024L42.2713 52.2285C43.5315 52.5661 44.8269 51.8183 45.1645 50.5581L50.1781 31.8473Z" stroke="#FFB948" stroke-width="0.944919"/>
<path fill-rule="evenodd" clip-rule="evenodd" d="M28.9117 44.3148C31.491 44.9109 34.0652 43.3033 34.6613 40.724C35.2575 38.1447 33.6499 35.5705 31.0706 34.9744C28.4913 34.3782 25.9171 35.9858 25.3209 38.5651C24.7248 41.1444 26.3324 43.7186 28.9117 44.3148ZM28.0572 41.7172L32.753 40.2829L29.1629 36.9334L28.0572 41.7172Z" fill="#FFB948"/>
<path d="M52.1565 29.6879C52.4509 29.2612 52.3466 28.6771 51.9227 28.3786L24.1736 8.84035C23.7521 8.54362 23.1706 8.63936 22.8666 9.05554L21.6641 10.7014C21.3504 11.1308 21.4527 11.7346 21.8905 12.0366L50.6469 31.8759L52.1565 29.6879Z" fill="#FFB948"/>
<rect width="35.9069" height="4.72459" transform="matrix(-0.965926 -0.258819 -0.258819 0.965926 50.7567 31.5132)" fill="#FFB948"/>
<path d="M43.8386 34.5507L50.5216 31.8055L49.9668 31.2506L44.5868 29.86L37.6686 32.8975L43.8386 34.5507Z" fill="#8E5B23"/>
<path d="M32.8859 31.6159L39.8041 28.5784L33.6341 26.9251L26.7159 29.9627L32.8859 31.6159Z" fill="#8E5B23"/>
<path d="M50.3367 27.1818L50.5216 31.8054L45.3432 28.2914L44.9733 23.4829L50.3367 27.1818Z" fill="#8E5B23"/>
<path d="M41.6443 21.0787L41.6443 25.7023L35.726 21.6335L35.726 17.0099L41.6443 21.0787Z" fill="#8E5B23"/>
<path d="M31.2874 13.8658L31.4723 18.6744L26.1308 14.9755L26.1308 10.2408L31.2874 13.8658Z" fill="#8E5B23"/>
<path d="M21.9332 28.6812L28.8514 25.6437L22.6814 23.9904L15.7632 27.028L21.9332 28.6812Z" fill="#8E5B23"/>
</svg>
