<svg width="100" height="101" viewBox="0 0 100 101" fill="none"
	xmlns="http://www.w3.org/2000/svg">
	<circle opacity="0.4" cx="50" cy="50" r="28" fill="#7A35A0"/>
	<circle opacity="0.6" cx="50" cy="50" r="22" fill="#7A35A0"/>
	<circle cx="50" cy="50" r="16" fill="#7A35A0"/>
	<path d="M15.7905 48.2214L51.0699 38.7683C52.74 38.3208 54.4566 39.3119 54.9041 40.982L59.7657 59.1257C60.2132 60.7957 59.2221 62.5124 57.552 62.9599L25.2966 71.6027C23.6265 72.0502 21.9099 71.0591 21.4624 69.389L15.7905 48.2214Z" fill="url(#amazing-plays-paint0_linear)"/>
	<circle cx="38.7234" cy="57.2015" r="5.29361" transform="rotate(-15 38.7234 57.2015)" fill="#CB9FD7"/>
	<path d="M41.7474 56.3912L37.9131 60.2254L36.5097 54.9877L41.7474 56.3912Z" fill="#32093D"/>
	<path d="M14.2447 46.2055C13.9196 45.7343 14.0348 45.0892 14.5028 44.7596L45.1482 23.1821C45.6136 22.8544 46.2558 22.9601 46.5916 23.4198L47.9195 25.2374C48.2661 25.7117 48.153 26.3784 47.6695 26.7119L15.9118 48.6219L14.2447 46.2055Z" fill="#33093E"/>
	<rect x="15.7905" y="48.2214" width="39.6545" height="5.2177" transform="rotate(-15 15.7905 48.2214)" fill="#33093E"/>
	<path d="M23.4308 51.5759L15.7905 48.2214L22.6045 46.3956L30.2447 49.7501L23.4308 51.5759Z" fill="#CB9FD7"/>
	<path d="M35.5266 48.3348L27.8863 44.9803L34.7003 43.1545L42.3405 46.5091L35.5266 48.3348Z" fill="#CB9FD7"/>
	<path d="M16.5911 43.1453L15.9256 48.7254L21.8022 44.4498L22.0988 39.5088L16.5911 43.1453Z" fill="#CB9FD7"/>
	<path d="M26.0945 36.2774L25.933 41.7224L32.3137 37.3118L32.4752 31.8668L26.0945 36.2774Z" fill="#CB9FD7"/>
	<path d="M37.4789 28.3653L36.8134 33.9454L42.8251 30.1739L42.9866 24.7288L37.4789 28.3653Z" fill="#CB9FD7"/>
	<path d="M47.6224 45.0938L39.9821 41.7393L46.7961 39.9135L54.4363 43.268L47.6224 45.0938Z" fill="#CB9FD7"/>
	<rect x="54" y="26.4995" width="9" height="1" rx="0.5" transform="rotate(-46.2331 54 26.4995)" fill="#A276AF"/>
	<rect x="59.3779" y="30.2871" width="9" height="1" rx="0.5" transform="rotate(-34.6767 59.3779 30.2871)" fill="#A276AF"/>
	<rect x="60.0501" y="35" width="9" height="1" rx="0.5" transform="rotate(2.87338 60.0501 35)" fill="#A276AF"/>
	<circle cx="52" cy="33" r="1" fill="#CB9FD7"/>
	<circle cx="54" cy="16" r="1" fill="#CB9FD7"/>
	<circle cx="62" cy="41" r="1" fill="#CB9FD7"/>
	<defs>
		<linearGradient id="amazing-plays-paint0_linear" x1="20.5" y1="62.5" x2="57.5" y2="53" gradientUnits="userSpaceOnUse">
			<stop stop-color="#32093D"/>
			<stop offset="1" stop-color="#5C0772"/>
		</linearGradient>
	</defs>
</svg>
