<svg fill="none" height="101" viewBox="0 0 100 101" width="100"
	xmlns="http://www.w3.org/2000/svg">
	<circle cx="50" cy="50" fill="#7A35A0" opacity="0.4" r="28"/>
	<circle cx="50" cy="50" fill="#7A35A0" opacity="0.6" r="22"/>
	<circle cx="50" cy="50" fill="#7A35A0" r="16"/>
	<path d="M32.2135 54.5937L36.9831 52.2482L36.6549 57.3367L32.2135 54.5937Z" fill="#5A5F87"/>
	<path d="M74.7142 65.9817L71.7564 61.5657L67.7887 66.7142L74.7142 65.9817Z" fill="#5A5F87"/>
	<path d="M34.0438 32.308L36.879 58.432C55.7909 58.9442 65.3654 64.1668 67.7887 66.7142L84.0131 46.7325L71.4815 49.0687C71.4815 49.0687 70.0951 23.3329 64.2996 21.78C57.9472 20.0779 43.9526 41.6923 43.9526 41.6923L34.0438 32.308Z" fill="url(#battlegrounds-paint0_linear)"/>
	<path d="M35.1738 30.0226C30.9237 28.8838 32.5402 32.7679 33.8797 34.8522C33.966 34.5303 34.3576 33.8415 35.2339 33.6622C36.1102 33.4829 41.5609 39.6712 44.1767 42.7877C46.6817 38.0755 56.3356 28.9636 60.8495 24.9967L58.6149 35.2684L46.9451 44.0471L52.5673 55.9063L52.1791 57.3552L56.5257 58.5199L56.914 57.071L67.359 48.9994L61.9956 36.1742L65.1962 26.1614C66.6104 28.6109 69.5496 48.5511 70.6103 50.3882C71.671 52.2253 79.1488 47.4997 81.6931 47.6638C83.7284 47.7951 82.518 49.0927 81.6584 49.7251C83.323 49.3083 86.6401 47.747 86.592 44.8354C86.544 41.9237 77.3379 44.5988 72.7409 46.3003C72.1925 38.0437 69.7693 21.0716 64.4637 19.2358C59.158 17.4001 48.5389 31.0156 43.8925 38.0528C42.7572 35.8506 39.4239 31.1614 35.1738 30.0226Z" fill="url(#battlegrounds-paint1_linear)"/>
	<path d="M43.0975 56.4747L37.3967 56.5001L36.879 58.432C38.8225 58.2625 44.9568 58.4223 53.9468 60.4171C62.9369 62.4119 66.9206 65.4463 67.7887 66.7142L69.5311 64.0752L66.7627 62.8158C71.5859 58.7247 68.7154 54.8843 66.6772 53.4754C60.4676 53.468 60.542 57.6981 61.3554 59.814C52.0067 56.0667 48.0365 56.0727 47.22 56.5441C50.0577 53.681 47.8517 47.0791 44.3315 48.0055C40.4332 49.0315 42.0368 54.6376 43.0975 56.4747Z" fill="#9FB6D7"/>
	<path d="M35.5239 57.0477C34.5158 57.7121 36.0358 59.5181 36.9738 60.0103C52.8931 68.3645 69.6448 69.1108 68.9228 65.9968C68.2008 62.8829 63.3265 59.8246 53.6336 57.2274C42.9847 54.374 36.7841 56.2171 35.5239 57.0477Z" fill="#9FB6D7"/>
	<path d="M40.0312 58.8266C39.3245 59.0648 40.6125 60.05 41.358 60.36C54.0108 65.6211 66.688 67.3056 65.8974 65.7574C65.1069 64.2092 61.1931 62.3588 53.6863 60.3473C45.4391 58.1375 40.9146 58.5287 40.0312 58.8266Z" fill="url(#battlegrounds-paint2_linear)"/>
	<path d="M63.8554 62.0749C61.2164 60.3325 62.5406 55.3908 66.1501 55.4428C66.5908 55.3433 69.8844 56.9611 67.1807 57.3921L70.0392 62.1789L63.8554 62.0749Z" fill="#5A5F87"/>
	<path d="M63.9848 61.592C62.1084 57.7763 64.8822 56.3109 66.5036 56.0552C66.9444 55.9557 67.6532 56.2726 67.9525 56.4434L70.5221 62.3084L63.9848 61.592Z" fill="#5A5F87"/>
	<path d="M45.2882 56.0264C44.5154 55.8194 40.9235 52.9971 40.2595 51.6113L45.0386 49.2303C48.8677 52.3268 46.2541 56.2853 45.2882 56.0264Z" fill="#5A5F87"/>
	<path d="M64.9441 48.3523L60.1585 37.2349L49.8429 44.8236L55.1115 56.0704L64.9441 48.3523Z" fill="#8A158C"/>
	<path d="M63.6247 47.4811L60.2532 38.8132L58.4415 45.5747L63.6247 47.4811Z" fill="url(#battlegrounds-paint3_linear)"/>
	<path d="M54.5685 52.3014L51.1624 45.6947L56.2508 46.0229L54.5685 52.3014Z" fill="url(#battlegrounds-paint4_linear)"/>
	<path d="M49.8429 44.8236L57.9585 45.4452L55.2409 55.5874M49.8429 44.8236L60.1585 37.2349L64.8147 48.8353L55.2409 55.5874M49.8429 44.8236L55.2409 55.5874" stroke="#3B1F42"/>
	<path d="M42.5 16L43.7154 19.2846L47 20.5L43.7154 21.7154L42.5 25L41.2846 21.7154L38 20.5L41.2846 19.2846L42.5 16Z" fill="#FF9029"/>
	<path d="M25.5 39L26.1752 40.8248L28 41.5L26.1752 42.1752L25.5 44L24.8248 42.1752L23 41.5L24.8248 40.8248L25.5 39Z" fill="#FF9029"/>
	<path d="M27.5 24L28.1752 25.8248L30 26.5L28.1752 27.1752L27.5 29L26.8248 27.1752L25 26.5L26.8248 25.8248L27.5 24Z" fill="#FF9029"/>
	<defs>
		<linearGradient gradientUnits="userSpaceOnUse" id="battlegrounds-paint0_linear" x1="57.2099" x2="52.8168" y1="25.0568" y2="62.7025">
			<stop offset="0.0857325" stop-color="#3A4161"/>
			<stop offset="1" stop-color="#767FAF"/>
		</linearGradient>
		<linearGradient gradientUnits="userSpaceOnUse" id="battlegrounds-paint1_linear" x1="63.9114" x2="83.3661" y1="23.229" y2="49.1474">
			<stop stop-color="#C8D6EC"/>
			<stop offset="1" stop-color="#9FB6D7"/>
		</linearGradient>
		<linearGradient gradientUnits="userSpaceOnUse" id="battlegrounds-paint2_linear" x1="53.4639" x2="52.4286" y1="60.2877" y2="64.1514">
			<stop stop-color="#42445A"/>
			<stop offset="1" stop-color="#5A5F87"/>
		</linearGradient>
		<linearGradient gradientUnits="userSpaceOnUse" id="battlegrounds-paint3_linear" x1="60.6068" x2="60.7269" y1="39.4255" y2="46.7047">
			<stop stop-color="#F9E8FE" stop-opacity="0.44"/>
			<stop offset="1" stop-color="#D370F0"/>
		</linearGradient>
		<linearGradient gradientUnits="userSpaceOnUse" id="battlegrounds-paint4_linear" x1="53.836" x2="52.1537" y1="45.3759" y2="51.6544">
			<stop stop-color="#F30FC6"/>
			<stop offset="1" stop-color="#5F084E" stop-opacity="0"/>
		</linearGradient>
	</defs>
</svg>