<svg width="100" height="101" viewBox="0 0 100 101" fill="none"
	xmlns="http://www.w3.org/2000/svg">
	<circle opacity="0.4" cx="50" cy="50" r="28" fill="#7A35A0"/>
	<circle opacity="0.6" cx="50" cy="50" r="22" fill="#7A35A0"/>
	<circle cx="50" cy="50" r="16" fill="#7A35A0"/>
	<rect x="50.9765" y="13" width="32.161" height="49.226" rx="2.62539" transform="rotate(20.1738 50.9765 13)" fill="#FFB948"/>
	<rect x="52.7935" y="16.8854" width="26.6892" height="43.0785" rx="2.62539" transform="rotate(20.1738 52.7935 16.8854)" fill="#472406"/>
	<path d="M52.092 18.7947C52.4853 17.7243 53.6475 17.1487 54.7373 17.4848C55.5045 17.7213 56.0754 18.3666 56.2167 19.1569L64.0352 62.8826C64.3935 64.8864 62.4338 66.5181 60.528 65.8026L40.3777 58.2374C39.027 57.7303 38.3386 56.2283 38.8361 54.8741L52.092 18.7947Z" fill="#2E1704"/>
	<path opacity="0.3" d="M65.1133 37.4649C65.1133 37.4649 64.739 38.5205 63.9464 39.4442C63.9214 39.4679 63.8912 39.506 63.8662 39.5297C63.8662 39.5297 63.8515 39.5245 63.8566 39.51C63.4449 40.0152 62.7257 40.2161 62.0616 39.9806C61.914 39.9283 61.7766 39.8471 61.6393 39.7658C61.6149 39.7409 61.6002 39.7356 61.5758 39.7107C61.561 39.7055 61.5514 39.6858 61.5366 39.6806C60.8377 39.0746 60.6453 37.8832 61.939 36.8116C64.8008 34.4565 63.7497 32.4071 62.187 30.1601C62.187 30.1601 61.3643 34.2149 55.6773 36.0569C55.3353 33.038 53.2522 30.5251 53.2522 30.5251C53.9337 35.2108 52.301 37.2855 50.8761 38.9617C50.2188 39.7379 49.6527 40.7256 49.2938 41.7379C49.2887 41.7523 49.2835 41.7668 49.2733 41.7957C49.2681 41.8102 49.263 41.8247 49.2528 41.8536C47.725 46.163 50.0855 50.9394 54.5133 52.5091C56.8009 53.3201 59.2004 53.1126 61.2044 52.1463C62.1737 51.7085 63.0421 51.0397 63.7847 50.1634C64.4016 49.4543 64.9062 48.6401 65.2491 47.7198C65.2594 47.6909 65.2645 47.6765 65.2747 47.6475C66.3765 44.9614 66.9058 40.2817 65.1133 37.4649ZM61.4285 46.5933C61.3676 46.7182 61.3067 46.8431 61.2259 46.9773C61.0843 47.2364 60.9278 47.4902 60.8304 47.765C60.7484 47.9963 60.5592 48.1083 60.3847 48.2255C60.0858 48.4126 59.8799 48.6652 59.7473 48.9926C59.7062 49.1083 59.621 49.2083 59.5504 49.3135C59.5203 49.3516 59.4805 49.3701 59.4407 49.3885C59.0481 49.5587 58.6459 49.7091 58.263 49.8989C57.8999 50.0795 57.5034 50.1668 57.0928 50.2003L57.0781 50.1951C56.6617 50.2917 56.2716 50.2673 55.8987 50.0538C55.7171 49.9568 55.5343 49.9571 55.3315 49.9666C54.9408 49.9909 54.5654 49.9718 54.1715 49.8647C53.9597 49.8059 53.7877 49.7286 53.6465 49.5646C53.5393 49.4452 53.3526 49.3627 53.1902 49.3052C52.9983 49.2372 52.8167 49.1402 52.6505 48.9999C52.5382 48.8949 52.3906 48.8426 52.2731 48.7521C52.2096 48.6971 52.1313 48.6367 52.0928 48.558C52.0542 48.4792 52.0356 48.3912 52.0169 48.3032C51.9694 48.1561 51.9745 48.1416 52.1279 48.1309C52.3357 48.1069 52.5391 48.0488 52.7566 48.0445C52.994 48.031 53.2211 48.0464 53.4579 48.0815C53.7242 48.127 53.9571 48.0794 54.186 47.9489C54.4548 47.8 54.7455 47.8705 55.0118 47.9161C55.5097 48.0112 55.9947 47.9553 56.4843 47.9335C56.5683 47.9307 56.6479 47.8938 56.7274 47.8569C57.1347 47.692 57.5273 47.5219 57.9251 47.3373C58.0643 47.2727 58.1791 47.1832 58.2939 47.0936C58.4683 46.9764 58.628 46.854 58.7929 46.717C58.8378 46.6841 58.8679 46.646 58.8833 46.6026C58.9448 46.4291 59.0359 46.266 59.0627 46.0964C59.1023 45.7035 59.2748 45.3577 59.403 44.9962C59.485 44.7648 59.483 44.5361 59.4219 44.2866C59.366 44.0226 59.31 43.7586 59.2541 43.4946C59.2361 43.3579 59.1732 43.2542 59.0557 43.1638C58.6347 42.8517 58.1579 42.6501 57.6503 42.5353C57.3449 42.4596 57.0036 42.4851 56.6828 42.4528C56.6481 42.4568 56.6135 42.4608 56.5936 42.47C56.3203 42.5847 56.0471 42.6995 55.7738 42.8142C55.734 42.8327 55.6744 42.8604 55.6391 42.913C55.4673 43.2102 55.2608 43.5114 55.1332 43.8243C55.0365 44.0505 54.9589 44.316 55.0643 44.5813C55.1169 44.7139 55.1548 44.8413 55.2075 44.9739C55.2409 45.0671 55.3243 45.113 55.4231 45.1155C55.5912 45.1099 55.7645 45.09 55.9672 45.0804C55.9658 44.8032 55.974 44.5457 55.9573 44.3118C56.3492 44.1903 56.6932 44.3448 57.0327 44.4651C57.1802 44.5175 57.2926 44.6224 57.4299 44.7036C57.4447 44.7089 57.4543 44.7286 57.4639 44.7483C57.6457 45.2197 57.6992 45.6782 57.5152 46.1501C57.4434 46.3526 57.3325 46.5249 57.246 46.7221C57.2357 46.7511 57.196 46.7695 57.1761 46.7787C56.8681 46.8975 56.5455 47.011 56.2375 47.1297C56.183 47.143 56.1137 47.1509 56.0695 47.1353C55.6652 47.0571 55.2462 46.9736 54.8208 47.0019C54.7862 47.0059 54.7663 47.0151 54.7419 46.9902C54.482 46.8329 54.1817 46.7428 54.0321 46.4618C54.0032 46.4027 53.9993 46.32 53.9755 46.2464C53.9325 46.1335 53.8895 46.0206 53.8265 45.9169C53.5601 45.4968 53.3084 45.082 53.2755 44.5657C53.2638 44.3174 53.1335 44.0758 53.0326 43.8447C52.9896 43.7318 52.9761 43.6294 53.0075 43.494C53.0778 43.0143 53.3009 42.5724 53.4451 42.1189C53.481 42.0177 53.4726 41.9008 53.4591 41.7983C53.4558 41.6669 53.486 41.6287 53.6297 41.5983C53.8773 41.5559 54.1153 41.4937 54.3437 41.4119C54.5175 41.3433 54.6721 41.2353 54.8119 41.1221C55.0364 40.9575 55.2898 40.852 55.5574 40.8003C56.0879 40.6628 56.6184 40.5253 57.1683 40.4272C57.396 40.394 57.6475 40.4344 57.8695 40.4642C57.919 40.4655 57.9722 40.5495 57.9864 40.6033C58.0429 40.8187 58.0917 40.8686 58.3047 40.8301C58.6069 40.7745 58.7885 40.8714 58.9233 41.1471C58.9619 41.2259 59.0845 41.3019 59.1679 41.3478C59.3546 41.4302 59.5369 41.4786 59.7236 41.561C59.7679 41.5767 59.8314 41.6318 59.8507 41.6712C59.8738 41.7934 59.9573 41.8392 60.0606 41.8758C60.1543 41.8928 60.2127 41.9623 60.2313 42.0503C60.2493 42.1869 60.3424 42.2525 60.4707 42.2654C60.5644 42.2824 60.678 42.2901 60.7768 42.2925C60.8608 42.2898 60.9147 42.3252 60.9385 42.3987C61.0824 42.7427 61.2461 43.0775 61.3701 43.4308C61.4992 43.7696 61.6084 44.1176 61.7176 44.4656C61.7363 44.5536 61.735 44.6508 61.719 44.7428C61.6749 45.1016 61.6257 45.4748 61.5816 45.8336C61.5598 45.9887 61.5823 46.1595 61.5606 46.3145C61.5253 46.3672 61.4843 46.4828 61.4285 46.5933Z" fill="black"/>
	<path d="M64.6119 37.103C64.6119 37.103 64.2658 38.0791 63.5329 38.9331C63.5098 38.955 63.4819 38.9903 63.4588 39.0122C63.4588 39.0122 63.4451 39.0074 63.4499 38.994C63.0692 39.4611 62.4042 39.6469 61.7901 39.4292C61.6537 39.3808 61.5267 39.3057 61.3997 39.2305C61.3771 39.2075 61.3635 39.2026 61.3409 39.1796C61.3273 39.1748 61.3184 39.1565 61.3047 39.1517C60.6585 38.5914 60.4806 37.4898 61.6768 36.499C64.323 34.3213 63.351 32.4264 61.9062 30.3487C61.9062 30.3487 61.1454 34.0979 55.8869 35.8011C55.5708 33.0097 53.6447 30.6862 53.6447 30.6862C54.2748 35.0188 52.7651 36.9371 51.4476 38.487C50.8398 39.2048 50.3163 40.118 49.9845 41.054C49.9798 41.0674 49.975 41.0807 49.9656 41.1075C49.9608 41.1208 49.9561 41.1342 49.9466 41.161C48.534 45.1457 50.7166 49.5621 54.8107 51.0134C56.9259 51.7633 59.1446 51.5715 60.9975 50.678C61.8938 50.2733 62.6968 49.6548 63.3834 48.8446C63.9539 48.1889 64.4204 47.4361 64.7375 46.5852C64.7469 46.5584 64.7517 46.545 64.7612 46.5183C65.7799 44.0346 66.2693 39.7076 64.6119 37.103ZM61.2048 45.5435C61.1485 45.659 61.0922 45.7745 61.0175 45.8986C60.8865 46.1381 60.7418 46.3728 60.6518 46.6269C60.5759 46.8408 60.4009 46.9444 60.2396 47.0527C59.9632 47.2257 59.7729 47.4593 59.6502 47.762C59.6123 47.8689 59.5334 47.9614 59.4682 48.0587C59.4404 48.094 59.4036 48.111 59.3668 48.1281C59.0038 48.2854 58.6319 48.4245 58.2778 48.6C57.9421 48.767 57.5755 48.8477 57.1958 48.8787L57.1822 48.8739C56.7972 48.9632 56.4365 48.9407 56.0917 48.7432C55.9238 48.6535 55.7547 48.6538 55.5673 48.6626C55.206 48.6851 54.8589 48.6674 54.4946 48.5683C54.2988 48.514 54.1398 48.4425 54.0092 48.2909C53.9101 48.1805 53.7374 48.1042 53.5873 48.051C53.4099 47.9881 53.242 47.8985 53.0883 47.7687C52.9844 47.6717 52.8479 47.6233 52.7393 47.5397C52.6806 47.4887 52.6082 47.433 52.5726 47.3601C52.5369 47.2873 52.5197 47.2059 52.5025 47.1245C52.4585 46.9885 52.4632 46.9752 52.605 46.9652C52.7972 46.9431 52.9853 46.8893 53.1864 46.8853C53.4059 46.8728 53.6159 46.8871 53.8348 46.9195C54.081 46.9617 54.2964 46.9176 54.5081 46.797C54.7566 46.6593 55.0254 46.7245 55.2716 46.7666C55.732 46.8546 56.1805 46.8028 56.6331 46.7827C56.7108 46.7801 56.7844 46.746 56.8579 46.7119C57.2346 46.5594 57.5976 46.4021 57.9653 46.2314C58.0941 46.1717 58.2002 46.0889 58.3064 46.0061C58.4677 45.8977 58.6154 45.7845 58.7678 45.6579C58.8093 45.6275 58.8372 45.5922 58.8514 45.5521C58.9083 45.3916 58.9924 45.2409 59.0173 45.0841C59.0539 44.7208 59.2134 44.401 59.3319 44.0667C59.4077 43.8528 59.4059 43.6414 59.3494 43.4106C59.2977 43.1665 59.246 42.9224 59.1943 42.6783C59.1776 42.552 59.1194 42.4561 59.0108 42.3724C58.6215 42.0839 58.1806 41.8975 57.7113 41.7913C57.4289 41.7213 57.1133 41.7449 56.8167 41.715C56.7847 41.7187 56.7526 41.7224 56.7342 41.7309C56.4815 41.837 56.2289 41.9431 55.9762 42.0492C55.9394 42.0663 55.8843 42.0919 55.8516 42.1405C55.6928 42.4154 55.5019 42.6939 55.3839 42.9832C55.2944 43.1923 55.2228 43.4378 55.3201 43.6831C55.3688 43.8057 55.4039 43.9235 55.4526 44.0461C55.4835 44.1324 55.5606 44.1747 55.652 44.177C55.8074 44.1719 55.9676 44.1535 56.155 44.1446C56.1538 43.8883 56.1614 43.6502 56.1458 43.4339C56.5083 43.3216 56.8263 43.4645 57.1402 43.5757C57.2767 43.6241 57.3805 43.7211 57.5075 43.7963C57.5212 43.8011 57.5301 43.8193 57.539 43.8375C57.707 44.2734 57.7565 44.6973 57.5864 45.1337C57.52 45.3209 57.4175 45.4803 57.3374 45.6626C57.328 45.6894 57.2912 45.7064 57.2728 45.715C56.9881 45.8248 56.6897 45.9297 56.405 46.0395C56.3546 46.0517 56.2905 46.0591 56.2496 46.0446C55.8758 45.9723 55.4884 45.8952 55.0951 45.9213C55.063 45.925 55.0446 45.9335 55.0221 45.9105C54.7818 45.7651 54.5041 45.6817 54.3657 45.4219C54.339 45.3673 54.3354 45.2908 54.3135 45.2228C54.2737 45.1183 54.2339 45.0139 54.1757 44.918C53.9293 44.5297 53.6966 44.1461 53.6662 43.6687C53.6554 43.4391 53.5349 43.2158 53.4416 43.0021C53.4018 42.8977 53.3893 42.8029 53.4184 42.6777C53.4834 42.2342 53.6897 41.8257 53.823 41.4063C53.8562 41.3127 53.8484 41.2046 53.8359 41.1098C53.8329 40.9884 53.8608 40.9531 53.9937 40.9249C54.2226 40.8857 54.4427 40.8282 54.6539 40.7526C54.8146 40.6891 54.9576 40.5893 55.0868 40.4846C55.2944 40.3324 55.5287 40.2349 55.7761 40.1871C56.2666 40.0599 56.7572 39.9328 57.2656 39.8421C57.4762 39.8114 57.7087 39.8487 57.914 39.8763C57.9597 39.8775 58.009 39.9551 58.022 40.0049C58.0743 40.2041 58.1194 40.2502 58.3164 40.2146C58.5958 40.1632 58.7637 40.2528 58.8884 40.5077C58.924 40.5806 59.0374 40.6509 59.1145 40.6933C59.2872 40.7695 59.4557 40.8142 59.6284 40.8905C59.6693 40.905 59.728 40.9559 59.7459 40.9923C59.7673 41.1053 59.8444 41.1477 59.9399 41.1816C60.0266 41.1972 60.0806 41.2615 60.0978 41.3429C60.1145 41.4692 60.2005 41.5298 60.3192 41.5418C60.4058 41.5574 60.5108 41.5646 60.6022 41.5668C60.6799 41.5643 60.7297 41.597 60.7517 41.665C60.8847 41.9831 61.0361 42.2927 61.1508 42.6193C61.2701 42.9326 61.3711 43.2544 61.4721 43.5761C61.4894 43.6575 61.4882 43.7474 61.4734 43.8325C61.4326 44.1642 61.3871 44.5093 61.3463 44.8411C61.3262 44.9845 61.347 45.1424 61.3269 45.2857C61.2943 45.3344 61.2564 45.4414 61.2048 45.5435Z" fill="url(#deckbuilding-paint0_linear)"/>
	<rect x="36" y="37" width="1" height="5" rx="0.5" fill="#FFB948"/>
	<rect x="39" y="39" width="1" height="5" rx="0.5" transform="rotate(90 39 39)" fill="#FFB948"/>
	<g opacity="0.4">
		<rect x="29" y="49" width="1" height="3" rx="0.5" fill="#FFB948"/>
		<rect x="31" y="50" width="1" height="3" rx="0.5" transform="rotate(90 31 50)" fill="#FFB948"/>
	</g>
	<g opacity="0.4">
		<rect x="45" y="71" width="1" height="3" rx="0.5" fill="#FFB948"/>
		<rect x="47" y="72" width="1" height="3" rx="0.5" transform="rotate(90 47 72)" fill="#FFB948"/>
	</g>
	<rect x="35" y="61" width="1" height="5" rx="0.5" fill="#FFB948"/>
	<rect x="38" y="63" width="1" height="5" rx="0.5" transform="rotate(90 38 63)" fill="#FFB948"/>
	<defs>
		<linearGradient id="deckbuilding-paint0_linear" x1="62.1094" y1="30.4208" x2="54.8092" y2="51.0129" gradientUnits="userSpaceOnUse">
			<stop stop-color="#FFB948"/>
			<stop offset="1" stop-color="#F79438"/>
		</linearGradient>
	</defs>
</svg>
