<svg width="100" height="101" viewBox="0 0 100 101" fill="none"
	xmlns="http://www.w3.org/2000/svg">
	<circle opacity="0.4" r="28" transform="matrix(-1 0 0 1 50 50)" fill="#7A35A0"/>
	<circle opacity="0.6" r="22" transform="matrix(-1 0 0 1 50 50)" fill="#7A35A0"/>
	<circle r="16" transform="matrix(-1 0 0 1 50 50)" fill="#7A35A0"/>
	<path d="M70 46.4999C70.1255 58.4765 63.4765 69.8745 51.5 69.9999C35.1199 69.6375 29.3793 59.5606 28.4997 48.4999C28.0457 42.7911 34 32.5 34 32.5C34 32.5 32.5 48 47 40.5C48.6845 37.8454 37.5 29.5 43.1712 20.5C47.13 15.0781 50.4721 11.1882 50.4721 11.1882C50.4721 11.1882 69.8745 34.5234 70 46.4999Z" fill="url(#galakrond_paint0_linear)"/>
	<path d="M29 45.5C28.8745 57.4765 38.0235 66.3745 50 66.5C66.3801 66.1376 69.1204 57.0607 70 46C70.454 40.2912 65 32.5 65 32.5C65 32.5 66.7188 48.1452 52.2188 40.6452C50.5343 37.9906 61.7188 29.6452 56.0475 20.6452C52.0887 15.2233 50.4746 11.1326 50.4746 11.1326C50.4746 11.1326 29.1255 33.5235 29 45.5Z" fill="url(#galakrond_paint1_linear)"/>
	<path d="M65.7766 49.6977C65.8685 58.4648 58.8487 66.8674 50.0816 66.9593C41.3146 67.0512 34.1202 58.7974 34.0283 50.0304C33.9365 41.2634 39.8158 25.5453 49.6466 25.4423C59.4774 25.3393 65.6848 40.9307 65.7766 49.6977Z" fill="url(#galakrond_paint2_radial)"/>
	<path d="M45.1979 36.0729C44.2108 35.1062 46.3778 32.1254 47.5846 30.7559C48.67 30.7445 50.689 31.7818 50.0821 36.0217C49.3235 41.3216 46.4318 37.2812 45.1979 36.0729Z" fill="#F78E3F"/>
	<path d="M52.1044 34.7793C52.413 33.1477 50.8478 31.4002 50.0266 30.7303C50.5679 30.5889 52.3857 30.5428 55.3266 31.4889C59.0026 32.6716 55.8018 37.9971 52.1471 38.8496C48.4924 39.702 51.7187 36.8187 52.1044 34.7793Z" fill="#F78E3F"/>
	<path d="M47.6827 40.1176C46.3804 40.1312 44.6779 38.2494 43.9894 37.3068C43.0602 41.8758 45.2844 44.3492 46.5126 45.0148C47.4453 43.3767 48.9851 40.104 47.6827 40.1176Z" fill="#F78E3F"/>
	<path d="M47.7424 45.816L50.1288 40.499C51.0785 40.4891 53.3079 40.8728 54.6274 42.4873C55.947 44.1018 50.5872 45.3791 47.7424 45.816Z" fill="#F78E3F"/>
	<path d="M58.2224 35.9364C57.9275 38.8704 54.8718 39.9066 53.3807 40.0579C58.2779 41.2278 58.3077 44.077 59.9401 44.467C61.5725 44.857 61.9412 41.1894 61.9156 38.7472C61.8951 36.7934 59.1366 32.5345 57.76 30.6493C58.037 31.1892 58.5174 33.0024 58.2224 35.9364Z" fill="#F78E3F"/>
	<path d="M47.7595 47.4441C52.9766 48.0408 55.603 44.9195 56.2641 43.2843C56.0113 45.0509 55.0215 48.9963 53.0846 50.6449C51.1477 52.2935 48.7275 49.198 47.7595 47.4441Z" fill="#F78E3F"/>
	<path d="M60.4988 45.9327C59.8476 45.9395 58.0449 44.8939 57.4937 44.0855C54.7618 48.298 56.9673 53 58.2629 52.8654C61.8673 52.4909 61.3129 45.9241 60.4988 45.9327Z" fill="#F78E3F"/>
	<path d="M63.5821 42.3935C63.5923 43.3703 61.981 44.9884 61.174 45.6753C64.0787 50.9368 59.2156 53.0231 59.6355 54.24C60.0553 55.4568 62.8874 53.7988 64.4985 52.1536C66.1096 50.5085 63.5693 41.1724 63.5821 42.3935Z" fill="#F78E3F"/>
	<path d="M51.4779 52.6971C52.6902 51.8703 55.1255 51.1663 55.5225 50.2123C56.2045 53.1361 57.736 54.2599 58.4229 55.0668C58.4314 55.8809 57.6506 59.0642 54.408 60.4008C50.3548 62.0716 49.7965 53.8439 51.4779 52.6971Z" fill="#F78E3F"/>
	<path d="M44.8972 46.2529C43.666 45.316 42.4035 41.3941 42.3865 39.766C42.3521 36.4844 36.041 55.7084 44.8972 46.2529Z" fill="#F78E3F"/>
	<path d="M40.8173 32.0713C42.184 33.0068 45.2251 35.7467 41.6738 38.7147C36.2479 43.2494 36.9453 36.5967 40.8173 32.0713Z" fill="#F78E3F"/>
	<path d="M42.1033 51.5741C42.8076 49.5548 46.1353 47.8682 46.1353 47.8682C46.1353 47.8682 48.8305 50.2528 49.0314 52.3157C49.3181 55.2587 44.6181 58.468 44.6181 58.468C44.6181 58.468 41.1596 54.2801 42.1033 51.5741Z" fill="#F78E3F"/>
	<path d="M53.611 62.0375C49.1253 61.2703 50.3039 57.1872 49.4641 54.7536C47.7231 56.9429 44.7431 62.6189 46.7174 64.5522C48.6916 66.4854 52.1357 63.6812 53.611 62.0375Z" fill="#F78E3F"/>
	<path d="M60.0553 55.4568C58.1493 60.036 54.8321 62.0247 54.8321 62.0247C54.8321 62.0247 58.5556 63.2908 59.7165 61.9735C63.3372 57.8648 60.0553 55.4568 60.0553 55.4568Z" fill="#F78E3F"/>
	<path d="M41.6172 31.3308C42.4245 30.0066 44.4612 27.2844 46.1489 26.9896C47.8367 26.6947 47.4901 28.9468 47.1058 30.1098C46.1322 30.9064 44.2198 32.643 44.1798 33.3543C44.5196 33.8378 44.2158 33.8715 44.1802 33.4031C44.179 33.3874 44.1789 33.3712 44.1798 33.3543C43.9055 32.9639 43.2114 32.2802 41.6172 31.3308Z" fill="#F78E3F"/>
	<path d="M56.6337 29.9627C53.0561 26.0631 49.6563 26.3636 48.4036 27.0013C47.7126 28.6586 48.9152 29.1296 49.6028 29.1579C51.9484 29.3093 55.6559 30.7767 57.2164 31.4915L56.6337 29.9627Z" fill="#F78E3F"/>
	<path d="M39.5909 41.2513C37.7939 42.272 37.4335 41.0518 37.478 40.3142C32.8494 49.7455 40.7222 49.9317 40.7222 49.9317C38.0608 47.5212 38.9197 43.2997 39.5909 41.2513Z" fill="#F78E3F"/>
	<path d="M40.7329 51.1034C37.2975 51.2335 35.8966 49.0822 35.6256 47.9903C37.5312 65.5601 45.3824 61.05 43.4532 59.3821C41.9098 58.0477 40.9966 53.307 40.7329 51.1034Z" fill="#F78E3F"/>
	<path d="M44.794 60.6134L42.5307 62.1371C43.2861 64.7224 46.006 64.9365 45.483 64.707C45.0646 64.5234 44.8493 61.9015 44.794 60.6134Z" fill="#F78E3F"/>
	<path d="M54.0367 62.3279C53.8811 63.0924 51.9096 64.6397 50.9433 65.3178C53.3608 67.0885 59.1944 62.8925 57.5282 63.1648C55.8879 63.4329 54.9783 62.8107 54.0367 62.3279Z" fill="#F78E3F"/>
	<path d="M64.6151 52.7064L60.7965 55.1742C61.7428 56.101 62.0808 57.8952 62.1315 58.6764C63.8437 57.2307 64.5007 54.094 64.6151 52.7064Z" fill="#F78E3F"/>
	<defs>
		<linearGradient id="galakrond_paint0_linear" x1="49.0068" y1="7.58686" x2="49.8105" y2="65.0407" gradientUnits="userSpaceOnUse">
			<stop stop-color="#34BCF2"/>
			<stop offset="0.421875" stop-color="#FFB948" stop-opacity="0.578125"/>
			<stop offset="1" stop-color="#FFB948" stop-opacity="0"/>
		</linearGradient>
		<linearGradient id="galakrond_paint1_linear" x1="50.2374" y1="7.59937" x2="49.4337" y2="65.0532" gradientUnits="userSpaceOnUse">
			<stop stop-color="#34BCF2"/>
			<stop offset="0.421875" stop-color="#FFB948" stop-opacity="0.578125"/>
			<stop offset="1" stop-color="#FFB948" stop-opacity="0"/>
		</linearGradient>
		<radialGradient id="galakrond_paint2_radial" cx="0" cy="0" r="1" gradientUnits="userSpaceOnUse" gradientTransform="translate(49.1373 44.5822) rotate(87.5835) scale(22.3971 17.1272)">
			<stop stop-color="#FFDE9A"/>
			<stop offset="1" stop-color="#FF9900"/>
		</radialGradient>
	</defs>
</svg>
