<svg fill="none" height="101" viewBox="0 0 100 101" width="100"
	xmlns="http://www.w3.org/2000/svg">
	<circle cx="50" cy="50" fill="#7A35A0" opacity="0.4" r="28"/>
	<circle cx="50" cy="50" fill="#7A35A0" opacity="0.6" r="22"/>
	<circle cx="50" cy="50" fill="#7A35A0" r="16"/>
	<circle cx="50.5142" cy="49.5142" r="16.8536" stroke="#B58332" stroke-width="2" transform="rotate(13.4395 50.5142 49.5142)"/>
	<circle cx="50.5142" cy="49.5142" fill="url(#globals-paint0_radial)" r="14.1946" transform="rotate(13.4395 50.5142 49.5142)"/>
	<g opacity="0.4">
		<path d="M47.0062 64.1943C55.1138 66.1317 63.2569 61.1298 65.1943 53.0221C67.1317 44.9145 62.1298 36.7714 54.0222 34.834C45.9146 32.8966 37.7715 37.8986 35.8341 46.0062C33.8967 54.1138 38.8986 62.2569 47.0062 64.1943Z" stroke="#FFB948" stroke-linecap="round" stroke-linejoin="round" stroke-miterlimit="10" stroke-width="1.3176"/>
		<path d="M47.0062 64.1943C51.2363 65.2051 56.236 59.452 58.1734 51.3444C60.1108 43.2368 58.2522 35.8449 54.0222 34.834C49.7921 33.8232 44.7924 39.5763 42.855 47.6839C40.9176 55.7915 42.7761 63.1835 47.0062 64.1943Z" stroke="#FFB948" stroke-linecap="round" stroke-linejoin="round" stroke-miterlimit="10" stroke-width="1.3176"/>
		<path d="M54.0222 34.834L47.0062 64.1943" stroke="#FFB948" stroke-linecap="round" stroke-linejoin="round" stroke-miterlimit="10" stroke-width="1.3176"/>
		<path d="M64.8544 44.8445L39.8344 38.8657" stroke="#FFB948" stroke-linecap="round" stroke-linejoin="round" stroke-miterlimit="10" stroke-width="1.3176"/>
		<path d="M65.1943 53.0222L35.8341 46.0062" stroke="#FFB948" stroke-linecap="round" stroke-linejoin="round" stroke-miterlimit="10" stroke-width="1.3176"/>
		<path d="M61.194 60.1628L36.1739 54.184" stroke="#FFB948" stroke-linecap="round" stroke-linejoin="round" stroke-miterlimit="10" stroke-width="1.3176"/>
	</g>
	<path d="M55.8509 44.6861C55.8509 44.6861 55.6829 45.5269 55.1835 46.3135C55.1672 46.3342 55.1485 46.3664 55.1322 46.3871C55.1322 46.3871 55.1204 46.3848 55.1227 46.3732C54.8661 46.8011 54.3432 47.032 53.8142 46.9264C53.6967 46.9029 53.5837 46.8564 53.4708 46.8099C53.4496 46.7936 53.4378 46.7913 53.4166 46.7751C53.4049 46.7727 53.3954 46.7589 53.3836 46.7565C52.7877 46.374 52.5115 45.4923 53.3743 44.5388C55.2847 42.441 54.2638 41.0034 52.8338 39.472C52.8338 39.472 52.6545 42.6343 48.5474 44.6527C47.9577 42.4028 46.1043 40.7271 46.1043 40.7271C47.1337 44.2026 46.1239 45.9533 45.2279 47.3793C44.8148 48.0394 44.4941 48.8497 44.333 49.656C44.3307 49.6675 44.3284 49.6791 44.3238 49.7021C44.3215 49.7136 44.3192 49.7251 44.3146 49.7482C43.629 53.1806 45.9406 56.5409 49.4672 57.2453C51.2893 57.6092 53.0846 57.1893 54.4971 56.2377C55.1835 55.7999 55.7683 55.198 56.2349 54.4528C56.6247 53.8479 56.9179 53.1758 57.0769 52.441C57.0815 52.418 57.0838 52.4064 57.0884 52.3834C57.629 50.2276 57.5175 46.624 55.8509 44.6861ZM54.0588 52.0059C54.0263 52.1072 53.9939 52.2085 53.9473 52.319C53.8684 52.5308 53.7776 52.7402 53.7339 52.9591C53.6971 53.1434 53.566 53.2489 53.4467 53.3569C53.2407 53.5313 53.1124 53.7452 53.0477 54.0078C53.0293 54.1 52.9756 54.1851 52.9337 54.2725C52.915 54.3047 52.8869 54.3231 52.8588 54.3414C52.58 54.5133 52.2917 54.6713 52.0224 54.8571C51.7671 55.0336 51.4762 55.1432 51.1688 55.2136L51.157 55.2112C50.8522 55.33 50.5539 55.3543 50.248 55.2333C50.0998 55.1797 49.9613 55.2 49.8087 55.2294C49.5154 55.2906 49.2289 55.3172 48.9186 55.2792C48.7518 55.2578 48.613 55.2181 48.488 55.1093C48.3937 55.0306 48.2432 54.9886 48.1139 54.9627C47.9611 54.9322 47.8129 54.8787 47.6716 54.7905C47.575 54.7233 47.4574 54.6999 47.3585 54.6442C47.3043 54.6094 47.2384 54.5723 47.2006 54.5168C47.1628 54.4613 47.139 54.3967 47.1152 54.3321C47.0631 54.2258 47.0654 54.2143 47.1804 54.1894C47.3353 54.1484 47.483 54.0821 47.6473 54.0551C47.8257 54.0188 47.9995 54.0056 48.1827 54.0063C48.3895 54.0117 48.5607 53.95 48.7199 53.8261C48.9072 53.6839 49.1352 53.7054 49.3419 53.7108C49.7296 53.7284 50.091 53.6328 50.4595 53.5627C50.5228 53.5514 50.5791 53.5147 50.6353 53.4781C50.9259 53.3085 51.2047 53.1366 51.4858 52.9532C51.5842 52.889 51.6614 52.8086 51.7386 52.7282C51.8579 52.6203 51.9655 52.51 52.0754 52.3883C52.1058 52.3584 52.1245 52.3262 52.1314 52.2916C52.159 52.1534 52.2101 52.0199 52.2119 51.8885C52.1989 51.5865 52.2917 51.3056 52.3492 51.0176C52.386 50.8333 52.3594 50.6603 52.2858 50.4779C52.2145 50.284 52.1433 50.0901 52.072 49.8962C52.0433 49.7947 51.9843 49.723 51.8854 49.6673C51.5323 49.477 51.1489 49.3765 50.7518 49.3451C50.5121 49.3211 50.2563 49.3778 50.0097 49.3885C49.9839 49.3953 49.958 49.4021 49.944 49.4113C49.7495 49.5281 49.555 49.645 49.3605 49.7619C49.3324 49.7802 49.2903 49.8077 49.2693 49.8514C49.1717 50.0955 49.0482 50.3463 48.9859 50.5973C48.9373 50.7793 48.9076 50.989 49.0165 51.1784C49.0709 51.2731 49.1136 51.3655 49.168 51.4602C49.2035 51.5272 49.2718 51.5528 49.3469 51.5438C49.4737 51.5212 49.6027 51.4871 49.7553 51.4577C49.7239 51.2478 49.7019 51.0518 49.6636 50.8764C49.9472 50.7415 50.2248 50.8208 50.4951 50.8748C50.6127 50.8983 50.7093 50.9655 50.8222 51.0121C50.834 51.0144 50.8435 51.0283 50.8529 51.0421C51.0423 51.3794 51.133 51.7209 51.0453 52.0987C51.0131 52.2599 50.9479 52.4026 50.9039 52.5615C50.8993 52.5846 50.8712 52.6029 50.8572 52.6121C50.6369 52.7358 50.4048 52.8571 50.1845 52.9808C50.1447 52.9968 50.093 53.0104 50.0578 53.0034C49.7429 52.9884 49.4163 52.9711 49.0971 53.0391C49.0713 53.0459 49.0573 53.0551 49.0361 53.0389C48.8219 52.9482 48.5845 52.9127 48.4404 52.7162C48.412 52.6747 48.4 52.6124 48.3739 52.5592C48.329 52.4784 48.284 52.3975 48.225 52.3259C47.9771 52.0368 47.741 51.7501 47.6595 51.3625C47.6235 51.1756 47.4982 51.0069 47.3965 50.8429C47.3516 50.762 47.3301 50.6858 47.3391 50.5798C47.3398 50.2087 47.4605 49.8495 47.5201 49.4901C47.5362 49.4095 47.517 49.3218 47.4955 49.2456C47.4787 49.1464 47.4973 49.1142 47.6029 49.0754C47.7859 49.0162 47.9594 48.943 48.1235 48.856C48.2477 48.785 48.353 48.6862 48.4465 48.5851C48.5986 48.4359 48.779 48.3282 48.976 48.2597C49.3629 48.0974 49.7499 47.9352 50.1557 47.8006C50.3246 47.7505 50.5196 47.7535 50.6911 47.7519C50.7286 47.7474 50.7782 47.8052 50.7948 47.8445C50.8613 48.0015 50.9037 48.0339 51.0608 47.9814C51.2837 47.9062 51.4319 47.9597 51.5643 48.1539C51.6021 48.2093 51.7033 48.2535 51.7715 48.2791C51.922 48.3211 52.0654 48.3378 52.2159 48.3798C52.2512 48.3869 52.3054 48.4217 52.3243 48.4494C52.3552 48.5394 52.4234 48.565 52.5057 48.5814C52.5785 48.584 52.6304 48.6303 52.6542 48.6949C52.6828 48.7965 52.7605 48.836 52.8591 48.8317C52.932 48.8343 53.0189 48.8277 53.094 48.8187C53.1574 48.8074 53.2021 48.8283 53.2281 48.8815C53.3748 49.1264 53.5356 49.3621 53.6682 49.6161C53.8031 49.8587 53.924 50.1104 54.0448 50.3621C54.0686 50.4268 54.0783 50.5006 54.0762 50.572C54.0821 50.8487 54.0857 51.1369 54.0915 51.4135C54.092 51.5334 54.1278 51.6603 54.1283 51.7802C54.1073 51.8239 54.0889 51.9161 54.0588 52.0059Z" fill="#FFB948"/>
	<path d="M50.8824 26.0588C63.0976 26.0588 73 37.178 73 49.5155C73 61.8529 63.0976 73 50.8824 73C45.4859 73 37.7941 71.3235 35 66.853" stroke="#2A1030" stroke-linecap="round" stroke-width="3.35294"/>
	<rect fill="#3B1F42" height="1.11765" stroke="#2A1030" stroke-width="1.11765" width="5.58824" x="47.8529" y="78.0294"/>
	<path d="M38.9118 85.2941C38.9118 82.5164 41.1635 80.2647 43.9412 80.2647H56.2353C59.013 80.2647 61.2647 82.5164 61.2647 85.2941V85.8529H38.9118V85.2941Z" fill="#2A1030" stroke="#2A1030" stroke-width="1.11765"/>
	<rect fill="#3B1F42" height="3.35294" rx="0.558824" stroke="#2A1030" stroke-width="1.11765" transform="rotate(13.7116 56.5877 22.2636)" width="1.11765" x="56.5877" y="22.2636"/>
	<rect fill="#3B1F42" height="3.35294" rx="0.558824" stroke="#2A1030" stroke-width="1.11765" transform="rotate(12.7606 43.3378 72.6052)" width="1.11765" x="43.3378" y="72.6052"/>
	<rect fill="#3B1F42" height="4.24986" rx="0.558824" stroke="#2A1030" stroke-width="1.11765" transform="rotate(-0.578011 50.0938 73.5757)" width="1.11765" x="50.0938" y="73.5757"/>
	<defs>
		<radialGradient cx="0" cy="0" gradientTransform="translate(50.5142 49.5142) rotate(90) scale(14.1946)" gradientUnits="userSpaceOnUse" id="globals-paint0_radial" r="1">
			<stop stop-color="#7C438A"/>
			<stop offset="1" stop-color="#3B1F42"/>
		</radialGradient>
	</defs>
</svg>