<svg width="100" height="101" viewBox="0 0 100 101" fill="none"
	xmlns="http://www.w3.org/2000/svg">
	<ellipse opacity="0.3" cx="47" cy="44.44" rx="31" ry="31.31" fill="#7A35A0"/>
	<ellipse opacity="0.5" cx="47" cy="44.44" rx="25" ry="25.25" fill="#7A35A0"/>
	<ellipse cx="46.5" cy="43.935" rx="18.5" ry="18.685" fill="#7A35A0"/>
	<path opacity="0.2" d="M48.3492 25.3317C47.7727 25.2777 47.1886 25.25 46.5981 25.25C36.3266 25.25 28 33.6156 28 43.935C28 54.2544 36.3266 62.62 46.5981 62.62C48.4768 62.62 50.2904 62.3401 52 61.8196C42.5498 60.9329 35.1531 52.9425 35.1531 43.2164C35.1531 34.7844 40.7123 27.657 48.3492 25.3317Z" fill="#CB9FD7"/>
	<path fill-rule="evenodd" clip-rule="evenodd" d="M35.7256 54.9198C39.7224 58.3222 47.1677 67.3412 44.9751 76.1988C44.5755 74.5842 42.1661 71.6662 35.7256 72.9118C37.4384 73.9498 41.5452 77.337 42.0997 80.8165C42.6543 84.296 41.6543 85.5408 41.6543 85.5408L48.1543 87.326C49.4104 85.25 52.306 81.9092 54.2244 81.9092V88.4656C62.1543 88.4656 64.6543 86.316 64.6543 86.316C64.6543 86.316 63.6452 81.804 60.2194 80.0048H65.5293L67.5848 74.8148C67.7209 75.1626 67.8755 75.5448 68.0402 75.9523C69.0501 78.4501 70.4432 81.8956 70.3254 84.1564C72.3237 83.2914 74.6543 78.741 74.265 76.1988C73.7297 75.4448 73.1458 74.8628 72.5777 74.2965C70.8433 72.5676 69.0832 70.4062 69.5 66.66C70.2535 59.8869 75.0529 59.2103 83.6858 54.9198C83.364 54.7393 82.7082 54.6397 81.489 54.4545C80.7612 54.344 79.8325 54.203 78.6543 53.996L77.1769 46.7887L74.265 54.9198L69.1264 58.0337C68.6696 55.4964 69.0578 49.1415 74.265 44.0207C73.2373 43.617 69.0236 44.4359 64.5016 46.7887V44.02C59.363 42.809 38 46.46 35.7256 54.9198ZM63.3846 50.3604C63.581 51.3693 62.1239 52.596 59.6723 53.7079L58.6504 59.671L56.8595 56.4152L49.696 57.2592V61.4799L46.5382 54.6761C43.7256 56.4152 40.0967 56.2737 39.855 55.0318C39.5024 53.2197 44.4837 50.705 50.9813 49.415C57.4788 48.1251 63.032 48.5483 63.3846 50.3604Z" fill="#53C2F2"/>
	<path d="M48.8918 86.2343L44.0248 84.8031C45.1925 76.3562 39.001 73.3451 35.7217 72.9236C42.4906 77.1926 42.6077 82.8736 41.6221 85.6742L48.2257 87.3263L48.8918 86.2343Z" fill="#C7EEFF"/>
	<path d="M55 78.275L51.7495 83.0829C52.2722 82.7429 53.0141 82.0916 54.2032 81.882V88.4779C59.3981 89.3722 63.4169 87.5237 64.6221 86.3809C62.4969 87.3945 59.8672 87.2426 56.5 86.86L55 78.275Z" fill="#C7EEFF"/>
	<path d="M70.7868 81.2434C71.5599 80.8174 73.5655 79.1507 74.3035 76.1854C74.6196 80.4973 71.8021 83.3583 70.2868 84.2734C70.0011 82.2689 68.55 77.3231 67.5781 74.811L70.7868 81.2434Z" fill="#C7EEFF"/>
	<path d="M39.5 56.56C41.5688 59.2597 48.979 70.6232 44.979 76.1782C47.479 66.0782 37 56.055 37 56.055C37 56.055 37.5 53.5305 39.5 52.5205C39.5 52.5205 37.4312 53.8602 39.5 56.56Z" fill="#C7EEFF"/>
	<path d="M64.7335 49.2529C62.5998 47.2681 54.0843 47.7102 49.709 49.6562C53.2099 49.2164 57.3338 48.1658 61.2748 48.9692C65.1192 50.0368 62.144 52.4833 59.6288 53.6444L58.6298 59.6767L60.7318 54.7646C65.3886 52.8539 65.8719 50.3118 64.7335 49.2529Z" fill="#C7EEFF"/>
	<path d="M74.4707 55.9116C74.4707 55.9116 71.5 57.065 69 61.105L69.1065 57.9762L74.3096 54.8856L74.4707 55.9116Z" fill="#C7EEFF"/>
	<ellipse cx="35.5" cy="37.875" rx="3.5" ry="3.535" fill="#3B1F42"/>
	<ellipse cx="40" cy="31.31" rx="2" ry="2.02" fill="#3B1F42"/>
	<ellipse cx="40" cy="44.44" rx="2" ry="2.02" fill="#3B1F42"/>
</svg>
