<svg width="80" height="80" viewBox="0 0 80 80" fill="none"
    xmlns="http://www.w3.org/2000/svg">
    <rect width="79.2793" height="79.9999" fill="#1E0116"/>
    <rect width="80" height="79.9999" fill="url(#paint0_radial)"/>
    <rect x="4.54744" y="4.58333" width="70.8695" height="70.8333" stroke="#DFB3D3" stroke-width="1.16667"/>
    <path d="M48.7072 30.1839C48.7072 30.1839 48.7072 32.1677 47.8897 34.1516C47.8897 34.1516 47.8897 34.2839 47.7534 34.2839C47.3447 35.3419 46.2547 36.1355 45.0285 36.1355C44.756 36.1355 44.4835 36.1355 44.211 36.0032H44.0747C44.0747 36.0032 44.0747 36.0032 43.9385 36.0032C42.4398 35.4742 41.3498 33.6226 42.9848 31.1097C46.391 25.5548 43.3935 22.7774 39.4423 20C39.4423 20 40.5323 27.1419 32.0849 33.4903C29.9049 28.5968 25 25.6871 25 25.6871C28.9512 32.9613 27.4525 37.3258 25.9537 40.8968C25.2725 42.4839 25 44.4677 25 46.3194C25 46.3194 25 46.3194 25 46.4516C25 46.4516 25 46.4516 25 46.5839C25 54.5194 31.6762 61 39.9873 61C44.211 61 48.1622 59.2806 50.8871 56.5032C52.2496 55.1806 53.3396 53.5935 54.0208 51.7419C54.5658 50.2871 54.9746 48.5677 54.9746 46.8484V46.7161C55.2471 41.6903 53.3396 33.6226 48.7072 30.1839ZM47.8897 47.2452C47.8897 47.5097 47.8897 47.7742 47.7534 48.0387C47.6172 48.5677 47.6172 49.0968 47.6172 49.4935C47.6172 49.8903 47.3447 50.1548 47.2084 50.5516C46.7997 51.0806 46.6635 51.6097 46.6635 52.1387C46.6635 52.4032 46.5272 52.5355 46.5272 52.8C46.5272 52.9323 46.391 52.9323 46.391 52.9323C45.846 53.4613 45.301 53.8581 44.756 54.3871C44.211 54.9161 43.666 55.3129 42.9848 55.5774C42.3035 55.9742 41.7585 56.1065 40.941 56.1065C40.5323 56.1065 40.2598 56.1065 39.9873 56.2387C39.3061 56.5032 38.7611 56.6355 37.9436 56.7677C37.5348 56.7677 37.2623 56.7677 36.8536 56.6355C36.5811 56.5032 36.3086 56.5032 35.8998 56.5032C35.4911 56.5032 35.2186 56.5032 34.8099 56.371C34.5374 56.2387 34.2649 56.2387 33.9924 56.2387C33.8561 56.2387 33.7199 56.1065 33.5836 55.9742C33.4474 55.8419 33.4474 55.7097 33.3111 55.5774C33.1749 55.3129 33.1749 55.3129 33.4474 55.1806C33.7199 55.0484 34.1286 54.7839 34.4011 54.6516C34.8099 54.3871 35.2186 54.2548 35.6274 54.2548C36.0361 54.1226 36.4448 53.9903 36.7173 53.5935C37.1261 53.1968 37.5348 53.1968 38.0798 53.0645C38.8973 52.9323 39.7148 52.5355 40.5323 52.271C40.6685 52.271 40.8048 52.1387 40.941 52.0065C41.486 51.4774 42.031 50.9484 42.576 50.4194C42.7123 50.2871 42.8485 50.0226 42.9848 49.7581C43.2572 49.4935 43.3935 49.0968 43.5297 48.8323C43.5297 48.7 43.666 48.7 43.666 48.5677C43.666 48.3032 43.666 47.9065 43.666 47.6419C43.5297 46.9806 43.5297 46.3194 43.5297 45.6581C43.5297 45.2613 43.3935 44.8645 43.121 44.4677C42.8485 44.071 42.576 43.6742 42.4398 43.2774C42.3035 43.0129 42.1673 42.8806 41.8948 42.8806C41.0773 42.6161 40.1235 42.6161 39.1698 42.6161C38.6248 42.6161 38.0798 42.8806 37.5348 43.0129C37.5348 43.0129 37.3986 43.0129 37.3986 43.1452C36.9898 43.5419 36.5811 43.8065 36.3086 44.2032C36.3086 44.2032 36.1723 44.3355 36.1723 44.4677C36.0361 44.9968 35.8998 45.6581 35.8998 46.3194C35.8998 46.7161 35.8998 47.2452 36.1723 47.6419C36.3086 47.7742 36.4448 48.0387 36.5811 48.171C36.7173 48.3032 36.8536 48.3032 36.9898 48.3032C37.2623 48.171 37.5348 48.0387 37.8073 47.9065C37.6711 47.5097 37.5348 46.9806 37.3986 46.5839C37.9436 46.1871 38.6248 46.1871 39.3061 46.1871C39.5785 46.1871 39.851 46.3194 40.1235 46.3194C40.1235 46.3194 40.1235 46.3194 40.2598 46.3194C40.8048 46.9806 41.2135 47.6419 41.2135 48.5677C41.2135 48.9645 41.0773 49.229 41.0773 49.6258C41.0773 49.6258 41.0773 49.7581 40.941 49.7581C40.5323 50.1548 39.9873 50.5516 39.5785 50.8161C39.4423 50.8161 39.4423 50.9484 39.3061 50.9484C38.6248 51.0806 37.8073 51.2129 37.1261 51.4774H36.9898C36.5811 51.6097 36.0361 51.6097 35.6274 51.2129C35.4911 51.0806 35.4911 50.9484 35.3549 50.9484C35.2186 50.8161 35.0824 50.5516 34.9461 50.5516C34.2649 50.0226 33.5836 49.4935 33.1749 48.7C33.0386 48.3032 32.6299 48.0387 32.3574 47.6419C32.2211 47.5097 32.0849 47.2452 32.0849 47.1129C31.9487 46.3194 32.0849 45.3935 31.9487 44.6C31.9487 44.4677 31.8124 44.2032 31.8124 44.071C31.6762 43.8065 31.8124 43.8065 31.9487 43.6742C32.3574 43.4097 32.6299 43.2774 33.0386 43.0129C33.3111 42.7484 33.4474 42.4839 33.7199 42.2194C33.9924 41.8226 34.4011 41.5581 34.8099 41.2936C35.6274 40.7645 36.4448 40.2355 37.2623 39.7065C37.6711 39.5742 38.0798 39.4419 38.4886 39.3097C38.6248 39.3097 38.7611 39.4419 38.7611 39.4419C39.0336 39.7065 39.0336 39.8387 39.4423 39.5742C39.851 39.3097 40.2598 39.3097 40.6685 39.7065C40.8048 39.8387 41.0773 39.8387 41.2135 39.8387C41.6223 39.8387 41.8948 39.8387 42.3035 39.8387C42.4398 39.8387 42.576 39.8387 42.576 39.971C42.7123 40.1032 42.8485 40.2355 42.9848 40.2355C43.121 40.2355 43.2572 40.2355 43.3935 40.3677C43.5297 40.6323 43.666 40.6323 43.9385 40.6323C44.0747 40.6323 44.3472 40.5 44.4835 40.5C44.6197 40.5 44.756 40.5 44.756 40.6323C45.1647 41.1613 45.7097 41.5581 46.1185 42.0871C46.5272 42.6161 46.9359 43.0129 47.3447 43.5419C47.4809 43.6742 47.4809 43.8065 47.4809 43.9387C47.6172 44.6 47.7534 45.129 47.8897 45.7903C47.8897 46.0548 48.0259 46.3194 48.1622 46.5839C48.0259 46.7161 48.0259 46.9806 47.8897 47.2452Z" fill="#DFB3D3"/>
    <defs>
        <radialGradient id="paint0_radial" cx="0" cy="0" r="1" gradientUnits="userSpaceOnUse" gradientTransform="translate(40 40) rotate(90) scale(40 35.6654)">
            <stop stop-color="#632A53"/>
            <stop offset="1" stop-color="#06070A"/>
        </radialGradient>
    </defs>
</svg>
