<svg width="137" height="190" viewBox="0 0 137 190" fill="none" xmlns="http://www.w3.org/2000/svg">
<rect x="11" y="20" width="116" height="161" rx="7" fill="#40032E"/>
<ellipse cx="69.5" cy="63.5" rx="39.5" ry="53.5" fill="#40032E"/>
<path d="M107.5 63.5C107.5 77.9859 103.163 91.041 96.224 100.439C89.2847 109.838 79.8194 115.5 69.5 115.5C59.1806 115.5 49.7153 109.838 42.776 100.439C35.8371 91.041 31.5 77.9859 31.5 63.5C31.5 49.0141 35.8371 35.959 42.776 26.5607C49.7153 17.162 59.1806 11.5 69.5 11.5C79.8194 11.5 89.2847 17.162 96.224 26.5607C103.163 35.959 107.5 49.0141 107.5 63.5Z" stroke="#5F0B47" stroke-width="3"/>
</svg>
