<svg viewBox="0 0 11 12">
    <rect y="3.65375" width="10.7672" height="1.47709" rx="0.310967" fill="#FFB948"/>
    <rect x="0.738281" y="5.9082" width="9.25127" height="5.44192" rx="0.310967" fill="#FFB948"/>
    <rect x="4.54785" y="5.9082" width="1.82693" height="5.44192" fill="#131010"/>
    <rect x="4.54785" y="3.65375" width="1.82693" height="1.47709" fill="#131010"/>
    <path d="M5.98595 2.42931C5.98595 2.42931 4.61625 2.99293 3.78974 2.99293C2.96323 2.99293 2.29321 2.32292 2.29321 1.49641C2.29321 0.669897 2.96323 -0.00012207 3.78974 -0.00012207C4.61625 -0.00012207 5.98595 2.42931 5.98595 2.42931Z" fill="#FFB948"/>
    <path d="M4.66445 2.42931C4.66445 2.42931 6.03414 2.99293 6.86065 2.99293C7.68716 2.99293 8.35718 2.32292 8.35718 1.49641C8.35718 0.669897 7.68716 -0.00012207 6.86065 -0.00012207C6.03414 -0.00012207 4.66445 2.42931 4.66445 2.42931Z" fill="#FFB948"/>
    <path d="M4.95606 1.94337C4.95606 1.94337 4.26425 2.37095 3.77049 2.37095C3.27674 2.37095 2.87646 1.97067 2.87646 1.47692C2.87646 0.983157 3.27674 0.582886 3.77049 0.582886C4.26425 0.582886 4.95606 1.94337 4.95606 1.94337Z" fill="#131010"/>
    <path d="M5.75293 1.94337C5.75293 1.94337 6.44473 2.37095 6.93849 2.37095C7.43225 2.37095 7.83252 1.97067 7.83252 1.47692C7.83252 0.983157 7.43225 0.582886 6.93849 0.582886C6.44473 0.582886 5.75293 1.94337 5.75293 1.94337Z" fill="#131010"/>
</svg>