<svg viewBox="0 0 12 14">
    <path d="M5.31087 0.485389C5.36365 0.652019 5.35575 0.83323 5.28868 0.994107C5.22161 1.15498 5.10012 1.28414 4.94762 1.3567C3.65253 1.98184 2.60538 3.06005 1.98585 4.40633C1.36633 5.7526 1.21307 7.28298 1.55238 8.73486C1.70411 9.37459 1.9497 9.98574 2.28037 10.5464L3.05341 9.37598C3.08459 9.32865 3.12714 9.29077 3.17676 9.26619C3.22637 9.24161 3.28129 9.23118 3.33598 9.23597C3.39067 9.24076 3.44319 9.26059 3.48823 9.29346C3.53327 9.32633 3.56924 9.37108 3.59251 9.42318L5.43903 13.5256C5.46236 13.5773 5.47237 13.6344 5.46806 13.6914C5.46375 13.7484 5.44527 13.8032 5.41446 13.8503C5.38366 13.8975 5.34161 13.9353 5.29249 13.9601C5.24338 13.9849 5.18893 13.9958 5.13456 13.9917L0.821745 13.6176C0.767204 13.6126 0.714872 13.5927 0.669953 13.5598C0.625033 13.527 0.589093 13.4824 0.565708 13.4305C0.542323 13.3786 0.532308 13.3212 0.536658 13.264C0.541009 13.2068 0.559574 13.1517 0.590506 13.1044L1.45997 11.7916C1.43901 11.7715 1.4197 11.7495 1.40225 11.7259C0.861248 10.9265 0.46684 10.0286 0.239158 9.07797C0.145957 8.7035 0.0797026 8.32222 0.0409548 7.93735C-0.0999268 6.31453 0.242667 4.68586 1.02154 3.27573C1.80041 1.86561 2.97722 0.743421 4.38985 0.0637778C4.47618 0.0230371 4.56968 0.00169999 4.66435 0.00114081C4.75901 0.000580673 4.85274 0.0208092 4.9395 0.0605256C5.02626 0.100241 5.10413 0.158564 5.16809 0.231738C5.23205 0.304913 5.28069 0.391317 5.31087 0.485389Z" fill="#FFB948"/>
    <path d="M6.6898 13.5107C6.63724 13.344 6.64539 13.1628 6.71268 13.0021C6.77997 12.8413 6.90164 12.7123 7.05424 12.64C8.35019 12.0167 9.39883 10.94 10.0202 9.59464C10.6416 8.24927 10.797 6.71911 10.4597 5.26675C10.3088 4.62679 10.0641 4.01529 9.73416 3.4541L8.95951 4.62343C8.92826 4.67073 8.88566 4.70854 8.83601 4.73305C8.78636 4.75756 8.73142 4.76791 8.67674 4.76304C8.62206 4.75817 8.56957 4.73826 8.52458 4.70533C8.47958 4.67239 8.44367 4.62759 8.42047 4.57545L6.57962 0.47034C6.55636 0.418651 6.54643 0.361474 6.55082 0.304508C6.55521 0.247543 6.57376 0.192778 6.60463 0.145672C6.6355 0.0985666 6.6776 0.060766 6.72675 0.0360378C6.7759 0.0113097 6.83037 0.0005179 6.88473 0.00473799L11.197 0.385039C11.2516 0.390157 11.3039 0.410156 11.3487 0.443045C11.3936 0.475934 11.4295 0.520568 11.4528 0.572506C11.4761 0.624445 11.486 0.681877 11.4816 0.739091C11.4772 0.796305 11.4585 0.851305 11.4276 0.898622L10.5563 2.21013C10.5772 2.23031 10.5965 2.25231 10.6139 2.27588C11.1538 3.07606 11.547 3.97457 11.7733 4.92554C11.866 5.30015 11.9318 5.68152 11.97 6.06644C12.1086 7.68947 11.7638 9.31764 10.983 10.7266C10.2022 12.1356 9.02379 13.2561 7.61022 13.9337C7.52385 13.9743 7.43031 13.9955 7.33565 13.9959C7.24098 13.9963 7.14728 13.976 7.06057 13.9361C6.97387 13.8963 6.89608 13.8379 6.83222 13.7646C6.76836 13.6913 6.71985 13.6049 6.6898 13.5107Z" fill="#FFB948"/>
</svg>