<svg viewBox="0 0 64 80" enable-background="new 0 0 64 64" xml:space="preserve">
    <g>
        <path d="M58.081,3.292c-0.39-0.389-1.021-0.388-1.411,0L43.782,16.117l-4.735-4.706c-0.393-0.39-1.025-0.388-1.415,0.003   s-0.388,1.025,0.003,1.415l2.007,1.994l-0.863,0.862c-1.863-1.039-3.662-2.25-5.386-3.657c-0.239-0.195-0.478-0.39-0.709-0.585   c-0.368-0.312-0.905-0.316-1.278-0.011l-0.246,0.202c-0.172,0.142-0.343,0.283-0.538,0.436c-1.688,1.379-3.491,2.595-5.367,3.645   l-0.896-0.892l2.002-1.992c0.392-0.39,0.394-1.023,0.004-1.414c-0.39-0.393-1.023-0.394-1.414-0.004l-2.715,2.702l-2.012,2.001   L7.33,3.291c-0.39-0.388-1.021-0.387-1.411,0L2.294,6.902C2.106,7.09,2,7.345,2,7.611C2,7.877,2.106,8.132,2.294,8.32   l11.608,11.551c-2.299,0.446-4.658,0.685-7.039,0.692c-0.294,0.001-0.573,0.131-0.762,0.356c-0.189,0.225-0.27,0.522-0.221,0.812   c1.158,6.792,3.61,13.173,7.264,19l-3.871,3.849c-0.016,0.016-0.024,0.035-0.038,0.052c-0.032,0.036-0.06,0.075-0.087,0.116   c-0.029,0.045-0.055,0.09-0.077,0.139c-0.009,0.021-0.024,0.037-0.032,0.058L3.714,59.465c-0.135,0.368-0.042,0.781,0.237,1.056   c0.19,0.188,0.444,0.288,0.702,0.288c0.12,0,0.241-0.021,0.357-0.066l14.384-5.503c0.003-0.001,0.006-0.004,0.009-0.005   c0.016-0.006,0.029-0.019,0.045-0.025c0.096-0.044,0.182-0.101,0.257-0.17c0.011-0.01,0.026-0.014,0.037-0.024l2.956-2.945   c2.701,2.413,5.653,4.565,8.801,6.383c0.155,0.089,0.327,0.134,0.5,0.134s0.345-0.044,0.5-0.134c3.061-1.767,5.924-3.85,8.55-6.173   l2.937,2.925c0.011,0.011,0.025,0.014,0.037,0.024c0.076,0.069,0.161,0.126,0.257,0.17c0.016,0.007,0.029,0.019,0.045,0.025   c0.003,0.001,0.006,0.004,0.009,0.005l14.384,5.504C58.835,60.979,58.956,61,59.076,61c0.003,0,0.007,0,0.011,0   c0.584-0.008,1.008-0.445,1.009-1c0-0.19-0.053-0.368-0.146-0.52l-5.262-14.346c-0.008-0.021-0.023-0.038-0.032-0.058   c-0.021-0.048-0.047-0.094-0.077-0.139c-0.027-0.042-0.055-0.08-0.087-0.116c-0.014-0.017-0.022-0.036-0.038-0.052l-3.776-3.755   c3.753-5.903,6.264-12.383,7.44-19.284c0.049-0.289-0.031-0.585-0.22-0.811s-0.466-0.355-0.76-0.357   c-2.388-0.015-4.74-0.256-7.025-0.701L61.706,8.319C61.894,8.132,62,7.877,62,7.611c0-0.266-0.106-0.521-0.294-0.708L58.081,3.292z    M41.06,16.234l0.875,0.868l0.325,0.323c-0.202-0.088-0.404-0.177-0.605-0.27c-0.255-0.117-0.51-0.233-0.763-0.356   c-0.089-0.043-0.175-0.091-0.264-0.135L41.06,16.234z M22.942,16.234l0.46,0.458c-0.565,0.279-1.138,0.543-1.717,0.793   L22.942,16.234z M4.417,7.61l2.208-2.199l12.182,12.115l-1.554,1.545c-0.081,0.025-0.167,0.049-0.251,0.074   c-0.192,0.055-0.39,0.11-0.599,0.165c-0.059,0.015-0.124,0.03-0.184,0.045L4.417,7.61z M14.262,42.44   c0.428,0.627,0.862,1.246,1.311,1.848h-3.169L14.262,42.44z M18.037,53.618L6.349,58.089l4.329-11.801h6.34   c0.334,0.402,0.673,0.797,1.019,1.188V53.618z M20.037,51.898V49.52c0.394,0.406,0.794,0.796,1.197,1.186L20.037,51.898z    M43.692,52.089l-1.166-1.162c0.392-0.373,0.788-0.741,1.166-1.124V52.089z M57.38,58.28l-11.688-4.472v-6.142   c0.347-0.39,0.686-0.786,1.02-1.188h6.34L57.38,58.28z M51.326,44.479H48.28c0.434-0.576,0.854-1.166,1.27-1.767L51.326,44.479z    M55.939,22.538c-1.254,6.47-3.729,12.545-7.365,18.075c-0.977,1.482-2.022,2.906-3.111,4.235c-0.492,0.604-0.993,1.19-1.516,1.77   c-1.097,1.226-2.283,2.423-3.527,3.561c-2.567,2.357-5.397,4.458-8.42,6.25c-3.015-1.787-5.846-3.885-8.422-6.241   c-1.212-1.108-2.395-2.306-3.518-3.563c-0.521-0.577-1.031-1.171-1.525-1.779c-1.087-1.326-2.133-2.75-3.108-4.231   c-3.636-5.529-6.111-11.604-7.365-18.072c2.75-0.09,5.464-0.461,8.078-1.105c0.729-0.168,1.366-0.34,1.919-0.517   c0.002,0,0.004-0.001,0.007-0.002c0.005-0.002,0.012-0.003,0.018-0.005c0,0,0.001-0.001,0.001-0.001   c2.582-0.751,5.098-1.785,7.474-3.071c2.218-1.182,4.348-2.603,6.316-4.21c0.054-0.042,0.108-0.085,0.161-0.128   c0.047,0.038,0.095,0.077,0.144,0.117c1.972,1.61,4.092,3.021,6.292,4.188c2.371,1.294,4.877,2.332,7.421,3.076   c0.004,0.001,0.008,0.002,0.012,0.003c0.005,0.001,0.01,0.003,0.015,0.005c0.001,0,0.002,0,0.003,0   c0.669,0.214,1.331,0.383,1.943,0.532c0,0,0,0,0,0c0.001,0,0.002,0,0.003,0.001c0,0,0.001,0,0.001,0   C50.474,22.067,53.184,22.441,55.939,22.538z M47.801,19.344c-0.043-0.011-0.084-0.021-0.128-0.032   c-0.205-0.053-0.412-0.113-0.619-0.172c-0.109-0.031-0.218-0.063-0.329-0.097l-1.524-1.516L57.375,5.411l2.208,2.2L47.801,19.344z" fill="var(--icon-color, currentcolor)"/>
        <path d="M32.662,20.128c-0.189-0.157-0.421-0.233-0.653-0.23c-0.003,0-0.006-0.002-0.009-0.002c-0.046,0-0.086,0.021-0.131,0.026   c-0.067,0.011-0.135,0.016-0.2,0.041c-0.104,0.037-0.195,0.094-0.281,0.162c-0.003,0.003-0.007,0.003-0.011,0.006l-0.006,0.005   c-0.033,0.027-0.068,0.051-0.098,0.083c-0.119,0.1-0.237,0.2-0.378,0.311c-4.175,3.426-9.448,5.321-14.848,5.336   c-0.294,0.001-0.572,0.131-0.762,0.355c-0.189,0.225-0.271,0.521-0.221,0.812c1.34,7.92,5.399,14.987,11.393,20.11   c0.003,0.002,0.006,0.004,0.009,0.007c1.554,1.327,3.231,2.531,5.032,3.576c0.024,0.014,0.05,0.02,0.075,0.031   c0.028,0.013,0.055,0.024,0.084,0.035c0.111,0.041,0.226,0.069,0.343,0.069s0.232-0.028,0.343-0.069   c0.029-0.011,0.056-0.021,0.084-0.035c0.024-0.012,0.051-0.018,0.075-0.031c1.802-1.045,3.479-2.25,5.033-3.577   c0.002-0.002,0.005-0.004,0.007-0.006c5.994-5.123,10.053-12.191,11.394-20.111c0.049-0.29-0.032-0.586-0.221-0.811   s-0.467-0.355-0.761-0.356c-5.386-0.025-10.644-1.92-14.811-5.339L32.662,20.128z M21.333,38.123   c-1.928-3.132-3.324-6.602-4.084-10.289c1.378-0.069,2.744-0.254,4.084-0.542V38.123z M26.167,44.168   c-1.014-0.993-1.964-2.045-2.833-3.159V26.774c0.966-0.291,1.909-0.651,2.833-1.054V44.168z M31,48.06   c-0.987-0.647-1.934-1.342-2.833-2.086V24.941c0-0.062-0.024-0.116-0.036-0.175c0.995-0.538,1.952-1.144,2.869-1.813V48.06z    M42.667,27.282c1.341,0.292,2.707,0.479,4.085,0.551c-0.76,3.687-2.156,7.158-4.085,10.291V27.282z M37.833,25.701   c0.925,0.405,1.867,0.766,2.833,1.059v14.25c-0.869,1.114-1.819,2.166-2.833,3.159V25.701z M35.833,25.129v20.844   c-0.9,0.744-1.847,1.438-2.833,2.086V22.921c0.93,0.68,1.9,1.295,2.908,1.841C35.862,24.876,35.833,24.999,35.833,25.129z" fill="var(--icon-color, currentcolor)"/>
    </g>
</svg>