<svg viewBox="0 0 73 20">
    <path d="M21.5942 7.87095L22.486 7.80644C22.486 8.0645 22.4223 8.38708 22.4223 8.70966V14.258C22.4223 14.7097 22.4223 15.0322 22.4223 15.1613C22.4223 15.3548 22.3586 15.4839 22.2312 15.6129C22.1038 15.7419 21.9127 15.8064 21.5942 15.8064H21.5305V16.258H24.9703V15.6129L23.6963 15.6774C23.6963 15.4193 23.76 15.0968 23.76 14.7097V12.0645L24.4607 12C24.5881 12 24.7155 12 24.9066 12C25.1614 12 25.3525 12 25.4799 12.0645C25.6073 12.129 25.7347 12.258 25.7984 12.3871C25.8621 12.5806 25.8621 12.7742 25.8621 13.0968H26.4354V10.3226H25.671L25.7347 11.4193H23.6963V9.22579C23.6963 8.77418 23.6963 8.51611 23.6963 8.32257C23.6963 8.12902 23.76 7.99999 23.8874 7.87095C24.0148 7.74192 24.2059 7.6774 24.4607 7.6774H25.4162C25.9258 7.6774 26.3717 7.80644 26.6265 8.0645C26.945 8.32257 27.0724 8.77418 27.0724 9.48386H27.6457L27.582 7.16127H21.5942V7.87095Z" fill="var(--icon-color, currentcolor)"/>
    <path d="M29.6841 8.51611C29.8752 8.51611 30.0663 8.4516 30.1937 8.25805C30.3211 8.0645 30.4485 7.87095 30.4485 7.6774C30.4485 7.41934 30.3848 7.22579 30.2574 7.09676C30.13 6.90321 29.9389 6.83869 29.7478 6.83869C29.5567 6.83869 29.3656 6.90321 29.2382 7.09676C29.1108 7.29031 28.9834 7.48386 28.9834 7.6774C28.9834 7.87095 29.0471 8.0645 29.1745 8.25805C29.3656 8.38708 29.493 8.51611 29.6841 8.51611Z" fill="var(--icon-color, currentcolor)"/>
    <path d="M30.3211 15.0323V10.1935H29.8752C29.8115 10.3226 29.6204 10.3871 29.4293 10.4516C29.2382 10.5161 28.856 10.5161 28.4101 10.5161V11.1613L29.2382 11.0968C29.2382 11.3548 29.1745 11.6129 29.1745 11.8064V14.4516C29.1745 14.8387 29.1745 15.0968 29.1745 15.2903C29.1745 15.4839 29.1108 15.6129 28.9834 15.6774C28.856 15.8064 28.7286 15.8064 28.4738 15.8064V16.3226H31.0218V15.6774H30.3211C30.3211 15.6129 30.3211 15.3548 30.3211 15.0323Z" fill="var(--icon-color, currentcolor)"/>
    <path d="M35.6719 10.129C35.2897 10.129 34.9712 10.2581 34.589 10.4516C34.2705 10.6452 33.952 10.9032 33.7609 11.2258C33.7609 10.8387 33.7609 10.4516 33.6972 10.1936H33.2513C33.1239 10.3226 32.9965 10.3871 32.8691 10.4516C32.7417 10.5161 32.5506 10.5161 32.2321 10.5161H31.7862V11.1613L32.6143 11.0968C32.6143 11.2903 32.5506 11.4839 32.5506 11.8065V14.4516C32.5506 14.8387 32.5506 15.0968 32.5506 15.2903C32.5506 15.4839 32.4869 15.6129 32.3595 15.6774C32.2321 15.8065 32.1047 15.8065 31.8499 15.8065V16.3226H34.3979V15.6774H33.6335C33.6335 15.5484 33.6972 15.2903 33.6972 14.9678V12.1936C33.8883 11.871 34.1431 11.5484 34.3979 11.2903C34.6527 11.0323 34.9712 10.9678 35.226 10.9678C35.226 11.1613 35.2897 11.2903 35.4171 11.4194C35.5445 11.5484 35.6719 11.6129 35.863 11.6129C36.0541 11.6129 36.1815 11.5484 36.3089 11.4194C36.4363 11.2903 36.5 11.1613 36.5 10.9678C36.5 10.7097 36.4363 10.5161 36.2452 10.3871C36.1178 10.2581 35.9267 10.129 35.6719 10.129Z" fill="var(--icon-color, currentcolor)"/>
    <path d="M42.2967 14.8387C42.1056 15.0968 41.8508 15.3549 41.4686 15.5484C41.0864 15.742 40.7042 15.8065 40.322 15.8065C39.685 15.8065 39.2391 15.5484 38.9206 15.0968C38.6021 14.5807 38.4747 13.9355 38.4747 13.0323L42.6152 12.9678C42.6152 12.3871 42.4878 11.871 42.2967 11.4839C42.1056 11.0968 41.7871 10.7742 41.4049 10.5807C41.0227 10.3871 40.6405 10.2581 40.1309 10.2581C39.5576 10.2581 39.048 10.3871 38.6021 10.7097C38.0925 10.9032 37.7103 11.2903 37.4555 11.8065C37.2007 12.3226 37.0733 12.8387 37.0733 13.4194C37.0733 14.0645 37.2007 14.5807 37.4555 15.0968C37.7103 15.6129 38.0925 15.9355 38.5384 16.1936C38.9843 16.4516 39.4939 16.5807 40.0672 16.5807C40.5131 16.5807 41.0227 16.4516 41.5323 16.1936C42.0419 15.9355 42.4241 15.6129 42.7426 15.0968L42.2967 14.8387ZM39.048 11.1613C39.3028 10.9032 39.685 10.7742 40.1309 10.7742C40.5131 10.7742 40.8316 10.9032 41.0227 11.2258C41.2138 11.5484 41.3412 11.871 41.3412 12.3226H38.4747C38.6021 11.8065 38.7932 11.4194 39.048 11.1613Z" fill="var(--icon-color, currentcolor)"/>
    <path d="M47.329 13.2903C47.0742 13.1613 46.692 12.9677 46.3098 12.8387C45.8002 12.6452 45.418 12.4516 45.1632 12.3226C44.9084 12.129 44.781 11.9355 44.781 11.6129C44.781 11.3548 44.9084 11.1613 45.0358 11.0323C45.2269 10.9032 45.4817 10.7742 45.8639 10.7742C46.3098 10.7742 46.692 10.9677 46.9468 11.2903C47.2016 11.6129 47.329 12 47.329 12.4516H47.8386V10.2581H47.2016V10.6452C46.7557 10.3226 46.3098 10.1935 45.8002 10.1935C45.2906 10.1935 44.9084 10.2581 44.5899 10.4516C44.2714 10.6452 44.0803 10.9032 43.9529 11.1613C43.8255 11.4193 43.7618 11.6774 43.7618 11.9355C43.7618 12.3226 43.8255 12.6452 44.0166 12.9032C44.2077 13.1613 44.4625 13.3548 44.7173 13.4839C44.9721 13.6129 45.3543 13.8064 45.7365 13.9355C46.2461 14.129 46.5646 14.3226 46.8194 14.4516C47.0742 14.5806 47.1379 14.8387 47.1379 15.0968C47.1379 15.3548 47.0105 15.6129 46.7557 15.7419C46.5009 15.871 46.2461 15.9355 45.9276 15.9355C45.6091 15.9355 45.3543 15.871 45.0995 15.7419C44.8447 15.6129 44.6536 15.4193 44.4625 15.1613C44.3351 14.9032 44.2714 14.6452 44.2714 14.3226H43.7618L43.8255 16.5161H44.4625L44.3988 16.1935C44.5899 16.3226 44.9084 16.4516 45.1632 16.5161C45.4817 16.5806 45.8002 16.6452 46.1187 16.6452C46.5009 16.6452 46.8194 16.5806 47.1379 16.4516C47.4564 16.3226 47.7112 16.129 47.9023 15.871C48.0934 15.6129 48.2208 15.2903 48.2208 14.9032C48.2208 14.5806 48.1571 14.2581 47.966 14C47.8386 13.6129 47.5838 13.4193 47.329 13.2903Z" fill="var(--icon-color, currentcolor)"/>
    <path d="M52.9346 15.0323C52.8072 15.2903 52.6161 15.4194 52.425 15.5484C52.2339 15.6774 52.0428 15.742 51.788 15.742C51.4695 15.742 51.2784 15.6129 51.151 15.3549C51.0236 15.0968 50.9599 14.7097 50.9599 14.129V10.9678H52.9346V10.3226H50.9599V8.64518H50.4503C50.3229 9.09679 50.1318 9.48389 49.877 9.80647C49.6222 10.129 49.3037 10.3226 48.9215 10.2581V10.9032H49.8133V14.1936C49.8133 15.6774 50.3866 16.4516 51.4695 16.4516C52.1702 16.4516 52.8072 16.0645 53.3168 15.2258L52.9346 15.0323Z" fill="var(--icon-color, currentcolor)"/>
    <path d="M58.1579 10.5161C57.712 10.2581 57.2024 10.129 56.6928 10.129C56.1195 10.129 55.6736 10.2581 55.2277 10.5807C54.7818 10.9032 54.4633 11.2903 54.2085 11.8065C53.9537 12.3226 53.8263 12.9032 53.8263 13.4839C53.8263 14.0645 53.9537 14.5807 54.2085 15.0968C54.4633 15.5484 54.7818 15.9355 55.2277 16.1936C55.6736 16.4516 56.1832 16.5807 56.6928 16.5807C57.2661 16.5807 57.712 16.4516 58.1579 16.129C58.6038 15.8065 58.9223 15.4194 59.1771 14.9032C59.4319 14.3871 59.5593 13.8065 59.5593 13.2258C59.5593 12.6452 59.4319 12.129 59.1771 11.6774C58.986 11.1613 58.6038 10.8387 58.1579 10.5161ZM58.0305 15.2258C57.7757 15.6774 57.3298 15.871 56.7565 15.871C56.1832 15.871 55.7373 15.6129 55.4188 15.0968C55.1003 14.5807 54.9729 13.9355 54.9729 13.1613C54.9729 12.4516 55.1003 11.9355 55.4188 11.4839C55.6736 11.0323 56.1195 10.7742 56.6928 10.7742C57.2661 10.7742 57.712 11.0323 57.9668 11.6129C58.2853 12.129 58.4127 12.8387 58.4127 13.5484C58.4127 14.2581 58.2853 14.8387 58.0305 15.2258Z" fill="var(--icon-color, currentcolor)"/>
    <path d="M65.9293 14.9678V12.8387C65.9293 11.9355 65.7382 11.2258 65.4197 10.7742C65.1012 10.3226 64.5916 10.129 63.8909 10.129C63.5724 10.129 63.2539 10.1936 62.9354 10.3226C62.6169 10.4516 62.2984 10.6452 62.0436 10.9032C62.0436 10.5807 61.9799 10.3226 61.9799 10.1936H61.5977C61.4703 10.3226 61.3429 10.3871 61.1518 10.4516C60.9607 10.5161 60.6422 10.5161 60.1326 10.5161V11.1613L60.9607 11.0968C60.9607 11.2903 60.897 11.4839 60.897 11.8065V14.3871C60.897 14.7742 60.897 15.0323 60.8333 15.2258C60.8333 15.3548 60.7696 15.4839 60.6422 15.6129C60.5785 15.7419 60.3874 15.7419 60.1326 15.7419V16.2581H62.6169V15.6129H61.9162C61.9162 15.4839 61.9162 15.2258 61.9162 14.9032V12C61.9162 11.8065 61.9162 11.6774 61.9162 11.6129C62.1073 11.4194 62.2984 11.2258 62.6169 11.0968C62.8717 10.9678 63.1902 10.9032 63.445 10.9032C63.8909 10.9032 64.2094 11.0323 64.4005 11.3548C64.5916 11.6774 64.719 12.1936 64.719 12.8387V14.3871C64.719 14.7742 64.719 15.0323 64.719 15.2258C64.719 15.4194 64.6553 15.5484 64.5279 15.6129C64.4005 15.7419 64.2731 15.7419 64.0183 15.7419V16.2581H66.5026V15.6129H65.8019C65.8656 15.4839 65.9293 15.2903 65.9293 14.9678Z" fill="var(--icon-color, currentcolor)"/>
    <path d="M72.6178 14.8387C72.4267 15.0968 72.1082 15.3549 71.726 15.5484C71.3438 15.742 70.9616 15.8065 70.5794 15.8065C69.9424 15.8065 69.4965 15.5484 69.178 15.0968C68.8595 14.5807 68.7321 13.9355 68.7321 13.0323L72.8726 12.9678C72.8726 12.3871 72.7452 11.871 72.5541 11.4839C72.363 11.0968 72.0445 10.7742 71.6623 10.5807C71.2801 10.3871 70.8979 10.2581 70.3883 10.2581C69.815 10.2581 69.3054 10.3871 68.8595 10.7097C68.4136 11.0323 68.0314 11.4194 67.7766 11.871C67.5218 12.3871 67.3944 12.9032 67.3944 13.4839C67.3944 14.129 67.5218 14.6452 67.7766 15.1613C68.0314 15.6774 68.4136 16 68.8595 16.2581C69.3054 16.5161 69.815 16.6452 70.3246 16.6452C70.7705 16.6452 71.2801 16.5161 71.7897 16.2581C72.2993 16 72.6815 15.6774 73 15.1613L72.6178 14.8387ZM69.3691 11.1613C69.6239 10.9032 70.0061 10.7742 70.452 10.7742C70.8342 10.7742 71.1527 10.9032 71.3438 11.2258C71.5349 11.5484 71.6623 11.871 71.6623 12.3226H68.7958C68.8595 11.8065 69.0506 11.4194 69.3691 11.1613Z" fill="var(--icon-color, currentcolor)"/>
    <path d="M11.0838 4.96774C11.0838 4.96774 11.0838 5.93548 10.7016 6.90323C10.7016 6.90323 10.7016 6.96774 10.6379 6.96774C10.4468 7.48387 9.93717 7.87097 9.36387 7.87097C9.23647 7.87097 9.10907 7.87097 8.98167 7.80645H8.91797C8.91797 7.80645 8.91797 7.80645 8.85427 7.80645C8.15357 7.54839 7.64398 6.64516 8.40837 5.41935C10.0009 2.70968 8.59947 1.35484 6.75218 0C6.75218 0 7.26178 3.48387 3.31239 6.58065C2.29319 4.19355 0 2.77419 0 2.77419C1.84729 6.32258 1.1466 8.45161 0.445899 10.1935C0.1274 10.9677 0 11.9355 0 12.8387C0 12.8387 0 12.8387 0 12.9032C0 12.9032 0 12.9032 0 12.9677C0 16.8387 3.12129 20 7.00698 20C8.98167 20 10.829 19.1613 12.103 17.8065C12.74 17.1613 13.2496 16.3871 13.5681 15.4839C13.8229 14.7742 14.014 13.9355 14.014 13.0968V13.0323C14.1414 10.5806 13.2496 6.64516 11.0838 4.96774ZM10.7016 13.2903C10.7016 13.4194 10.7016 13.5484 10.6379 13.6774C10.5742 13.9355 10.5742 14.1935 10.5742 14.3871C10.5742 14.5806 10.4468 14.7097 10.3831 14.9032C10.192 15.1613 10.1283 15.4194 10.1283 15.6774C10.1283 15.8065 10.0646 15.871 10.0646 16C10.0646 16.0645 10.0009 16.0645 10.0009 16.0645C9.74607 16.3226 9.49127 16.5161 9.23647 16.7742C8.98167 17.0323 8.72687 17.2258 8.40837 17.3548C8.08987 17.5484 7.83507 17.6129 7.45288 17.6129C7.26178 17.6129 7.13438 17.6129 7.00698 17.6774C6.68848 17.8065 6.43368 17.871 6.05148 17.9355C5.86038 17.9355 5.73298 17.9355 5.54188 17.871C5.41448 17.8065 5.28708 17.8065 5.09598 17.8065C4.90488 17.8065 4.77748 17.8065 4.58639 17.7419C4.45899 17.6774 4.33159 17.6774 4.20419 17.6774C4.14049 17.6774 4.07679 17.6129 4.01309 17.5484C3.94939 17.4839 3.94939 17.4194 3.88569 17.3548C3.82199 17.2258 3.82199 17.2258 3.94939 17.1613C4.07679 17.0968 4.26789 16.9677 4.39529 16.9032C4.58639 16.7742 4.77748 16.7097 4.96858 16.7097C5.15968 16.6452 5.35078 16.5806 5.47818 16.3871C5.66928 16.1935 5.86038 16.1936 6.11518 16.129C6.49738 16.0645 6.87958 15.871 7.26178 15.7419C7.32548 15.7419 7.38918 15.6774 7.45288 15.6129C7.70767 15.3548 7.96247 15.0968 8.21727 14.8387C8.28097 14.7742 8.34467 14.6452 8.40837 14.5161C8.53577 14.3871 8.59947 14.1935 8.66317 14.0645C8.66317 14 8.72687 14 8.72687 13.9355C8.72687 13.8065 8.72687 13.6129 8.72687 13.4839C8.66317 13.1613 8.66317 12.8387 8.66317 12.5161C8.66317 12.3226 8.59947 12.129 8.47207 11.9355C8.34467 11.7419 8.21727 11.5484 8.15357 11.3548C8.08987 11.2258 8.02617 11.1613 7.89877 11.1613C7.51658 11.0323 7.07068 11.0323 6.62478 11.0323C6.36998 11.0323 6.11518 11.1613 5.86038 11.2258C5.86038 11.2258 5.79668 11.2258 5.79668 11.2903C5.60558 11.4839 5.41448 11.6129 5.28708 11.8065C5.28708 11.8065 5.22338 11.871 5.22338 11.9355C5.15968 12.1935 5.09598 12.5161 5.09598 12.8387C5.09598 13.0323 5.09598 13.2903 5.22338 13.4839C5.28708 13.5484 5.35078 13.6774 5.41448 13.7419C5.47818 13.8065 5.54188 13.8065 5.60558 13.8065C5.73298 13.7419 5.86038 13.6774 5.98778 13.6129C5.92408 13.4194 5.86038 13.1613 5.79668 12.9677C6.05148 12.7742 6.36998 12.7742 6.68848 12.7742C6.81588 12.7742 6.94328 12.8387 7.07068 12.8387C7.07068 12.8387 7.07068 12.8387 7.13438 12.8387C7.38918 13.1613 7.58028 13.4839 7.58028 13.9355C7.58028 14.129 7.51658 14.2581 7.51658 14.4516C7.51658 14.4516 7.51658 14.5161 7.45288 14.5161C7.26178 14.7097 7.00698 14.9032 6.81588 15.0323C6.75218 15.0323 6.75218 15.0968 6.68848 15.0968C6.36998 15.1613 5.98778 15.2258 5.66928 15.3548H5.60558C5.41448 15.4194 5.15968 15.4194 4.96858 15.2258C4.90488 15.1613 4.90488 15.0968 4.84118 15.0968C4.77748 15.0323 4.71378 14.9032 4.65008 14.9032C4.33159 14.6452 4.01309 14.3871 3.82199 14C3.75829 13.8065 3.56719 13.6774 3.43979 13.4839C3.37609 13.4194 3.31239 13.2903 3.31239 13.2258C3.24869 12.8387 3.31239 12.3871 3.24869 12C3.24869 11.9355 3.18499 11.8065 3.18499 11.7419C3.12129 11.6129 3.18499 11.6129 3.24869 11.5484C3.43979 11.4194 3.56719 11.3548 3.75829 11.2258C3.88569 11.0968 3.94939 10.9677 4.07679 10.8387C4.20419 10.6452 4.39529 10.5161 4.58639 10.3871C4.96858 10.129 5.35078 9.87097 5.73298 9.6129C5.92408 9.54839 6.11518 9.48387 6.30628 9.41936C6.36998 9.41936 6.43368 9.48387 6.43368 9.48387C6.56108 9.6129 6.56108 9.67742 6.75218 9.54839C6.94328 9.41936 7.13438 9.41936 7.32548 9.6129C7.38918 9.67742 7.51658 9.67742 7.58028 9.67742C7.77138 9.67742 7.89877 9.67742 8.08987 9.67742C8.15357 9.67742 8.21727 9.67742 8.21727 9.74194C8.28097 9.80645 8.34467 9.87097 8.40837 9.87097C8.47207 9.87097 8.53577 9.87097 8.59947 9.93548C8.66317 10.0645 8.72687 10.0645 8.85427 10.0645C8.91797 10.0645 9.04537 10 9.10907 10C9.17277 10 9.23647 10 9.23647 10.0645C9.42757 10.3226 9.68237 10.5161 9.87347 10.7742C10.0646 11.0323 10.2557 11.2258 10.4468 11.4839C10.5105 11.5484 10.5105 11.6129 10.5105 11.6774C10.5742 12 10.6379 12.2581 10.7016 12.5806C10.7016 12.7097 10.7653 12.8387 10.829 12.9677C10.7653 13.0323 10.7653 13.1613 10.7016 13.2903Z" fill="var(--icon-color, currentcolor)"/>
</svg>