<svg width="715" height="193" viewBox="0 0 715 193" fill="none" xmlns="http://www.w3.org/2000/svg">
<path d="M211.505 75.9547L220.24 75.3321C220.24 77.8224 219.616 80.9353 219.616 84.0482V137.59C219.616 141.948 219.616 145.061 219.616 146.306C219.616 148.174 218.992 149.419 217.744 150.664C216.496 151.91 214.625 152.532 211.505 152.532H210.881V156.89H244.572V150.664L232.094 151.287C232.094 148.797 232.718 145.684 232.718 141.948V116.422L239.581 115.8C240.829 115.8 242.077 115.8 243.948 115.8C246.444 115.8 248.316 115.8 249.564 116.422C250.811 117.045 252.059 118.29 252.683 119.535C253.307 121.403 253.307 123.271 253.307 126.384H258.922V99.6128H251.435L252.059 110.197H232.094V89.0289C232.094 84.6708 232.094 82.1805 232.094 80.3128C232.094 78.445 232.718 77.1999 233.966 75.9547C235.214 74.7095 237.085 74.087 239.581 74.087H248.94C253.931 74.087 258.298 75.3321 260.794 77.8224C263.913 80.3128 265.161 84.6708 265.161 91.5192H270.776L270.152 69.1063H211.505V75.9547Z" fill="#FFB948"/>
<path d="M290.742 82.1805C292.613 82.1805 294.485 81.5579 295.733 79.6902C296.981 77.8224 298.228 75.9547 298.228 74.087C298.228 71.5966 297.605 69.7289 296.357 68.4837C295.109 66.616 293.237 65.9934 291.365 65.9934C289.494 65.9934 287.622 66.616 286.374 68.4837C285.126 70.3515 283.879 72.2192 283.879 74.087C283.879 75.9547 284.502 77.8224 285.75 79.6902C287.622 80.9353 288.87 82.1805 290.742 82.1805Z" fill="#FFB948"/>
<path d="M296.98 145.061V98.3677H292.613C291.989 99.6128 290.118 100.235 288.246 100.858C286.374 101.481 282.631 101.481 278.263 101.481V107.706L286.374 107.084C286.374 109.574 285.75 112.064 285.75 113.932V139.458C285.75 143.193 285.75 145.684 285.75 147.552C285.75 149.419 285.126 150.664 283.878 151.287C282.631 152.532 281.383 152.532 278.887 152.532V157.513H303.844V151.287H296.98C296.98 150.664 296.98 148.174 296.98 145.061Z" fill="#FFB948"/>
<path d="M349.389 97.7452C345.646 97.7452 342.526 98.9904 338.783 100.858C335.663 102.726 332.544 105.216 330.672 108.329C330.672 104.594 330.672 100.858 330.048 98.3678H325.681C324.433 99.613 323.185 100.236 321.937 100.858C320.689 101.481 318.818 101.481 315.698 101.481H311.331V107.707L319.442 107.084C319.442 108.952 318.818 110.819 318.818 113.932V139.458C318.818 143.194 318.818 145.684 318.818 147.552C318.818 149.419 318.194 150.665 316.946 151.287C315.698 152.532 314.45 152.532 311.955 152.532V157.513H336.911V151.287H329.424C329.424 150.042 330.048 147.552 330.048 144.439V117.668C331.92 114.555 334.415 111.442 336.911 108.952C339.407 106.461 342.526 105.839 345.022 105.839C345.022 107.707 345.646 108.952 346.894 110.197C348.141 111.442 349.389 112.065 351.261 112.065C353.133 112.065 354.38 111.442 355.628 110.197C356.876 108.952 357.5 107.707 357.5 105.839C357.5 103.348 356.876 101.481 355.004 100.236C353.757 98.9904 351.885 97.7452 349.389 97.7452Z" fill="#FFB948"/>
<path d="M414.276 143.194C412.404 145.684 409.908 148.174 406.165 150.042C402.421 151.91 398.678 152.532 394.934 152.532C388.695 152.532 384.328 150.042 381.208 145.684C378.089 140.703 376.841 134.478 376.841 125.761L417.395 125.139C417.395 119.536 416.147 114.555 414.276 110.82C412.404 107.084 409.284 103.971 405.541 102.103C401.797 100.236 398.054 98.9905 393.063 98.9905C387.448 98.9905 382.456 100.236 378.089 103.349C373.098 105.216 369.354 108.952 366.859 113.932C364.363 118.913 363.115 123.894 363.115 129.497C363.115 135.723 364.363 140.703 366.859 145.684C369.354 150.665 373.098 153.778 377.465 156.268C381.832 158.758 386.824 160.003 392.439 160.003C396.806 160.003 401.797 158.758 406.789 156.268C411.78 153.778 415.523 150.665 418.643 145.684L414.276 143.194ZM382.456 107.707C384.952 105.216 388.695 103.971 393.063 103.971C396.806 103.971 399.926 105.216 401.797 108.329C403.669 111.442 404.917 114.555 404.917 118.913H376.841C378.089 113.932 379.961 110.197 382.456 107.707Z" fill="#FFB948"/>
<path d="M463.564 128.252C461.069 127.006 457.325 125.139 453.582 123.893C448.591 122.026 444.847 120.158 442.352 118.913C439.856 117.045 438.608 115.177 438.608 112.064C438.608 109.574 439.856 107.706 441.104 106.461C442.975 105.216 445.471 103.971 449.214 103.971C453.582 103.971 457.325 105.839 459.821 108.952C462.317 112.064 463.564 115.8 463.564 120.158H468.556V98.9903H462.317V102.726C457.949 99.6128 453.582 98.3677 448.591 98.3677C443.599 98.3677 439.856 98.9903 436.736 100.858C433.617 102.726 431.745 105.216 430.497 107.706C429.249 110.197 428.626 112.687 428.626 115.177C428.626 118.913 429.249 122.026 431.121 124.516C432.993 127.006 435.489 128.874 437.984 130.119C440.48 131.364 444.223 133.232 447.967 134.477C452.958 136.345 456.077 138.213 458.573 139.458C461.069 140.703 461.693 143.193 461.693 145.684C461.693 148.174 460.445 150.664 457.949 151.91C455.454 153.155 452.958 153.777 449.838 153.777C446.719 153.777 444.223 153.155 441.728 151.91C439.232 150.664 437.36 148.797 435.489 146.306C434.241 143.816 433.617 141.326 433.617 138.213H428.626L429.249 159.381H435.489L434.865 156.268C436.736 157.513 439.856 158.758 442.352 159.381C445.471 160.003 448.591 160.626 451.71 160.626C455.454 160.626 458.573 160.003 461.693 158.758C464.812 157.513 467.308 155.645 469.18 153.155C471.051 150.664 472.299 147.552 472.299 143.816C472.299 140.703 471.675 137.59 469.803 135.1C468.556 131.364 466.06 129.497 463.564 128.252Z" fill="#FFB948"/>
<path d="M518.469 145.061C517.221 147.552 515.349 148.797 513.477 150.042C511.606 151.287 509.734 151.91 507.238 151.91C504.119 151.91 502.247 150.665 500.999 148.174C499.751 145.684 499.127 141.949 499.127 136.345V105.839H518.469V99.6131H499.127V83.426H494.136C492.888 87.784 491.017 91.5195 488.521 94.6324C486.025 97.7453 482.906 99.6131 479.162 98.9905V105.216H487.897V136.968C487.897 151.287 493.512 158.758 504.119 158.758C510.982 158.758 517.221 155.023 522.212 146.929L518.469 145.061Z" fill="#FFB948"/>
<path d="M569.629 101.481C565.262 98.9904 560.27 97.7452 555.279 97.7452C549.664 97.7452 545.296 98.9904 540.929 102.103C536.562 105.216 533.442 108.952 530.947 113.932C528.451 118.913 527.203 124.516 527.203 130.119C527.203 135.723 528.451 140.703 530.947 145.684C533.442 150.042 536.562 153.778 540.929 156.268C545.296 158.758 550.288 160.003 555.279 160.003C560.894 160.003 565.262 158.758 569.629 155.645C573.996 152.532 577.116 148.797 579.611 143.816C582.107 138.836 583.355 133.232 583.355 127.629C583.355 122.026 582.107 117.045 579.611 112.687C577.74 107.707 573.996 104.594 569.629 101.481ZM568.381 146.929C565.885 151.287 561.518 153.155 555.903 153.155C550.288 153.155 545.92 150.665 542.801 145.684C539.681 140.703 538.433 134.478 538.433 127.007C538.433 120.158 539.681 115.178 542.801 110.819C545.296 106.461 549.664 103.971 555.279 103.971C560.894 103.971 565.262 106.461 567.757 112.065C570.877 117.045 572.125 123.894 572.125 130.742C572.125 137.59 570.877 143.194 568.381 146.929Z" fill="#FFB948"/>
<path d="M645.746 144.439V123.894C645.746 115.178 643.874 108.329 640.755 103.971C637.635 99.613 632.644 97.7452 625.781 97.7452C622.661 97.7452 619.542 98.3678 616.422 99.613C613.303 100.858 610.183 102.726 607.687 105.216C607.687 102.103 607.064 99.613 607.064 98.3678H603.32C602.072 99.613 600.824 100.236 598.953 100.858C597.081 101.481 593.961 101.481 588.97 101.481V107.707L597.081 107.084C597.081 108.952 596.457 110.819 596.457 113.932V138.836C596.457 142.571 596.457 145.061 595.833 146.929C595.833 148.174 595.209 149.419 593.961 150.665C593.338 151.91 591.466 151.91 588.97 151.91V156.89H613.303V150.665H606.44C606.44 149.419 606.44 146.929 606.44 143.816V115.8C606.44 113.932 606.44 112.687 606.44 112.065C608.311 110.197 610.183 108.329 613.303 107.084C615.798 105.839 618.918 105.216 621.414 105.216C625.781 105.216 628.9 106.461 630.772 109.574C632.644 112.687 633.892 117.668 633.892 123.894V138.836C633.892 142.571 633.892 145.061 633.892 146.929C633.892 148.797 633.268 150.042 632.02 150.665C630.772 151.91 629.524 151.91 627.029 151.91V156.89H651.361V150.665H644.498C645.122 149.419 645.746 147.552 645.746 144.439Z" fill="#FFB948"/>
<path d="M711.256 143.194C709.385 145.684 706.265 148.174 702.522 150.042C698.778 151.91 695.035 152.532 691.291 152.532C685.052 152.532 680.685 150.042 677.565 145.684C674.446 140.703 673.198 134.478 673.198 125.761L713.752 125.139C713.752 119.536 712.504 114.555 710.633 110.82C708.761 107.084 705.641 103.971 701.898 102.103C698.154 100.236 694.411 98.9905 689.42 98.9905C683.805 98.9905 678.813 100.236 674.446 103.349C670.079 106.461 666.335 110.197 663.839 114.555C661.344 119.536 660.096 124.516 660.096 130.12C660.096 136.345 661.344 141.326 663.839 146.307C666.335 151.287 670.079 154.4 674.446 156.89C678.813 159.381 683.805 160.626 688.796 160.626C693.163 160.626 698.154 159.381 703.146 156.89C708.137 154.4 711.88 151.287 715 146.307L711.256 143.194ZM679.437 107.707C681.933 105.216 685.676 103.971 690.044 103.971C693.787 103.971 696.907 105.216 698.778 108.329C700.65 111.442 701.898 114.555 701.898 118.913H673.822C674.446 113.932 676.318 110.197 679.437 107.707Z" fill="#FFB948"/>
<path d="M108.56 47.9387C108.56 47.9387 108.56 57.2774 104.817 66.6161C104.817 66.6161 104.817 67.2387 104.193 67.2387C102.321 72.2194 97.3298 75.9548 91.7146 75.9548C90.4668 75.9548 89.219 75.9548 87.9712 75.3323H87.3473C87.3473 75.3323 87.3473 75.3323 86.7234 75.3323C79.8604 72.8419 74.8691 64.1258 82.356 52.2968C97.9537 26.1484 84.2277 13.0742 66.1344 0C66.1344 0 71.1256 33.6194 32.4433 63.5032C22.4607 40.4677 0 26.771 0 26.771C18.0934 61.0129 11.2304 81.5581 4.36736 98.3678C1.24782 105.839 0 115.177 0 123.894C0 123.894 0 123.894 0 124.516C0 124.516 0 124.516 0 125.139C0 162.494 30.5715 193 68.63 193C87.9712 193 106.065 184.906 118.543 171.832C124.782 165.606 129.773 158.135 132.893 149.419C135.388 142.571 137.26 134.477 137.26 126.384V125.761C138.508 102.103 129.773 64.1258 108.56 47.9387ZM104.817 128.252C104.817 129.497 104.817 130.742 104.193 131.987C103.569 134.477 103.569 136.968 103.569 138.835C103.569 140.703 102.321 141.948 101.697 143.816C99.8254 146.306 99.2015 148.797 99.2015 151.287C99.2015 152.532 98.5776 153.155 98.5776 154.4C98.5776 155.023 97.9537 155.023 97.9537 155.023C95.4581 157.513 92.9624 159.381 90.4668 161.871C87.9712 164.361 85.4755 166.229 82.356 167.474C79.2364 169.342 76.7408 169.965 72.9973 169.965C71.1256 169.965 69.8778 169.965 68.63 170.587C65.5104 171.832 63.0148 172.455 59.2714 173.077C57.3996 173.077 56.1518 173.077 54.2801 172.455C53.0323 171.832 51.7844 171.832 49.9127 171.832C48.041 171.832 46.7932 171.832 44.9214 171.21C43.6736 170.587 42.4258 170.587 41.178 170.587C40.5541 170.587 39.9302 169.965 39.3063 169.342C38.6824 168.719 38.6824 168.097 38.0584 167.474C37.4345 166.229 37.4345 166.229 38.6824 165.606C39.9302 164.984 41.8019 163.739 43.0497 163.116C44.9214 161.871 46.7932 161.248 48.6649 161.248C50.5366 160.626 52.4084 160.003 53.6562 158.135C55.5279 156.268 57.3996 156.268 59.8953 155.645C63.6387 155.023 67.3822 153.155 71.1256 151.91C71.7495 151.91 72.3734 151.287 72.9973 150.665C75.493 148.174 77.9886 145.684 80.4843 143.194C81.1082 142.571 81.7321 141.326 82.356 140.081C83.6038 138.835 84.2277 136.968 84.8516 135.723C84.8516 135.1 85.4755 135.1 85.4755 134.477C85.4755 133.232 85.4755 131.365 85.4755 130.119C84.8516 127.006 84.8516 123.894 84.8516 120.781C84.8516 118.913 84.2277 117.045 82.9799 115.177C81.7321 113.31 80.4843 111.442 79.8603 109.574C79.2364 108.329 78.6125 107.706 77.3647 107.706C73.6213 106.461 69.2539 106.461 64.8865 106.461C62.3909 106.461 59.8953 107.706 57.3996 108.329C57.3996 108.329 56.7757 108.329 56.7757 108.952C54.904 110.819 53.0323 112.065 51.7844 113.932C51.7844 113.932 51.1605 114.555 51.1605 115.177C50.5366 117.668 49.9127 120.781 49.9127 123.894C49.9127 125.761 49.9127 128.252 51.1605 130.119C51.7844 130.742 52.4084 131.987 53.0323 132.61C53.6562 133.232 54.2801 133.232 54.904 133.232C56.1518 132.61 57.3996 131.987 58.6474 131.365C58.0235 129.497 57.3996 127.006 56.7757 125.139C59.2714 123.271 62.3909 123.271 65.5104 123.271C66.7583 123.271 68.0061 123.894 69.2539 123.894C69.2539 123.894 69.2539 123.894 69.8778 123.894C72.3734 127.006 74.2452 130.119 74.2452 134.477C74.2452 136.345 73.6213 137.59 73.6213 139.458C73.6213 139.458 73.6213 140.081 72.9973 140.081C71.1256 141.948 68.63 143.816 66.7583 145.061C66.1343 145.061 66.1343 145.684 65.5104 145.684C62.3909 146.306 58.6474 146.929 55.5279 148.174H54.904C53.0323 148.797 50.5366 148.797 48.6649 146.929C48.041 146.306 48.041 145.684 47.4171 145.684C46.7932 145.061 46.1693 143.816 45.5454 143.816C42.4258 141.326 39.3063 138.835 37.4345 135.1C36.8106 133.232 34.9389 131.987 33.6911 130.119C33.0672 129.497 32.4433 128.252 32.4433 127.629C31.8194 123.894 32.4433 119.535 31.8194 115.8C31.8194 115.177 31.1954 113.932 31.1954 113.31C30.5715 112.065 31.1954 112.065 31.8194 111.442C33.6911 110.197 34.9389 109.574 36.8106 108.329C38.0584 107.084 38.6824 105.839 39.9302 104.594C41.178 102.726 43.0497 101.481 44.9214 100.235C48.6649 97.7452 52.4084 95.2548 56.1518 92.7645C58.0235 92.1419 59.8953 91.5194 61.767 90.8968C62.3909 90.8968 63.0148 91.5194 63.0148 91.5194C64.2626 92.7645 64.2626 93.3871 66.1344 92.1419C68.0061 90.8968 69.8778 90.8968 71.7495 92.7645C72.3734 93.3871 73.6213 93.3871 74.2452 93.3871C76.1169 93.3871 77.3647 93.3871 79.2364 93.3871C79.8603 93.3871 80.4843 93.3871 80.4843 94.0097C81.1082 94.6323 81.7321 95.2548 82.356 95.2548C82.9799 95.2548 83.6038 95.2548 84.2277 95.8774C84.8516 97.1226 85.4755 97.1226 86.7234 97.1226C87.3473 97.1226 88.5951 96.5 89.219 96.5C89.8429 96.5 90.4668 96.5 90.4668 97.1226C92.3385 99.6129 94.8342 101.481 96.7059 103.971C98.5776 106.461 100.449 108.329 102.321 110.819C102.945 111.442 102.945 112.065 102.945 112.687C103.569 115.8 104.193 118.29 104.817 121.403C104.817 122.648 105.441 123.894 106.065 125.139C105.441 125.761 105.441 127.006 104.817 128.252Z" fill="#FFB948"/>
</svg>
