<svg width="100" height="105" viewBox="0 0 100 105" fill="none"
    xmlns="http://www.w3.org/2000/svg">
    <path d="M65.8661 19.2729C65.8661 19.2729 65.8661 22.9272 64.4413 26.6317C64.3904 26.7318 64.3395 26.882 64.2886 26.9821C64.2886 26.9821 64.2377 26.9821 64.2377 26.932C63.5253 28.9344 61.5406 30.3361 59.2506 30.3361C58.7417 30.3361 58.2329 30.2359 57.724 30.1358C57.6222 30.0858 57.5713 30.0858 57.4695 30.0357C57.4186 30.0357 57.3678 29.9856 57.3169 29.9856C54.518 28.8843 52.6351 25.4302 55.434 20.7246C61.6424 10.3623 56.1973 5.20619 48.9712 0C48.9712 0 50.854 13.3659 35.4348 25.23C31.1093 16.3194 22.0002 10.8629 22.0002 10.8629C29.1755 24.5292 26.4275 32.6889 23.8831 39.3968C22.7127 42.5005 22.0511 46.1549 22.0511 49.659C22.0511 49.7091 22.0511 49.7591 22.0511 49.8593C22.0511 49.9093 22.0511 49.9594 22.0511 50.0595C22.0511 64.9772 34.4679 77.0916 49.7345 77.0916C57.6222 77.0916 64.7466 73.8378 69.8354 68.6816C72.329 66.2788 74.2627 63.2752 75.5858 59.771C76.7054 56.9176 77.3669 53.864 77.4178 50.6602C77.4178 50.5601 77.4178 50.51 77.4178 50.4099C77.8758 40.9487 74.4154 25.9809 65.8661 19.2729ZM64.4922 51.361C64.4413 51.8116 64.3904 52.2621 64.2886 52.7627C64.1359 53.7138 63.9324 54.665 63.9324 55.6161C63.9324 56.4171 63.4744 56.9677 63.0673 57.5184C62.3548 58.4194 61.9986 59.4206 61.9477 60.572C61.9477 60.9725 61.7951 61.3729 61.6933 61.7734C61.6424 61.9236 61.5406 62.0237 61.4388 62.1238C60.4211 63.075 59.3524 63.976 58.3855 64.9772C57.4695 65.9284 56.35 66.6292 55.1287 67.1798H55.0778C53.9073 67.9307 52.686 68.2812 51.312 68.0309C50.6505 67.9307 50.0907 68.131 49.48 68.3813C48.3096 68.8819 47.1392 69.2323 45.8161 69.3324C45.1036 69.3825 44.493 69.3324 43.8823 68.982C43.4243 68.7317 42.7628 68.6816 42.203 68.6816C41.5414 68.6816 40.8799 68.5815 40.2183 68.3312C39.7603 68.131 39.2515 68.131 38.7935 67.9808C38.539 67.8807 38.2337 67.7806 38.0301 67.5803C37.8266 67.3801 37.6739 67.1298 37.5212 66.8795C37.2159 66.479 37.2159 66.429 37.6739 66.2287C38.2846 65.9284 38.8443 65.5279 39.5059 65.2776C40.2183 64.9772 40.9308 64.777 41.6941 64.6268C42.5592 64.4766 43.2208 64.0762 43.7805 63.4254C44.4421 62.6745 45.409 62.5744 46.2741 62.4242C47.9025 62.1739 49.3274 61.4731 50.8031 60.8723C51.0576 60.7722 51.2611 60.572 51.4647 60.3718C52.5334 59.4206 53.5511 58.4695 54.5689 57.4683C54.9251 57.1179 55.1796 56.7174 55.434 56.3169C55.8411 55.7663 56.1973 55.2156 56.5535 54.6149C56.6553 54.4647 56.7062 54.3146 56.7062 54.1644C56.7062 53.5637 56.808 52.9629 56.7062 52.4123C56.4009 51.1608 56.5535 49.9093 56.5535 48.6578C56.5535 47.8569 56.2991 47.156 55.8411 46.4552C55.3831 45.7043 54.9251 44.9534 54.4671 44.2025C54.2636 43.8021 53.9582 43.5518 53.5002 43.4016C51.8718 42.901 50.1925 42.8009 48.5132 43.0011C47.4954 43.1012 46.4776 43.5518 45.4598 43.8021C45.3581 43.8521 45.2563 43.9022 45.2054 43.9522C44.493 44.603 43.7805 45.2538 43.0681 45.9046C42.9663 46.0047 42.8136 46.1549 42.7628 46.3551C42.5592 47.4564 42.2539 48.6078 42.203 49.7091C42.1521 50.51 42.203 51.4111 42.8136 52.1119C43.119 52.4624 43.3734 52.8128 43.6788 53.1632C43.8823 53.4135 44.1876 53.4635 44.493 53.3634C45.0019 53.1632 45.5107 52.9129 46.1214 52.6626C45.8161 51.8116 45.5616 51.0106 45.2563 50.3098C46.325 49.5088 47.5463 49.609 48.7167 49.609C49.2256 49.609 49.6836 49.8092 50.1925 49.9093C50.2434 49.9093 50.2943 49.9594 50.3451 50.0094C51.4138 51.2609 52.0754 52.6125 52.0245 54.2645C52.0245 54.9653 51.8718 55.6161 51.8209 56.3169C51.8209 56.4171 51.7191 56.5172 51.6682 56.5672C50.854 57.2681 49.9889 57.9689 49.1747 58.6697C49.022 58.7698 48.8185 58.87 48.6658 58.87C47.3427 59.0702 45.9687 59.2704 44.6965 59.8211C44.5947 59.8712 44.5439 59.9212 44.4421 59.8712C43.4752 59.6709 42.4574 59.721 41.6941 59.0201C41.5414 58.87 41.4397 58.6197 41.287 58.4194C41.0325 58.1191 40.7781 57.8187 40.4728 57.5684C39.2006 56.5672 37.9792 55.566 37.3177 54.0142C37.0124 53.2633 36.3508 52.6626 35.791 52.0619C35.5366 51.7615 35.3839 51.4612 35.333 51.0106C35.0277 49.4588 35.2313 47.8569 35.1804 46.305C35.1804 45.9546 35.0277 45.6042 34.875 45.3038C34.7224 44.9034 34.7733 44.7532 35.1804 44.5029C35.8928 44.1024 36.5544 43.6519 37.165 43.1513C37.623 42.7508 37.9792 42.2502 38.2846 41.7496C38.7935 40.9987 39.455 40.398 40.2183 39.9475C41.6941 38.9463 43.1699 37.9451 44.7474 37.044C45.409 36.6936 46.2232 36.5434 46.9356 36.3933C47.0883 36.3432 47.3427 36.5434 47.4445 36.6936C47.8516 37.2943 48.0552 37.3944 48.6658 37.044C49.5309 36.5434 50.1925 36.6436 50.9049 37.3444C51.1085 37.5446 51.5665 37.6447 51.8718 37.6948C52.5334 37.7449 53.144 37.6948 53.8056 37.7449C53.9582 37.7449 54.2127 37.845 54.3144 37.9451C54.518 38.2955 54.8233 38.3456 55.1796 38.3456C55.4849 38.2955 55.7393 38.4457 55.892 38.696C56.0955 39.0965 56.4518 39.1966 56.8589 39.0965C57.1642 39.0464 57.5204 38.9463 57.8258 38.8462C58.0802 38.7461 58.2838 38.7961 58.4364 38.9963C59.2506 39.8974 60.1157 40.7484 60.8791 41.6996C61.6424 42.6006 62.3548 43.5518 63.0673 44.5029C63.2199 44.7532 63.3217 45.0535 63.3726 45.3539C63.6271 46.5053 63.8815 47.7067 64.1359 48.8581C64.2377 49.3587 64.4922 49.8593 64.5939 50.3599C64.543 50.5601 64.543 50.9606 64.4922 51.361Z" fill="var(--icon-color, --default-title-color)" />
</svg>
