<svg width="100" height="105" viewBox="0 0 100 105" fill="none"
    xmlns="http://www.w3.org/2000/svg">
    <path d="M65.8661 19.2729C65.8661 19.2729 65.8661 22.9272 64.4413 26.6317C64.3904 26.7318 64.3395 26.882 64.2886 26.9821C64.2886 26.9821 64.2377 26.9821 64.2377 26.932C63.5253 28.9344 61.5406 30.3361 59.2506 30.3361C58.7417 30.3361 58.2329 30.2359 57.724 30.1358C57.6222 30.0858 57.5713 30.0858 57.4695 30.0357C57.4186 30.0357 57.3678 29.9856 57.3169 29.9856C54.518 28.8843 52.6351 25.4302 55.434 20.7246C61.6424 10.3623 56.1973 5.20619 48.9712 0C48.9712 0 50.854 13.3659 35.4348 25.23C31.1093 16.3194 22.0002 10.8629 22.0002 10.8629C29.1755 24.5292 26.4275 32.6889 23.8831 39.3968C22.7127 42.5005 22.0511 46.1549 22.0511 49.659C22.0511 49.7091 22.0511 49.7591 22.0511 49.8593C22.0511 49.9093 22.0511 49.9594 22.0511 50.0595C22.0511 64.9772 34.4679 77.0916 49.7345 77.0916C57.6222 77.0916 64.7466 73.8378 69.8354 68.6816C72.329 66.2788 74.2627 63.2752 75.5858 59.771C76.7054 56.9176 77.3669 53.864 77.4178 50.6602C77.4178 50.5601 77.4178 50.51 77.4178 50.4099C77.8758 40.9487 74.4154 25.9809 65.8661 19.2729ZM64.4922 51.361C64.4413 51.8116 64.3904 52.2621 64.2886 52.7627C64.1359 53.7138 63.9324 54.665 63.9324 55.6161C63.9324 56.4171 63.4744 56.9677 63.0673 57.5184C62.3548 58.4194 61.9986 59.4206 61.9477 60.572C61.9477 60.9725 61.7951 61.3729 61.6933 61.7734C61.6424 61.9236 61.5406 62.0237 61.4388 62.1238C60.4211 63.075 59.3524 63.976 58.3855 64.9772C57.4695 65.9284 56.35 66.6292 55.1287 67.1798H55.0778C53.9073 67.9307 52.686 68.2812 51.312 68.0309C50.6505 67.9307 50.0907 68.131 49.48 68.3813C48.3096 68.8819 47.1392 69.2323 45.8161 69.3324C45.1036 69.3825 44.493 69.3324 43.8823 68.982C43.4243 68.7317 42.7628 68.6816 42.203 68.6816C41.5414 68.6816 40.8799 68.5815 40.2183 68.3312C39.7603 68.131 39.2515 68.131 38.7935 67.9808C38.539 67.8807 38.2337 67.7806 38.0301 67.5803C37.8266 67.3801 37.6739 67.1298 37.5212 66.8795C37.2159 66.479 37.2159 66.429 37.6739 66.2287C38.2846 65.9284 38.8443 65.5279 39.5059 65.2776C40.2183 64.9772 40.9308 64.777 41.6941 64.6268C42.5592 64.4766 43.2208 64.0762 43.7805 63.4254C44.4421 62.6745 45.409 62.5744 46.2741 62.4242C47.9025 62.1739 49.3274 61.4731 50.8031 60.8723C51.0576 60.7722 51.2611 60.572 51.4647 60.3718C52.5334 59.4206 53.5511 58.4695 54.5689 57.4683C54.9251 57.1179 55.1796 56.7174 55.434 56.3169C55.8411 55.7663 56.1973 55.2156 56.5535 54.6149C56.6553 54.4647 56.7062 54.3146 56.7062 54.1644C56.7062 53.5637 56.808 52.9629 56.7062 52.4123C56.4009 51.1608 56.5535 49.9093 56.5535 48.6578C56.5535 47.8569 56.2991 47.156 55.8411 46.4552C55.3831 45.7043 54.9251 44.9534 54.4671 44.2025C54.2636 43.8021 53.9582 43.5518 53.5002 43.4016C51.8718 42.901 50.1925 42.8009 48.5132 43.0011C47.4954 43.1012 46.4776 43.5518 45.4598 43.8021C45.3581 43.8521 45.2563 43.9022 45.2054 43.9522C44.493 44.603 43.7805 45.2538 43.0681 45.9046C42.9663 46.0047 42.8136 46.1549 42.7628 46.3551C42.5592 47.4564 42.2539 48.6078 42.203 49.7091C42.1521 50.51 42.203 51.4111 42.8136 52.1119C43.119 52.4624 43.3734 52.8128 43.6788 53.1632C43.8823 53.4135 44.1876 53.4635 44.493 53.3634C45.0019 53.1632 45.5107 52.9129 46.1214 52.6626C45.8161 51.8116 45.5616 51.0106 45.2563 50.3098C46.325 49.5088 47.5463 49.609 48.7167 49.609C49.2256 49.609 49.6836 49.8092 50.1925 49.9093C50.2434 49.9093 50.2943 49.9594 50.3451 50.0094C51.4138 51.2609 52.0754 52.6125 52.0245 54.2645C52.0245 54.9653 51.8718 55.6161 51.8209 56.3169C51.8209 56.4171 51.7191 56.5172 51.6682 56.5672C50.854 57.2681 49.9889 57.9689 49.1747 58.6697C49.022 58.7698 48.8185 58.87 48.6658 58.87C47.3427 59.0702 45.9687 59.2704 44.6965 59.8211C44.5947 59.8712 44.5439 59.9212 44.4421 59.8712C43.4752 59.6709 42.4574 59.721 41.6941 59.0201C41.5414 58.87 41.4397 58.6197 41.287 58.4194C41.0325 58.1191 40.7781 57.8187 40.4728 57.5684C39.2006 56.5672 37.9792 55.566 37.3177 54.0142C37.0124 53.2633 36.3508 52.6626 35.791 52.0619C35.5366 51.7615 35.3839 51.4612 35.333 51.0106C35.0277 49.4588 35.2313 47.8569 35.1804 46.305C35.1804 45.9546 35.0277 45.6042 34.875 45.3038C34.7224 44.9034 34.7733 44.7532 35.1804 44.5029C35.8928 44.1024 36.5544 43.6519 37.165 43.1513C37.623 42.7508 37.9792 42.2502 38.2846 41.7496C38.7935 40.9987 39.455 40.398 40.2183 39.9475C41.6941 38.9463 43.1699 37.9451 44.7474 37.044C45.409 36.6936 46.2232 36.5434 46.9356 36.3933C47.0883 36.3432 47.3427 36.5434 47.4445 36.6936C47.8516 37.2943 48.0552 37.3944 48.6658 37.044C49.5309 36.5434 50.1925 36.6436 50.9049 37.3444C51.1085 37.5446 51.5665 37.6447 51.8718 37.6948C52.5334 37.7449 53.144 37.6948 53.8056 37.7449C53.9582 37.7449 54.2127 37.845 54.3144 37.9451C54.518 38.2955 54.8233 38.3456 55.1796 38.3456C55.4849 38.2955 55.7393 38.4457 55.892 38.696C56.0955 39.0965 56.4518 39.1966 56.8589 39.0965C57.1642 39.0464 57.5204 38.9463 57.8258 38.8462C58.0802 38.7461 58.2838 38.7961 58.4364 38.9963C59.2506 39.8974 60.1157 40.7484 60.8791 41.6996C61.6424 42.6006 62.3548 43.5518 63.0673 44.5029C63.2199 44.7532 63.3217 45.0535 63.3726 45.3539C63.6271 46.5053 63.8815 47.7067 64.1359 48.8581C64.2377 49.3587 64.4922 49.8593 64.5939 50.3599C64.543 50.5601 64.543 50.9606 64.4922 51.361Z" fill="white" fill-opacity="0.08"/>
    <path d="M0.124051 88.1232L1.85395 87.9999C1.85395 88.4931 1.73039 89.1096 1.73039 89.7261V100.33C1.73039 101.193 1.73039 101.809 1.73039 102.056C1.73039 102.426 1.60682 102.673 1.35969 102.919C1.11257 103.166 0.741873 103.289 0.124051 103.289H0.000488281V104.152H6.67297V102.919L4.20168 103.042C4.20168 102.549 4.32524 101.933 4.32524 101.193V96.1377L5.68445 96.0144C5.93158 96.0144 6.17871 96.0144 6.5494 96.0144C7.04366 96.0144 7.41435 96.0144 7.66148 96.1377C7.90861 96.261 8.15574 96.5076 8.2793 96.7542C8.40287 97.1241 8.40286 97.494 8.40286 98.1105H9.51495V92.8086H8.03217L8.15573 94.9047H4.20168V90.7125C4.20168 89.8494 4.20168 89.3562 4.20168 88.9863C4.20168 88.6164 4.32524 88.3698 4.57237 88.1232C4.8195 87.8766 5.19019 87.7533 5.68445 87.7533H7.53791C8.52643 87.7533 9.39138 87.9999 9.88564 88.4931C10.5035 88.9863 10.7506 89.8494 10.7506 91.2057H11.8627L11.7391 86.7669H0.124051V88.1232Z" fill="white" fill-opacity="0.08"/>
    <path d="M15.8167 89.3562C16.1874 89.3562 16.5581 89.2329 16.8053 88.863C17.0524 88.4931 17.2995 88.1232 17.2995 87.7533C17.2995 87.2601 17.1759 86.8902 16.9288 86.6436C16.6817 86.2737 16.311 86.1504 15.9403 86.1504C15.5696 86.1504 15.1989 86.2737 14.9518 86.6436C14.7047 87.0135 14.4575 87.3834 14.4575 87.7533C14.4575 88.1232 14.5811 88.4931 14.8282 88.863C15.1989 89.1096 15.446 89.3562 15.8167 89.3562Z" fill="white" fill-opacity="0.08"/>
    <path d="M17.0524 101.809V92.562H16.1874C16.0638 92.8086 15.6932 92.9319 15.3225 93.0552C14.9518 93.1785 14.2104 93.1785 13.3454 93.1785V94.4115L14.9518 94.2882C14.9518 94.7814 14.8282 95.2746 14.8282 95.6445V100.7C14.8282 101.44 14.8282 101.933 14.8282 102.303C14.8282 102.673 14.7046 102.919 14.4575 103.042C14.2104 103.289 13.9632 103.289 13.469 103.289V104.275H18.4116V103.042H17.0524C17.0524 102.919 17.0524 102.426 17.0524 101.809Z" fill="white" fill-opacity="0.08"/>
    <path d="M27.4318 92.4387C26.6904 92.4387 26.0726 92.6853 25.3312 93.0552C24.7134 93.4251 24.0956 93.9183 23.7249 94.5348C23.7249 93.795 23.7249 93.0552 23.6013 92.562H22.7364C22.4893 92.8086 22.2421 92.9319 21.995 93.0552C21.7479 93.1785 21.3772 93.1785 20.7593 93.1785H19.8944V94.4115L21.5007 94.2882C21.5007 94.6581 21.3772 95.028 21.3772 95.6445V100.7C21.3772 101.44 21.3772 101.933 21.3772 102.303C21.3772 102.673 21.2536 102.919 21.0065 103.042C20.7593 103.289 20.5122 103.289 20.018 103.289V104.275H24.9605V103.042H23.4778C23.4778 102.796 23.6013 102.303 23.6013 101.686V96.3843C23.972 95.7678 24.4663 95.1513 24.9605 94.6581C25.4548 94.1649 26.0726 94.0416 26.5669 94.0416C26.5669 94.4115 26.6904 94.6581 26.9376 94.9047C27.1847 95.1513 27.4318 95.2746 27.8025 95.2746C28.1732 95.2746 28.4203 95.1513 28.6675 94.9047C28.9146 94.6581 29.0382 94.4115 29.0382 94.0416C29.0382 93.5484 28.9146 93.1785 28.5439 92.9319C28.2968 92.6853 27.9261 92.4387 27.4318 92.4387Z" fill="white" fill-opacity="0.08"/>
    <path d="M40.2825 101.44C39.9118 101.933 39.4176 102.426 38.6762 102.796C37.9348 103.166 37.1934 103.289 36.452 103.289C35.2164 103.289 34.3514 102.796 33.7336 101.933C33.1158 100.946 32.8686 99.7134 32.8686 97.9872L40.9003 97.8639C40.9003 96.7542 40.6532 95.7678 40.2825 95.028C39.9118 94.2882 39.294 93.6717 38.5526 93.3018C37.8112 92.9319 37.0698 92.6853 36.0813 92.6853C34.9692 92.6853 33.9807 92.9319 33.1158 93.5484C32.1273 93.9183 31.3859 94.6581 30.8916 95.6445C30.3974 96.6309 30.1502 97.6173 30.1502 98.727C30.1502 99.96 30.3974 100.946 30.8916 101.933C31.3859 102.919 32.1273 103.536 32.9922 104.029C33.8572 104.522 34.8457 104.769 35.9577 104.769C36.8227 104.769 37.8112 104.522 38.7997 104.029C39.7882 103.536 40.5296 102.919 41.1475 101.933L40.2825 101.44ZM33.9807 94.4115C34.475 93.9183 35.2164 93.6717 36.0813 93.6717C36.8227 93.6717 37.4405 93.9183 37.8112 94.5348C38.1819 95.1513 38.429 95.7678 38.429 96.6309H32.8686C33.1158 95.6445 33.4865 94.9047 33.9807 94.4115Z" fill="white" fill-opacity="0.08"/>
    <path d="M50.0441 98.4804C49.5498 98.2338 48.8084 97.8639 48.0671 97.6173C47.0785 97.2474 46.3372 96.8775 45.8429 96.6309C45.3486 96.261 45.1015 95.8911 45.1015 95.2746C45.1015 94.7814 45.3486 94.4115 45.5958 94.1649C45.9665 93.9183 46.4607 93.6717 47.2021 93.6717C48.0671 93.6717 48.8084 94.0416 49.3027 94.6581C49.797 95.2746 50.0441 96.0144 50.0441 96.8775H51.0326V92.6853H49.797V93.4251C48.932 92.8086 48.0671 92.562 47.0785 92.562C46.09 92.562 45.3486 92.6853 44.7308 93.0552C44.113 93.4251 43.7423 93.9183 43.4952 94.4115C43.248 94.9047 43.1245 95.3979 43.1245 95.8911C43.1245 96.6309 43.248 97.2474 43.6187 97.7406C43.9894 98.2338 44.4837 98.6037 44.9779 98.8503C45.4722 99.0969 46.2136 99.4668 46.955 99.7134C47.9435 100.083 48.5613 100.453 49.0556 100.7C49.5498 100.946 49.6734 101.44 49.6734 101.933C49.6734 102.426 49.4263 102.919 48.932 103.166C48.4377 103.412 47.9435 103.536 47.3257 103.536C46.7078 103.536 46.2136 103.412 45.7193 103.166C45.2251 102.919 44.8544 102.549 44.4837 102.056C44.2366 101.563 44.113 101.07 44.113 100.453H43.1245L43.248 104.645H44.4837L44.3601 104.029C44.7308 104.275 45.3486 104.522 45.8429 104.645C46.4607 104.769 47.0785 104.892 47.6964 104.892C48.4377 104.892 49.0556 104.769 49.6734 104.522C50.2912 104.275 50.7855 103.906 51.1562 103.412C51.5269 102.919 51.774 102.303 51.774 101.563C51.774 100.946 51.6504 100.33 51.2797 99.8367C51.0326 99.0969 50.5383 98.727 50.0441 98.4804Z" fill="white" fill-opacity="0.08"/>
    <path d="M60.9178 101.81C60.6707 102.303 60.3 102.549 59.9293 102.796C59.5586 103.042 59.1879 103.166 58.6936 103.166C58.0758 103.166 57.7051 102.919 57.458 102.426C57.2109 101.933 57.0873 101.193 57.0873 100.083V94.0416H60.9178V92.8086H57.0873V89.6028H56.0988C55.8517 90.4659 55.481 91.2057 54.9867 91.8222C54.4924 92.4387 53.8746 92.8086 53.1332 92.6853V93.9183H54.8631V100.207C54.8631 103.042 55.9752 104.522 58.0758 104.522C59.435 104.522 60.6707 103.782 61.6592 102.179L60.9178 101.81Z" fill="white" fill-opacity="0.08"/>
    <path d="M71.05 93.1785C70.1851 92.6853 69.1965 92.4387 68.208 92.4387C67.096 92.4387 66.231 92.6853 65.3661 93.3018C64.5011 93.9183 63.8833 94.6581 63.389 95.6445C62.8948 96.6309 62.6476 97.7406 62.6476 98.8503C62.6476 99.96 62.8948 100.946 63.389 101.933C63.8833 102.796 64.5011 103.536 65.3661 104.029C66.231 104.522 67.2195 104.769 68.208 104.769C69.3201 104.769 70.1851 104.522 71.05 103.906C71.915 103.289 72.5328 102.549 73.027 101.563C73.5213 100.576 73.7684 99.4668 73.7684 98.3571C73.7684 97.2474 73.5213 96.261 73.027 95.3979C72.6563 94.4115 71.915 93.795 71.05 93.1785ZM70.8029 102.179C70.3086 103.042 69.4437 103.412 68.3316 103.412C67.2195 103.412 66.3546 102.919 65.7367 101.933C65.1189 100.946 64.8718 99.7134 64.8718 98.2338C64.8718 96.8775 65.1189 95.8911 65.7367 95.028C66.231 94.1649 67.096 93.6717 68.208 93.6717C69.3201 93.6717 70.1851 94.1649 70.6793 95.2746C71.2971 96.261 71.5443 97.6173 71.5443 98.9736C71.5443 100.33 71.2971 101.44 70.8029 102.179Z" fill="white" fill-opacity="0.08"/>
    <path d="M86.1249 101.686V97.6173C86.1249 95.8911 85.7542 94.5348 85.1364 93.6717C84.5186 92.8086 83.53 92.4387 82.1708 92.4387C81.553 92.4387 80.9352 92.562 80.3174 92.8086C79.6995 93.0552 79.0817 93.4251 78.5875 93.9183C78.5875 93.3018 78.4639 92.8086 78.4639 92.562H77.7225C77.4754 92.8086 77.2283 92.9319 76.8576 93.0552C76.4869 93.1785 75.869 93.1785 74.8805 93.1785V94.4115L76.4869 94.2882C76.4869 94.6581 76.3633 95.028 76.3633 95.6445V100.576C76.3633 101.316 76.3633 101.809 76.2397 102.179C76.2397 102.426 76.1162 102.673 75.8691 102.919C75.7455 103.166 75.3748 103.166 74.8805 103.166V104.152H79.6995V102.919H78.3403C78.3403 102.673 78.3403 102.179 78.3403 101.563V96.0144C78.3403 95.6445 78.3403 95.3979 78.3403 95.2746C78.711 94.9047 79.0817 94.5348 79.6995 94.2882C80.1938 94.0416 80.8116 93.9183 81.3059 93.9183C82.1708 93.9183 82.7887 94.1649 83.1594 94.7814C83.53 95.3979 83.7772 96.3843 83.7772 97.6173V100.576C83.7772 101.316 83.7772 101.809 83.7772 102.179C83.7772 102.549 83.6536 102.796 83.4065 102.919C83.1594 103.166 82.9122 103.166 82.418 103.166V104.152H87.237V102.919H85.8778C86.0013 102.673 86.1249 102.303 86.1249 101.686Z" fill="white" fill-opacity="0.08"/>
    <path d="M99.0992 101.44C98.7285 101.933 98.1107 102.426 97.3693 102.796C96.6279 103.166 95.8865 103.289 95.1451 103.289C93.9095 103.289 93.0445 102.796 92.4267 101.933C91.8089 100.946 91.5618 99.7134 91.5618 97.9872L99.5934 97.8639C99.5934 96.7542 99.3463 95.7678 98.9756 95.028C98.6049 94.2882 97.9871 93.6717 97.2457 93.3018C96.5043 92.9319 95.7629 92.6853 94.7744 92.6853C93.6623 92.6853 92.6738 92.9319 91.8089 93.5484C90.9439 94.1649 90.2025 94.9047 89.7083 95.7678C89.214 96.7542 88.9669 97.7406 88.9669 98.8503C88.9669 100.083 89.214 101.07 89.7083 102.056C90.2025 103.042 90.9439 103.659 91.8089 104.152C92.6738 104.645 93.6623 104.892 94.6509 104.892C95.5158 104.892 96.5043 104.645 97.4929 104.152C98.4814 103.659 99.2227 103.042 99.8406 102.056L99.0992 101.44ZM92.7974 94.4115C93.2917 93.9183 94.0331 93.6717 94.898 93.6717C95.6394 93.6717 96.2572 93.9183 96.6279 94.5348C96.9986 95.1513 97.2457 95.7678 97.2457 96.6309H91.6853C91.8089 95.6445 92.1796 94.9047 92.7974 94.4115Z" fill="white" fill-opacity="0.08"/>
</svg>
