<svg xmlns="http://www.w3.org/2000/svg" width="100" height="100" viewBox="0 0 800 800">
    <circle cx="256" cy="256" r="350" fill="var(--icon-secondary-color, transparent)" stroke="var(--icon-color, currentColor)" stroke-width="20px" style="transform: translate(110px, 110px);"/>
    <path d="M504.724,137.96c4.074-12.905,6.276-26.621,6.276-40.826c0-5.12-3.413-8.533-8.533-8.533H152.6 c-5.12,0-8.533,3.413-8.533,8.533V114.2H7.533c-5.12,0-8.533,3.413-8.533,8.533c0,61.44,49.493,110.933,110.933,110.933H152.6 h13.79c8.898,8.688,15.684,18.143,20.343,29.013c0.655,1.309,1.437,2.362,2.343,3.169c4.636,11.454,7.044,23.769,7.044,36.084 c0,26.034-10.865,50.512-28.886,68.267h-31.701c-14.507,0-25.6,11.093-25.6,25.6c0,14.507,11.093,25.6,25.6,25.6h238.933 c14.507,0,25.6-11.093,25.6-25.6c0-14.507-11.093-25.6-25.6-25.6h-30.949c-18.692-17.826-28.785-43.043-28.785-68.267 c0-25.223,10.092-50.441,28.044-68.267h31.689c54.908,0,102.511-32.852,124.138-79.869c0.476-0.6,0.914-1.275,1.302-2.051 C501.702,147.259,503.314,142.652,504.724,137.96z " fill="var(--icon-color, currentColor)" style="transform: translate(110px, 110px);"></path>
</svg>