<svg width="10" height="14" viewBox="0 0 10 14" fill="none"
    xmlns="http://www.w3.org/2000/svg">
    <path d="M4.64645 8.35355C4.84171 8.54882 5.15829 8.54882 5.35355 8.35355L8.53553 5.17157C8.7308 4.97631 8.7308 4.65973 8.53553 4.46447C8.34027 4.2692 8.02369 4.2692 7.82843 4.46447L5 7.29289L2.17157 4.46447C1.97631 4.2692 1.65973 4.2692 1.46447 4.46447C1.2692 4.65973 1.2692 4.97631 1.46447 5.17157L4.64645 8.35355ZM4.5 0L4.5 8H5.5V0L4.5 0Z" fill="var(--icon-color, currentcolor)" stroke="var(--icon-color-secondary, currentcolor)"/>
    <path fill-rule="evenodd" clip-rule="evenodd" d="M0 9H1L1 13L9 13V9H10V13V14H9H1H0V9Z" fill="var(--icon-color, currentcolor)" stroke="var(--icon-color-secondary, currentcolor)"/>
</svg>
