<svg viewBox="0 0 15 15">
    <path d="M6.70093 8.64551V8.97363H7.70581V8.74292C7.70581 8.46606 7.75879 8.24561 7.86475 8.08154C7.97412 7.91748 8.18774 7.71069 8.50562 7.46118C8.87817 7.17065 9.13965 6.93481 9.29004 6.75366C9.44385 6.57251 9.55835 6.38281 9.63354 6.18457C9.70874 5.98291 9.74634 5.75391 9.74634 5.49756C9.74634 4.91992 9.5498 4.46704 9.15674 4.13892C8.76367 3.81079 8.23218 3.64673 7.56226 3.64673C6.76929 3.64673 6.02588 3.83984 5.33203 4.22607L5.7627 5.12842C6.02588 4.99854 6.2959 4.88745 6.57275 4.79517C6.84961 4.70288 7.15039 4.65674 7.4751 4.65674C7.83398 4.65674 8.10913 4.73364 8.30054 4.88745C8.49194 5.04126 8.58765 5.26172 8.58765 5.54883C8.58765 5.79492 8.52783 6.00684 8.4082 6.18457C8.29199 6.3623 8.03052 6.61182 7.62378 6.93311C7.28198 7.19971 7.04272 7.45776 6.90601 7.70728C6.76929 7.95679 6.70093 8.26953 6.70093 8.64551Z" fill="var(--icon-color, currentColor)"/>
    <path d="M7.24438 9.83496C6.74194 9.83496 6.49072 10.093 6.49072 10.6091C6.49072 10.8586 6.55566 11.0535 6.68555 11.1936C6.81543 11.3303 7.00171 11.3987 7.24438 11.3987C7.48706 11.3987 7.67334 11.3286 7.80322 11.1885C7.93652 11.0449 8.00317 10.8518 8.00317 10.6091C8.00317 10.363 7.93823 10.1733 7.80835 10.04C7.67847 9.90332 7.49048 9.83496 7.24438 9.83496Z" fill="var(--icon-color, currentColor)"/>
    <path fill-rule="evenodd" clip-rule="evenodd" d="M15 7.5C15 11.6421 11.6421 15 7.5 15C3.35786 15 0 11.6421 0 7.5C0 3.35786 3.35786 0 7.5 0C11.6421 0 15 3.35786 15 7.5ZM14.25 7.5C14.25 11.2279 11.2279 14.25 7.5 14.25C3.77208 14.25 0.75 11.2279 0.75 7.5C0.75 3.77208 3.77208 0.75 7.5 0.75C11.2279 0.75 14.25 3.77208 14.25 7.5Z" fill="var(--icon-color, currentColor)"/>
</svg>