<svg width="28" height="28" viewBox="0 0 28 28" fill="none" xmlns="http://www.w3.org/2000/svg">
<circle cx="14" cy="14" r="14" fill="#841063"/>
<path d="M10.5357 16.7318L8.57141 14.7675L16.265 7.07383L18.7204 6.58275L18.2294 9.03816L10.5357 16.7318Z" fill="#FFB948"/>
<path d="M12.4726 18.995L6.28344 12.8059C6.10263 12.6251 5.80948 12.6251 5.62867 12.8059C5.44786 12.9867 5.44785 13.2799 5.62867 13.4607L11.8178 19.6498C11.9986 19.8306 12.2918 19.8306 12.4726 19.6498C12.6534 19.469 12.6534 19.1758 12.4726 18.995Z" fill="#FFB948"/>
<path d="M9.03826 17.1955L8.08105 16.2383L5.29826 19.0211L6.25546 19.9783L9.03826 17.1955Z" fill="#FFB948"/>
<rect x="4.97168" y="18.4697" width="2.50235" height="1.09135" transform="rotate(45 4.97168 18.4697)" fill="#FFB948"/>
<path d="M17.6361 16.9886L19.6005 15.0243L11.9068 7.33067L9.45143 6.83959L9.94251 9.295L17.6361 16.9886Z" fill="#FFB948"/>
<path d="M15.6993 19.2519L21.8884 13.0627C22.0692 12.8819 22.3624 12.8819 22.5432 13.0627C22.724 13.2436 22.724 13.5367 22.5432 13.7175L16.3541 19.9066C16.1733 20.0875 15.8801 20.0875 15.6993 19.9066C15.5185 19.7258 15.5185 19.4327 15.6993 19.2519Z" fill="#FFB948"/>
<path d="M19.1336 17.4523L20.0908 16.4951L22.8736 19.2779L21.9164 20.2351L19.1336 17.4523Z" fill="#FFB948"/>
<rect width="2.50236" height="1.09135" transform="matrix(-0.707107 0.707107 0.707107 0.707107 23.2002 18.7266)" fill="#FFB948"/>
</svg>
