<svg width="54" height="54" viewBox="0 0 54 54" fill="none"
	xmlns="http://www.w3.org/2000/svg">>
	<path d="M25.9,24.9c0.4-0.9,0.8-1.7,1.2-2.5c1.4,0.2,2.3,1.2,3.1,2.1c0.4,0.4,0.6,0.9,0.9,1.4c0,0.1,0,0.1,0,0.2
c-0.2,1.7-0.7,3.3-2,4.5c-0.5,0.5-1.1,0.9-1.7,1.4C27.4,32,27.2,32,27.1,32c-1.2-0.1-2.3-0.2-3.5-0.3c-0.2,0-0.4-0.1-0.5-0.2
c-1.2-0.8-2.3-1.7-3.7-2.2c-0.1,0-0.2-0.1-0.2-0.1c-0.6-0.9-1.4-1.6-1.4-2.7c0-0.3,0.1-0.5,0.1-0.8c0-0.4,0.1-0.8,0.1-1.3
c-0.2-1.7-0.3-3.4,0.4-5.1c0.3-0.8,0.3-1.8,0.4-2.7c0-0.5,0.2-0.8,0.4-1.1c1-1.4,2.3-2.5,3.5-3.7c0.2-0.3,0.4-0.6,0.5-1
c0.2-0.4,0.4-0.5,0.8-0.4c0.8,0.2,1.7,0.4,2.5,0.4c0.6,0,1.3-0.1,1.9-0.2c1-0.2,1.9-0.1,2.8,0c1.9,0.4,3.8,0.7,5.6,1.2
c0.8,0.2,1.5,0.7,2.2,1.2c0.1,0.1,0.2,0.4,0.2,0.6c-0.1,0.8-0.1,1,0.6,1.2c1,0.3,1.5,0.9,1.5,1.9c0,0.3,0.2,0.7,0.5,1
c0.4,0.5,1,1,1.4,1.5c0.1,0.1,0.2,0.4,0.2,0.5c-0.1,0.4,0.1,0.7,0.3,0.9c0.3,0.2,0.4,0.5,0.3,0.8c-0.2,0.5,0,0.8,0.4,1.1
c0.3,0.2,0.6,0.4,0.9,0.5c0.3,0.1,0.4,0.3,0.4,0.6c-0.1,1.3-0.1,2.6-0.2,3.9c-0.1,1.3-0.3,2.5-0.5,3.8c0,0.3-0.2,0.6-0.4,0.9
c-0.7,1.1-1.4,2.2-2.1,3.3c-0.3,0.5-0.5,1-0.8,1.5c-0.2,0.4-0.6,0.7-0.9,0.9c-0.4,0.3-0.8,0.6-1.2,0.9c-0.8,0.6-1.7,1.2-2.5,1.9
c-0.6,0.6-1.4,0.7-2.1,0.8c-1.2,0.2-2.3,0.7-3.2,1.5c-0.3,0.3-0.7,0.5-1.1,0.7c-0.1,0.1-0.3,0.1-0.5,0.1c-1.5,0-3-0.2-4.5-0.1
c-1.4,0-2.8-0.2-4.1-0.8c0,0,0,0,0,0c-1.4-0.3-2.6-1-3.5-2.2c-0.4-0.6-1-0.8-1.7-1.1c-1.2-0.5-2.4-1.1-3.5-2c-0.6-0.5-1-1-1.2-1.7
c-0.2-0.6-0.6-1.1-1-1.5c-0.5-0.5-0.9-1.1-1.2-1.7c-0.2-0.5-0.5-0.9-0.8-1.3c-0.1-0.3-0.2-0.6-0.3-0.9c0-0.3,0.1-0.6,0.1-0.9
c0.1-0.5,0.1-0.6,0.6-0.4c0.7,0.2,1.4,0.3,2.1,0.6c0.7,0.3,1.5,0.7,2.1,1.2c0.8,0.5,1.6,0.7,2.5,0.7c1.1-0.1,1.9,0.5,2.7,1.1
c1.4,1,3,1.5,4.6,2.2c0.3,0.1,0.6,0.1,0.9,0.1c1.5,0.1,3,0.1,4.6,0.1c0.5,0,1-0.1,1.5-0.3c0.7-0.1,1.4-0.3,2.1-0.5
c0.2,0,0.3-0.1,0.5-0.2c0.5-0.4,1-0.8,1.3-1.4c0.7-1.2,1.8-2,2.8-3c0.6-0.6,1-1.4,1.2-2.2c0.2-0.9,0.5-1.9,0.7-2.8
c0.1-0.5,0.1-0.9-0.1-1.3c-0.8-1.6-2-2.9-3.4-4.1c-0.9-0.7-1.9-1.1-2.9-1.7c-0.1-0.1-0.2-0.1-0.3-0.1c-1,0-2.1-0.1-3.1-0.1
c-0.2,0-0.4,0-0.5,0.1c-1,0.7-2.1,1.3-3,2.1c-0.7,0.6-1.3,1.3-1.4,2.3c0,0.5-0.1,0.9-0.2,1.4c0,0.4,0.1,0.6,0.5,0.8
C24.7,24.4,25.3,24.7,25.9,24.9z" fill="var(--icon-color, currentcolor)"/>
</svg>