<svg width="1024" height="1024" viewBox="0 0 1024 1024" fill="none"
        xmlns="http://www.w3.org/2000/svg">

        <g transform="translate(0,512) scale(0.1,-0.1)">
                <path d="m5186 2718 l49 -118 125 0 c69 0 131 -4 139 -9 10 -6 -13 -32 -88 -97
-60 -53 -101 -97 -101 -108 0 -10 14 -66 30 -124 17 -57 29 -106 27 -108 -2
-3 -52 23 -111 56 -59 34 -113 63 -120 66 -7 3 -65 -25 -129 -61 -64 -36 -119
-65 -121 -65 -2 0 12 53 30 117 19 65 34 122 34 128 0 5 -45 48 -100 95 -55
46 -100 87 -100 91 0 10 84 19 181 19 l87 0 53 125 c29 69 56 122 59 118 4 -5
29 -61 56 -125z m-842 -191 c22 -16 18 -55 -6 -71 -13 -8 -22 -6 -37 8 -25 23
-26 39 -5 60 19 19 25 20 48 3z m-1188 -33 c86 -41 99 -162 24 -221 -8 -7 -32
-17 -52 -23 -106 -30 -198 98 -136 190 24 36 78 70 111 70 11 0 34 -7 53 -16z
m4087 2 c138 -57 103 -249 -45 -249 -133 0 -168 195 -44 249 40 17 49 17 89 0z
m-1323 -50 c19 -23 8 -61 -18 -64 -44 -7 -67 32 -36 62 19 20 38 20 54 2z
m340 -271 c26 -32 -13 -81 -47 -59 -35 22 -23 74 17 74 10 0 23 -7 30 -15z
m-2210 -9 c15 -20 9 -56 -12 -70 -13 -8 -22 -6 -37 8 -26 24 -26 31 -1 56 24
24 34 25 50 6z m720 -652 l0 -626 -24 19 c-13 10 -69 52 -125 93 l-100 75 -3
163 -3 162 -70 -41 c-38 -22 -85 -50 -103 -61 l-32 -20 2 302 3 301 220 130
c121 71 223 129 227 129 5 0 8 -282 8 -626z m753 -1205 c-9 -9 -404 -239 -409
-239 -2 0 -3 376 -2 836 l3 836 205 124 205 124 3 -837 c1 -460 -1 -840 -5
-844z m-1829 1610 c44 -35 32 -96 -24 -119 -28 -11 -34 -11 -58 7 -58 43 -33
129 39 132 9 1 28 -8 43 -20z m2941 -44 c29 -28 32 -65 8 -93 -44 -52 -123
-24 -123 44 0 68 68 97 115 49z m-415 -878 c0 -620 -1 -663 -17 -673 -51 -31
-404 -234 -408 -234 -3 0 -5 294 -5 654 l0 654 208 130 c114 72 210 131 215
131 4 1 7 -297 7 -662z m-2300 -34 c0 -51 -3 -93 -7 -93 -3 0 -76 69 -160 152
l-153 153 -550 -550 -550 -550 193 -193 c105 -106 325 -324 488 -483 l296
-289 287 281 c158 155 288 280 290 278 1 -2 17 -31 36 -64 l33 -60 -274 -267
-274 -268 415 -410 c228 -226 579 -572 780 -769 l366 -360 154 153 c243 238
1225 1201 1330 1303 l95 93 -270 269 -269 270 29 60 c25 53 31 59 47 50 11 -6
142 -132 293 -280 l273 -270 486 477 c267 262 486 480 486 484 0 4 -24 29 -52
56 -29 26 -279 270 -556 543 l-503 494 -107 -104 c-59 -57 -143 -139 -188
-182 l-80 -78 -3 92 c-2 74 1 94 15 110 9 10 21 16 26 13 4 -3 7 0 6 8 -2 7 3
12 10 10 8 -1 11 1 8 6 -3 5 66 79 153 166 l158 157 464 -458 c255 -251 551
-543 657 -648 l193 -190 -73 -69 c-90 -85 -1299 -1268 -1728 -1691 -173 -171
-480 -473 -682 -673 -201 -199 -370 -362 -375 -362 -4 0 -165 157 -358 348
-192 191 -640 633 -995 982 -355 349 -833 821 -1063 1050 l-418 415 648 646
647 646 163 -156 163 -156 0 -92z m530 -193 l0 -500 -229 0 -228 0 -7 358 c-4
196 -5 364 -2 372 6 13 439 268 459 269 4 1 7 -224 7 -499z m-1130 -427 l52
-122 141 -3 141 -3 -85 -75 c-46 -42 -95 -83 -109 -93 l-24 -17 34 -117 c18
-65 36 -125 39 -133 3 -9 -10 -6 -40 12 -24 14 -81 46 -126 71 l-81 45 -117
-65 c-64 -35 -119 -63 -121 -60 -3 3 11 58 30 123 41 137 49 113 -83 224 -49
41 -90 78 -90 82 -1 4 61 9 136 10 l137 3 34 80 c64 150 72 168 76 164 2 -2
27 -59 56 -126z m3789 2 l53 -125 142 0 141 0 -45 -43 c-25 -23 -74 -67 -110
-98 l-64 -57 36 -121 c20 -66 32 -121 28 -121 -4 0 -59 29 -122 65 l-115 66
-117 -66 c-65 -37 -120 -64 -123 -61 -3 2 9 51 27 108 17 57 33 110 36 119 3
10 -30 45 -101 105 -58 49 -105 92 -105 96 0 5 61 8 136 8 l135 0 28 63 c16
34 39 90 52 124 13 35 26 63 29 63 3 0 30 -56 59 -125z m-1991 -892 c1 -321 0
-583 -4 -583 -3 0 -15 5 -27 12 -38 20 -708 448 -802 512 l-60 41 50 7 c28 3
128 7 222 7 l173 1 -22 45 -22 45 -215 0 -216 1 -130 240 c-71 132 -132 244
-133 250 -2 6 213 8 590 7 l593 -3 3 -582z m63 -938 l53 -125 111 -1 c60 -1
122 -4 138 -8 27 -6 27 -6 -35 -60 -35 -29 -83 -72 -107 -94 l-44 -40 32 -116
c17 -64 31 -119 31 -123 0 -4 -51 22 -114 57 -63 36 -118 65 -123 65 -5 0 -58
-27 -119 -60 -60 -33 -112 -60 -115 -60 -4 0 9 53 27 117 19 65 33 120 32 123
-2 4 -47 46 -101 94 -53 48 -95 92 -91 97 3 5 63 9 134 9 l128 0 35 88 c52
128 67 162 71 162 2 0 28 -56 57 -125z m1461 -349 c25 -30 22 -63 -7 -91 -38
-39 -86 -32 -111 17 -12 24 -13 33 -2 55 26 54 85 63 120 19z m-3475 -356 c75
-45 84 -148 19 -207 -29 -27 -44 -33 -78 -33 -54 0 -100 27 -121 73 -21 43
-21 67 -3 112 29 68 118 95 183 55z m4088 6 c70 -30 96 -122 52 -187 -27 -40
-60 -59 -106 -59 -108 0 -168 145 -89 217 51 46 86 53 143 29z m-989 -31 c11
-43 -34 -73 -64 -43 -27 27 -6 68 35 68 16 0 24 -7 29 -25z" stroke="#FFB948" fill="#FFB948"/>
        </g>
</svg>
