<svg xmlns="http://www.w3.org/2000/svg" viewBox="0 0 24 24">
    <path d="M12 2C7.029 2 3 6.029 3 11c0 3.26 2.529 7.51 6.902 10.402L12 22l2.098-1.357C18.471 18.509 21 14.26 21 11 21 6.029 16.971 2 12 2z" stroke="var(--icon-color, currentcolor)" stroke-width="0.5" />
    <path d="M10,11 C10.552,11 11,11.448 11,12 C11,12.552 10.552,13 10,13 C9.448,13 9,12.552 9,12 C9,11.448 9.448,11 10,11 Z M14,11 C14.552,11 15,11.448 15,12 C15,12.552 14.552,13 14,13 C13.448,13 13,12.552 13,12 C13,11.448 13.448,11 14,11 Z" fill-rule="nonzero" fill="var(--icon-color, currentcolor)" />
</svg>