<svg width="18" height="18" viewBox="0 0 18 18" fill="none" xmlns="http://www.w3.org/2000/svg">
    <rect width="18" height="18" rx="9" fill="#494949"/>
    <path fill-rule="evenodd" clip-rule="evenodd" d="M13.6372 4.6382C13.9897 4.99067 13.9897 5.56214 13.6372 5.91461L5.80959 13.7422C5.45712 14.0947 4.88566 14.0947 4.53319 13.7422C4.18072 13.3898 4.18072 12.8183 4.53319 12.4658L12.3608 4.6382C12.7133 4.28573 13.2848 4.28573 13.6372 4.6382Z" fill="#708A91"/>
    <path fill-rule="evenodd" clip-rule="evenodd" d="M13.3618 13.6382C13.0093 13.9907 12.4379 13.9907 12.0854 13.6382L4.25776 5.81057C3.90529 5.4581 3.90529 4.88663 4.25776 4.53416C4.61023 4.18169 5.18169 4.18169 5.53416 4.53416L13.3618 12.3618C13.7143 12.7143 13.7143 13.2857 13.3618 13.6382Z" fill="#708A91"/>
</svg>