<?xml version="1.0" encoding="UTF-8"?>
<svg xmlns="http://www.w3.org/2000/svg" version="1.1" width="1024" height="1024" viewBox="0 0 1024 1024" style="shape-rendering:geometricPrecision; text-rendering:geometricPrecision; image-rendering:optimizeQuality; fill-rule:evenodd; clip-rule:evenodd"
	xmlns:xlink="http://www.w3.org/1999/xlink">
	<g>
		<path style="opacity:1" fill="#f7c149" d="M 507.5,160.5 C 508.552,160.351 509.552,160.517 510.5,161C 509.328,161.419 508.328,162.085 507.5,163C 510.877,164.106 514.044,165.606 517,167.5C 519.137,166.923 521.304,166.59 523.5,166.5C 528.807,169.153 534.14,171.82 539.5,174.5C 539.105,177.523 540.105,178.523 542.5,177.5C 543.799,178.09 544.632,179.09 545,180.5C 546.011,179.663 547.178,179.33 548.5,179.5C 556.332,183.249 563.999,187.249 571.5,191.5C 571.795,193.423 572.628,195.09 574,196.5C 574.308,195.692 574.808,195.025 575.5,194.5C 578.215,197.404 581.548,198.738 585.5,198.5C 590.984,200.407 595.984,203.073 600.5,206.5C 602.065,209.154 604.065,211.487 606.5,213.5C 609.167,214.167 611.833,214.833 614.5,215.5C 617.241,218.32 620.075,220.987 623,223.5C 624.604,222.351 626.27,222.351 628,223.5C 630.656,225.444 633.49,227.11 636.5,228.5C 638.687,227.928 641.021,227.928 643.5,228.5C 643.238,229.978 643.571,231.311 644.5,232.5C 647.717,233.76 650.884,235.093 654,236.5C 654.333,236.167 654.667,235.833 655,235.5C 655.708,238.268 657.208,239.101 659.5,238C 660.257,239.512 661.257,240.846 662.5,242C 667.999,244.207 673.332,245.707 678.5,246.5C 679.492,246.328 680.158,246.662 680.5,247.5C 680.414,248.496 680.748,249.329 681.5,250C 684.275,251.134 686.775,252.634 689,254.5C 689.671,253.748 690.504,253.414 691.5,253.5C 705.663,260.082 719.663,266.915 733.5,274C 734.914,275.993 735.914,278.16 736.5,280.5C 736.427,282.027 737.094,283.027 738.5,283.5C 744.2,292.903 749.534,302.57 754.5,312.5C 754.427,314.027 755.094,315.027 756.5,315.5C 756.678,318.216 757.178,320.883 758,323.5C 758.333,323.167 758.667,322.833 759,322.5C 759.333,324.167 759.667,325.833 760,327.5C 760.333,327.167 760.667,326.833 761,326.5C 763.015,330.356 764.682,334.356 766,338.5C 766.333,338.167 766.667,337.833 767,337.5C 768,340.167 769,342.833 770,345.5C 770.342,343.381 771.175,343.047 772.5,344.5C 772.427,346.027 773.094,347.027 774.5,347.5C 777.258,350.678 779.258,354.345 780.5,358.5C 780.427,360.027 781.094,361.027 782.5,361.5C 785.927,366.016 788.593,371.016 790.5,376.5C 790.427,378.027 791.094,379.027 792.5,379.5C 793.674,380.514 794.34,381.847 794.5,383.5C 794.427,385.027 795.094,386.027 796.5,386.5C 797.674,387.514 798.34,388.847 798.5,390.5C 799.132,396.441 801.798,401.108 806.5,404.5C 807.76,409.691 809.593,414.691 812,419.5C 812.671,418.748 813.504,418.414 814.5,418.5C 819.005,425.505 823.005,432.839 826.5,440.5C 828.507,447.02 831.007,453.354 834,459.5C 834.333,459.167 834.667,458.833 835,458.5C 837.605,463.376 839.938,468.376 842,473.5C 842.671,472.748 843.504,472.414 844.5,472.5C 846.588,474.336 847.921,476.669 848.5,479.5C 848.427,481.027 849.094,482.027 850.5,482.5C 856.768,492.621 862.435,503.121 867.5,514C 864.899,520.035 861.899,525.869 858.5,531.5C 857.778,531.082 857.278,530.416 857,529.5C 854.445,534.942 851.612,540.275 848.5,545.5C 847.534,547.396 847.201,549.396 847.5,551.5C 847.5,552.167 847.167,552.5 846.5,552.5C 846.44,551.957 846.107,551.624 845.5,551.5C 844.719,552.729 844.219,554.062 844,555.5C 843.667,554.5 843.333,553.5 843,552.5C 842.505,554.473 842.338,556.473 842.5,558.5C 841.167,558.5 839.833,558.5 838.5,558.5C 837.978,561.568 837.145,564.568 836,567.5C 834.466,571.403 832.3,574.903 829.5,578C 830.337,579.011 830.67,580.178 830.5,581.5C 830.672,582.492 830.338,583.158 829.5,583.5C 829.631,582.624 829.298,581.957 828.5,581.5C 825.348,585.299 823.682,589.633 823.5,594.5C 822.071,597.696 820.405,600.696 818.5,603.5C 817.5,603.5 816.5,603.5 815.5,603.5C 814.224,606.336 813.558,609.336 813.5,612.5C 808.724,621.728 803.724,630.728 798.5,639.5C 797.504,639.586 796.671,639.252 796,638.5C 793.268,643.962 791.101,649.628 789.5,655.5C 786.337,662.496 782.671,669.162 778.5,675.5C 777.5,675.5 776.5,675.5 775.5,675.5C 774.036,680.01 771.87,684.677 769,689.5C 768.107,688.289 767.274,688.289 766.5,689.5C 767.348,691.409 767.682,693.409 767.5,695.5C 767.5,696.167 767.167,696.5 766.5,696.5C 766.44,695.957 766.107,695.624 765.5,695.5C 763.741,698.887 761.908,702.22 760,705.5C 759.667,704.833 759.333,704.167 759,703.5C 757.344,706.053 757.177,708.719 758.5,711.5C 757.083,714.669 755.417,717.669 753.5,720.5C 752.312,721.684 751.145,721.684 750,720.5C 749.06,725.047 747.06,729.047 744,732.5C 743.51,733.793 743.343,735.127 743.5,736.5C 741.176,736.662 739.509,737.828 738.5,740C 739.167,740.667 739.833,741.333 740.5,742C 738.808,743.401 738.141,745.234 738.5,747.5C 737.504,747.586 736.671,747.252 736,746.5C 734.402,749.298 733.235,752.298 732.5,755.5C 729.72,754.694 729.053,755.694 730.5,758.5C 721.9,763.923 712.9,768.59 703.5,772.5C 700.068,772.757 696.734,773.424 693.5,774.5C 693.5,775.5 693.5,776.5 693.5,777.5C 692.486,778.674 691.153,779.34 689.5,779.5C 689.083,778.876 688.416,778.543 687.5,778.5C 684.349,780.413 681.016,781.746 677.5,782.5C 677.567,783.959 677.234,785.292 676.5,786.5C 664.998,792.752 653.331,798.752 641.5,804.5C 637.92,803.923 634.92,804.923 632.5,807.5C 630.88,804.942 629.38,804.942 628,807.5C 626.732,807.384 625.398,807.051 624,806.5C 623.5,807 623,807.5 622.5,808C 623.731,809.183 623.731,810.349 622.5,811.5C 620.999,812.752 619.332,813.752 617.5,814.5C 616.873,815.417 616.539,816.417 616.5,817.5C 601.266,826.252 585.6,834.252 569.5,841.5C 568.417,841.461 567.417,841.127 566.5,840.5C 562.8,843.847 558.633,844.847 554,843.5C 552.706,844.854 552.54,846.188 553.5,847.5C 552.311,848.429 550.978,848.762 549.5,848.5C 549.567,849.959 549.234,851.292 548.5,852.5C 546.117,854.358 543.45,855.692 540.5,856.5C 538.989,855.498 537.322,854.831 535.5,854.5C 535.634,856.292 535.301,857.958 534.5,859.5C 532.409,859.682 530.409,859.348 528.5,858.5C 524.767,860.353 521.1,862.353 517.5,864.5C 516.571,865.689 516.238,867.022 516.5,868.5C 513.632,868.915 511.465,867.915 510,865.5C 509.626,866.416 509.126,867.25 508.5,868C 509.672,868.419 510.672,869.085 511.5,870C 509.866,870.494 508.199,870.66 506.5,870.5C 445.689,840.262 385.356,809.262 325.5,777.5C 325.279,776.265 324.612,775.265 323.5,774.5C 323.709,773.914 324.043,773.414 324.5,773C 323.328,772.581 322.328,771.915 321.5,771C 319.865,770.46 318.532,770.96 317.5,772.5C 315.821,771.218 313.987,770.218 312,769.5C 311.333,768.833 311.333,768.167 312,767.5C 312.654,768.696 313.154,768.696 313.5,767.5C 311.647,766.24 309.814,766.24 308,767.5C 307.383,766.551 307.549,765.718 308.5,765C 306.667,763.833 304.833,762.667 303,761.5C 302.174,763.405 301.007,763.739 299.5,762.5C 300.025,761.808 300.692,761.308 301.5,761C 299.011,758.502 296.178,758.002 293,759.5C 289.607,758.022 286.441,756.355 283.5,754.5C 277.743,745.991 272.743,736.991 268.5,727.5C 269.932,725.201 269.266,723.535 266.5,722.5C 266.709,721.914 267.043,721.414 267.5,721C 263.328,718.313 261.328,714.646 261.5,710C 260.514,707.64 258.514,705.807 255.5,704.5C 254.662,704.158 254.328,703.492 254.5,702.5C 253.427,699.279 253.427,696.112 254.5,693C 253.792,690.232 252.292,689.399 250,690.5C 249.505,688.527 249.338,686.527 249.5,684.5C 248.325,684.719 247.325,684.386 246.5,683.5C 245.943,681.765 245.61,680.098 245.5,678.5C 244.833,679.167 244.167,679.833 243.5,680.5C 242.289,679.726 242.289,678.893 243.5,678C 242.5,677.167 241.5,676.333 240.5,675.5C 242.011,673.162 241.677,672.496 239.5,673.5C 238.735,672.388 237.735,671.721 236.5,671.5C 235.559,669.95 234.893,668.284 234.5,666.5C 234.672,664.508 234.005,662.842 232.5,661.5C 233.609,659.786 232.942,659.119 230.5,659.5C 228.896,658.713 228.229,657.38 228.5,655.5C 229.218,653.863 229.384,652.197 229,650.5C 228.586,650.957 228.086,651.291 227.5,651.5C 227.308,647.95 225.642,645.45 222.5,644C 223.609,642.187 222.942,641.354 220.5,641.5C 220.573,639.973 219.906,638.973 218.5,638.5C 216.659,636.151 215.326,633.485 214.5,630.5C 214.068,629.29 213.401,628.29 212.5,627.5C 209.053,622.941 206.387,617.941 204.5,612.5C 203.829,611.153 203.829,609.986 204.5,609C 202.519,608.395 202.185,607.395 203.5,606C 201.162,604.492 200.162,602.325 200.5,599.5C 199.167,599.5 197.833,599.5 196.5,599.5C 192.411,593.565 189.077,587.232 186.5,580.5C 185.829,579.153 185.829,577.986 186.5,577C 184.519,576.395 184.185,575.395 185.5,574C 184.5,573.167 183.5,572.333 182.5,571.5C 183.456,569.3 182.79,568.967 180.5,570.5C 181.833,568.167 181.833,565.833 180.5,563.5C 179.5,563.5 178.5,563.5 177.5,563.5C 177.663,561.143 177.497,558.81 177,556.5C 176.692,557.308 176.192,557.975 175.5,558.5C 174.735,557.388 173.735,556.721 172.5,556.5C 172.5,556.167 172.5,555.833 172.5,555.5C 172.414,554.504 172.748,553.671 173.5,553C 172.239,550.94 170.572,549.44 168.5,548.5C 166.896,547.713 166.229,546.38 166.5,544.5C 166.275,540.635 164.942,537.302 162.5,534.5C 161.837,531.194 161.337,527.861 161,524.5C 160.667,524.833 160.333,525.167 160,525.5C 157.831,521.162 155.664,516.828 153.5,512.5C 152.859,513.993 151.859,514.993 150.5,515.5C 149.167,514.167 149.167,512.833 150.5,511.5C 152.048,511.179 152.715,510.179 152.5,508.5C 154.592,508.439 156.092,507.439 157,505.5C 158.652,501.892 160.152,498.226 161.5,494.5C 168.951,484.447 175.285,473.613 180.5,462C 179.748,461.329 179.414,460.496 179.5,459.5C 179.992,457.181 180.992,455.181 182.5,453.5C 185.504,450.86 188.338,447.86 191,444.5C 194.633,437.373 198.466,430.373 202.5,423.5C 203.274,422.289 204.107,422.289 205,423.5C 207.518,419.39 210.185,415.39 213,411.5C 213.333,411.833 213.667,412.167 214,412.5C 214.333,410.167 214.667,407.833 215,405.5C 216,404.167 217,404.167 218,405.5C 219.11,403.603 219.276,401.77 218.5,400C 220.94,398.226 222.606,395.892 223.5,393C 223.167,392.667 222.833,392.333 222.5,392C 226.866,388.211 230.032,383.044 232,376.5C 234.623,374.985 235.623,372.985 235,370.5C 235.333,370.833 235.667,371.167 236,371.5C 238.053,365.592 241.053,360.259 245,355.5C 244.473,350.437 245.14,345.437 247,340.5C 248.205,339.929 249.372,339.262 250.5,338.5C 253.181,333.126 256.348,328.126 260,323.5C 263.322,317.532 265.488,311.198 266.5,304.5C 271.762,294.146 277.429,283.979 283.5,274C 357.998,236.043 432.665,198.21 507.5,160.5 Z M 535.5,201.5 C 547.356,208.596 559.689,214.929 572.5,220.5C 619.27,245.721 666.603,270.221 714.5,294C 722.89,309.243 731.557,324.743 740.5,340.5C 742.93,345.037 745.597,349.37 748.5,353.5C 751.33,359.83 754.663,365.83 758.5,371.5C 758.389,372.117 758.056,372.617 757.5,373C 761.117,377.062 764.117,381.562 766.5,386.5C 766.427,388.027 767.094,389.027 768.5,389.5C 769.079,392.331 770.412,394.664 772.5,396.5C 772.5,396.833 772.5,397.167 772.5,397.5C 774.137,401.118 776.137,404.451 778.5,407.5C 779.242,409.426 780.242,411.259 781.5,413C 780.288,414.107 780.621,414.607 782.5,414.5C 784.664,419.5 787.331,424.167 790.5,428.5C 791.079,431.331 792.412,433.664 794.5,435.5C 798.41,444.326 803.077,452.659 808.5,460.5C 812.1,468.439 816.1,475.773 820.5,482.5C 822,486.173 824,489.506 826.5,492.5C 829.473,499.657 833.139,506.49 837.5,513C 837.167,514.947 836.5,517.114 835.5,519.5C 826.09,534.644 817.423,550.311 809.5,566.5C 797.076,587.009 785.409,608.009 774.5,629.5C 772.412,631.336 771.079,633.669 770.5,636.5C 751.662,669.504 733.329,702.838 715.5,736.5C 714.778,736.918 714.278,737.584 714,738.5C 694.895,747.975 675.729,757.975 656.5,768.5C 643.689,774.071 631.356,780.404 619.5,787.5C 583.824,805.671 548.158,823.838 512.5,842C 510.833,842.667 509.167,842.667 507.5,842C 499.281,838.059 491.281,833.892 483.5,829.5C 481.833,828.833 480.167,828.167 478.5,827.5C 476.093,826.206 473.926,824.539 472,822.5C 471.601,822.728 471.435,823.062 471.5,823.5C 470.833,823.167 470.167,822.833 469.5,822.5C 468.994,820.895 468.327,820.561 467.5,821.5C 463.052,819.185 458.885,817.185 455,815.5C 451.223,813.362 447.39,811.362 443.5,809.5C 439.818,806.992 435.818,804.992 431.5,803.5C 403.327,788.58 374.993,773.913 346.5,759.5C 341.123,756.144 335.79,753.478 330.5,751.5C 324.332,747.915 317.999,744.582 311.5,741.5C 309.151,739.659 306.485,738.326 303.5,737.5C 300.989,731.803 297.989,726.47 294.5,721.5C 291.019,713.87 287.019,706.537 282.5,699.5C 282.573,697.973 281.906,696.973 280.5,696.5C 277.005,688.839 273.005,681.505 268.5,674.5C 268.573,672.973 267.906,671.973 266.5,671.5C 263.005,663.839 259.005,656.505 254.5,649.5C 254.573,647.973 253.906,646.973 252.5,646.5C 250.084,641.333 247.418,636.333 244.5,631.5C 244.573,629.973 243.906,628.973 242.5,628.5C 235.671,614.838 228.338,601.504 220.5,588.5C 220.573,586.973 219.906,585.973 218.5,585.5C 218.34,583.847 217.674,582.514 216.5,581.5C 216.573,579.973 215.906,578.973 214.5,578.5C 212.201,573.24 209.534,568.24 206.5,563.5C 206.573,561.973 205.906,560.973 204.5,560.5C 201.005,552.839 197.005,545.505 192.5,538.5C 192.573,536.973 191.906,535.973 190.5,535.5C 187.434,529.036 184.101,522.702 180.5,516.5C 180.768,514.901 180.434,513.568 179.5,512.5C 179.932,511.29 180.599,510.29 181.5,509.5C 187.754,498.66 193.754,487.66 199.5,476.5C 203.752,469.666 207.752,462.666 211.5,455.5C 211.5,455.167 211.5,454.833 211.5,454.5C 214.335,450.836 216.668,446.836 218.5,442.5C 220.083,440.337 221.416,438.004 222.5,435.5C 225.493,430.212 228.493,424.878 231.5,419.5C 235.003,414.498 238.003,409.165 240.5,403.5C 242.008,401.819 243.008,399.819 243.5,397.5C 246.335,393.836 248.668,389.836 250.5,385.5C 254.005,380.494 257.005,375.16 259.5,369.5C 261.485,366.202 263.485,362.869 265.5,359.5C 266.11,358.609 266.443,357.609 266.5,356.5C 270.749,349.671 274.749,342.671 278.5,335.5C 286.306,321.896 294.14,308.229 302,294.5C 306.481,291.681 310.981,289.014 315.5,286.5C 322.484,283.675 329.151,280.341 335.5,276.5C 340.484,274.674 345.151,272.341 349.5,269.5C 370.897,259.592 391.897,248.925 412.5,237.5C 423.312,232.929 433.645,227.595 443.5,221.5C 451.151,218.341 458.484,214.675 465.5,210.5C 469.818,209.008 473.818,207.008 477.5,204.5C 488.025,199.321 498.525,193.987 509,188.5C 517.655,193.245 526.489,197.578 535.5,201.5 Z"/>
	</g>
	<g>
		<path style="opacity:1" fill="#dab252" d="M 507.5,160.5 C 508.601,159.402 509.934,159.235 511.5,160C 516.179,162.15 520.179,164.316 523.5,166.5C 521.304,166.59 519.137,166.923 517,167.5C 514.044,165.606 510.877,164.106 507.5,163C 508.328,162.085 509.328,161.419 510.5,161C 509.552,160.517 508.552,160.351 507.5,160.5 Z"/>
	</g>
	<g>
		<path style="opacity:1" fill="#ae9142" d="M 539.5,174.5 C 542.696,175.929 545.696,177.595 548.5,179.5C 547.178,179.33 546.011,179.663 545,180.5C 544.632,179.09 543.799,178.09 542.5,177.5C 540.105,178.523 539.105,177.523 539.5,174.5 Z"/>
	</g>
	<g>
		<path style="opacity:1" fill="#ba9a45" d="M 571.5,191.5 C 576.484,193.326 581.151,195.659 585.5,198.5C 581.548,198.738 578.215,197.404 575.5,194.5C 574.808,195.025 574.308,195.692 574,196.5C 572.628,195.09 571.795,193.423 571.5,191.5 Z"/>
	</g>
	<g>
		<path style="opacity:1" fill="#c99e46" d="M 477.5,204.5 C 473.818,207.008 469.818,209.008 465.5,210.5C 465.461,209.417 465.127,208.417 464.5,207.5C 468.186,205.5 472.519,204.5 477.5,204.5 Z"/>
	</g>
	<g>
		<path style="opacity:1" fill="#d5ab48" d="M 535.5,201.5 C 538.417,202.291 541.25,202.291 544,201.5C 544.98,202.981 546.147,204.315 547.5,205.5C 549.006,206.747 550.506,206.747 552,205.5C 554.46,206.755 555.627,208.755 555.5,211.5C 557.2,211.374 558.7,210.707 560,209.5C 562.176,210.516 563.343,212.182 563.5,214.5C 568.783,213.297 571.783,215.297 572.5,220.5C 559.689,214.929 547.356,208.596 535.5,201.5 Z"/>
	</g>
	<g>
		<path style="opacity:1" fill="#d7a947" d="M 443.5,221.5 C 433.645,227.595 423.312,232.929 412.5,237.5C 412.027,231.271 414.36,229.605 419.5,232.5C 420.892,231.395 422.059,230.061 423,228.5C 423.414,228.957 423.914,229.291 424.5,229.5C 428.698,222.244 435.031,219.578 443.5,221.5 Z"/>
	</g>
	<g>
		<path style="opacity:1" fill="#deb34b" d="M 600.5,206.5 C 615.31,213.071 629.643,220.404 643.5,228.5C 641.021,227.928 638.687,227.928 636.5,228.5C 633.49,227.11 630.656,225.444 628,223.5C 626.27,222.351 624.604,222.351 623,223.5C 620.075,220.987 617.241,218.32 614.5,215.5C 611.833,214.833 609.167,214.167 606.5,213.5C 604.065,211.487 602.065,209.154 600.5,206.5 Z"/>
	</g>
	<g>
		<path style="opacity:1" fill="#cda749" d="M 643.5,228.5 C 655.331,234.248 666.998,240.248 678.5,246.5C 673.332,245.707 667.999,244.207 662.5,242C 661.257,240.846 660.257,239.512 659.5,238C 657.208,239.101 655.708,238.268 655,235.5C 654.667,235.833 654.333,236.167 654,236.5C 650.884,235.093 647.717,233.76 644.5,232.5C 643.571,231.311 643.238,229.978 643.5,228.5 Z"/>
	</g>
	<g>
		<path style="opacity:1" fill="#877235" d="M 495.5,248.5 C 487.445,248.23 479.445,248.563 471.5,249.5C 471.611,248.883 471.944,248.383 472.5,248C 480.345,247.178 488.011,247.344 495.5,248.5 Z"/>
	</g>
	<g>
		<path style="opacity:1" fill="#f9c347" d="M 495.5,248.5 C 499.566,248.307 503.566,248.64 507.5,249.5C 506.282,250.161 504.949,250.828 503.5,251.5C 516.061,255.476 528.728,257.809 541.5,258.5C 542.192,259.025 542.692,259.692 543,260.5C 544.011,259.663 545.178,259.33 546.5,259.5C 548.703,259.604 550.703,260.27 552.5,261.5C 552.598,264.104 553.765,266.104 556,267.5C 556.95,266.978 557.784,266.311 558.5,265.5C 560.027,267.193 561.36,269.027 562.5,271C 563.449,271.617 564.282,271.451 565,270.5C 565.833,271.5 566.667,272.5 567.5,273.5C 568.518,272.807 569.518,272.141 570.5,271.5C 570.833,271.5 571.167,271.5 571.5,271.5C 577.638,275.703 583.971,280.536 590.5,286C 596.184,288.841 602.184,290.341 608.5,290.5C 608.5,289.167 608.5,287.833 608.5,286.5C 608.975,283.918 608.308,281.918 606.5,280.5C 603.027,273.915 600.861,266.915 600,259.5C 601.594,257.703 603.594,256.703 606,256.5C 610.957,257.564 615.457,259.564 619.5,262.5C 619.539,263.583 619.873,264.583 620.5,265.5C 622.39,266.424 623.89,267.757 625,269.5C 625.383,268.944 625.883,268.611 626.5,268.5C 641.089,280.339 649.422,295.672 651.5,314.5C 651.345,317.853 652.012,318.186 653.5,315.5C 658.799,311.052 664.632,310.385 671,313.5C 671.333,313.167 671.667,312.833 672,312.5C 672.66,314.324 673.827,315.657 675.5,316.5C 694.298,332.797 709.131,352.13 720,374.5C 721.971,379.388 723.471,384.388 724.5,389.5C 724.41,392.152 725.076,394.485 726.5,396.5C 727.451,397.919 727.784,399.585 727.5,401.5C 728.844,415.953 729.844,430.286 730.5,444.5C 729.575,452.895 728.242,461.228 726.5,469.5C 725.566,470.568 725.232,471.901 725.5,473.5C 725.5,473.833 725.5,474.167 725.5,474.5C 723.569,477.766 722.069,481.433 721,485.5C 720.503,487.81 720.337,490.143 720.5,492.5C 720.233,494.965 719.566,497.299 718.5,499.5C 717.5,499.5 716.5,499.5 715.5,499.5C 713.962,505.116 712.628,510.782 711.5,516.5C 710.778,516.082 710.278,515.416 710,514.5C 707.904,519.687 705.571,524.687 703,529.5C 702.751,528.376 702.251,527.376 701.5,526.5C 700.554,528.075 700.554,529.742 701.5,531.5C 700.36,533.473 699.027,535.307 697.5,537C 698.337,538.011 698.67,539.178 698.5,540.5C 698.218,541.778 697.551,542.778 696.5,543.5C 694.958,544.301 693.292,544.634 691.5,544.5C 691.007,546.806 690.674,549.139 690.5,551.5C 690.262,553.404 689.262,554.738 687.5,555.5C 686.094,555.973 685.427,556.973 685.5,558.5C 683.72,559.99 683.054,561.99 683.5,564.5C 681.771,571.838 678.437,578.172 673.5,583.5C 670.612,583.22 669.112,584.553 669,587.5C 667.853,586.542 666.853,586.875 666,588.5C 665.517,589.448 665.351,590.448 665.5,591.5C 664.127,591.343 662.793,591.51 661.5,592C 662.252,592.671 662.586,593.504 662.5,594.5C 660.678,596.823 658.678,598.989 656.5,601C 663.46,616.049 670.127,631.216 676.5,646.5C 677.01,650.423 677.01,653.757 676.5,656.5C 676.824,658.569 677.658,658.902 679,657.5C 682.193,661.597 683.86,666.264 684,671.5C 684.333,670.5 684.667,669.5 685,668.5C 685.333,670.167 685.667,671.833 686,673.5C 686.671,672.748 687.504,672.414 688.5,672.5C 691.726,678.15 694.393,684.15 696.5,690.5C 696.427,692.027 697.094,693.027 698.5,693.5C 699.966,697.221 701.633,700.888 703.5,704.5C 699.466,708.186 694.799,710.853 689.5,712.5C 687.876,712.64 686.71,711.973 686,710.5C 685.716,712.886 684.716,713.552 683,712.5C 682.51,713.793 682.343,715.127 682.5,716.5C 676.162,720.671 669.496,724.337 662.5,727.5C 659.643,726.489 657.31,726.489 655.5,727.5C 654.571,728.689 654.238,730.022 654.5,731.5C 652.857,731.52 651.524,730.853 650.5,729.5C 649.193,730.816 647.693,731.816 646,732.5C 645.51,733.793 645.343,735.127 645.5,736.5C 644.265,736.279 643.265,735.612 642.5,734.5C 641.749,735.376 641.249,736.376 641,737.5C 640.667,737.167 640.333,736.833 640,736.5C 639.167,737.5 638.333,738.5 637.5,739.5C 636.808,738.975 636.308,738.308 636,737.5C 635.51,738.793 635.343,740.127 635.5,741.5C 632.031,740.887 630.031,742.221 629.5,745.5C 625.849,747.992 621.849,749.992 617.5,751.5C 612.026,748.975 609.026,750.641 608.5,756.5C 606.983,756.489 605.816,755.823 605,754.5C 603.812,755.563 603.312,756.897 603.5,758.5C 601.876,758.64 600.71,757.973 600,756.5C 599.667,757.5 599.333,758.5 599,759.5C 595.681,758.356 594.181,759.689 594.5,763.5C 592.801,763.34 591.134,763.506 589.5,764C 590.252,764.671 590.586,765.504 590.5,766.5C 590.167,766.5 589.833,766.5 589.5,766.5C 585.517,753.244 583.017,739.577 582,725.5C 579.943,698.213 578.943,670.879 579,643.5C 556.876,667.481 531.042,686.148 501.5,699.5C 500.833,699.5 500.5,699.833 500.5,700.5C 493.075,704.087 485.408,707.087 477.5,709.5C 470.802,709.799 464.302,711.132 458,713.5C 455.153,712.306 452.32,712.306 449.5,713.5C 448.388,714.265 447.721,715.265 447.5,716.5C 441.158,716.666 434.825,716.5 428.5,716C 426.138,714.269 423.471,713.435 420.5,713.5C 418.454,709.36 416.621,705.027 415,700.5C 414.333,704.5 413.667,704.5 413,700.5C 412.012,693.297 410.846,686.131 409.5,679C 411.057,675.917 410.39,674.417 407.5,674.5C 407.33,673.178 407.663,672.011 408.5,671C 405.388,670.149 405.054,668.983 407.5,667.5C 406.167,666.5 406.167,665.5 407.5,664.5C 405.956,663.378 404.623,663.711 403.5,665.5C 403.089,664.738 402.923,663.738 403,662.5C 402.667,662.833 402.333,663.167 402,663.5C 400.887,662.695 399.721,662.028 398.5,661.5C 396.515,661.141 395.849,660.308 396.5,659C 395.672,658.085 394.672,657.419 393.5,657C 394.056,656.617 394.389,656.117 394.5,655.5C 394.5,653.167 394.5,650.833 394.5,648.5C 394.833,647.833 395.167,647.167 395.5,646.5C 397.382,645.779 397.715,644.779 396.5,643.5C 391.932,642.235 388.598,639.568 386.5,635.5C 386.421,631.057 387.087,626.723 388.5,622.5C 387.861,619.525 387.361,616.525 387,613.5C 386.617,612.944 386.117,612.611 385.5,612.5C 384.167,610.167 382.833,607.833 381.5,605.5C 378.039,602.931 374.372,600.597 370.5,598.5C 370.201,597.24 370.201,596.073 370.5,595C 366.52,594.282 362.854,593.116 359.5,591.5C 359.662,589.473 359.495,587.473 359,585.5C 358.751,586.624 358.251,587.624 357.5,588.5C 356.548,586.955 356.215,585.288 356.5,583.5C 357.79,582.942 358.623,581.942 359,580.5C 359.71,581.973 360.876,582.64 362.5,582.5C 362.343,581.127 362.51,579.793 363,578.5C 370.46,572.057 374.46,564.057 375,554.5C 377.508,548.22 380.675,542.386 384.5,537C 385.114,535.463 385.114,534.13 384.5,533C 385.95,529.222 387.45,525.389 389,521.5C 389.497,518.854 389.664,516.187 389.5,513.5C 390.885,512.053 390.552,511.053 388.5,510.5C 387.833,510.5 387.5,510.167 387.5,509.5C 386.37,507.685 385.704,505.685 385.5,503.5C 384.167,503.5 382.833,503.5 381.5,503.5C 377.542,497.802 375.042,491.468 374,484.5C 372.325,462.906 373.825,441.572 378.5,420.5C 379.788,418.965 379.788,417.299 378.5,415.5C 377.893,415.624 377.56,415.957 377.5,416.5C 377.167,416.5 376.833,416.5 376.5,416.5C 374.723,416.214 373.056,415.547 371.5,414.5C 363.486,416.979 356.153,419.812 349.5,423C 350.833,423.667 350.833,424.333 349.5,425C 346.937,426.079 344.271,426.579 341.5,426.5C 341.5,427.5 341.5,428.5 341.5,429.5C 340.791,430.404 339.791,430.737 338.5,430.5C 335.073,431.098 331.74,431.265 328.5,431C 325.719,431.842 324.052,433.676 323.5,436.5C 318.39,439.053 313.057,441.053 307.5,442.5C 304.854,442.892 302.354,442.892 300,442.5C 299.667,443.5 299.333,444.5 299,445.5C 296.539,444.782 294.039,444.115 291.5,443.5C 290.571,442.311 290.238,440.978 290.5,439.5C 291.128,436.91 292.295,434.577 294,432.5C 298.03,426.98 302.197,421.647 306.5,416.5C 307.76,416.201 308.927,416.201 310,416.5C 311.825,413.689 313.158,410.689 314,407.5C 315.745,406.044 317.578,404.711 319.5,403.5C 322.522,398.3 325.855,393.3 329.5,388.5C 337.722,382.607 343.722,374.94 347.5,365.5C 349.587,364.415 350.92,362.749 351.5,360.5C 355.176,356.459 358.843,352.459 362.5,348.5C 365.002,346.83 367.002,344.664 368.5,342C 366.934,341.235 365.601,341.402 364.5,342.5C 363.167,342.5 361.833,342.5 360.5,342.5C 354.642,342.178 348.975,342.511 343.5,343.5C 341.131,343.851 338.797,344.018 336.5,344C 337.641,343.259 337.641,342.425 336.5,341.5C 338.621,341.46 340.621,340.96 342.5,340C 341.333,339.5 340.5,338.667 340,337.5C 339.692,338.308 339.192,338.975 338.5,339.5C 334.271,336.189 334.937,334.356 340.5,334C 340.167,333.667 339.833,333.333 339.5,333C 343.136,332.374 343.136,331.207 339.5,329.5C 345.372,327.19 349.705,323.857 352.5,319.5C 357.112,316.361 362.112,314.028 367.5,312.5C 367.369,313.239 367.536,313.906 368,314.5C 370.069,313.736 372.236,313.236 374.5,313C 382.377,309.259 390.71,306.259 399.5,304C 404.625,302.184 409.625,300.184 414.5,298C 424.994,297.467 435.327,295.967 445.5,293.5C 445.5,292.5 445.5,291.5 445.5,290.5C 452.724,290.135 459.724,289.135 466.5,287.5C 477.37,285.603 488.37,284.603 499.5,284.5C 505.29,284.904 510.956,284.404 516.5,283C 515.756,281.961 514.756,281.461 513.5,281.5C 512.29,281.068 511.29,280.401 510.5,279.5C 509.993,278.141 508.993,277.141 507.5,276.5C 511.081,275.644 511.247,274.644 508,273.5C 505.762,274.899 505.095,274.232 506,271.5C 506.654,272.696 507.154,272.696 507.5,271.5C 504.233,270.277 504.233,268.444 507.5,266C 506.382,264.926 505.382,263.76 504.5,262.5C 503.5,263.167 502.5,263.833 501.5,264.5C 497.291,262.532 494.791,263.865 494,268.5C 492.951,266.893 491.451,266.227 489.5,266.5C 489.5,265.5 489.5,264.5 489.5,263.5C 487.408,263.439 485.908,262.439 485,260.5C 484.439,261.022 483.772,261.355 483,261.5C 480.593,260.673 478.26,259.673 476,258.5C 474.93,258.528 474.097,258.861 473.5,259.5C 472.5,259.167 471.833,258.5 471.5,257.5C 470.699,255.958 470.366,254.292 470.5,252.5C 470.557,251.391 470.89,250.391 471.5,249.5C 479.445,248.563 487.445,248.23 495.5,248.5 Z"/>
	</g>
	<g>
		<path style="opacity:1" fill="#be9e4f" d="M 680.5,247.5 C 684.655,248.742 688.322,250.742 691.5,253.5C 690.504,253.414 689.671,253.748 689,254.5C 686.775,252.634 684.275,251.134 681.5,250C 680.748,249.329 680.414,248.496 680.5,247.5 Z"/>
	</g>
	<g>
		<path style="opacity:1" fill="#2c2524" d="M 470.5,252.5 C 470.366,254.292 470.699,255.958 471.5,257.5C 470.351,257.209 469.684,256.376 469.5,255C 469.528,253.93 469.861,253.097 470.5,252.5 Z"/>
	</g>
	<g>
		<path style="opacity:1" fill="#e0b449" d="M 507.5,249.5 C 521.136,250.825 534.136,254.158 546.5,259.5C 545.178,259.33 544.011,259.663 543,260.5C 542.692,259.692 542.192,259.025 541.5,258.5C 528.728,257.809 516.061,255.476 503.5,251.5C 504.949,250.828 506.282,250.161 507.5,249.5 Z"/>
	</g>
	<g>
		<path style="opacity:1" fill="#edbb4b" d="M 510.5,279.5 C 497.968,273.069 485.634,266.403 473.5,259.5C 474.097,258.861 474.93,258.528 476,258.5C 478.26,259.673 480.593,260.673 483,261.5C 483.772,261.355 484.439,261.022 485,260.5C 485.908,262.439 487.408,263.439 489.5,263.5C 489.5,264.5 489.5,265.5 489.5,266.5C 491.451,266.227 492.951,266.893 494,268.5C 494.791,263.865 497.291,262.532 501.5,264.5C 502.5,263.833 503.5,263.167 504.5,262.5C 505.382,263.76 506.382,264.926 507.5,266C 504.233,268.444 504.233,270.277 507.5,271.5C 507.154,272.696 506.654,272.696 506,271.5C 505.095,274.232 505.762,274.899 508,273.5C 511.247,274.644 511.081,275.644 507.5,276.5C 508.993,277.141 509.993,278.141 510.5,279.5 Z"/>
	</g>
	<g>
		<path style="opacity:1" fill="#aa8f4b" d="M 619.5,262.5 C 620.794,263.29 621.961,264.29 623,265.5C 623.333,265.167 623.667,264.833 624,264.5C 624.662,265.984 625.496,267.317 626.5,268.5C 625.883,268.611 625.383,268.944 625,269.5C 623.89,267.757 622.39,266.424 620.5,265.5C 619.873,264.583 619.539,263.583 619.5,262.5 Z"/>
	</g>
	<g>
		<path style="opacity:1" fill="#d5aa47" d="M 552.5,261.5 C 559.153,263.823 565.153,267.156 570.5,271.5C 569.518,272.141 568.518,272.807 567.5,273.5C 566.667,272.5 565.833,271.5 565,270.5C 564.282,271.451 563.449,271.617 562.5,271C 561.36,269.027 560.027,267.193 558.5,265.5C 557.784,266.311 556.95,266.978 556,267.5C 553.765,266.104 552.598,264.104 552.5,261.5 Z"/>
	</g>
	<g>
		<path style="opacity:1" fill="#cca147" d="M 349.5,269.5 C 345.151,272.341 340.484,274.674 335.5,276.5C 335.238,275.022 335.571,273.689 336.5,272.5C 340.646,270.753 344.979,269.753 349.5,269.5 Z"/>
	</g>
	<g>
		<path style="opacity:1" fill="#d1a445" d="M 335.5,276.5 C 329.151,280.341 322.484,283.675 315.5,286.5C 315.343,285.127 315.51,283.793 316,282.5C 316.333,283.167 316.667,283.833 317,284.5C 318.826,282.821 320.992,281.654 323.5,281C 321,280.167 320.833,279 323,277.5C 325.055,277.848 327.055,277.181 329,275.5C 331.041,276.423 333.208,276.756 335.5,276.5 Z"/>
	</g>
	<g>
		<path style="opacity:1" fill="#9d8141" d="M 606.5,280.5 C 608.308,281.918 608.975,283.918 608.5,286.5C 607.262,284.786 606.595,282.786 606.5,280.5 Z"/>
	</g>
	<g>
		<path style="opacity:1" fill="#6a4f23" d="M 736.5,280.5 C 737.906,280.973 738.573,281.973 738.5,283.5C 737.094,283.027 736.427,282.027 736.5,280.5 Z"/>
	</g>
	<g>
		<path style="opacity:1" fill="#896c3a" d="M 513.5,281.5 C 514.756,281.461 515.756,281.961 516.5,283C 510.956,284.404 505.29,284.904 499.5,284.5C 504.421,284.138 509.087,283.138 513.5,281.5 Z"/>
	</g>
	<g>
		<path style="opacity:1" fill="#9f802b" d="M 466.5,287.5 C 459.724,289.135 452.724,290.135 445.5,290.5C 445.167,290.5 444.833,290.5 444.5,290.5C 451.601,288.772 458.934,287.772 466.5,287.5 Z"/>
	</g>
	<g>
		<path style="opacity:1" fill="#e3b849" d="M 444.5,290.5 C 444.833,290.5 445.167,290.5 445.5,290.5C 445.5,291.5 445.5,292.5 445.5,293.5C 435.327,295.967 424.994,297.467 414.5,298C 409.625,300.184 404.625,302.184 399.5,304C 390.71,306.259 382.377,309.259 374.5,313C 372.236,313.236 370.069,313.736 368,314.5C 367.536,313.906 367.369,313.239 367.5,312.5C 391.798,300.738 417.465,293.405 444.5,290.5 Z"/>
	</g>
	<g>
		<path style="opacity:1" fill="#694c22" d="M 754.5,312.5 C 755.906,312.973 756.573,313.973 756.5,315.5C 755.094,315.027 754.427,314.027 754.5,312.5 Z"/>
	</g>
	<g>
		<path style="opacity:1" fill="#221508" d="M 651.5,314.5 C 652.167,314.833 652.833,315.167 653.5,315.5C 652.012,318.186 651.345,317.853 651.5,314.5 Z"/>
	</g>
	<g>
		<path style="opacity:1" fill="#eabc4b" d="M 352.5,319.5 C 349.705,323.857 345.372,327.19 339.5,329.5C 343.136,331.207 343.136,332.374 339.5,333C 339.833,333.333 340.167,333.667 340.5,334C 334.937,334.356 334.271,336.189 338.5,339.5C 339.192,338.975 339.692,338.308 340,337.5C 340.5,338.667 341.333,339.5 342.5,340C 340.621,340.96 338.621,341.46 336.5,341.5C 337.641,342.425 337.641,343.259 336.5,344C 338.797,344.018 341.131,343.851 343.5,343.5C 342.306,344.272 341.306,345.272 340.5,346.5C 332.325,348.768 323.991,349.935 315.5,350C 311.181,347.554 310.514,344.387 313.5,340.5C 325.825,332.172 338.825,325.172 352.5,319.5 Z"/>
	</g>
	<g>
		<path style="opacity:1" fill="#d3a948" d="M 756.5,315.5 C 762.084,324.998 767.417,334.665 772.5,344.5C 771.175,343.047 770.342,343.381 770,345.5C 769,342.833 768,340.167 767,337.5C 766.667,337.833 766.333,338.167 766,338.5C 764.682,334.356 763.015,330.356 761,326.5C 760.667,326.833 760.333,327.167 760,327.5C 759.667,325.833 759.333,324.167 759,322.5C 758.667,322.833 758.333,323.167 758,323.5C 757.178,320.883 756.678,318.216 756.5,315.5 Z"/>
	</g>
	<g>
		<path style="opacity:1" fill="#dea836" d="M 666.5,326.5 C 690.497,345.448 705.663,370.115 712,400.5C 721.79,451.225 711.79,497.558 682,539.5C 679,542.833 676,546.167 673,549.5C 669.367,573.637 655.533,588.304 631.5,593.5C 625.903,592.474 624.07,589.141 626,583.5C 628.491,575.868 630.824,568.201 633,560.5C 633.667,558.5 633.667,556.5 633,554.5C 627.038,551.367 621.205,548.033 615.5,544.5C 615.167,543 614.833,541.5 614.5,540C 616.925,528.212 617.092,516.379 615,504.5C 608.601,483.733 594.768,474.9 573.5,478C 571.333,479.5 569.167,481 567,482.5C 562.205,492.235 557.038,501.735 551.5,511C 542.467,514.593 533.133,516.593 523.5,517C 522.678,505.91 522.178,494.743 522,483.5C 521.25,482.874 520.416,482.374 519.5,482C 509.833,481.667 500.167,481.333 490.5,481C 490,480.5 489.5,480 489,479.5C 488.595,473.807 488.928,468.141 490,462.5C 493.379,447.067 496.712,431.734 500,416.5C 498.938,415.903 497.772,415.57 496.5,415.5C 478.909,417.607 461.409,420.273 444,423.5C 440.067,424.392 438.234,422.892 438.5,419C 440.567,412.693 443.067,406.526 446,400.5C 450.103,391.794 454.603,383.294 459.5,375C 503.922,351.371 551.255,342.371 601.5,348C 623.197,349.109 644.864,350.609 666.5,352.5C 666.5,343.833 666.5,335.167 666.5,326.5 Z"/>
	</g>
	<g>
		<path style="opacity:1" fill="#c8a347" d="M 360.5,342.5 C 354.036,344.248 347.369,345.581 340.5,346.5C 341.306,345.272 342.306,344.272 343.5,343.5C 348.975,342.511 354.642,342.178 360.5,342.5 Z"/>
	</g>
	<g>
		<path style="opacity:1" fill="#c59e41" d="M 278.5,335.5 C 274.749,342.671 270.749,349.671 266.5,356.5C 267.709,351.882 268.875,347.215 270,342.5C 270.333,343.5 270.667,344.5 271,345.5C 272.273,343.286 273.273,340.953 274,338.5C 274.908,336.561 276.408,335.561 278.5,335.5 Z"/>
	</g>
	<g>
		<path style="opacity:1" fill="#4c411f" d="M 364.5,342.5 C 365.601,341.402 366.934,341.235 368.5,342C 367.002,344.664 365.002,346.83 362.5,348.5C 363.048,346.606 364.048,344.94 365.5,343.5C 365.376,342.893 365.043,342.56 364.5,342.5 Z"/>
	</g>
	<g>
		<path style="opacity:1" fill="#be9846" d="M 740.5,340.5 C 743.458,341.467 745.125,343.467 745.5,346.5C 748.598,346.413 748.932,346.913 746.5,348C 748.192,349.401 748.859,351.234 748.5,353.5C 745.597,349.37 742.93,345.037 740.5,340.5 Z"/>
	</g>
	<g>
		<path style="opacity:1" fill="#715727" d="M 772.5,344.5 C 773.906,344.973 774.573,345.973 774.5,347.5C 773.094,347.027 772.427,346.027 772.5,344.5 Z"/>
	</g>
	<g>
		<path style="opacity:1" fill="#c69c3f" d="M 265.5,359.5 C 263.485,362.869 261.485,366.202 259.5,369.5C 259.5,366.5 259.5,363.5 259.5,360.5C 260.5,360.5 261.5,360.5 262.5,360.5C 262.351,359.448 262.517,358.448 263,357.5C 263.417,358.756 264.25,359.423 265.5,359.5 Z"/>
	</g>
	<g>
		<path style="opacity:1" fill="#57401a" d="M 780.5,358.5 C 781.906,358.973 782.573,359.973 782.5,361.5C 781.094,361.027 780.427,360.027 780.5,358.5 Z"/>
	</g>
	<g>
		<path style="opacity:1" fill="#6e6231" d="M 351.5,360.5 C 350.92,362.749 349.587,364.415 347.5,365.5C 348.08,363.251 349.413,361.585 351.5,360.5 Z"/>
	</g>
	<g>
		<path style="opacity:1" fill="#79592a" d="M 790.5,376.5 C 791.906,376.973 792.573,377.973 792.5,379.5C 791.094,379.027 790.427,378.027 790.5,376.5 Z"/>
	</g>
	<g>
		<path style="opacity:1" fill="#e9bb4e" d="M 266.5,304.5 C 265.488,311.198 263.322,317.532 260,323.5C 256.348,328.126 253.181,333.126 250.5,338.5C 249.372,339.262 248.205,339.929 247,340.5C 245.14,345.437 244.473,350.437 245,355.5C 241.053,360.259 238.053,365.592 236,371.5C 235.667,371.167 235.333,370.833 235,370.5C 235.623,372.985 234.623,374.985 232,376.5C 230.032,383.044 226.866,388.211 222.5,392C 222.833,392.333 223.167,392.667 223.5,393C 222.606,395.892 220.94,398.226 218.5,400C 219.276,401.77 219.11,403.603 218,405.5C 217,404.167 216,404.167 215,405.5C 214.667,407.833 214.333,410.167 214,412.5C 213.667,412.167 213.333,411.833 213,411.5C 210.185,415.39 207.518,419.39 205,423.5C 204.107,422.289 203.274,422.289 202.5,423.5C 198.466,430.373 194.633,437.373 191,444.5C 188.338,447.86 185.504,450.86 182.5,453.5C 209.744,403.339 237.744,353.673 266.5,304.5 Z"/>
	</g>
	<g>
		<path style="opacity:1" fill="#d3a847" d="M 758.5,371.5 C 762.365,373.566 764.532,376.9 765,381.5C 765.75,382.126 766.584,382.626 767.5,383C 767.167,383.333 766.833,383.667 766.5,384C 767.744,384.456 768.577,383.956 769,382.5C 772.117,384.435 772.284,386.602 769.5,389C 771.628,390.987 772.628,393.487 772.5,396.5C 770.412,394.664 769.079,392.331 768.5,389.5C 768.573,387.973 767.906,386.973 766.5,386.5C 764.117,381.562 761.117,377.062 757.5,373C 758.056,372.617 758.389,372.117 758.5,371.5 Z"/>
	</g>
	<g>
		<path style="opacity:1" fill="#694c26" d="M 794.5,383.5 C 795.906,383.973 796.573,384.973 796.5,386.5C 795.094,386.027 794.427,385.027 794.5,383.5 Z"/>
	</g>
	<g>
		<path style="opacity:1" fill="#776950" d="M 766.5,386.5 C 767.906,386.973 768.573,387.973 768.5,389.5C 767.094,389.027 766.427,388.027 766.5,386.5 Z"/>
	</g>
	<g>
		<path style="opacity:1" fill="#c69f41" d="M 250.5,385.5 C 248.668,389.836 246.335,393.836 243.5,397.5C 243.215,391.774 245.548,387.774 250.5,385.5 Z"/>
	</g>
	<g>
		<path style="opacity:1" fill="#846726" d="M 724.5,389.5 C 725.924,391.515 726.59,393.848 726.5,396.5C 725.076,394.485 724.41,392.152 724.5,389.5 Z"/>
	</g>
	<g>
		<path style="opacity:1" fill="#c29d45" d="M 798.5,390.5 C 801.683,394.865 804.35,399.532 806.5,404.5C 801.798,401.108 799.132,396.441 798.5,390.5 Z"/>
	</g>
	<g>
		<path style="opacity:1" fill="#ac8941" d="M 772.5,397.5 C 776.367,399.638 778.367,402.971 778.5,407.5C 776.137,404.451 774.137,401.118 772.5,397.5 Z"/>
	</g>
	<g>
		<path style="opacity:1" fill="#bc973f" d="M 240.5,403.5 C 238.003,409.165 235.003,414.498 231.5,419.5C 231.336,416.813 231.503,414.146 232,411.5C 232.333,412.5 232.667,413.5 233,414.5C 233.511,412.122 234.178,409.788 235,407.5C 235.333,408.167 235.667,408.833 236,409.5C 236.376,406.99 237.21,404.657 238.5,402.5C 239.183,402.863 239.85,403.196 240.5,403.5 Z"/>
	</g>
	<g>
		<path style="opacity:1" fill="#cba348" d="M 806.5,404.5 C 809.655,408.801 812.322,413.468 814.5,418.5C 813.504,418.414 812.671,418.748 812,419.5C 809.593,414.691 807.76,409.691 806.5,404.5 Z"/>
	</g>
	<g>
		<path style="opacity:1" fill="#d7b44c" d="M 347.5,365.5 C 343.722,374.94 337.722,382.607 329.5,388.5C 325.855,393.3 322.522,398.3 319.5,403.5C 317.578,404.711 315.745,406.044 314,407.5C 313.158,410.689 311.825,413.689 310,416.5C 308.927,416.201 307.76,416.201 306.5,416.5C 318.969,398.577 332.635,381.577 347.5,365.5 Z"/>
	</g>
	<g>
		<path style="opacity:1" fill="#c09a48" d="M 782.5,414.5 C 783.583,414.539 784.583,414.873 785.5,415.5C 786.773,419.792 788.439,424.126 790.5,428.5C 787.331,424.167 784.664,419.5 782.5,414.5 Z"/>
	</g>
	<g>
		<path style="opacity:1" fill="#d4a846" d="M 376.5,416.5 C 365.009,421.069 353.343,425.402 341.5,429.5C 341.5,428.5 341.5,427.5 341.5,426.5C 344.271,426.579 346.937,426.079 349.5,425C 350.833,424.333 350.833,423.667 349.5,423C 356.153,419.812 363.486,416.979 371.5,414.5C 373.056,415.547 374.723,416.214 376.5,416.5 Z"/>
	</g>
	<g>
		<path style="opacity:1" fill="#352411" d="M 377.5,416.5 C 377.56,415.957 377.893,415.624 378.5,415.5C 379.788,417.299 379.788,418.965 378.5,420.5C 378.768,418.901 378.434,417.568 377.5,416.5 Z"/>
	</g>
	<g>
		<path style="opacity:1" fill="#c79f46" d="M 338.5,430.5 C 333.68,432.736 328.68,434.736 323.5,436.5C 324.052,433.676 325.719,431.842 328.5,431C 331.74,431.265 335.073,431.098 338.5,430.5 Z"/>
	</g>
	<g>
		<path style="opacity:1" fill="#755b1e" d="M 727.5,401.5 C 728.738,405.619 729.571,409.953 730,414.5C 730.5,424.494 730.666,434.494 730.5,444.5C 729.844,430.286 728.844,415.953 727.5,401.5 Z"/>
	</g>
	<g>
		<path style="opacity:1" fill="#b18e3a" d="M 222.5,435.5 C 221.416,438.004 220.083,440.337 218.5,442.5C 218.28,439.6 218.946,436.933 220.5,434.5C 221.183,434.863 221.85,435.196 222.5,435.5 Z"/>
	</g>
	<g>
		<path style="opacity:1" fill="#be983f" d="M 218.5,442.5 C 216.668,446.836 214.335,450.836 211.5,454.5C 212.219,450.835 213.052,447.168 214,443.5C 215.087,445.932 215.587,445.598 215.5,442.5C 216.5,442.5 217.5,442.5 218.5,442.5 Z"/>
	</g>
	<g>
		<path style="opacity:1" fill="#bc9b44" d="M 290.5,439.5 C 290.238,440.978 290.571,442.311 291.5,443.5C 294.039,444.115 296.539,444.782 299,445.5C 299.333,444.5 299.667,443.5 300,442.5C 302.354,442.892 304.854,442.892 307.5,442.5C 303.692,444.812 299.526,446.479 295,447.5C 290.053,446.599 288.553,443.932 290.5,439.5 Z"/>
	</g>
	<g>
		<path style="opacity:1" fill="#b08e45" d="M 794.5,435.5 C 796.745,435.541 797.412,436.375 796.5,438C 799.722,440.268 801.556,443.434 802,447.5C 803.255,448.211 804.421,449.044 805.5,450C 805.043,450.414 804.709,450.914 804.5,451.5C 806.364,454.332 807.697,457.332 808.5,460.5C 803.077,452.659 798.41,444.326 794.5,435.5 Z"/>
	</g>
	<g>
		<path style="opacity:1" fill="#674a24" d="M 830.5,447.5 C 831.906,447.973 832.573,448.973 832.5,450.5C 831.094,450.027 830.427,449.027 830.5,447.5 Z"/>
	</g>
	<g>
		<path style="opacity:1" fill="#694f2d" d="M 834.5,454.5 C 835.906,454.973 836.573,455.973 836.5,457.5C 835.094,457.027 834.427,456.027 834.5,454.5 Z"/>
	</g>
	<g>
		<path style="opacity:1" fill="#d6ab48" d="M 826.5,440.5 C 828.588,442.336 829.921,444.669 830.5,447.5C 830.427,449.027 831.094,450.027 832.5,450.5C 833.674,451.514 834.34,452.847 834.5,454.5C 834.427,456.027 835.094,457.027 836.5,457.5C 839.434,462.368 842.1,467.368 844.5,472.5C 843.504,472.414 842.671,472.748 842,473.5C 839.938,468.376 837.605,463.376 835,458.5C 834.667,458.833 834.333,459.167 834,459.5C 831.007,453.354 828.507,447.02 826.5,440.5 Z"/>
	</g>
	<g>
		<path style="opacity:1" fill="#c29c41" d="M 211.5,455.5 C 207.752,462.666 203.752,469.666 199.5,476.5C 199.338,474.473 199.505,472.473 200,470.5C 202.404,468.106 204.571,464.939 206.5,461C 205.864,458.606 205.864,456.106 206.5,453.5C 208.322,453.831 209.989,454.498 211.5,455.5 Z"/>
	</g>
	<g>
		<path style="opacity:1" fill="#d7b34f" d="M 179.5,459.5 C 179.414,460.496 179.748,461.329 180.5,462C 175.285,473.613 168.951,484.447 161.5,494.5C 160.152,498.226 158.652,501.892 157,505.5C 156.092,507.439 154.592,508.439 152.5,508.5C 152.715,510.179 152.048,511.179 150.5,511.5C 159.368,493.654 169.035,476.321 179.5,459.5 Z"/>
	</g>
	<g>
		<path style="opacity:1" fill="#48381b" d="M 726.5,469.5 C 727.443,471.001 727.109,472.335 725.5,473.5C 725.232,471.901 725.566,470.568 726.5,469.5 Z"/>
	</g>
	<g>
		<path style="opacity:1" fill="#7d652b" d="M 281.5,479.5 C 277.821,479.06 274.488,479.727 271.5,481.5C 271.5,480.5 271.5,479.5 271.5,478.5C 275.042,478.187 278.375,478.521 281.5,479.5 Z"/>
	</g>
	<g>
		<path style="opacity:1" fill="#614622" d="M 848.5,479.5 C 849.906,479.973 850.573,480.973 850.5,482.5C 849.094,482.027 848.427,481.027 848.5,479.5 Z"/>
	</g>
	<g>
		<path style="opacity:1" fill="#a7873f" d="M 826.5,492.5 C 824,489.506 822,486.173 820.5,482.5C 822.79,480.967 823.456,481.3 822.5,483.5C 824.762,484.345 825.429,485.678 824.5,487.5C 825.456,489.075 826.123,490.742 826.5,492.5 Z"/>
	</g>
	<g>
		<path style="opacity:1" fill="#f8c24a" d="M 281.5,479.5 C 284.308,489.383 287.141,499.383 290,509.5C 291.725,510.464 293.559,511.131 295.5,511.5C 297.106,514.824 299.773,516.99 303.5,518C 307.486,518.798 311.319,519.965 315,521.5C 315.333,521.167 315.667,520.833 316,520.5C 316.808,522.579 316.641,524.579 315.5,526.5C 313.511,527.632 311.844,528.965 310.5,530.5C 310.167,530.5 309.833,530.5 309.5,530.5C 304.821,530.334 300.155,530.501 295.5,531C 291.666,533.266 291.999,533.933 296.5,533C 295.748,533.671 295.414,534.504 295.5,535.5C 294.292,536.234 292.959,536.567 291.5,536.5C 290.167,536.5 289.5,537.167 289.5,538.5C 289.5,538.833 289.5,539.167 289.5,539.5C 287.075,543.086 285.409,547.086 284.5,551.5C 282.496,557.687 281.496,564.02 281.5,570.5C 278.167,570.5 274.833,570.5 271.5,570.5C 270.781,568.236 270.448,565.903 270.5,563.5C 270.59,560.848 269.924,558.515 268.5,556.5C 267.366,553.63 266.7,550.63 266.5,547.5C 266.957,543.416 266.29,539.583 264.5,536C 263.207,535.51 261.873,535.343 260.5,535.5C 259.833,535.5 259.167,535.5 258.5,535.5C 257.653,534.034 256.32,533.2 254.5,533C 254.957,532.586 255.291,532.086 255.5,531.5C 253.474,529.714 251.308,529.381 249,530.5C 245.553,529.511 242.053,528.844 238.5,528.5C 237.5,528.5 236.5,528.5 235.5,528.5C 235.5,525.167 235.5,521.833 235.5,518.5C 242.793,516.29 250.126,514.29 257.5,512.5C 265.005,513.244 268.005,509.91 266.5,502.5C 267.7,495.367 269.367,488.367 271.5,481.5C 274.488,479.727 277.821,479.06 281.5,479.5 Z"/>
	</g>
	<g>
		<path style="opacity:1" fill="#ad9343" d="M 725.5,474.5 C 724.61,480.821 722.943,486.821 720.5,492.5C 720.337,490.143 720.503,487.81 721,485.5C 722.069,481.433 723.569,477.766 725.5,474.5 Z"/>
	</g>
	<g>
		<path style="opacity:1" fill="#644b1f" d="M 768.5,500.5 C 767.039,499.314 765.705,499.314 764.5,500.5C 764.5,501.167 764.167,501.5 763.5,501.5C 763.5,500.5 763.5,499.5 763.5,498.5C 765.781,498.077 767.448,498.744 768.5,500.5 Z"/>
	</g>
	<g>
		<path style="opacity:1" fill="#b2934e" d="M 381.5,503.5 C 382.833,503.5 384.167,503.5 385.5,503.5C 385.704,505.685 386.37,507.685 387.5,509.5C 384.801,507.473 382.801,505.473 381.5,503.5 Z"/>
	</g>
	<g>
		<path style="opacity:1" fill="#d1ab4d" d="M 764.5,500.5 C 765.705,499.314 767.039,499.314 768.5,500.5C 770.236,505.378 771.57,510.378 772.5,515.5C 771.778,515.082 771.278,514.416 771,513.5C 770.667,514.167 770.333,514.833 770,515.5C 769.809,510.59 768.809,505.924 767,501.5C 766.329,500.748 765.496,500.414 764.5,500.5 Z"/>
	</g>
	<g>
		<path style="opacity:1" fill="#b39141" d="M 266.5,502.5 C 268.005,509.91 265.005,513.244 257.5,512.5C 259.396,511.519 261.396,510.519 263.5,509.5C 264.66,507.125 265.66,504.792 266.5,502.5 Z"/>
	</g>
	<g>
		<path style="opacity:1" fill="#564222" d="M 388.5,510.5 C 390.552,511.053 390.885,512.053 389.5,513.5C 388.89,512.609 388.557,511.609 388.5,510.5 Z"/>
	</g>
	<g>
		<path style="opacity:1" fill="#b59743" d="M 718.5,499.5 C 716.733,505.485 714.4,511.152 711.5,516.5C 712.628,510.782 713.962,505.116 715.5,499.5C 716.5,499.5 717.5,499.5 718.5,499.5 Z"/>
	</g>
	<g>
		<path style="opacity:1" fill="#1e130f" d="M 179.5,512.5 C 180.434,513.568 180.768,514.901 180.5,516.5C 178.862,515.295 178.529,513.962 179.5,512.5 Z"/>
	</g>
	<g>
		<path style="opacity:1" fill="#c9a54b" d="M 762.5,507.5 C 762.318,509.591 762.652,511.591 763.5,513.5C 762.675,514.386 761.675,514.719 760.5,514.5C 760.5,515.5 760.5,516.5 760.5,517.5C 759.448,517.351 758.448,517.517 757.5,518C 758.696,518.654 758.696,519.154 757.5,519.5C 755.591,518.652 753.591,518.318 751.5,518.5C 753.65,517.33 755.984,516.33 758.5,515.5C 760.038,512.852 761.372,510.185 762.5,507.5 Z"/>
	</g>
	<g>
		<path style="opacity:1" fill="#f0be4b" d="M 764.5,500.5 C 765.496,500.414 766.329,500.748 767,501.5C 768.809,505.924 769.809,510.59 770,515.5C 770.333,514.833 770.667,514.167 771,513.5C 771.278,514.416 771.778,515.082 772.5,515.5C 776.896,516.682 781.229,518.015 785.5,519.5C 786.209,520.404 787.209,520.737 788.5,520.5C 788.5,521.833 788.5,523.167 788.5,524.5C 783.422,525.869 778.422,527.536 773.5,529.5C 772.492,532.195 771.492,534.862 770.5,537.5C 767.412,538.243 766.745,539.91 768.5,542.5C 768.5,543.167 768.5,543.833 768.5,544.5C 767.167,544.167 765.833,543.833 764.5,543.5C 764.768,541.901 764.434,540.568 763.5,539.5C 761.996,536.341 760.663,533.007 759.5,529.5C 754.286,527.429 748.953,525.762 743.5,524.5C 743.286,522.856 743.62,521.356 744.5,520C 746.74,519.023 749.073,518.523 751.5,518.5C 753.591,518.318 755.591,518.652 757.5,519.5C 758.696,519.154 758.696,518.654 757.5,518C 758.448,517.517 759.448,517.351 760.5,517.5C 760.5,516.5 760.5,515.5 760.5,514.5C 761.675,514.719 762.675,514.386 763.5,513.5C 762.652,511.591 762.318,509.591 762.5,507.5C 762.517,505.435 762.85,503.435 763.5,501.5C 764.167,501.5 764.5,501.167 764.5,500.5 Z"/>
	</g>
	<g>
		<path style="opacity:1" fill="#554121" d="M 785.5,519.5 C 786.833,519.5 788.167,519.5 789.5,519.5C 789.784,521.415 789.451,523.081 788.5,524.5C 788.5,523.167 788.5,521.833 788.5,520.5C 787.209,520.737 786.209,520.404 785.5,519.5 Z"/>
	</g>
	<g>
		<path style="opacity:1" fill="#d2a948" d="M 295.5,511.5 C 302.987,513.913 310.487,516.246 318,518.5C 320.293,525.875 317.793,529.875 310.5,530.5C 311.844,528.965 313.511,527.632 315.5,526.5C 316.641,524.579 316.808,522.579 316,520.5C 315.667,520.833 315.333,521.167 315,521.5C 311.319,519.965 307.486,518.798 303.5,518C 299.773,516.99 297.106,514.824 295.5,511.5 Z"/>
	</g>
	<g>
		<path style="opacity:1" fill="#deb049" d="M 166.5,544.5 C 161.413,537.285 157.246,529.952 154,522.5C 152.848,520.351 151.348,518.518 149.5,517C 150.056,516.617 150.389,516.117 150.5,515.5C 151.859,514.993 152.859,513.993 153.5,512.5C 155.664,516.828 157.831,521.162 160,525.5C 160.333,525.167 160.667,524.833 161,524.5C 161.337,527.861 161.837,531.194 162.5,534.5C 164.942,537.302 166.275,540.635 166.5,544.5 Z"/>
	</g>
	<g>
		<path style="opacity:1" fill="#d5ae46" d="M 711.5,516.5 C 707.962,525.01 703.629,533.01 698.5,540.5C 698.67,539.178 698.337,538.011 697.5,537C 699.027,535.307 700.36,533.473 701.5,531.5C 700.554,529.742 700.554,528.075 701.5,526.5C 702.251,527.376 702.751,528.376 703,529.5C 705.571,524.687 707.904,519.687 710,514.5C 710.278,515.416 710.778,516.082 711.5,516.5 Z"/>
	</g>
	<g>
		<path style="opacity:1" fill="#c4a047" d="M 238.5,528.5 C 242.053,528.844 245.553,529.511 249,530.5C 251.308,529.381 253.474,529.714 255.5,531.5C 255.291,532.086 254.957,532.586 254.5,533C 256.32,533.2 257.653,534.034 258.5,535.5C 251.608,533.537 244.941,531.204 238.5,528.5 Z"/>
	</g>
	<g>
		<path style="opacity:1" fill="#cca346" d="M 309.5,530.5 C 305.115,532.68 300.448,534.347 295.5,535.5C 295.414,534.504 295.748,533.671 296.5,533C 291.999,533.933 291.666,533.266 295.5,531C 300.155,530.501 304.821,530.334 309.5,530.5 Z"/>
	</g>
	<g>
		<path style="opacity:1" fill="#dcb650" d="M 835.5,519.5 C 834.377,521.518 834.377,523.518 835.5,525.5C 832.014,531.802 828.514,538.135 825,544.5C 823.989,545.337 822.822,545.67 821.5,545.5C 821.477,547.927 820.977,550.26 820,552.5C 817.86,556.239 816.027,560.239 814.5,564.5C 812.978,565.562 811.312,566.229 809.5,566.5C 817.423,550.311 826.09,534.644 835.5,519.5 Z"/>
	</g>
	<g>
		<path style="opacity:1" fill="#382b20" d="M 291.5,536.5 C 291.5,537.833 290.833,538.5 289.5,538.5C 289.5,537.167 290.167,536.5 291.5,536.5 Z"/>
	</g>
	<g>
		<path style="opacity:1" fill="#e9bd4d" d="M 389.5,513.5 C 389.664,516.187 389.497,518.854 389,521.5C 387.45,525.389 385.95,529.222 384.5,533C 385.114,534.13 385.114,535.463 384.5,537C 380.675,542.386 377.508,548.22 375,554.5C 374.46,564.057 370.46,572.057 363,578.5C 362.51,579.793 362.343,581.127 362.5,582.5C 360.876,582.64 359.71,581.973 359,580.5C 358.623,581.942 357.79,582.942 356.5,583.5C 367.334,560.481 378.334,537.147 389.5,513.5 Z"/>
	</g>
	<g>
		<path style="opacity:1" fill="#664a25" d="M 190.5,535.5 C 191.906,535.973 192.573,536.973 192.5,538.5C 191.094,538.027 190.427,537.027 190.5,535.5 Z"/>
	</g>
	<g>
		<path style="opacity:1" fill="#9f8140" d="M 260.5,535.5 C 261.873,535.343 263.207,535.51 264.5,536C 266.29,539.583 266.957,543.416 266.5,547.5C 265.336,543.989 264.336,540.323 263.5,536.5C 262.209,536.737 261.209,536.404 260.5,535.5 Z"/>
	</g>
	<g>
		<path style="opacity:1" fill="#8e7638" d="M 770.5,537.5 C 769.465,539.205 769.465,540.872 770.5,542.5C 770.03,543.463 769.363,543.463 768.5,542.5C 766.745,539.91 767.412,538.243 770.5,537.5 Z"/>
	</g>
	<g>
		<path style="opacity:1" fill="#807a6c" d="M 763.5,539.5 C 764.434,540.568 764.768,541.901 764.5,543.5C 763.761,543.631 763.094,543.464 762.5,543C 763.337,541.989 763.67,540.822 763.5,539.5 Z"/>
	</g>
	<g>
		<path style="opacity:1" fill="#bb9842" d="M 858.5,531.5 C 854.83,538.174 851.163,544.841 847.5,551.5C 847.201,549.396 847.534,547.396 848.5,545.5C 851.612,540.275 854.445,534.942 857,529.5C 857.278,530.416 857.778,531.082 858.5,531.5 Z"/>
	</g>
	<g>
		<path style="opacity:1" fill="#9b843f" d="M 764.5,543.5 C 765.833,543.833 767.167,544.167 768.5,544.5C 767.713,546.104 766.38,546.771 764.5,546.5C 764.5,545.5 764.5,544.5 764.5,543.5 Z"/>
	</g>
	<g>
		<path style="opacity:1" fill="#bd9d4e" d="M 696.5,543.5 C 696.423,544.75 695.756,545.583 694.5,546C 694.833,546.333 695.167,546.667 695.5,547C 693.503,548.193 691.836,549.693 690.5,551.5C 690.674,549.139 691.007,546.806 691.5,544.5C 693.292,544.634 694.958,544.301 696.5,543.5 Z"/>
	</g>
	<g>
		<path style="opacity:1" fill="#a9873b" d="M 168.5,548.5 C 170.572,549.44 172.239,550.94 173.5,553C 172.748,553.671 172.414,554.504 172.5,555.5C 170.412,553.664 169.079,551.331 168.5,548.5 Z"/>
	</g>
	<g>
		<path style="opacity:1" fill="#c7a048" d="M 172.5,556.5 C 173.735,556.721 174.735,557.388 175.5,558.5C 176.192,557.975 176.692,557.308 177,556.5C 177.497,558.81 177.663,561.143 177.5,563.5C 178.5,563.5 179.5,563.5 180.5,563.5C 181.833,565.833 181.833,568.167 180.5,570.5C 177.849,565.869 175.182,561.202 172.5,556.5 Z"/>
	</g>
	<g>
		<path style="opacity:1" fill="#544431" d="M 687.5,555.5 C 687.573,557.027 686.906,558.027 685.5,558.5C 685.427,556.973 686.094,555.973 687.5,555.5 Z"/>
	</g>
	<g>
		<path style="opacity:1" fill="#c8a043" d="M 846.5,552.5 C 841.924,562.657 836.591,572.323 830.5,581.5C 830.67,580.178 830.337,579.011 829.5,578C 832.3,574.903 834.466,571.403 836,567.5C 837.145,564.568 837.978,561.568 838.5,558.5C 839.833,558.5 841.167,558.5 842.5,558.5C 842.338,556.473 842.505,554.473 843,552.5C 843.333,553.5 843.667,554.5 844,555.5C 844.219,554.062 844.719,552.729 845.5,551.5C 846.107,551.624 846.44,551.957 846.5,552.5 Z"/>
	</g>
	<g>
		<path style="opacity:1" fill="#7a6445" d="M 268.5,556.5 C 269.924,558.515 270.59,560.848 270.5,563.5C 269.076,561.485 268.41,559.152 268.5,556.5 Z"/>
	</g>
	<g>
		<path style="opacity:1" fill="#7d6736" d="M 685.5,558.5 C 685.405,560.786 684.738,562.786 683.5,564.5C 683.054,561.99 683.72,559.99 685.5,558.5 Z"/>
	</g>
	<g>
		<path style="opacity:1" fill="#655025" d="M 728.5,562.5 C 729.568,561.566 730.901,561.232 732.5,561.5C 732.5,562.5 732.5,563.5 732.5,564.5C 731.533,563.194 730.199,562.527 728.5,562.5 Z"/>
	</g>
	<g>
		<path style="opacity:1" fill="#5f471e" d="M 204.5,560.5 C 205.906,560.973 206.573,561.973 206.5,563.5C 205.094,563.027 204.427,562.027 204.5,560.5 Z"/>
	</g>
	<g>
		<path style="opacity:1" fill="#b99a44" d="M 289.5,539.5 C 286.848,550.107 284.515,560.773 282.5,571.5C 278.629,571.815 274.962,571.482 271.5,570.5C 274.833,570.5 278.167,570.5 281.5,570.5C 281.496,564.02 282.496,557.687 284.5,551.5C 285.409,547.086 287.075,543.086 289.5,539.5 Z"/>
	</g>
	<g>
		<path style="opacity:1" fill="#b89443" d="M 186.5,580.5 C 184,577.506 182,574.173 180.5,570.5C 182.79,568.967 183.456,569.3 182.5,571.5C 183.5,572.333 184.5,573.167 185.5,574C 184.185,575.395 184.519,576.395 186.5,577C 185.829,577.986 185.829,579.153 186.5,580.5 Z"/>
	</g>
	<g>
		<path style="opacity:1" fill="#684b21" d="M 214.5,578.5 C 215.906,578.973 216.573,579.973 216.5,581.5C 215.094,581.027 214.427,580.027 214.5,578.5 Z"/>
	</g>
	<g>
		<path style="opacity:1" fill="#c49e40" d="M 829.5,583.5 C 827.75,587.335 825.75,591.001 823.5,594.5C 823.682,589.633 825.348,585.299 828.5,581.5C 829.298,581.957 829.631,582.624 829.5,583.5 Z"/>
	</g>
	<g>
		<path style="opacity:1" fill="#e9b94b" d="M 728.5,562.5 C 730.199,562.527 731.533,563.194 732.5,564.5C 734.24,569.387 735.573,574.387 736.5,579.5C 740.619,580.097 744.619,581.097 748.5,582.5C 749.209,583.404 750.209,583.737 751.5,583.5C 751.5,584.833 751.5,586.167 751.5,587.5C 746.442,589.081 741.442,591.081 736.5,593.5C 735.187,596.754 734.187,600.088 733.5,603.5C 732.662,603.842 732.328,604.508 732.5,605.5C 731.596,606.209 731.263,607.209 731.5,608.5C 730.5,608.5 729.5,608.5 728.5,608.5C 727.109,603.156 725.609,597.823 724,592.5C 718.785,590.872 713.619,589.039 708.5,587C 707.663,585.989 707.33,584.822 707.5,583.5C 712.471,582.257 717.804,580.924 723.5,579.5C 724.999,573.68 726.666,568.013 728.5,562.5 Z"/>
	</g>
	<g>
		<path style="opacity:1" fill="#7e6340" d="M 748.5,582.5 C 749.833,582.5 751.167,582.5 752.5,582.5C 752.286,584.144 752.62,585.644 753.5,587C 752.906,587.464 752.239,587.631 751.5,587.5C 751.5,586.167 751.5,584.833 751.5,583.5C 750.209,583.737 749.209,583.404 748.5,582.5 Z"/>
	</g>
	<g>
		<path style="opacity:1" fill="#5f451d" d="M 218.5,585.5 C 219.906,585.973 220.573,586.973 220.5,588.5C 219.094,588.027 218.427,587.027 218.5,585.5 Z"/>
	</g>
	<g>
		<path style="opacity:1" fill="#c5a147" d="M 356.5,583.5 C 356.215,585.288 356.548,586.955 357.5,588.5C 358.251,587.624 358.751,586.624 359,585.5C 359.495,587.473 359.662,589.473 359.5,591.5C 362.854,593.116 366.52,594.282 370.5,595C 370.201,596.073 370.201,597.24 370.5,598.5C 365.481,596.101 360.481,593.601 355.5,591C 355.353,588.502 355.686,586.002 356.5,583.5 Z"/>
	</g>
	<g>
		<path style="opacity:1" fill="#caa246" d="M 673.5,583.5 C 670.833,588.167 667.167,591.833 662.5,594.5C 662.586,593.504 662.252,592.671 661.5,592C 662.793,591.51 664.127,591.343 665.5,591.5C 665.351,590.448 665.517,589.448 666,588.5C 666.853,586.875 667.853,586.542 669,587.5C 669.112,584.553 670.612,583.22 673.5,583.5 Z"/>
	</g>
	<g>
		<path style="opacity:1" fill="#e4b94e" d="M 809.5,566.5 C 809.797,570.911 808.631,574.911 806,578.5C 805.092,580.439 803.592,581.439 801.5,581.5C 799.845,588.632 797.845,595.632 795.5,602.5C 793.945,606.378 791.612,610.212 788.5,614C 788.833,614.333 789.167,614.667 789.5,615C 788.333,616.5 787.167,618 786,619.5C 785.667,619.167 785.333,618.833 785,618.5C 781.632,621.263 778.965,624.597 777,628.5C 776.329,629.252 775.496,629.586 774.5,629.5C 785.409,608.009 797.076,587.009 809.5,566.5 Z"/>
	</g>
	<g>
		<path style="opacity:1" fill="#b99340" d="M 196.5,599.5 C 197.833,599.5 199.167,599.5 200.5,599.5C 200.162,602.325 201.162,604.492 203.5,606C 202.185,607.395 202.519,608.395 204.5,609C 203.829,609.986 203.829,611.153 204.5,612.5C 201.597,608.37 198.93,604.037 196.5,599.5 Z"/>
	</g>
	<g>
		<path style="opacity:1" fill="#1d150f" d="M 732.5,605.5 C 733.715,606.779 733.382,607.779 731.5,608.5C 731.263,607.209 731.596,606.209 732.5,605.5 Z"/>
	</g>
	<g>
		<path style="opacity:1" fill="#ae8e3f" d="M 818.5,603.5 C 817.083,606.669 815.417,609.669 813.5,612.5C 813.558,609.336 814.224,606.336 815.5,603.5C 816.5,603.5 817.5,603.5 818.5,603.5 Z"/>
	</g>
	<g>
		<path style="opacity:1" fill="#866c3a" d="M 385.5,612.5 C 386.117,612.611 386.617,612.944 387,613.5C 387.361,616.525 387.861,619.525 388.5,622.5C 387.087,626.723 386.421,631.057 386.5,635.5C 385.201,631.341 385.535,627.174 387.5,623C 386.46,619.6 385.794,616.1 385.5,612.5 Z"/>
	</g>
	<g>
		<path style="opacity:1" fill="#927736" d="M 314.5,619.5 C 314.477,621.927 313.977,624.26 313,626.5C 312.329,627.252 311.496,627.586 310.5,627.5C 312.033,624.882 313.366,622.216 314.5,619.5 Z"/>
	</g>
	<g>
		<path style="opacity:1" fill="#b69747" d="M 322.5,618.5 C 323.776,620.562 324.61,622.896 325,625.5C 326.719,626.869 328.552,627.869 330.5,628.5C 328.409,628.682 326.409,628.348 324.5,627.5C 323.322,624.609 322.655,621.609 322.5,618.5 Z"/>
	</g>
	<g>
		<path style="opacity:1" fill="#4a3b2d" d="M 212.5,627.5 C 213.401,628.29 214.068,629.29 214.5,630.5C 212.952,630.179 212.285,629.179 212.5,627.5 Z"/>
	</g>
	<g>
		<path style="opacity:1" fill="#f2bf4b" d="M 322.5,618.5 C 322.655,621.609 323.322,624.609 324.5,627.5C 326.409,628.348 328.409,628.682 330.5,628.5C 333.221,628.963 335.888,629.629 338.5,630.5C 339.806,631.467 340.473,632.801 340.5,634.5C 338.517,634.157 337.183,634.824 336.5,636.5C 333.888,637.371 331.221,638.037 328.5,638.5C 326.883,639.038 325.216,639.371 323.5,639.5C 323.5,641.5 323.5,643.5 323.5,645.5C 323.233,647.965 322.566,650.299 321.5,652.5C 320.596,653.209 320.263,654.209 320.5,655.5C 319.167,654.833 317.833,654.167 316.5,653.5C 315.101,650.301 314.101,646.968 313.5,643.5C 313.771,641.62 313.104,640.287 311.5,639.5C 290.597,635.075 290.264,631.075 310.5,627.5C 311.496,627.586 312.329,627.252 313,626.5C 313.977,624.26 314.477,621.927 314.5,619.5C 315.008,615.803 315.674,612.136 316.5,608.5C 317.822,608.33 318.989,608.663 320,609.5C 321.549,612.312 322.382,615.312 322.5,618.5 Z"/>
	</g>
	<g>
		<path style="opacity:1" fill="#61441c" d="M 242.5,628.5 C 243.906,628.973 244.573,629.973 244.5,631.5C 243.094,631.027 242.427,630.027 242.5,628.5 Z"/>
	</g>
	<g>
		<path style="opacity:1" fill="#98773a" d="M 338.5,630.5 C 339.5,630.5 340.5,630.5 341.5,630.5C 341.5,632.167 341.5,633.833 341.5,635.5C 339.708,635.366 338.042,635.699 336.5,636.5C 337.183,634.824 338.517,634.157 340.5,634.5C 340.473,632.801 339.806,631.467 338.5,630.5 Z"/>
	</g>
	<g>
		<path style="opacity:1" fill="#7c7055" d="M 218.5,638.5 C 219.906,638.973 220.573,639.973 220.5,641.5C 219.094,641.027 218.427,640.027 218.5,638.5 Z"/>
	</g>
	<g>
		<path style="opacity:1" fill="#987b4b" d="M 328.5,638.5 C 326.086,640.34 324.419,642.673 323.5,645.5C 323.5,643.5 323.5,641.5 323.5,639.5C 325.216,639.371 326.883,639.038 328.5,638.5 Z"/>
	</g>
	<g>
		<path style="opacity:1" fill="#473f31" d="M 311.5,639.5 C 313.104,640.287 313.771,641.62 313.5,643.5C 312.326,642.486 311.66,641.153 311.5,639.5 Z"/>
	</g>
	<g>
		<path style="opacity:1" fill="#bc9840" d="M 798.5,639.5 C 796.003,645.165 793.003,650.498 789.5,655.5C 791.101,649.628 793.268,643.962 796,638.5C 796.671,639.252 797.504,639.586 798.5,639.5 Z"/>
	</g>
	<g>
		<path style="opacity:1" fill="#2b1f10" d="M 396.5,643.5 C 397.715,644.779 397.382,645.779 395.5,646.5C 395.557,645.391 395.89,644.391 396.5,643.5 Z"/>
	</g>
	<g>
		<path style="opacity:1" fill="#c59e44" d="M 220.5,641.5 C 222.942,641.354 223.609,642.187 222.5,644C 225.642,645.45 227.308,647.95 227.5,651.5C 228.086,651.291 228.586,650.957 229,650.5C 229.384,652.197 229.218,653.863 228.5,655.5C 225.331,651.167 222.664,646.5 220.5,641.5 Z"/>
	</g>
	<g>
		<path style="opacity:1" fill="#644b1e" d="M 252.5,646.5 C 253.906,646.973 254.573,647.973 254.5,649.5C 253.094,649.027 252.427,648.027 252.5,646.5 Z"/>
	</g>
	<g>
		<path style="opacity:1" fill="#81683b" d="M 394.5,648.5 C 394.5,650.833 394.5,653.167 394.5,655.5C 393.761,655.631 393.094,655.464 392.5,655C 393.117,652.723 393.784,650.556 394.5,648.5 Z"/>
	</g>
	<g>
		<path style="opacity:1" fill="#917c41" d="M 316.5,653.5 C 317.833,654.167 319.167,654.833 320.5,655.5C 320.157,657.225 319.157,657.725 317.5,657C 316.663,655.989 316.33,654.822 316.5,653.5 Z"/>
	</g>
	<g>
		<path style="opacity:1" fill="#38342c" d="M 321.5,652.5 C 323.129,654.196 322.796,655.196 320.5,655.5C 320.263,654.209 320.596,653.209 321.5,652.5 Z"/>
	</g>
	<g>
		<path style="opacity:1" fill="#a1803f" d="M 230.5,659.5 C 232.942,659.119 233.609,659.786 232.5,661.5C 234.005,662.842 234.672,664.508 234.5,666.5C 232.957,664.604 231.291,662.771 229.5,661C 230.056,660.617 230.389,660.117 230.5,659.5 Z"/>
	</g>
	<g>
		<path style="opacity:1" fill="#cba348" d="M 398.5,661.5 C 399.721,662.028 400.887,662.695 402,663.5C 402.333,663.167 402.667,662.833 403,662.5C 402.923,663.738 403.089,664.738 403.5,665.5C 404.623,663.711 405.956,663.378 407.5,664.5C 406.167,665.5 406.167,666.5 407.5,667.5C 405.054,668.983 405.388,670.149 408.5,671C 407.663,672.011 407.33,673.178 407.5,674.5C 410.39,674.417 411.057,675.917 409.5,679C 410.846,686.131 412.012,693.297 413,700.5C 413.667,704.5 414.333,704.5 415,700.5C 416.621,705.027 418.454,709.36 420.5,713.5C 417.08,711.517 414.413,709.35 412.5,707C 413.654,706.086 413.487,705.253 412,704.5C 409.799,693.617 407.965,682.95 406.5,672.5C 406.167,671.5 405.5,670.833 404.5,670.5C 403.05,667.215 400.717,664.715 397.5,663C 398.056,662.617 398.389,662.117 398.5,661.5 Z"/>
	</g>
	<g>
		<path style="opacity:1" fill="#daae46" d="M 676.5,646.5 C 681.01,654.858 685.01,663.525 688.5,672.5C 687.504,672.414 686.671,672.748 686,673.5C 685.667,671.833 685.333,670.167 685,668.5C 684.667,669.5 684.333,670.5 684,671.5C 683.86,666.264 682.193,661.597 679,657.5C 677.658,658.902 676.824,658.569 676.5,656.5C 677.01,653.757 677.01,650.423 676.5,646.5 Z"/>
	</g>
	<g>
		<path style="opacity:1" fill="#1e1716" d="M 404.5,670.5 C 405.5,670.833 406.167,671.5 406.5,672.5C 405.167,672.5 404.5,671.833 404.5,670.5 Z"/>
	</g>
	<g>
		<path style="opacity:1" fill="#624624" d="M 266.5,671.5 C 267.906,671.973 268.573,672.973 268.5,674.5C 267.094,674.027 266.427,673.027 266.5,671.5 Z"/>
	</g>
	<g>
		<path style="opacity:1" fill="#dea836" d="M 589.5,766.5 C 585.864,769.323 581.864,771.656 577.5,773.5C 575.83,773.249 574.33,772.582 573,771.5C 572.768,772.737 572.268,773.737 571.5,774.5C 569.203,758.851 566.203,743.351 562.5,728C 545.604,724.434 528.771,720.601 512,716.5C 510.97,716.836 510.47,717.503 510.5,718.5C 507.597,713.14 505.264,707.473 503.5,701.5C 503.5,700.167 502.833,699.5 501.5,699.5C 531.042,686.148 556.876,667.481 579,643.5C 578.943,670.879 579.943,698.213 582,725.5C 583.017,739.577 585.517,753.244 589.5,766.5 Z"/>
	</g>
	<g>
		<path style="opacity:1" fill="#eabb4e" d="M 770.5,636.5 C 770.414,637.496 770.748,638.329 771.5,639C 770.23,639.9 769.23,641.066 768.5,642.5C 767.847,646.809 766.347,650.809 764,654.5C 763.349,656.235 763.515,657.902 764.5,659.5C 762.549,662.786 760.215,665.786 757.5,668.5C 758.183,672.63 756.516,675.796 752.5,678C 752.833,678.333 753.167,678.667 753.5,679C 749.145,686.183 745.312,694.017 742,702.5C 740.333,704.5 738.667,706.5 737,708.5C 736.667,709.833 736.333,711.167 736,712.5C 735.667,711.833 735.333,711.167 735,710.5C 734.667,711.833 734.333,713.167 734,714.5C 733.439,713.978 732.772,713.645 732,713.5C 730.338,714.997 728.838,716.663 727.5,718.5C 725.61,723.282 723.443,727.948 721,732.5C 719.989,733.337 718.822,733.67 717.5,733.5C 717.715,735.179 717.048,736.179 715.5,736.5C 733.329,702.838 751.662,669.504 770.5,636.5 Z"/>
	</g>
	<g>
		<path style="opacity:1" fill="#d6a948" d="M 236.5,671.5 C 237.735,671.721 238.735,672.388 239.5,673.5C 241.677,672.496 242.011,673.162 240.5,675.5C 241.5,676.333 242.5,677.167 243.5,678C 242.289,678.893 242.289,679.726 243.5,680.5C 244.167,679.833 244.833,679.167 245.5,678.5C 245.61,680.098 245.943,681.765 246.5,683.5C 247.325,684.386 248.325,684.719 249.5,684.5C 249.338,686.527 249.505,688.527 250,690.5C 252.292,689.399 253.792,690.232 254.5,693C 253.427,696.112 253.427,699.279 254.5,702.5C 248.46,692.83 242.46,682.497 236.5,671.5 Z"/>
	</g>
	<g>
		<path style="opacity:1" fill="#c39d42" d="M 778.5,675.5 C 774.83,682.174 771.163,688.841 767.5,695.5C 767.682,693.409 767.348,691.409 766.5,689.5C 767.274,688.289 768.107,688.289 769,689.5C 771.87,684.677 774.036,680.01 775.5,675.5C 776.5,675.5 777.5,675.5 778.5,675.5 Z"/>
	</g>
	<g>
		<path style="opacity:1" fill="#604a29" d="M 696.5,690.5 C 697.906,690.973 698.573,691.973 698.5,693.5C 697.094,693.027 696.427,692.027 696.5,690.5 Z"/>
	</g>
	<g>
		<path style="opacity:1" fill="#62481f" d="M 280.5,696.5 C 281.906,696.973 282.573,697.973 282.5,699.5C 281.094,699.027 280.427,698.027 280.5,696.5 Z"/>
	</g>
	<g>
		<path style="opacity:1" fill="#e6b84e" d="M 362.5,686.5 C 360.883,687.589 360.05,689.256 360,691.5C 359.581,690.328 358.915,689.328 358,688.5C 358.627,692.824 358.46,697.157 357.5,701.5C 353.014,703.116 348.514,703.449 344,702.5C 342.013,703.218 340.179,704.218 338.5,705.5C 338.863,706.183 339.196,706.85 339.5,707.5C 337.744,706.448 337.077,704.781 337.5,702.5C 342.261,701.721 347.261,700.388 352.5,698.5C 354.577,693.023 356.577,687.523 358.5,682C 361.93,681.362 363.263,682.862 362.5,686.5 Z"/>
	</g>
	<g>
		<path style="opacity:1" fill="#2f2b14" d="M 500.5,700.5 C 500.5,699.833 500.833,699.5 501.5,699.5C 502.833,699.5 503.5,700.167 503.5,701.5C 502.391,701.443 501.391,701.11 500.5,700.5 Z"/>
	</g>
	<g>
		<path style="opacity:1" fill="#efbe4c" d="M 362.5,686.5 C 363.93,689.961 365.096,693.628 366,697.5C 368.979,699.207 372.146,700.541 375.5,701.5C 376.287,703.104 377.62,703.771 379.5,703.5C 379.5,704.5 379.5,705.5 379.5,706.5C 376.784,706.386 374.784,707.386 373.5,709.5C 371.698,710.458 369.698,711.125 367.5,711.5C 365.952,711.821 365.285,712.821 365.5,714.5C 364.899,717.968 363.899,721.301 362.5,724.5C 361.25,724.577 360.417,725.244 360,726.5C 359.414,723.981 358.247,721.981 356.5,720.5C 356.672,719.508 356.338,718.842 355.5,718.5C 354.434,716.299 353.767,713.965 353.5,711.5C 348.643,710.733 343.977,709.399 339.5,707.5C 339.196,706.85 338.863,706.183 338.5,705.5C 340.179,704.218 342.013,703.218 344,702.5C 348.514,703.449 353.014,703.116 357.5,701.5C 358.46,697.157 358.627,692.824 358,688.5C 358.915,689.328 359.581,690.328 360,691.5C 360.05,689.256 360.883,687.589 362.5,686.5 Z"/>
	</g>
	<g>
		<path style="opacity:1" fill="#bf9841" d="M 766.5,696.5 C 764.593,701.984 761.927,706.984 758.5,711.5C 757.177,708.719 757.344,706.053 759,703.5C 759.333,704.167 759.667,704.833 760,705.5C 761.908,702.22 763.741,698.887 765.5,695.5C 766.107,695.624 766.44,695.957 766.5,696.5 Z"/>
	</g>
	<g>
		<path style="opacity:1" fill="#b99a58" d="M 375.5,701.5 C 377.482,701.995 379.482,702.495 381.5,703C 382.38,704.356 382.714,705.856 382.5,707.5C 379.435,707.241 376.935,708.241 375,710.5C 374.617,709.944 374.117,709.611 373.5,709.5C 374.784,707.386 376.784,706.386 379.5,706.5C 379.5,705.5 379.5,704.5 379.5,703.5C 377.62,703.771 376.287,703.104 375.5,701.5 Z"/>
	</g>
	<g>
		<path style="opacity:1" fill="#ab8a42" d="M 255.5,704.5 C 258.514,705.807 260.514,707.64 261.5,710C 261.328,714.646 263.328,718.313 267.5,721C 267.043,721.414 266.709,721.914 266.5,722.5C 269.266,723.535 269.932,725.201 268.5,727.5C 263.397,720.296 259.063,712.629 255.5,704.5 Z"/>
	</g>
	<g>
		<path style="opacity:1" fill="#301e0c" d="M 367.5,711.5 C 367.068,712.71 366.401,713.71 365.5,714.5C 365.285,712.821 365.952,711.821 367.5,711.5 Z"/>
	</g>
	<g>
		<path style="opacity:1" fill="#c8a446" d="M 477.5,709.5 C 467.964,713.344 457.964,715.677 447.5,716.5C 447.721,715.265 448.388,714.265 449.5,713.5C 452.32,712.306 455.153,712.306 458,713.5C 464.302,711.132 470.802,709.799 477.5,709.5 Z"/>
	</g>
	<g>
		<path style="opacity:1" fill="#bd9542" d="M 689.5,712.5 C 687.664,714.588 685.331,715.921 682.5,716.5C 682.343,715.127 682.51,713.793 683,712.5C 684.716,713.552 685.716,712.886 686,710.5C 686.71,711.973 687.876,712.64 689.5,712.5 Z"/>
	</g>
	<g>
		<path style="opacity:1" fill="#a0853e" d="M 420.5,713.5 C 423.471,713.435 426.138,714.269 428.5,716C 434.825,716.5 441.158,716.666 447.5,716.5C 440.99,718.514 434.324,718.681 427.5,717C 424.719,716.478 422.385,715.311 420.5,713.5 Z"/>
	</g>
	<g>
		<path style="opacity:1" fill="#413a36" d="M 355.5,718.5 C 356.338,718.842 356.672,719.508 356.5,720.5C 354.302,720.591 353.969,719.925 355.5,718.5 Z"/>
	</g>
	<g>
		<path style="opacity:1" fill="#f8c147" d="M 571.5,774.5 C 568.968,775.68 566.301,776.68 563.5,777.5C 564.025,778.192 564.692,778.692 565.5,779C 563.167,779.333 560.833,779.667 558.5,780C 559.167,780.333 559.833,780.667 560.5,781C 558.1,781.186 555.766,781.686 553.5,782.5C 554.127,783.417 554.461,784.417 554.5,785.5C 553.101,786.89 551.434,787.89 549.5,788.5C 547.876,788.64 546.71,787.973 546,786.5C 545.517,787.448 545.351,788.448 545.5,789.5C 543.5,789.5 541.5,789.5 539.5,789.5C 533.705,777.564 528.705,765.23 524.5,752.5C 524.602,748.973 523.602,745.806 521.5,743C 522.383,740.708 521.717,738.708 519.5,737C 520.333,733.924 519.667,733.758 517.5,736.5C 514.647,730.78 512.314,724.78 510.5,718.5C 510.47,717.503 510.97,716.836 512,716.5C 528.771,720.601 545.604,724.434 562.5,728C 566.203,743.351 569.203,758.851 571.5,774.5 Z"/>
	</g>
	<g>
		<path style="opacity:1" fill="#a28943" d="M 356.5,720.5 C 358.247,721.981 359.414,723.981 360,726.5C 360.417,725.244 361.25,724.577 362.5,724.5C 362.853,726.635 362.02,727.968 360,728.5C 358.414,726.614 356.914,724.614 355.5,722.5C 355.863,721.817 356.196,721.15 356.5,720.5 Z"/>
	</g>
	<g>
		<path style="opacity:1" fill="#b38d3d" d="M 662.5,727.5 C 660.151,729.341 657.485,730.674 654.5,731.5C 654.238,730.022 654.571,728.689 655.5,727.5C 657.31,726.489 659.643,726.489 662.5,727.5 Z"/>
	</g>
	<g>
		<path style="opacity:1" fill="#c59e49" d="M 294.5,721.5 C 297.989,726.47 300.989,731.803 303.5,737.5C 301.218,736.511 299.551,734.844 298.5,732.5C 297.081,728.79 295.747,725.123 294.5,721.5 Z"/>
	</g>
	<g>
		<path style="opacity:1" fill="#cc9f42" d="M 654.5,731.5 C 651.992,733.924 648.992,735.59 645.5,736.5C 645.343,735.127 645.51,733.793 646,732.5C 647.693,731.816 649.193,730.816 650.5,729.5C 651.524,730.853 652.857,731.52 654.5,731.5 Z"/>
	</g>
	<g>
		<path style="opacity:1" fill="#c7a048" d="M 753.5,720.5 C 748.893,729.76 743.893,738.76 738.5,747.5C 738.141,745.234 738.808,743.401 740.5,742C 739.833,741.333 739.167,740.667 738.5,740C 739.509,737.828 741.176,736.662 743.5,736.5C 743.343,735.127 743.51,733.793 744,732.5C 747.06,729.047 749.06,725.047 750,720.5C 751.145,721.684 752.312,721.684 753.5,720.5 Z"/>
	</g>
	<g>
		<path style="opacity:1" fill="#92793a" d="M 303.5,737.5 C 306.485,738.326 309.151,739.659 311.5,741.5C 307.966,741.639 305.299,740.306 303.5,737.5 Z"/>
	</g>
	<g>
		<path style="opacity:1" fill="#bc9644" d="M 524.5,752.5 C 521.655,747.469 519.322,742.136 517.5,736.5C 519.667,733.758 520.333,733.924 519.5,737C 521.717,738.708 522.383,740.708 521.5,743C 523.602,745.806 524.602,748.973 524.5,752.5 Z"/>
	</g>
	<g>
		<path style="opacity:1" fill="#bb9441" d="M 645.5,736.5 C 640.526,739.991 635.192,742.991 629.5,745.5C 630.031,742.221 632.031,740.887 635.5,741.5C 635.343,740.127 635.51,738.793 636,737.5C 636.308,738.308 636.808,738.975 637.5,739.5C 638.333,738.5 639.167,737.5 640,736.5C 640.333,736.833 640.667,737.167 641,737.5C 641.249,736.376 641.749,735.376 642.5,734.5C 643.265,735.612 644.265,736.279 645.5,736.5 Z"/>
	</g>
	<g>
		<path style="opacity:1" fill="#c29c3e" d="M 738.5,747.5 C 737.027,750.447 735.527,753.447 734,756.5C 733.184,757.823 732.017,758.489 730.5,758.5C 729.053,755.694 729.72,754.694 732.5,755.5C 733.235,752.298 734.402,749.298 736,746.5C 736.671,747.252 737.504,747.586 738.5,747.5 Z"/>
	</g>
	<g>
		<path style="opacity:1" fill="#cda146" d="M 617.5,751.5 C 614.992,753.924 611.992,755.59 608.5,756.5C 609.026,750.641 612.026,748.975 617.5,751.5 Z"/>
	</g>
	<g>
		<path style="opacity:1" fill="#b29343" d="M 346.5,759.5 C 345.178,759.33 344.011,759.663 343,760.5C 341.004,758.391 338.671,756.724 336,755.5C 335.667,755.833 335.333,756.167 335,756.5C 333.951,754.893 332.451,754.227 330.5,754.5C 330.5,753.5 330.5,752.5 330.5,751.5C 335.79,753.478 341.123,756.144 346.5,759.5 Z"/>
	</g>
	<g>
		<path style="opacity:1" fill="#d8ae4a" d="M 283.5,754.5 C 286.441,756.355 289.607,758.022 293,759.5C 296.178,758.002 299.011,758.502 301.5,761C 300.692,761.308 300.025,761.808 299.5,762.5C 301.007,763.739 302.174,763.405 303,761.5C 304.833,762.667 306.667,763.833 308.5,765C 307.549,765.718 307.383,766.551 308,767.5C 309.814,766.24 311.647,766.24 313.5,767.5C 313.154,768.696 312.654,768.696 312,767.5C 311.333,768.167 311.333,768.833 312,769.5C 313.987,770.218 315.821,771.218 317.5,772.5C 318.532,770.96 319.865,770.46 321.5,771C 322.328,771.915 323.328,772.581 324.5,773C 324.043,773.414 323.709,773.914 323.5,774.5C 324.612,775.265 325.279,776.265 325.5,777.5C 312.373,770.771 299.04,764.271 285.5,758C 284.177,757.184 283.511,756.017 283.5,754.5 Z"/>
	</g>
	<g>
		<path style="opacity:1" fill="#c9a149" d="M 608.5,756.5 C 602.857,760.325 596.857,763.658 590.5,766.5C 590.586,765.504 590.252,764.671 589.5,764C 591.134,763.506 592.801,763.34 594.5,763.5C 594.181,759.689 595.681,758.356 599,759.5C 599.333,758.5 599.667,757.5 600,756.5C 600.71,757.973 601.876,758.64 603.5,758.5C 603.312,756.897 603.812,755.563 605,754.5C 605.816,755.823 606.983,756.489 608.5,756.5 Z"/>
	</g>
	<g>
		<path style="opacity:1" fill="#b38f41" d="M 703.5,772.5 C 700.485,774.674 697.151,776.341 693.5,777.5C 693.5,776.5 693.5,775.5 693.5,774.5C 696.734,773.424 700.068,772.757 703.5,772.5 Z"/>
	</g>
	<g>
		<path style="opacity:1" fill="#d6a949" d="M 476.5,784.5 C 475.732,783.737 475.232,782.737 475,781.5C 474.798,783.256 474.298,784.922 473.5,786.5C 473.167,786.167 472.833,785.833 472.5,785.5C 473.706,783.484 473.706,781.484 472.5,779.5C 471.719,780.729 471.219,782.062 471,783.5C 470.583,782.244 469.75,781.577 468.5,781.5C 468.678,778.784 469.178,776.117 470,773.5C 471.356,772.62 472.856,772.286 474.5,772.5C 475.167,776.5 475.833,780.5 476.5,784.5 Z"/>
	</g>
	<g>
		<path style="opacity:1" fill="#c49b45" d="M 577.5,773.5 C 570.27,778.25 562.603,782.25 554.5,785.5C 554.461,784.417 554.127,783.417 553.5,782.5C 555.766,781.686 558.1,781.186 560.5,781C 559.833,780.667 559.167,780.333 558.5,780C 560.833,779.667 563.167,779.333 565.5,779C 564.692,778.692 564.025,778.192 563.5,777.5C 566.301,776.68 568.968,775.68 571.5,774.5C 572.268,773.737 572.768,772.737 573,771.5C 574.33,772.582 575.83,773.249 577.5,773.5 Z"/>
	</g>
	<g>
		<path style="opacity:1" fill="#e1bb4e" d="M 656.5,768.5 C 655.699,770.042 655.366,771.708 655.5,773.5C 648.896,775.824 642.229,778.157 635.5,780.5C 634.968,782.741 633.635,784.241 631.5,785C 627.506,785.945 623.506,786.778 619.5,787.5C 631.356,780.404 643.689,774.071 656.5,768.5 Z"/>
	</g>
	<g>
		<path style="opacity:1" fill="#c39b46" d="M 689.5,779.5 C 685.443,782.194 681.11,784.527 676.5,786.5C 677.234,785.292 677.567,783.959 677.5,782.5C 681.016,781.746 684.349,780.413 687.5,778.5C 688.416,778.543 689.083,778.876 689.5,779.5 Z"/>
	</g>
	<g>
		<path style="opacity:1" fill="#f2c14b" d="M 476.5,784.5 C 477.391,786.291 478.391,788.124 479.5,790C 500.728,794.282 500.728,798.448 479.5,802.5C 478.094,802.973 477.427,803.973 477.5,805.5C 477.567,806.959 477.234,808.292 476.5,809.5C 475.603,810.598 474.77,810.598 474,809.5C 473.316,810.784 473.483,811.951 474.5,813C 473.692,814.706 472.359,815.539 470.5,815.5C 470.843,813.517 470.176,812.183 468.5,811.5C 468.371,809.784 468.038,808.117 467.5,806.5C 467.714,804.856 467.38,803.356 466.5,802C 464.26,801.023 461.927,800.523 459.5,800.5C 459.5,799.5 459.5,798.5 459.5,797.5C 453.196,797.169 453.53,796.669 460.5,796C 463.216,794.258 465.883,792.425 468.5,790.5C 469.068,787.588 469.068,784.588 468.5,781.5C 469.75,781.577 470.583,782.244 471,783.5C 471.219,782.062 471.719,780.729 472.5,779.5C 473.706,781.484 473.706,783.484 472.5,785.5C 472.833,785.833 473.167,786.167 473.5,786.5C 474.298,784.922 474.798,783.256 475,781.5C 475.232,782.737 475.732,783.737 476.5,784.5 Z"/>
	</g>
	<g>
		<path style="opacity:1" fill="#b39147" d="M 549.5,788.5 C 546.812,790.266 543.979,791.933 541,793.5C 540.209,792.255 539.709,790.922 539.5,789.5C 541.5,789.5 543.5,789.5 545.5,789.5C 545.351,788.448 545.517,787.448 546,786.5C 546.71,787.973 547.876,788.64 549.5,788.5 Z"/>
	</g>
	<g>
		<path style="opacity:1" fill="#d9b04d" d="M 468.5,781.5 C 469.068,784.588 469.068,787.588 468.5,790.5C 465.883,792.425 463.216,794.258 460.5,796C 453.53,796.669 453.196,797.169 459.5,797.5C 459.5,798.5 459.5,799.5 459.5,800.5C 455.864,800.974 452.697,799.974 450,797.5C 449.333,796.5 449.333,795.5 450,794.5C 455.599,792.515 460.932,790.849 466,789.5C 466.279,786.543 467.113,783.877 468.5,781.5 Z"/>
	</g>
	<g>
		<path style="opacity:1" fill="#ac994d" d="M 459.5,800.5 C 461.927,800.523 464.26,801.023 466.5,802C 467.38,803.356 467.714,804.856 467.5,806.5C 467.167,806.5 466.833,806.5 466.5,806.5C 466.047,805.542 465.381,804.708 464.5,804C 464.833,803.667 465.167,803.333 465.5,803C 463.277,802.434 461.277,801.6 459.5,800.5 Z"/>
	</g>
	<g>
		<path style="opacity:1" fill="#27170c" d="M 479.5,802.5 C 479.573,804.027 478.906,805.027 477.5,805.5C 477.427,803.973 478.094,802.973 479.5,802.5 Z"/>
	</g>
	<g>
		<path style="opacity:1" fill="#c29f45" d="M 431.5,803.5 C 435.818,804.992 439.818,806.992 443.5,809.5C 442.504,809.414 441.671,809.748 441,810.5C 438.799,809.004 436.299,808.004 433.5,807.5C 432.37,806.378 431.703,805.044 431.5,803.5 Z"/>
	</g>
	<g>
		<path style="opacity:1" fill="#312a28" d="M 466.5,806.5 C 466.833,806.5 467.167,806.5 467.5,806.5C 468.038,808.117 468.371,809.784 468.5,811.5C 466.787,810.365 466.12,808.698 466.5,806.5 Z"/>
	</g>
	<g>
		<path style="opacity:1" fill="#d2a84a" d="M 641.5,804.5 C 633.358,809.072 625.025,813.405 616.5,817.5C 616.539,816.417 616.873,815.417 617.5,814.5C 619.332,813.752 620.999,812.752 622.5,811.5C 623.731,810.349 623.731,809.183 622.5,808C 623,807.5 623.5,807 624,806.5C 625.398,807.051 626.732,807.384 628,807.5C 629.38,804.942 630.88,804.942 632.5,807.5C 634.92,804.923 637.92,803.923 641.5,804.5 Z"/>
	</g>
	<g>
		<path style="opacity:1" fill="#c0a34e" d="M 476.5,809.5 C 475.93,813.553 474.596,817.22 472.5,820.5C 471.059,819.135 469.726,817.635 468.5,816C 468.264,814.549 468.264,813.049 468.5,811.5C 470.176,812.183 470.843,813.517 470.5,815.5C 472.359,815.539 473.692,814.706 474.5,813C 473.483,811.951 473.316,810.784 474,809.5C 474.77,810.598 475.603,810.598 476.5,809.5 Z"/>
	</g>
	<g>
		<path style="opacity:1" fill="#1b1709" d="M 469.5,822.5 C 468.508,822.672 467.842,822.338 467.5,821.5C 468.327,820.561 468.994,820.895 469.5,822.5 Z"/>
	</g>
	<g>
		<path style="opacity:1" fill="#997f3c" d="M 478.5,827.5 C 477.178,827.33 476.011,827.663 475,828.5C 474.424,825.876 473.09,825.209 471,826.5C 470.53,825.423 470.697,824.423 471.5,823.5C 471.435,823.062 471.601,822.728 472,822.5C 473.926,824.539 476.093,826.206 478.5,827.5 Z"/>
	</g>
	<g>
		<path style="opacity:1" fill="#cda345" d="M 569.5,841.5 C 562.665,845.418 555.665,849.085 548.5,852.5C 549.234,851.292 549.567,849.959 549.5,848.5C 550.978,848.762 552.311,848.429 553.5,847.5C 552.54,846.188 552.706,844.854 554,843.5C 558.633,844.847 562.8,843.847 566.5,840.5C 567.417,841.127 568.417,841.461 569.5,841.5 Z"/>
	</g>
	<g>
		<path style="opacity:1" fill="#b08b3c" d="M 540.5,856.5 C 538.819,858.008 536.819,859.008 534.5,859.5C 535.301,857.958 535.634,856.292 535.5,854.5C 537.322,854.831 538.989,855.498 540.5,856.5 Z"/>
	</g>
	<g>
		<path style="opacity:1" fill="#dcac4b" d="M 534.5,859.5 C 528.818,863.008 522.818,866.008 516.5,868.5C 516.238,867.022 516.571,865.689 517.5,864.5C 521.1,862.353 524.767,860.353 528.5,858.5C 530.409,859.348 532.409,859.682 534.5,859.5 Z"/>
	</g>
	<g>
		<path style="opacity:1" fill="#ba9343" d="M 516.5,868.5 C 514.392,870.059 512.059,871.392 509.5,872.5C 508.261,872.058 507.261,871.391 506.5,870.5C 508.199,870.66 509.866,870.494 511.5,870C 510.672,869.085 509.672,868.419 508.5,868C 509.126,867.25 509.626,866.416 510,865.5C 511.465,867.915 513.632,868.915 516.5,868.5 Z"/>
	</g>
</svg>
