<svg width="30" height="30" viewBox="0 0 30 30" fill="none"
	xmlns="http://www.w3.org/2000/svg">
	<path d="M14.1958 7.40007C14.2574 7.59447 14.2482 7.80589 14.1699 7.99358C14.0917 8.18128 13.9499 8.33197 13.772 8.41662C12.261 9.14596 11.0393 10.4039 10.3165 11.9746C9.59375 13.5453 9.41494 15.3308 9.8108 17.0247C9.98782 17.771 10.2744 18.4841 10.6601 19.1382L11.562 17.7727C11.5984 17.7174 11.6481 17.6732 11.706 17.6446C11.7638 17.6159 11.8279 17.6037 11.8917 17.6093C11.9555 17.6149 12.0168 17.638 12.0693 17.6764C12.1219 17.7147 12.1639 17.7669 12.191 17.8277L14.3453 22.614C14.3725 22.6743 14.3842 22.741 14.3792 22.8074C14.3742 22.8739 14.3526 22.9378 14.3167 22.9928C14.2807 23.0478 14.2317 23.092 14.1744 23.1209C14.1171 23.1499 14.0535 23.1626 13.9901 23.1577L8.95838 22.7214C8.89475 22.7155 8.83369 22.6922 8.78129 22.6539C8.72888 22.6156 8.68695 22.5636 8.65966 22.5031C8.63238 22.4425 8.6207 22.3755 8.62577 22.3088C8.63085 22.242 8.65251 22.1778 8.6886 22.1226L9.70299 20.591C9.67854 20.5674 9.65601 20.5418 9.63565 20.5143C9.00447 19.5817 8.54432 18.5341 8.27868 17.425C8.16994 16.9881 8.09265 16.5432 8.04744 16.0942C7.88307 14.2009 8.28277 12.3007 9.19148 10.6555C10.1002 9.01036 11.4732 7.70111 13.1213 6.90818C13.222 6.86065 13.3311 6.83575 13.4415 6.8351C13.552 6.83445 13.6613 6.85805 13.7625 6.90438C13.8638 6.95072 13.9546 7.01876 14.0292 7.10414C14.1038 7.18951 14.1606 7.29032 14.1958 7.40007Z" fill="var(--icon-color, currentcolor)"/>
	<path d="M15.8047 22.5963C15.7434 22.4018 15.7529 22.1904 15.8314 22.0028C15.9099 21.8152 16.0518 21.6647 16.2299 21.5803C17.7419 20.8532 18.9653 19.597 19.6903 18.0274C20.4152 16.4578 20.5965 14.6725 20.203 12.9781C20.027 12.2314 19.7414 11.518 19.3565 10.8633L18.4527 12.2275C18.4163 12.2827 18.3666 12.3268 18.3087 12.3554C18.2507 12.384 18.1866 12.3961 18.1228 12.3904C18.059 12.3847 17.9978 12.3615 17.9453 12.3231C17.8928 12.2846 17.8509 12.2324 17.8239 12.1716L15.6761 7.38215C15.649 7.32184 15.6374 7.25513 15.6425 7.18867C15.6477 7.12221 15.6693 7.05832 15.7053 7.00336C15.7413 6.9484 15.7905 6.9043 15.8478 6.87545C15.9051 6.8466 15.9687 6.83401 16.0321 6.83893L21.0632 7.28263C21.1269 7.2886 21.1879 7.31193 21.2402 7.3503C21.2926 7.38867 21.3344 7.44075 21.3616 7.50134C21.3888 7.56194 21.4004 7.62895 21.3953 7.6957C21.3901 7.76245 21.3684 7.82662 21.3322 7.88182L20.3157 9.41194C20.3401 9.4355 20.3626 9.46116 20.3829 9.48865C21.0128 10.4222 21.4715 11.4705 21.7356 12.58C21.8438 13.017 21.9204 13.462 21.965 13.9111C22.1268 15.8047 21.7245 17.7042 20.8135 19.3481C19.9025 20.9919 18.5277 22.2992 16.8785 23.0897C16.7778 23.1371 16.6686 23.1619 16.5582 23.1623C16.4477 23.1628 16.3384 23.1391 16.2373 23.0926C16.1361 23.0461 16.0454 22.9779 15.9709 22.8925C15.8963 22.807 15.8397 22.7061 15.8047 22.5963Z" fill="var(--icon-color, currentcolor)"/>
</svg>