<svg width="40" height="40" viewBox="0 0 40 40" fill="none"
	xmlns="http://www.w3.org/2000/svg">
	<rect x="0.5" y="0.5" width="39" height="39" rx="19.5" fill="url(#idle_paint0_radial)" stroke="#9FB6D7"/>
	<rect x="4.53333" y="4.53333" width="30.9333" height="30.9333" rx="15.4667" stroke="#9FB6D7" stroke-width="1.06667"/>
	<path d="M18.7588 17.4263L14.6956 19.1193L13.887 16.2753C13.8869 13.0928 16.3887 12.0087 17.4044 11.6701C19.2774 11.0457 22.0094 10.9252 24.1764 12.0087C26.8852 13.3631 25.8694 16.7491 25.5308 17.4263C25.1922 18.1035 21.8062 20.8123 21.129 21.1509C20.5872 21.4218 20.6775 22.6182 20.7904 23.1825H17.4044V20.8123C17.4044 19.9997 18.3073 18.8936 18.7588 18.4421C19.3231 17.8778 20.3204 17.6297 20.3204 16.2753C20.3204 14.5823 18.966 14.5823 18.2888 15.2595C17.747 15.8013 18.4202 16.5234 18.7588 17.4263Z" fill="#9FB6D7"/>
	<circle cx="19.6432" cy="26.4334" r="2.3702" fill="#9FB6D7"/>
	<defs>
		<radialGradient id="idle_paint0_radial" cx="0" cy="0" r="1" gradientUnits="userSpaceOnUse" gradientTransform="translate(20 20) rotate(90) scale(20 17.8327)">
			<stop stop-color="#302380"/>
			<stop offset="1" stop-color="#18182B"/>
		</radialGradient>
	</defs>
</svg>
