<svg id="Layer_1" data-name="Layer 1"
    xmlns="http://www.w3.org/2000/svg" viewBox="0 0 116.5 122.88">
    <!-- <defs>
        <style>.cls-1{fill:#242424;}.cls-2{fill:#e74040;fill-rule:evenodd;}</style>
    </defs> -->
    <path class="cls-1" d="M101.13,73.87a3.86,3.86,0,0,1-5.46.33l0,0a3.86,3.86,0,0,1-.29-5.43,58.39,58.39,0,0,0,10.19-15.6,38.26,38.26,0,0,0,3.24-15.72A38.2,38.2,0,0,0,105,21.83,59.15,59.15,0,0,0,94.28,6.53a3.88,3.88,0,0,1,.17-5.48,3.86,3.86,0,0,1,5.47.17,66.11,66.11,0,0,1,12.23,17.62A45.58,45.58,0,0,1,116.5,37.3a45.75,45.75,0,0,1-3.73,18.59,66,66,0,0,1-11.64,18ZM37.92,54.63a3.85,3.85,0,0,1,.84,2.84,3.84,3.84,0,0,1-4.24,3.45,3.84,3.84,0,0,1-2.61-1.41,40.09,40.09,0,0,1-6.35-10.72,31.06,31.06,0,0,1-2.18-11.28,30.52,30.52,0,0,1,2.11-11.22A39.4,39.4,0,0,1,31.8,15.66a3.86,3.86,0,0,1,5.44-.56l0,0a3.85,3.85,0,0,1,.54,5.42v0a31.84,31.84,0,0,0-5,8.36,22.8,22.8,0,0,0,.06,17.23,32.48,32.48,0,0,0,5.09,8.48Zm46.67,4.88a3.87,3.87,0,0,1-5.44.57,3.88,3.88,0,0,1-1.41-2.61,3.84,3.84,0,0,1,.85-2.84,32.44,32.44,0,0,0,5.08-8.48,22.65,22.65,0,0,0,.06-17.22,31.54,31.54,0,0,0-5-8.35l-.06-.07a3.88,3.88,0,0,1,.55-5.37l.08-.07a3.89,3.89,0,0,1,5.41.59A39.1,39.1,0,0,1,91,26.29a30.75,30.75,0,0,1,2.12,11.23A31.35,31.35,0,0,1,91,48.8a40,40,0,0,1-6.36,10.71ZM21.17,68.74a3.9,3.9,0,0,1,1,2.8A3.88,3.88,0,0,1,18,75.17a3.94,3.94,0,0,1-2.67-1.3,66,66,0,0,1-11.64-18A45.57,45.57,0,0,1,0,37.3,45.57,45.57,0,0,1,4.35,18.84,66.35,66.35,0,0,1,16.58,1.22a3.88,3.88,0,0,1,5.65,5.31A58.91,58.91,0,0,0,11.5,21.83,38.2,38.2,0,0,0,7.74,37.42,38.25,38.25,0,0,0,11,53.14a58.68,58.68,0,0,0,10.2,15.6Z" fill="#FFB948"/>
    <path class="cls-2" d="M25.79,82.27H90.71a4.61,4.61,0,0,1,4.6,4.59v31.42a4.61,4.61,0,0,1-4.6,4.6H25.79a4.62,4.62,0,0,1-4.6-4.6V86.86a4.61,4.61,0,0,1,4.6-4.59Zm13.5,8.79v18.43H43.1v4.6H32.93v-23Zm13,0v23H46v-23Zm18.88,0-3.21,23h-9.6l-3.67-23H61.4c.76,6.35,1.3,11.73,1.65,16.12q.51-6.66,1-11.82l.42-4.3Zm2.41,0H84.17v4.6H80v4.4H83.9v4.37H80v5.07h4.65v4.6h-11v-23Z" fill="#ff4747" fill-rule="evenodd"/>
    <path class="cls-2" d="M68.71,39.62c1.79-1.1,1.78-2.34,0-3.32L54.09,26.13c-1.46-.88-3-.36-2.94,1.46l.05,20.57c.13,2,1.31,2.52,3,1.6L68.71,39.62Z" fill="#FFB948"/>
</svg>