<svg width="30" height="30" viewBox="0 0 30 30" fill="none"
    xmlns="http://www.w3.org/2000/svg">
    <path d="M10 7.02387L11.1538 5C14.5385 7.26673 19.2308 7.83342 21.1538 7.83342V10.2621C14.6923 9.93824 11.0256 7.96834 10 7.02387Z" fill="#FFB948"/>
    <path d="M13.0769 10.2621L10.3846 9.04774L6.15385 18.7623L9.61538 20.3814L13.0769 10.2621Z" fill="#FFB948"/>
    <path d="M16.5385 11.0716L14.2308 10.6668L10.7692 20.7862L14.2308 22.0005L16.5385 11.0716Z" fill="#FFB948"/>
    <path d="M20 11.4764L17.6923 11.0716L15.3846 22.0005H18.4615L20 11.4764Z" fill="#FFB948"/>
    <path d="M18.0769 22.81C13.1538 24.1053 7.5641 21.1909 5.38462 19.5718L5 21.5957C9.30769 25.1577 15.5128 25.2387 18.0769 24.8339V22.81Z" fill="#FFB948"/>
    <path d="M20.7692 14.7146L21.5385 11.4764H23.8462L25 13.0955V17.9528L20.3846 21.1909V18.3575L22.4943 17.1432V14.7146H20.7692Z" fill="#FFB948"/>
    <path d="M14.5004 9.00006L15.385 7.02393C19.0004 7.83347 19.2312 7.83347 21.1542 7.83347V10.2621C20.1541 10.2621 15.526 9.94453 14.5004 9.00006Z" fill="#D2860B"/>
    <path d="M16.5388 11.0717L14.2312 10.6669V22.0005L16.5388 11.0717Z" fill="#D2860B"/>
    <path d="M20.0004 11.4764L17.6927 11.0717L15.385 22.0005H18.4619L20.0004 11.4764Z" fill="#D2860B"/>
    <path d="M18.0773 22.8101C13.5004 23.5001 13.0004 22.8101 13.0004 22.8101L11 24.5001C15 25.5001 15.5132 25.2387 18.0773 24.834V22.8101Z" fill="#D2860B"/>
    <path d="M20.7696 14.7146L21.5388 11.4764H23.8465L25.0004 13.0955V17.9528L20.385 21.191V18.3576L22.4947 17.1433V14.7146H20.7696Z" fill="#D2860B"/>
</svg>
