<svg width="18" height="18" viewBox="0 0 18 18" fill="none" xmlns="http://www.w3.org/2000/svg">
<path d="M2.69236 15H2.19236V15.5H2.69236V15ZM16.2308 15V15.5H16.7308V15H16.2308ZM8.19236 9.5L7.69917 9.5822L7.7688 10H8.19236V9.5ZM10.7308 9.5V10H11.1212L11.2159 9.62127L10.7308 9.5ZM3.19236 15V7H2.19236V15H3.19236ZM5.23083 14.5H2.69236V15.5H5.23083V14.5ZM4.73083 4.42308V15H5.73083V4.42308H4.73083ZM5.69236 4.5H13.6924V3.5H5.69236V4.5ZM16.2308 14.5H13.6924V15.5H16.2308V14.5ZM13.6924 14.5H5.23083V15.5H13.6924V14.5ZM13.1924 4V15H14.1924V4H13.1924ZM2.26929 9.15385H8.19236V8.15385H2.26929V9.15385ZM15.7308 6.53846V8.65385H16.7308V6.53846H15.7308ZM15.7308 8.65385V15H16.7308V8.65385H15.7308ZM10.7308 9.15385H16.2308V8.15385H10.7308V9.15385ZM8.68556 9.4178C8.64817 9.19347 8.60913 8.98279 8.59148 8.77098C8.57386 8.55951 8.58255 8.39163 8.61948 8.265C8.65246 8.15194 8.70555 8.07634 8.7965 8.0189C8.89925 7.95401 9.09553 7.88462 9.4616 7.88462V6.88462C8.9815 6.88462 8.57843 6.97388 8.26251 7.17341C7.93479 7.38039 7.7499 7.67499 7.65948 7.985C7.57302 8.28145 7.57289 8.58953 7.59493 8.85402C7.61694 9.11817 7.66604 9.38346 7.69917 9.5822L8.68556 9.4178ZM9.4616 7.88462C9.80932 7.88462 9.99591 7.96379 10.0971 8.03835C10.1957 8.111 10.2616 8.21481 10.3009 8.36076C10.3881 8.68452 10.3148 9.10243 10.2458 9.37873L11.2159 9.62127C11.2878 9.33347 11.4261 8.69368 11.2665 8.10078C11.1824 7.7884 11.0104 7.46913 10.6903 7.23329C10.3728 6.99935 9.96002 6.88462 9.4616 6.88462V7.88462ZM10.7308 9H8.19236V10H10.7308V9ZM13.6924 4.5C14.8182 4.5 15.7308 5.41265 15.7308 6.53846H16.7308C16.7308 4.86036 15.3705 3.5 13.6924 3.5V4.5ZM3.19236 7C3.19236 5.61929 4.31165 4.5 5.69236 4.5V3.5C3.75937 3.5 2.19236 5.067 2.19236 7H3.19236Z" fill="#D9C3AB"/>
<path d="M10.3078 11.6152C10.3078 12.0383 10.0044 12.1839 10.0044 12.1839L10.3078 13.3075H8.61548L8.94563 12.1839C8.94563 12.1839 8.61548 12.0383 8.61548 11.6152C8.61548 11.1479 8.99431 10.769 9.46163 10.769C9.92895 10.769 10.3078 11.1479 10.3078 11.6152Z" fill="#D9C3AB"/>
</svg>
