<svg width="18" height="18" viewBox="0 0 18 18" fill="none" xmlns="http://www.w3.org/2000/svg">
<path d="M8.14758 11.5575L6.4424 9.85228L13.121 3.17366L15.2525 2.74737L14.8262 4.87884L8.14758 11.5575Z" fill="#303352"/>
<path d="M9.82745 13.5218L4.45485 8.14919C4.29789 7.99223 4.04342 7.99223 3.88646 8.14919C3.7295 8.30614 3.7295 8.56062 3.88646 8.71758L9.25906 14.0902C9.41602 14.2471 9.6705 14.2471 9.82746 14.0902C9.98441 13.9332 9.98441 13.6787 9.82745 13.5218Z" fill="#303352"/>
<path d="M6.84606 11.9613L6.01514 11.1304L3.59947 13.546L4.43039 14.377L6.84606 11.9613Z" fill="#303352"/>
<rect x="3.31567" y="13.0669" width="2.17222" height="0.947369" transform="rotate(45 3.31567 13.0669)" fill="#303352"/>
</svg>
