<svg width="138" height="190" viewBox="0 0 138 190" fill="none" xmlns="http://www.w3.org/2000/svg">
<path d="M7.95027 35.449C7.97789 31.6362 11.0518 28.5469 14.8644 28.5002L123.965 27.1645C127.844 27.117 131.023 30.234 131.05 34.1138L131.967 162.08C131.987 164.843 130.378 167.367 127.849 168.481C84.3349 187.654 60.3143 188.05 11.3809 168.407C8.73353 167.344 7.01353 164.756 7.03419 161.903L7.95027 35.449Z" fill="#40032E"/>
<ellipse cx="70" cy="51.1724" rx="44" ry="44.1724" fill="#40032E"/>
<path d="M112.5 51.1724C112.5 74.7453 93.4666 93.8448 70 93.8448C46.5334 93.8448 27.5 74.7453 27.5 51.1724C27.5 27.5996 46.5334 8.5 70 8.5C93.4666 8.5 112.5 27.5996 112.5 51.1724Z" stroke="#5F0B47" stroke-width="3"/>
</svg>
