<svg width="15" height="17" viewBox="0 0 15 17" fill="none" xmlns="http://www.w3.org/2000/svg">
	<path d="M5.27585 2.54845C5.27585 3.67784 6.19574 4.59691 7.33482 4.59691C8.47391 4.59691 9.3938 3.67784 9.3938 2.54845C9.3938 1.41906 8.47391 0.5 7.33482 0.5C6.19574 0.5 5.27585 1.41906 5.27585 2.54845Z" stroke="var(--icon-color, currentcolor)"/>
	<path d="M7.46126 5C7.46126 5 7.46126 5.71239 7.46126 6.71875M7.46126 12.4186C7.46126 13.3863 8.337 13.9112 9.33272 14.1707C10.1893 14.3939 10.8374 14.2802 11.5785 13.8203M7.46126 12.4186L7.41805 16M7.46126 12.4186C7.46126 11.0858 7.46126 8.46149 7.46126 6.71875M11.5785 13.8203C12.1876 13.4423 12.4177 13.0492 12.7013 12.4186C13.1551 11.4097 12.7013 9.61533 12.7013 9.61533M11.5785 13.8203L7.41805 16M12.7013 9.61533L11.806 10.5M12.7013 9.61533L14 10.1562M7.41805 16L3.42162 13.8203M3.42162 13.8203C4.16272 14.2802 4.81081 14.3939 5.66736 14.1707C6.66308 13.9112 7.53881 13.3863 7.53881 12.4186C7.53881 11.0858 7.53881 8.46149 7.53881 6.71875H5.02238M3.42162 13.8203C2.81244 13.4423 2.58236 13.0492 2.29875 12.4186C1.84497 11.4097 2.29875 9.61533 2.29875 9.61533M7.46126 6.71875H9.9777M7.46126 6.71875H4.8584M2.29875 9.61533L3.19406 10.5M2.29875 9.61533L1 10.1562" stroke="var(--icon-color, currentcolor)"/>
</svg>