<svg version="1.0" xmlns="http://www.w3.org/2000/svg"
 width="30.000000pt" height="30.000000pt" viewBox="0 0 30.000000 30.000000"
 preserveAspectRatio="xMidYMid meet">
<g transform="translate(0.000000,30.000000) scale(0.004478,-0.004478)"
fill="#000000" stroke="none">
<path d="M4985 5059 c-11 -6 -173 -164 -360 -350 l-341 -339 -59 20 c-172 60
-453 121 -650 141 -145 14 -438 7 -580 -15 -677 -106 -1374 -449 -1972 -969
-219 -192 -212 -223 112 -486 303 -246 636 -455 968 -608 78 -36 150 -69 161
-75 16 -9 -22 -50 -308 -337 -284 -284 -326 -331 -326 -357 0 -38 16 -54 54
-54 26 0 75 45 381 350 l351 350 124 -40 c149 -48 420 -104 585 -121 147 -14
439 -7 585 16 669 103 1370 449 1966 968 99 86 124 114 141 155 l21 50 -28 49
c-19 33 -68 83 -147 151 -311 268 -643 483 -1065 692 -93 45 -168 85 -168 88
0 4 141 148 314 322 316 316 343 350 319 389 -12 20 -51 25 -78 10z m-1265
-793 c156 -27 283 -57 324 -78 l39 -20 -136 -136 -136 -136 -123 61 c-245 122
-422 125 -657 11 -146 -70 -229 -153 -299 -299 -121 -251 -109 -461 41 -717
l35 -59 -167 -166 -166 -167 -135 56 c-316 129 -661 333 -952 562 -183 143
-194 171 -105 257 67 65 288 228 447 331 427 276 878 451 1306 508 147 20 550
15 684 -8z m647 -185 c306 -127 601 -298 888 -515 241 -183 256 -210 163 -301
-29 -28 -114 -96 -188 -151 -500 -370 -969 -585 -1477 -675 -84 -15 -179 -23
-330 -26 -226 -6 -364 4 -537 38 -104 20 -266 68 -266 78 0 4 62 68 138 144
l139 139 45 -31 c224 -151 485 -171 723 -55 145 71 237 165 312 319 51 105 73
199 73 310 0 108 -26 201 -95 341 l-57 117 163 163 c90 91 168 162 174 160 5
-2 65 -27 132 -55z" fill="var(--icon-color, currentcolor)"/>
</g>
</svg>
