<svg width="30" height="30" viewBox="0 0 30 30" xmlns="http://www.w3.org/2000/svg" preserveAspectRatio="xMidYMid meet" version="1.0">
 <g fill="var(--icon-color, currentcolor)" >
  <path d="m18.87853,0.77028c-1.38489,0.53644 -4.53802,1.77322 -7.33176,2.86596c-0.6565,0.25828 -1.45197,0.5712 -1.75866,0.69538l-0.56546,0.22351l-0.72838,-0.27318c-0.40253,-0.14901 -1.4424,-0.53644 -2.31454,-0.85432c-0.86735,-0.32286 -2.5733,-0.9487 -3.78089,-1.39573c-1.21237,-0.44703 -2.20911,-0.81459 -2.21869,-0.81459c-0.0048,0 -0.01438,5.69218 -0.01438,12.65095l0,12.65592l2.40558,0.88909c1.32739,0.48676 2.6356,0.97353 2.91354,1.07784c0.27794,0.09934 1.23154,0.45696 2.12286,0.78478l1.6149,0.59604l3.0573,-1.19704c1.6772,-0.65565 4.02528,-1.56958 5.2089,-2.03647c1.18842,-0.4669 2.31933,-0.90896 2.52059,-0.98347l0.3642,-0.14404l1.64844,0.65067c0.90569,0.35266 2.30496,0.89903 3.11001,1.21692c3.58442,1.40566 4.48532,1.75335 4.53803,1.75335c0.08146,0 0.09105,-25.55521 0.01437,-25.60488c-0.04792,-0.02981 -0.7188,-0.27319 -3.73776,-1.35103c-0.80505,-0.28808 -2.1516,-0.76492 -2.995,-1.0679c-0.84339,-0.29802 -1.77304,-0.63081 -2.06056,-0.73015l-0.52712,-0.18875l-1.48552,0.58114zm0.88652,8.47867l0,7.49024c-0.00959,1.36592 -0.00479,2.79145 -0.00958,4.5299l-0.01438,3.16895l-0.28752,0.10927c-0.28273,0.10431 -3.9534,1.53977 -7.66241,2.99013c-1.05424,0.41226 -1.92159,0.74505 -1.92638,0.73512c-0.03834,-0.03477 -0.02396,-22.59985 0.01438,-22.63462c0.01916,-0.01987 0.599,-0.25828 1.28425,-0.52153c0.68526,-0.26822 1.60053,-0.62585 2.0366,-0.79472c0.43607,-0.16888 1.74908,-0.68545 2.92312,-1.14738c1.17404,-0.45697 2.4583,-0.95863 2.85124,-1.11758c0.39774,-0.15397 0.73318,-0.28312 0.75714,-0.28808c0.01917,-0.00497 0.03354,3.36266 0.03354,7.4803zm1.89763,-7.28162c0.31628,0.10927 1.29385,0.46193 2.17557,0.77485c0.88173,0.31292 2.2187,0.78975 2.97104,1.05797c0.75235,0.26822 1.44719,0.52154 1.54303,0.56127l0.18209,0.07947l0,11.44894c0,7.03824 -0.01916,11.4539 -0.04792,11.4539c-0.03833,0 -0.80505,-0.29802 -3.64192,-1.40566c-0.24918,-0.09934 -1.22196,-0.4818 -2.1564,-0.84936l-1.70116,-0.66558l0,-3.43716l0,-3.43716c-0.00479,-1.38083 -0.02396,-4.62428 -0.02396,-8.58298c0,-6.11438 0.00959,-7.20215 0.06709,-7.20215c0.03834,0 0.32106,0.08941 0.63254,0.20365zm-19.45073,1.31625c0.41691,0.14901 0.92965,0.34273 1.1405,0.4222c0.21085,0.07947 1.46635,0.5414 2.79374,1.03313c1.32738,0.48677 2.41996,0.89903 2.42954,0.90896c0.02396,0.01987 0.03355,3.34776 0.02875,7.87767l-0.00479,3.28815l0,1.39076l0,5.04151c0,3.03483 -0.01917,5.0415 -0.04313,5.0415c-0.04312,0 -1.01111,-0.35762 -5.18015,-1.89739c-0.96319,-0.35763 -1.80658,-0.67055 -1.87846,-0.69538l-0.13418,-0.04967l0,-11.3198c0,-7.073 0.01917,-11.31979 0.04792,-11.31979c0.02396,0 0.38336,0.12418 0.80026,0.27815z"/>
  <path d="m22.67266,7.17853l-0.58584,0.61421l0.75418,0.78173l0.76092,0.78871l-0.76092,0.78871l-0.75418,0.78173l0.59257,0.61421l0.59257,0.61421l0.76092,-0.78173l0.76765,-0.77475l0.76092,0.78871l0.75418,0.78173l0.59931,-0.60025l0.59257,-0.60723l-0.76765,-0.79569l-0.76092,-0.79569l0.76092,-0.76777l0.76765,-0.77475l-0.60604,-0.63515l-0.60604,-0.62817l-0.75418,0.78173l-0.76092,0.78871l-0.76092,-0.78871l-0.75418,-0.78173l-0.59257,0.60723z"/>
  <rect height="0" width="0.02591" y="12.43522" x="14.40414"/>
  <rect transform="rotate(-3.67824 14.7838 20.3837)" height="2" width="5" y="19.3578" x="12.23195"/>
  <rect transform="rotate(-66.4329 23.8316 16.327)"  height="2" width="5" y="15.35292" x="21.33158"/>
  <rect transform="rotate(36.4462 4.76484 18.1678)"  height="2" width="5" y="16.77922" x="2.18712"/>
 </g>
</svg>