<svg width="40" height="40" viewBox="0 0 40 40" fill="none" xmlns="http://www.w3.org/2000/svg">
<path d="M19.1359 12.4836C19.5216 11.8213 20.4784 11.8213 20.8641 12.4836L24.3042 18.3898C24.4455 18.6324 24.6822 18.8044 24.9566 18.8638L31.6368 20.3104C32.3858 20.4726 32.6815 21.3825 32.1708 21.954L27.6167 27.0508C27.4297 27.2602 27.3392 27.5385 27.3675 27.8179L28.056 34.6181C28.1332 35.3806 27.3592 35.943 26.6579 35.6339L20.4032 32.8777C20.1463 32.7645 19.8537 32.7645 19.5968 32.8777L13.3421 35.6339C12.6408 35.943 11.8668 35.3806 11.944 34.6181L12.6325 27.8179C12.6608 27.5385 12.5703 27.2602 12.3833 27.0508L7.82916 21.954C7.3185 21.3825 7.61416 20.4726 8.36321 20.3104L15.0434 18.8638C15.3178 18.8044 15.5545 18.6324 15.6958 18.3898L19.1359 12.4836Z" fill="#FFB948"/>
<path opacity="0.5" d="M31.6368 20.3104L24.9514 18.8627C24.68 18.8039 24.4454 18.635 24.3035 18.3964L20.7555 12.4298C20.5971 12.1633 20.31 12 20 12V32.0479C20 32.4442 20.2341 32.8031 20.5968 32.963L26.6579 35.6339C27.3592 35.943 28.1332 35.3806 28.056 34.6181L27.3675 27.8178C27.3392 27.5385 27.4297 27.2602 27.6167 27.0508L32.1708 21.954C32.6815 21.3825 32.3858 20.4726 31.6368 20.3104Z" fill="#8E5B23"/>
<rect x="9" y="5.90625" width="2" height="7" rx="1" transform="rotate(-26.9891 9 5.90625)" fill="#FFB948"/>
<rect x="19" y="2" width="2" height="7" rx="1" fill="#FFB948"/>
<rect x="29.5" y="5" width="2" height="7" rx="1" transform="rotate(30 29.5 5)" fill="#FFB948"/>
</svg>
