<svg width="84" height="89" viewBox="0 0 84 89" fill="none" xmlns="http://www.w3.org/2000/svg">
<mask id="path-1-inside-1" fill="white">
<path fill-rule="evenodd" clip-rule="evenodd" d="M0 5H27L26 6H1V83H26L27 84H0V5ZM83 6H58L57 5H84V84H57L58 83H83V6Z"/>
</mask>
<path fill-rule="evenodd" clip-rule="evenodd" d="M0 5H27L26 6H1V83H26L27 84H0V5ZM83 6H58L57 5H84V84H57L58 83H83V6Z" fill="#FFB948" stroke="#FFB948" stroke-width="2" mask="url(#path-1-inside-1)"/>
<path d="M74 5H84L79 10L74 5Z" fill="#FFB948"/>
<path d="M79 10L84 5V15L79 10Z" fill="#8E5B23"/>
<path d="M84 74L84 84L79 79L84 74Z" fill="#FFB948"/>
<path d="M79 79L84 84L74 84L79 79Z" fill="#8E5B23"/>
<path d="M10 84L0 84L5 79L10 84Z" fill="#FFB948"/>
<path d="M5 79L0 84L8.74228e-07 74L5 79Z" fill="#8E5B23"/>
<path d="M0 15L-4.37114e-07 5L5 10L0 15Z" fill="#FFB948"/>
<path d="M5 10L-2.18557e-07 5L10 5L5 10Z" fill="#8E5B23"/>
<mask id="path-10-inside-2" fill="white">
<path fill-rule="evenodd" clip-rule="evenodd" d="M62.5046 80C56.8043 85.6489 49.7012 89 42 89C34.2988 89 27.1957 85.6489 21.4954 80H10.5L9.625 79H20.5234C12.8805 70.84 8 58.4159 8 44.5C8 30.5841 12.8805 18.16 20.5234 10H9.625L10.5 9H21.4954C27.1957 3.35112 34.2988 0 42 0C49.7012 0 56.8043 3.35112 62.5046 9H73.5L74.375 10H63.4766C71.1195 18.16 76 30.5841 76 44.5C76 58.4204 71.1164 70.8479 63.4693 79.0078C63.4718 79.0052 63.4742 79.0026 63.4766 79H74.375L73.5 80H62.5046ZM75 44.5C75 56.5885 71.2552 67.4955 65.247 75.3591C59.2396 83.2218 51.0115 88 42 88C32.9885 88 24.7604 83.2218 18.753 75.3591C12.7448 67.4955 9 56.5885 9 44.5C9 32.4115 12.7448 21.5045 18.753 13.6409C24.7604 5.77816 32.9885 1 42 1C51.0115 1 59.2396 5.77816 65.247 13.6409C71.2552 21.5045 75 32.4115 75 44.5Z"/>
<path d="M80 16.4286L79 15.2857V73.7143L80 72.5714V16.4286Z"/>
<path d="M4 72.5714V16.4286L5 15.2857V73.7143L4 72.5714Z"/>
</mask>
<path fill-rule="evenodd" clip-rule="evenodd" d="M62.5046 80C56.8043 85.6489 49.7012 89 42 89C34.2988 89 27.1957 85.6489 21.4954 80H10.5L9.625 79H20.5234C12.8805 70.84 8 58.4159 8 44.5C8 30.5841 12.8805 18.16 20.5234 10H9.625L10.5 9H21.4954C27.1957 3.35112 34.2988 0 42 0C49.7012 0 56.8043 3.35112 62.5046 9H73.5L74.375 10H63.4766C71.1195 18.16 76 30.5841 76 44.5C76 58.4204 71.1164 70.8479 63.4693 79.0078C63.4718 79.0052 63.4742 79.0026 63.4766 79H74.375L73.5 80H62.5046ZM75 44.5C75 56.5885 71.2552 67.4955 65.247 75.3591C59.2396 83.2218 51.0115 88 42 88C32.9885 88 24.7604 83.2218 18.753 75.3591C12.7448 67.4955 9 56.5885 9 44.5C9 32.4115 12.7448 21.5045 18.753 13.6409C24.7604 5.77816 32.9885 1 42 1C51.0115 1 59.2396 5.77816 65.247 13.6409C71.2552 21.5045 75 32.4115 75 44.5Z" fill="#8E5B23"/>
<path d="M80 16.4286L79 15.2857V73.7143L80 72.5714V16.4286Z" fill="#8E5B23"/>
<path d="M4 72.5714V16.4286L5 15.2857V73.7143L4 72.5714Z" fill="#8E5B23"/>
<path fill-rule="evenodd" clip-rule="evenodd" d="M62.5046 80C56.8043 85.6489 49.7012 89 42 89C34.2988 89 27.1957 85.6489 21.4954 80H10.5L9.625 79H20.5234C12.8805 70.84 8 58.4159 8 44.5C8 30.5841 12.8805 18.16 20.5234 10H9.625L10.5 9H21.4954C27.1957 3.35112 34.2988 0 42 0C49.7012 0 56.8043 3.35112 62.5046 9H73.5L74.375 10H63.4766C71.1195 18.16 76 30.5841 76 44.5C76 58.4204 71.1164 70.8479 63.4693 79.0078C63.4718 79.0052 63.4742 79.0026 63.4766 79H74.375L73.5 80H62.5046ZM75 44.5C75 56.5885 71.2552 67.4955 65.247 75.3591C59.2396 83.2218 51.0115 88 42 88C32.9885 88 24.7604 83.2218 18.753 75.3591C12.7448 67.4955 9 56.5885 9 44.5C9 32.4115 12.7448 21.5045 18.753 13.6409C24.7604 5.77816 32.9885 1 42 1C51.0115 1 59.2396 5.77816 65.247 13.6409C71.2552 21.5045 75 32.4115 75 44.5Z" stroke="#8E5B23" stroke-width="2" mask="url(#path-10-inside-2)"/>
<path d="M80 16.4286L79 15.2857V73.7143L80 72.5714V16.4286Z" stroke="#8E5B23" stroke-width="2" mask="url(#path-10-inside-2)"/>
<path d="M4 72.5714V16.4286L5 15.2857V73.7143L4 72.5714Z" stroke="#8E5B23" stroke-width="2" mask="url(#path-10-inside-2)"/>
</svg>
