<svg width="10" height="10" viewBox="0 0 10 10" fill="none"
	xmlns="http://www.w3.org/2000/svg">
	<g clip-path="url(#clip0)">
		<g filter="url(#filter0_d)">
			<path fill-rule="evenodd" clip-rule="evenodd" d="M3.74264 1.20276C4.54696 0.936427 5.41508 0.932375 6.22185 1.19118C7.02863 1.44999 7.73238 1.9583 8.23167 2.64282C8.73096 3.32734 9 4.15273 9 5H8.11111C8.11111 4.34101 7.90186 3.69905 7.51352 3.16664C7.12518 2.63423 6.57782 2.23888 5.95033 2.03759C5.32284 1.83629 4.64764 1.83944 4.02205 2.04659C3.39647 2.25374 2.85282 2.65417 2.46947 3.19018C2.08612 3.72619 1.88287 4.37009 1.88902 5.02905C1.89518 5.688 2.11041 6.32799 2.5037 6.85675C2.89699 7.38551 3.44803 7.77573 4.07737 7.97116C4.70671 8.16658 5.38185 8.15713 6.00548 7.94415L6.29276 8.78534C5.49096 9.05917 4.62291 9.07132 3.81376 8.82006C3.00461 8.56879 2.29614 8.06708 1.79048 7.38725C1.28482 6.70742 1.00808 5.88458 1.00017 5.03734C0.992264 4.19011 1.25358 3.36225 1.74646 2.67309C2.23934 1.98394 2.93832 1.46909 3.74264 1.20276Z" fill="#A89782"/>
		</g>
	</g>
	<defs>
		<filter id="filter0_d" x="-3" y="1" width="16" height="16" filterUnits="userSpaceOnUse" color-interpolation-filters="sRGB">
			<feFlood flood-opacity="0" result="BackgroundImageFix"/>
			<feColorMatrix in="SourceAlpha" type="matrix" values="0 0 0 0 0 0 0 0 0 0 0 0 0 0 0 0 0 0 127 0"/>
			<feOffset dy="4"/>
			<feGaussianBlur stdDeviation="2"/>
			<feColorMatrix type="matrix" values="0 0 0 0 0 0 0 0 0 0 0 0 0 0 0 0 0 0 0.25 0"/>
			<feBlend mode="normal" in2="BackgroundImageFix" result="effect1_dropShadow"/>
			<feBlend mode="normal" in="SourceGraphic" in2="effect1_dropShadow" result="shape"/>
		</filter>
		<clipPath id="clip0">
			<rect width="10" height="10" fill="white"/>
		</clipPath>
	</defs>
</svg>