<!-- svg icons -->
<svg xmlns="http://www.w3.org/2000/svg" style="display: none;">

	<symbol id="window-control_close" viewBox="0 0 30 30">
		<path d="M15.71,15l4.15-4.15a.5.5,0,0,0-.71-.71L15,14.29l-4.15-4.15a.5.5,0,1,0-.71.71L14.29,15l-4.15,4.15a.5.5,0,1,0,.71.71L15,15.71l4.15,4.15a.5.5,0,1,0,.71-.71Z"/>
	</symbol>

	<symbol id="cloud" viewBox="0 0 110 80">
		<path d="M94.41,24A26,26,0,0,0,58.34,9.76,28,28,0,0,0,11.21,26.6,23,23,0,0,0,25,68H85a23,23,0,0,0,9.41-44Z" fill="#ffc98a"/>
		<path d="M66,65H85a20,20,0,0,0,20-20h0A20,20,0,0,0,92,26.28,23,23,0,0,0,57.79,13.51,25,25,0,0,0,14.07,28.26,20,20,0,0,0,5,45H5A20,20,0,0,0,25,65H44" fill="none" stroke="#3a240f" stroke-width="2"/>
		<line x1="55" y1="48.5" x2="55" y2="77" fill="none" stroke="#3a240f" stroke-linecap="round" stroke-linejoin="round" stroke-width="2"/>
		<polyline points="40 55 55 47 70 55" fill="none" stroke="#3a240f" stroke-linecap="round" stroke-width="2"/>
	</symbol>

	<symbol id="cloud-sun-bg" viewBox="0 0 40 40">
		<path d="M40,20l-7.42-4.33a14.11,14.11,0,0,0-1.41-2.92l1.41-5.36L27.22,8.83a12.23,12.23,0,0,0-2.92-1.41L20,0,15.73,7.46a11.94,11.94,0,0,0-2.87,1.41L7.55,7.46v0h0l1.41,5.32A12.22,12.22,0,0,0,7.5,15.73L0,20l7.46,4.29a14.1,14.1,0,0,0,1.41,2.92L7.45,32.55l5.37-1.42a12.23,12.23,0,0,0,2.92,1.41L20,40l4.29-7.46a11.94,11.94,0,0,0,2.87-1.41l5.32,1.41v0h0l-1.41-5.27a12.23,12.23,0,0,0,1.41-2.92ZM20,29a9,9,0,1,1,9-9A9,9,0,0,1,20,29Z" fill="#3a240f"/>
	</symbol>

	<symbol id="cloud-sun" viewBox="0 0 40 40">
		<path d="M25.9,20.43a3,3,0,0,1-.58,1.64,2,2,0,0,0-.31.84,6.05,6.05,0,0,1-3.89,3.55,1.8,1.8,0,0,0-1.35.24c-1.16.64-2.27.12-3.39-.12-.42-.08-1,0-1.27-.52-.19-.28-.19-.4.12-.56a9.46,9.46,0,0,0,1.93-.84c1-.8,2.16-.76,3.16-1.32a13.91,13.91,0,0,0,1.89-1.83A2.25,2.25,0,0,0,22.74,20c0-.8,0-1.56,0-2.35-.08-.12,0-.24-.08-.36a.31.31,0,0,0-.15-.16,3,3,0,0,0-5-.24,3,3,0,0,0-.08,2.87.62.62,0,0,0,.89.2c.42-.24.23-.52.12-.72-.19-.36-.08-.48.23-.6a1.69,1.69,0,0,1,2,.48.21.21,0,0,1,.08.16,2.34,2.34,0,0,1-.15,2.47,2.14,2.14,0,0,1-1.46.84c-.62.2-3.18-.23-4.7-3a2.32,2.32,0,0,1-.27-1.16A4.46,4.46,0,0,0,14,16.68a.21.21,0,0,1,.12-.32c1-.56,1.5-1.75,2.5-2.31.85-.48,1.46-1.4,2.77-.92.81.28,1.81.4,2.7.64a3.51,3.51,0,0,1,2.47,1.52l.05-.06a.29.29,0,0,1,.06.14c0,.08.08.2.12.28l.62.76a2.3,2.3,0,0,0,.12.88A5.89,5.89,0,0,1,25.9,20.43Z" fill="#3a240f"/>
	</symbol>

	<symbol id="social-icon_reddit" viewBox="0 0 30 30">
		<path d="M26.95,14.78a2.65,2.65,0,0,0-2.65-2.65,2.61,2.61,0,0,0-1.82.75,13.6,13.6,0,0,0-7-2.05L17,6.16l4,.94s0,0,0,.06a2.18,2.18,0,1,0,.15-.78l-4.31-1a.37.37,0,0,0-.44.25l-1.65,5.21a13.76,13.76,0,0,0-7.27,2,2.64,2.64,0,1,0-3.12,4.21,4.63,4.63,0,0,0-.08.85C4.28,21.82,9.07,25,15,25s10.67-3.18,10.67-7.09a4.66,4.66,0,0,0-.07-.8A2.62,2.62,0,0,0,26.95,14.78Zm-3.79-9a1.42,1.42,0,1,1-1.42,1.42A1.42,1.42,0,0,1,23.16,5.74ZM4.56,16.3a1.9,1.9,0,1,1,2.31-3A6.65,6.65,0,0,0,4.56,16.3Zm5.24.29a1.57,1.57,0,1,1,1.57,1.57A1.58,1.58,0,0,1,9.8,16.6Zm9,4.67A5.18,5.18,0,0,1,15,22.44h0a5.18,5.18,0,0,1-3.81-1.18.37.37,0,1,1,.52-.52,4.51,4.51,0,0,0,3.28,1h0a4.52,4.52,0,0,0,3.29-1,.37.37,0,1,1,.52.52Zm-.19-3.1a1.57,1.57,0,1,1,1.57-1.57A1.58,1.58,0,0,1,18.63,18.17Zm6.73-1.81a6.61,6.61,0,0,0-2.28-3,1.9,1.9,0,1,1,2.28,3Z" />
	</symbol>

	<symbol id="social-icon_facebook" viewBox="0 0 30 30">
		<path d="M18.39,15H16.2v8H13V15H11.4V12.18h1.55V10.35A3.09,3.09,0,0,1,16.24,7h2.33V9.75H16.9a.67.67,0,0,0-.69.77v1.66H18.6Z" />
	</symbol>

	<symbol id="social-icon_twitter" viewBox="0 0 30 30">
		<path d="M23,11q0,.26,0,.52A11.5,11.5,0,0,1,11.29,23,11.75,11.75,0,0,1,5,21.19a8.55,8.55,0,0,0,1,.06,8.31,8.31,0,0,0,5.1-1.73,4.1,4.1,0,0,1-3.83-2.81,4.1,4.1,0,0,0,.77.07,4.15,4.15,0,0,0,1.08-.14,4.06,4.06,0,0,1-3.29-4v-.05a4.14,4.14,0,0,0,1.86.5A4,4,0,0,1,5.84,9.77a4,4,0,0,1,.56-2A11.71,11.71,0,0,0,14.85,12a4,4,0,0,1-.11-.92,4.07,4.07,0,0,1,4.1-4,4.13,4.13,0,0,1,3,1.28,8.3,8.3,0,0,0,2.61-1,4.07,4.07,0,0,1-1.8,2.23A8.29,8.29,0,0,0,25,8.89,8.25,8.25,0,0,1,23,11Z" />
	</symbol>

	<symbol id="social-icon_zero-to-heroes" viewBox="0 0 30 30">
		<path d="M21.82,5.76a.27.27,0,0,0-.35.15l.1-.3a.27.27,0,1,0-.5-.2v.3a.27.27,0,0,0-.5-.2l-.3.9-.5-.2a.2.2,0,0,0-.3.2.2.2,0,0,0,.2.3l1.7.5a.2.2,0,0,0,.3-.2l.3-.9A.27.27,0,0,0,21.82,5.76Zm-1,1.76h0l.1-.1a.4.4,0,0,0-.6.3c-.1.5-.2,1.1-.3,1.6s-.3,1.6-.3,1.6l.7-1.4.7-1.5A.4.4,0,0,0,20.79,7.52ZM10.87,7a.22.22,0,0,0-.1-.3.2.2,0,0,0-.3-.2l-.5.2-.3-.9a.27.27,0,0,0-.5.2v-.4a.27.27,0,0,0-.5.2l.1.3a.27.27,0,1,0-.5.2l.3,1.1a.2.2,0,0,0,.3.2l1.7-.5A.22.22,0,0,0,10.87,7Zm-.4,4a9.92,9.92,0,0,0-.3-1.5c-.1-.1-.1-1.1-.3-1.6a.5.5,0,0,0-.9.3l.7,1.4Zm.7-2.73c-.12.59-.19,1.15-.28,1.55-.3,1.23-1.66,6.08-1.66,6.08a7.3,7.3,0,0,1,4.07-2A15.72,15.72,0,0,1,11.17,8.28Zm7.41-1A3.37,3.37,0,0,0,15,4.95a3.37,3.37,0,0,0-3.57,2.37,17.18,17.18,0,0,0,3.57.3A17.18,17.18,0,0,0,18.57,7.32Zm.26,1a15.72,15.72,0,0,1-2.12,5.64,7.3,7.3,0,0,1,4.07,2s-1.36-4.85-1.66-6.08C19,9.43,19,8.87,18.83,8.28ZM11.16,18.51l1.4-1.3-1.4-1.5-.7.9ZM17,9.16a.75.75,0,1,0-.75.75A.75.75,0,0,0,17,9.16Zm-3,.05a.6.6,0,1,0-.6.6A.6.6,0,0,0,14,9.21Zm2.8,10.4L14.56,17,12,20.41l-2.5-1.7c-.7,8,11.4,8.3,11.1.5l-1.5-1.1Zm1.4-4.2-.5-.3-1,.3.7.7Zm-3.16.3c.25,0,2.25-4.46,2.25-4.46A10.92,10.92,0,0,0,15,11.09a10.92,10.92,0,0,0-2.25.16S14.75,15.71,15,15.71Z" />
	</symbol>

	<symbol id="tooltip-arrow" viewBox="0 0 12 4">
		<polygon points="6,0 0,4 12,4 "/>
	</symbol>

</svg>
