<svg width="164" height="153" viewBox="0 0 164 153" fill="none"
	xmlns="http://www.w3.org/2000/svg">
	<g class="star">
		<rect x="33.1577" y="5" width="1.57895" height="7.83784" rx="0.789474" fill="var(--icon-color, #FFB948)"/>
		<rect x="37.8945" y="8.13513" width="1.56757" height="7.89474" rx="0.783784" transform="rotate(90 37.8945 8.13513)" fill="var(--icon-color, #FFB948)"/>
	</g>
	<g class="star" opacity="0.4">
		<rect x="18.5796" y="19" width="1.57895" height="4.7027" rx="0.789474" fill="var(--icon-color, #FFB948)"/>
		<rect x="21.7373" y="20.5676" width="1.56757" height="4.73684" rx="0.783784" transform="rotate(90 21.7373 20.5676)" fill="var(--icon-color, #FFB948)"/>
	</g>
	<g class="star" opacity="0.4">
		<rect x="27.5791" y="61" width="1.57895" height="4.7027" rx="0.789474" fill="var(--icon-color, #FFB948)"/>
		<rect x="30.7368" y="62.5676" width="1.56757" height="4.73684" rx="0.783784" transform="rotate(90 30.7368 62.5676)" fill="var(--icon-color, #FFB948)"/>
	</g>
	<g class="star">
		<rect x="17.1577" y="40" width="1.57895" height="7.83784" rx="0.789474" fill="var(--icon-color, #FFB948)"/>
		<rect x="21.8945" y="43.1351" width="1.56757" height="7.89474" rx="0.783784" transform="rotate(90 21.8945 43.1351)" fill="var(--icon-color, #FFB948)"/>
	</g>
	<g class="oscillate">
		<path d="M97.1359 63.4836C97.5216 62.8213 98.4784 62.8213 98.8641 63.4836L102.304 69.3898C102.445 69.6324 102.682 69.8044 102.957 69.8638L109.637 71.3104C110.386 71.4726 110.681 72.3825 110.171 72.954L105.617 78.0508C105.43 78.2602 105.339 78.5385 105.368 78.8179L106.056 85.6181C106.133 86.3806 105.359 86.943 104.658 86.6339L98.4032 83.8777C98.1463 83.7645 97.8537 83.7645 97.5968 83.8777L91.3421 86.6339C90.6408 86.943 89.8668 86.3806 89.944 85.6181L90.6325 78.8179C90.6608 78.5385 90.5703 78.2602 90.3833 78.0508L85.8292 72.954C85.3185 72.3825 85.6142 71.4726 86.3632 71.3104L93.0434 69.8638C93.3178 69.8044 93.5545 69.6324 93.6958 69.3898L97.1359 63.4836Z" fill="var(--icon-color, #FFB948)"/>
		<path d="M109.637 71.3104L102.951 69.8627C102.68 69.8039 102.445 69.635 102.303 69.3964L98.7555 63.4298C98.5971 63.1633 98.31 63 98 63V83.0479C98 83.4442 98.2341 83.8031 98.5968 83.963L104.658 86.6339C105.359 86.943 106.133 86.3806 106.056 85.6181L105.368 78.8178C105.339 78.5385 105.43 78.2602 105.617 78.0508L110.171 72.954C110.681 72.3825 110.386 71.4726 109.637 71.3104Z" fill="var(--icon-secondary-color, #8E5B23)"/>
		<path d="M78.5 32L73 24H68L65.5 26H37L33.5 31L39 36.5L41 86L37.5 104C37.5 104 68 128 82.5 130C94.1 127.2 116.667 109.333 127 100.5L124.5 86V41.5L132 31L128 26H96.5L95 24H89L85.5 32H78.5Z" stroke="var(--icon-color, #FFB948)" stroke-width="2"/>
		<path d="M114 36.5H49V96L82.5 116.5L114 96V36.5Z" stroke="var(--icon-color, #FFB948)" stroke-width="2"/>
		<path d="M64.1359 38.4836C64.5216 37.8213 65.4784 37.8213 65.8641 38.4836L69.3042 44.3898C69.4455 44.6324 69.6822 44.8044 69.9566 44.8638L76.6368 46.3104C77.3858 46.4726 77.6815 47.3825 77.1708 47.954L72.6167 53.0508C72.4297 53.2602 72.3392 53.5385 72.3675 53.8179L73.056 60.6181C73.1332 61.3806 72.3592 61.943 71.6579 61.6339L65.4032 58.8777C65.1463 58.7645 64.8537 58.7645 64.5968 58.8777L58.3421 61.6339C57.6408 61.943 56.8668 61.3806 56.944 60.6181L57.6325 53.8179C57.6608 53.5385 57.5703 53.2602 57.3833 53.0508L52.8292 47.954C52.3185 47.3825 52.6142 46.4726 53.3632 46.3104L60.0434 44.8638C60.3178 44.8044 60.5545 44.6324 60.6958 44.3898L64.1359 38.4836Z" fill="var(--icon-color, #FFB948)"/>
		<path d="M76.6368 46.3104L69.9514 44.8627C69.68 44.8039 69.4454 44.635 69.3035 44.3964L65.7555 38.4298C65.5971 38.1633 65.31 38 65 38V58.0479C65 58.4442 65.2341 58.8031 65.5968 58.963L71.6579 61.6339C72.3592 61.943 73.1332 61.3806 73.056 60.6181L72.3675 53.8178C72.3392 53.5385 72.4297 53.2602 72.6167 53.0508L77.1708 47.954C77.6815 47.3825 77.3858 46.4726 76.6368 46.3104Z" fill="var(--icon-secondary-color, #8E5B23)"/>
		<path d="M64.1359 63.4836C64.5216 62.8213 65.4784 62.8213 65.8641 63.4836L69.3042 69.3898C69.4455 69.6324 69.6822 69.8044 69.9566 69.8638L76.6368 71.3104C77.3858 71.4726 77.6815 72.3825 77.1708 72.954L72.6167 78.0508C72.4297 78.2602 72.3392 78.5385 72.3675 78.8179L73.056 85.6181C73.1332 86.3806 72.3592 86.943 71.6579 86.6339L65.4032 83.8777C65.1463 83.7645 64.8537 83.7645 64.5968 83.8777L58.3421 86.6339C57.6408 86.943 56.8668 86.3806 56.944 85.6181L57.6325 78.8179C57.6608 78.5385 57.5703 78.2602 57.3833 78.0508L52.8292 72.954C52.3185 72.3825 52.6142 71.4726 53.3632 71.3104L60.0434 69.8638C60.3178 69.8044 60.5545 69.6324 60.6958 69.3898L64.1359 63.4836Z" fill="var(--icon-color, #FFB948)"/>
		<path d="M64.1359 87.4836C64.5216 86.8213 65.4784 86.8213 65.8641 87.4836L69.3042 93.3898C69.4455 93.6324 69.6822 93.8044 69.9566 93.8638L76.6368 95.3104C77.3858 95.4726 77.6815 96.3825 77.1708 96.954L72.6167 102.051C72.4297 102.26 72.3392 102.539 72.3675 102.818L73.056 109.618C73.1332 110.381 72.3592 110.943 71.6579 110.634L65.4032 107.878C65.1463 107.764 64.8537 107.764 64.5968 107.878L58.3421 110.634C57.6408 110.943 56.8668 110.381 56.944 109.618L57.6325 102.818C57.6608 102.539 57.5703 102.26 57.3833 102.051L52.8292 96.954C52.3185 96.3825 52.6142 95.4726 53.3632 95.3104L60.0434 93.8638C60.3178 93.8044 60.5545 93.6324 60.6958 93.3898L64.1359 87.4836Z" fill="var(--icon-color, #FFB948)"/>
		<path d="M97.1359 38.4836C97.5216 37.8213 98.4784 37.8213 98.8641 38.4836L102.304 44.3898C102.445 44.6324 102.682 44.8044 102.957 44.8638L109.637 46.3104C110.386 46.4726 110.681 47.3825 110.171 47.954L105.617 53.0508C105.43 53.2602 105.339 53.5385 105.368 53.8179L106.056 60.6181C106.133 61.3806 105.359 61.943 104.658 61.6339L98.4032 58.8777C98.1463 58.7645 97.8537 58.7645 97.5968 58.8777L91.3421 61.6339C90.6408 61.943 89.8668 61.3806 89.944 60.6181L90.6325 53.8179C90.6608 53.5385 90.5703 53.2602 90.3833 53.0508L85.8292 47.954C85.3185 47.3825 85.6142 46.4726 86.3632 46.3104L93.0434 44.8638C93.3178 44.8044 93.5545 44.6324 93.6958 44.3898L97.1359 38.4836Z" fill="var(--icon-color, #FFB948)"/>
		<path d="M109.637 46.3104L102.951 44.8627C102.68 44.8039 102.445 44.635 102.303 44.3964L98.7555 38.4298C98.5971 38.1633 98.31 38 98 38V58.0479C98 58.4442 98.2341 58.8031 98.5968 58.963L104.658 61.6339C105.359 61.943 106.133 61.3806 106.056 60.6181L105.368 53.8178C105.339 53.5385 105.43 53.2602 105.617 53.0508L110.171 47.954C110.681 47.3825 110.386 46.4726 109.637 46.3104Z" fill="var(--icon-secondary-color, #8E5B23)"/>
		<path d="M76.6368 71.3104L69.9514 69.8627C69.68 69.8039 69.4454 69.635 69.3035 69.3964L65.7555 63.4298C65.5971 63.1633 65.31 63 65 63V83.0479C65 83.4442 65.2341 83.8031 65.5968 83.963L71.6579 86.6339C72.3592 86.943 73.1332 86.3806 73.056 85.6181L72.3675 78.8178C72.3392 78.5385 72.4297 78.2602 72.6167 78.0508L77.1708 72.954C77.6815 72.3825 77.3858 71.4726 76.6368 71.3104Z" fill="var(--icon-secondary-color, #8E5B23)"/>
		<path d="M97.1359 87.4836C97.5216 86.8213 98.4784 86.8213 98.8641 87.4836L102.304 93.3898C102.445 93.6324 102.682 93.8044 102.957 93.8638L109.637 95.3104C110.386 95.4726 110.681 96.3825 110.171 96.954L105.617 102.051C105.43 102.26 105.339 102.539 105.368 102.818L106.056 109.618C106.133 110.381 105.359 110.943 104.658 110.634L98.4032 107.878C98.1463 107.764 97.8537 107.764 97.5968 107.878L91.3421 110.634C90.6408 110.943 89.8668 110.381 89.944 109.618L90.6325 102.818C90.6608 102.539 90.5703 102.26 90.3833 102.051L85.8292 96.954C85.3185 96.3825 85.6142 95.4726 86.3632 95.3104L93.0434 93.8638C93.3178 93.8044 93.5545 93.6324 93.6958 93.3898L97.1359 87.4836Z" fill="var(--icon-color, #FFB948)"/>
		<path d="M109.637 95.3104L102.951 93.8627C102.68 93.8039 102.445 93.635 102.303 93.3964L98.7555 87.4298C98.5971 87.1633 98.31 87 98 87V107.048C98 107.444 98.2341 107.803 98.5968 107.963L104.658 110.634C105.359 110.943 106.133 110.381 106.056 109.618L105.368 102.818C105.339 102.539 105.43 102.26 105.617 102.051L110.171 96.954C110.681 96.3825 110.386 95.4726 109.637 95.3104Z" fill="var(--icon-secondary-color, #8E5B23)"/>
		<path d="M76.6368 95.3104L69.9514 93.8627C69.68 93.8039 69.4454 93.635 69.3035 93.3964L65.7555 87.4298C65.5971 87.1633 65.31 87 65 87V107.048C65 107.444 65.2341 107.803 65.5968 107.963L71.6579 110.634C72.3592 110.943 73.1332 110.381 73.056 109.618L72.3675 102.818C72.3392 102.539 72.4297 102.26 72.6167 102.051L77.1708 96.954C77.6815 96.3825 77.3858 95.4726 76.6368 95.3104Z" fill="var(--icon-secondary-color, #8E5B23)"/>
	</g>
</svg>
