<svg width="164" height="153" viewBox="0 0 164 153" fill="none" xmlns="http://www.w3.org/2000/svg">
<rect x="43.158" y="15" width="1.57895" height="7.83784" rx="0.789474" fill="#CE73B4"/>
<rect x="47.8948" y="18.1353" width="1.56757" height="7.89474" rx="0.783784" transform="rotate(90 47.8948 18.1353)" fill="#CE73B4"/>
<rect x="142.205" y="99.2568" width="1.57895" height="7.83784" rx="0.789474" transform="rotate(85.0986 142.205 99.2568)" fill="#CE73B4"/>
<rect x="139.486" y="104.244" width="1.56757" height="7.89474" rx="0.783784" transform="rotate(175.099 139.486 104.244)" fill="#CE73B4"/>
<g opacity="0.4">
<rect x="20.5789" y="18" width="1.57895" height="4.7027" rx="0.789474" fill="#DFB3D3"/>
<rect x="23.7368" y="19.5674" width="1.56757" height="4.73684" rx="0.783784" transform="rotate(90 23.7368 19.5674)" fill="#DFB3D3"/>
</g>
<g opacity="0.4">
<rect x="129.579" y="110" width="1.57895" height="4.7027" rx="0.789474" fill="#DFB3D3"/>
<rect x="132.737" y="111.567" width="1.56757" height="4.73684" rx="0.783784" transform="rotate(90 132.737 111.567)" fill="#DFB3D3"/>
</g>
<rect x="14.1577" y="41" width="1.57895" height="7.83784" rx="0.789474" fill="#CE73B4"/>
<rect x="18.8948" y="44.1353" width="1.56757" height="7.89474" rx="0.783784" transform="rotate(90 18.8948 44.1353)" fill="#CE73B4"/>
<path d="M94 62.5L87 71C87.2246 71.6364 87.5602 72.4006 88 73.1895M101 71L96 78C95.2985 78.1754 94.6312 78.2105 94 78.1338M88 73.1895L81 82.5M88 73.1895C89.232 75.3996 91.2819 77.8035 94 78.1338M94 78.1338L86 89.5M76 89L60.9999 109M60.9999 109C60.8333 111 61.8999 114.8 67.4999 114M60.9999 109C58.6666 109.333 53.8999 110.3 53.4999 111.5C52.9999 113 54.4999 124 55.4999 124C56.4999 124 66.5001 123.5 67 121.5C67.4 119.9 67.4999 115.833 67.4999 114M67.4999 114L81 96" stroke="#DFB3D3" stroke-width="2"/>
<path d="M97.5 64.5L93 50L107.5 54.5L109.5 59C112.7 67.4 124.167 67.1667 129.5 66C129.1 76.4 115.333 82.6667 108.5 84.5C113.7 76.9 106.333 69.6667 102 67L97.5 64.5Z" stroke="#DFB3D3"/>
<path d="M108 38.5L122.5 33M108 38.5V47L105 51L109 52.5M108 38.5L113.5 45.5M122.5 33V47.5M122.5 33L113.5 45.5M122.5 47.5L113.5 51L111 54.5L109 52.5M122.5 47.5L113.5 45.5M109 52.5L113.5 45.5" stroke="#DFB3D3" stroke-width="2"/>
<path d="M103.5 50.5C102.5 48.8333 100.8 44.8 102 42C102.5 40.8333 103.2 38.6 102 39C99.3601 40.3556 95.5534 42.7681 92 45.9M93 60C91.3333 60.1667 86.5 61.1 84.5 61.5C82.5 61.9 82.3334 61.6667 82.5 61.5C82.8404 57.0747 85.8052 52.5629 89 49" stroke="#DFB3D3" stroke-width="2"/>
<path d="M96 68.5L87.774 46.1069C87.4755 45.2943 88.2803 44.5121 89.084 44.8336L109.5 53C110.5 57 114.5 60 119.5 60C123.623 60 129.5 57.5 129.5 53.5C129.5 50.3 131.5 49.8333 132.5 50C140.1 58.4 137 68.8333 134.5 73L136 76C133 84 128.5 86.5 125.5 89L120.5 83L119.5 92.5C118.3 94.1 109.667 94.1667 105.5 94C102.333 92.8333 95.6 90.2 94 89C92.4 87.8 94 87.1667 95 87C106.6 83.4 103.5 74.1667 100.5 70L96 68.5Z" stroke="#DFB3D3" stroke-width="2"/>
<circle cx="103" cy="60" r="6.5" stroke="#DFB3D3"/>
<path d="M68.2986 63.5L75.2986 72C75.074 72.6364 74.7384 73.4006 74.2986 74.1895M61.2986 72L66.2986 79C67.0001 79.1754 67.6674 79.2105 68.2986 79.1338M74.2986 74.1895C73.0665 76.3996 71.0167 78.8035 68.2986 79.1338M74.2986 74.1895L101.299 110M68.2986 79.1338L94.7986 115M101.299 110C101.465 112 100.399 115.8 94.7986 115M101.299 110C103.632 110.333 108.399 111.3 108.799 112.5C109.299 114 107.799 125 106.799 125C105.799 125 95.7985 124.5 95.2986 122.5C94.8986 120.9 94.7986 116.833 94.7986 115" stroke="#DFB3D3" stroke-width="2"/>
<path d="M64.7986 65.5L69.2986 51L54.7986 55.5L52.7986 60C49.5986 68.4 38.1319 68.1667 32.7986 67C33.1986 77.4 46.9653 83.6667 53.7986 85.5C48.5986 77.9 55.9653 70.6667 60.2986 68L64.7986 65.5Z" stroke="#DFB3D3"/>
<path d="M54.2986 39.5L39.7986 34M54.2986 39.5V48L57.2986 52L53.2986 53.5M54.2986 39.5L48.7986 46.5M39.7986 34V48.5M39.7986 34L48.7986 46.5M39.7986 48.5L48.7986 52L51.2986 55.5L53.2986 53.5M39.7986 48.5L48.7986 46.5M53.2986 53.5L48.7986 46.5" stroke="#DFB3D3" stroke-width="2"/>
<path d="M58.7985 51.5C59.7985 49.8333 61.4985 45.8 60.2985 43C59.7985 41.8333 59.0985 39.6 60.2985 40C62.9384 41.3556 66.7451 43.7681 70.2986 46.9M69.2986 61C70.9652 61.1667 75.7986 62.1 77.7986 62.5C79.7986 62.9 79.9652 62.6667 79.7986 62.5C79.4581 58.0747 76.4933 53.5629 73.2986 50" stroke="#DFB3D3" stroke-width="2"/>
<path d="M66.2986 69.5L74.5246 47.1069C74.8231 46.2943 74.0183 45.5121 73.2146 45.8336L52.7986 54C51.7986 58 47.7986 61 42.7986 61C38.6755 61 32.7986 58.5 32.7986 54.5C32.7986 51.3 30.7986 50.8333 29.7986 51C22.1986 59.4 25.2986 69.8333 27.7986 74L26.2986 77C29.2986 85 33.7986 87.5 36.7986 90L41.7986 84L42.7986 93.5C43.9986 95.1 52.6319 95.1667 56.7986 95C59.9653 93.8333 66.6986 91.2 68.2986 90C69.8986 88.8 68.2986 88.1667 67.2986 88C55.6986 84.4 58.7986 75.1667 61.7986 71L66.2986 69.5Z" stroke="#DFB3D3" stroke-width="2"/>
<circle r="6.5" transform="matrix(-1 0 0 1 59.2986 61)" stroke="#DFB3D3"/>
</svg>
