<svg width="157" height="146" viewBox="0 0 157 146" fill="none"
    xmlns="http://www.w3.org/2000/svg">
    <path d="M54.9185 39.2608C50.6471 32.4266 42.4602 30.0061 38.9007 29.6502C39.9686 41.0406 48.9385 62.7536 76.2755 58.4822L86.4201 55.2786C75.7416 59.55 63.4613 69.1607 50.6471 68.0928C37.8329 67.025 32 48.0908 37.8329 51.0072C42.1043 53.1429 51.4321 54.0917 52.5 54.0917" stroke="var(--icon-color, #FFB948)" stroke-width="2.41026"/>
    <path d="M49.0453 80.9071C49.4439 76.5223 50.5883 71.5554 51.3913 68.0929M105.108 75.5679C106.929 67.9792 97.145 48.3992 84.2844 43.5322" stroke="var(--icon-color, #FFB948)" stroke-width="2.41026"/>
    <path d="M63.9952 88.382C61.4324 83.2563 51.003 79.8392 46.3757 79.8392C46.3757 82.402 42.8162 88.738 41.0364 91.5856L43.1721 94.7891C46.7316 95.857 54.274 94.3117 60.5 99.5C66.9071 104.839 68.7536 107.093 80.5 113.5C89.8971 118.626 99.5845 123.636 103.5 121.5C102.788 121.5 101.904 117.214 101.904 117.214C101.904 117.214 100 94.3904 100 83C98.9321 82.644 92.4265 79.5291 90.7179 77.8206C89.0094 76.112 88.3779 73.0761 89.0898 72.3642C89.8017 72.3642 91.8662 72.5778 94.429 73.4321C96.9919 74.2864 99.7683 77.3475 100.836 78.7713L105.5 79.8392L107 72.5L98.5 67.5L82.1487 64.8893L80.013 76.6356C81.0809 81.619 82.4691 84.7513 85.8862 87.3142C89.3033 89.877 92.2933 89.8058 93.3612 89.4499V111.875L67.7327 93.7213C67.3768 93.3653 66.5581 93.5077 63.9952 88.382Z" fill="var(--icon-color, #FFB948)"/>
    <path d="M96.5 88C87.1029 88 79.5929 83.6535 86 65.5L82.1487 64.8893C81.331 68.5692 78.9452 76.6356 78.9452 76.6356C78.9452 76.6356 80.013 89.8404 92.8273 89.8404L91.7594 108.671L69.3345 92.6534C62.9274 83.0428 56.5203 79.8392 45.8418 79.8392L43.5 87.3142C45.5 87.3142 47.8501 86.759 51.181 87.3142C57.5881 88.382 62.7964 90.9405 66 94.5L95 115L96.5 88Z" fill="var(--icon-secondary-color, #8E5B23)"/>
    <path d="M55.9863 41.3965C50.8606 35.4166 55.9863 21.1073 57.5882 13.6324C64.4224 15.5055 71.1143 29.0754 72.5381 32.8537C88.5559 41.3965 88.5559 56.3465 88.5559 56.3465C85.5355 53.3261 62.3934 48.8715 55.9863 41.3965Z" stroke="var(--icon-color, #FFB948)" stroke-width="2.41026"/>
    <rect x="28.158" y="3" width="1.57895" height="7.83784" rx="0.789474" fill="var(--icon-color, #FFB948)"/>
    <rect x="32.8948" y="6.13514" width="1.56757" height="7.89474" rx="0.783784" transform="rotate(90 32.8948 6.13514)" fill="var(--icon-color, #FFB948)"/>
    <g opacity="0.4">
        <rect x="13.5792" y="17" width="1.57895" height="4.7027" rx="0.789474" fill="var(--icon-color, #FFB948)"/>
        <rect x="16.7371" y="18.5676" width="1.56757" height="4.73684" rx="0.783784" transform="rotate(90 16.7371 18.5676)" fill="var(--icon-color, #FFB948)"/>
    </g>
    <g opacity="0.4">
        <rect x="22.5789" y="59" width="1.57895" height="4.7027" rx="0.789474" fill="var(--icon-color, #FFB948)"/>
        <rect x="25.7368" y="60.5676" width="1.56757" height="4.73684" rx="0.783784" transform="rotate(90 25.7368 60.5676)" fill="var(--icon-color, #FFB948)"/>
    </g>
    <rect x="12.1577" y="38" width="1.57895" height="7.83784" rx="0.789474" fill="var(--icon-color, #FFB948)"/>
    <rect x="16.8947" y="41.1351" width="1.56757" height="7.89474" rx="0.783784" transform="rotate(90 16.8947 41.1351)" fill="var(--icon-color, #FFB948)"/>
</svg>
