<svg width="164" height="153" viewBox="0 0 164 153" fill="none"
    xmlns="http://www.w3.org/2000/svg">
    <rect x="25.1578" y="33" width="1.57895" height="7.83784" rx="0.789474" fill="#FFB948"/>
    <rect x="29.8948" y="36.1351" width="1.56757" height="7.89474" rx="0.783784" transform="rotate(90 29.8948 36.1351)" fill="#FFB948"/>
    <g opacity="0.4">
        <rect x="10.579" y="51.8108" width="1.57895" height="4.7027" rx="0.789474" fill="#FFB948"/>
        <rect x="13.7368" y="53.3784" width="1.56757" height="4.73684" rx="0.783784" transform="rotate(90 13.7368 53.3784)" fill="#FFB948"/>
    </g>
    <g opacity="0.4">
        <rect x="28.8422" y="86.2973" width="1.57895" height="4.7027" rx="0.789474" fill="#FFB948"/>
        <rect x="32" y="87.8649" width="1.56757" height="4.73684" rx="0.783784" transform="rotate(90 32 87.8649)" fill="#FFB948"/>
    </g>
    <rect x="13.0526" y="70.6216" width="1.57895" height="7.83784" rx="0.789474" fill="#FFB948"/>
    <rect x="17.7894" y="73.7568" width="1.56757" height="7.89474" rx="0.783784" transform="rotate(90 17.7894 73.7568)" fill="#FFB948"/>
    <path d="M144.071 81.113L58.9404 58.3023C55.5334 57.3894 52.0315 59.4112 51.1186 62.8182L39.2173 107.234C38.3044 110.641 40.3263 114.143 43.7333 115.056L122.695 136.214C126.102 137.127 129.604 135.105 130.517 131.698L144.071 81.113Z" stroke="#FFB948" stroke-width="2.55461"/>
    <path fill-rule="evenodd" clip-rule="evenodd" d="M86.5772 114.819C93.5504 116.431 100.51 112.085 102.122 105.112C103.733 98.1386 99.387 91.1791 92.4139 89.5674C85.4408 87.9556 78.4813 92.3019 76.8696 99.275C75.2578 106.248 79.6041 113.208 86.5772 114.819ZM84.2672 107.797L96.9623 103.919L87.2565 94.8638L84.2672 107.797Z" fill="#FFB948"/>
    <path d="M149.42 75.2749C150.216 74.1214 149.934 72.5422 148.788 71.7354L73.7674 18.9132C72.628 18.111 71.056 18.3698 70.2339 19.495L66.9831 23.9446C66.1348 25.1056 66.4115 26.7378 67.5951 27.5543L145.339 81.1904L149.42 75.2749Z" fill="#FFB948"/>
    <rect width="97.0751" height="12.773" transform="matrix(-0.965926 -0.258819 -0.258819 0.965926 145.636 80.2098)" fill="#FFB948"/>
    <path d="M126.932 88.4219L145 81L143.5 79.5L128.955 75.7403L110.251 83.9523L126.932 88.4219Z" fill="#8E5B23"/>
    <path d="M97.3214 80.4877L116.025 72.2756L99.3442 67.806L80.6407 76.0181L97.3214 80.4877Z" fill="#8E5B23"/>
    <path d="M144.5 68.5L145 81L131 71.5L130 58.5L144.5 68.5Z" fill="#8E5B23"/>
    <path d="M121 52L121 64.5L105 53.5L105 41L121 52Z" fill="#8E5B23"/>
    <path d="M93 32.5L93.5 45.5L79.059 35.5L79.059 22.6996L93 32.5Z" fill="#8E5B23"/>
    <path d="M67.7107 72.5537L86.4142 64.3416L69.7335 59.872L51.03 68.0841L67.7107 72.5537Z" fill="#8E5B23"/>
</svg>
