<svg width="22" height="22" xmlns="http://www.w3.org/2000/svg" preserveAspectRatio="xMidYMid meet" version="1.0">
 <g>
  <path fill="var(--icon-color, #FFB948)" class="st1" d="m19.0528,0.26582l-15.61216,0l0,8.97699l-0.78061,0l0,3.90304l0.78061,0l0,8.58669l15.61216,0l0,-8.58669l0.78061,0l0,-3.90304l-0.3903,0l-0.19515,0l-0.09758,0l-0.04879,0l-0.02439,0l-0.02439,-8.97699zm-14.90464,0.73192l14.12393,0.0244l0.061,8.24507l-1.0366,-0.0244l-0.06442,-4.95661c0,-0.97576 -0.97389,-1.69387 -1.94965,-1.69387l-11.14646,-0.09375l0.0122,-1.50085zm0.01562,2.48512l10.72972,0.00685c0.78061,0 1.50904,0.54251 1.50904,1.28409l0.01562,4.46902l-2.00999,0c-0.42933,-0.70255 -1.05382,-1.20994 -1.83443,-1.52219l-1.32703,-1.91249l-1.32703,1.91249c-0.78061,0.27321 -1.40509,0.81964 -1.83443,1.52219l-3.9371,0.0122l0.01562,-5.77215zm7.11436,10.6143c-1.96905,0.00728 -3.00982,-1.1904 -3.07083,-2.85402c-0.061,-1.66362 1.02972,-3.07489 3.00038,-3.03697c1.97066,0.03792 3.09595,1.7088 3.07008,3.03644c-0.02587,1.32764 -1.03058,2.84728 -2.99963,2.85456zm5.07903,-0.9635l0.00535,3.68231c-0.01562,1.04623 -0.33532,1.51503 -1.24877,1.51503l-10.96024,-0.00685l0.03125,-5.11729l3.9005,-0.061c0.46836,0.74158 1.20994,1.32703 2.06861,1.60025l1.09285,1.52219l1.05382,-1.52219c0.85867,-0.27321 1.60025,-0.85867 2.06861,-1.60025l1.98801,-0.0122zm-13.12382,-0.57331l0.0244,-2.74422l4.59576,-0.0122l-1.87589,1.39041l1.93689,1.31721l-4.68117,0.0488zm14.97774,8.33048l-14.08733,0.0122l0.00877,-1.56827l11.25926,-0.00685c1.08513,0.01562 1.7309,-0.78061 1.77778,-1.92824l0.07812,-4.266l0.9634,-0.0122l0,7.76937zm1.13442,-8.34268l-4.74217,0.0122l1.91249,-1.36601l-1.90029,-1.39041l4.70557,0.0976l0.0244,2.64661zm-7.24011,-3.11018c-0.66352,-0.35127 -1.52219,-0.27321 -2.06861,0.27321c-0.54643,0.54643 -0.31224,1.36606 0.23418,1.7954c0.23418,0.15612 0.5074,0.27321 0.78061,0.23418c0.27321,-0.03903 0.5074,-0.23418 0.58546,-0.5074c0.03903,-0.23418 -0.11709,-0.54643 -0.35127,-0.58546c0,0 -0.03903,0 -0.03903,0c0,0.15612 -0.03903,0.35127 -0.15612,0.46836c-0.11709,0.11709 -0.31224,0.07806 -0.46836,0c-0.11709,-0.07806 -0.19515,-0.27321 -0.19515,-0.42933c0,-0.23418 0.15612,-0.46836 0.35127,-0.62449c0.19515,-0.11709 0.46836,-0.15612 0.70255,-0.11709c0.5074,0.11709 0.8977,0.58546 0.93673,1.13188c0.03903,0.5074 -0.27321,1.05382 -0.70255,1.288c-0.5074,0.31224 -0.97576,0.27321 -1.52219,0.15612c-0.3903,-0.03903 -0.54643,-0.19515 -0.54643,-0.19515c0.19515,0.19515 0.66352,0.58546 1.36606,0.70255c0.8977,0.11709 1.83443,-0.46836 2.10764,-1.36606c0.19515,-0.85867 -0.23418,-1.7954 -1.01479,-2.22473z"/>
 </g>
</svg>