<svg width="164" height="153" viewBox="0 0 164 153" fill="none"
    xmlns="http://www.w3.org/2000/svg">
    <path d="M52.21 67.58C52.21 67.58 50.85 52.29 62.2 37C62.2 37 78.08 47.2 80.12 65.2" stroke="#FFB948" stroke-width="2" stroke-miterlimit="10"/>
    <path d="M66.0201 65.17L58.2601 65.88C58.2601 65.88 57.4201 56.84 63.6501 47.33L66.0201 65.17Z" fill="#FFB948"/>
    <path d="M74.0399 64.43L66.0199 65.17L63.6499 47.33C63.6699 47.29 63.6999 47.24 63.7299 47.2C63.7299 47.2 72.6699 54.63 74.0399 64.43Z" fill="#8E5B23"/>
    <path d="M111.78 67.58C111.78 67.58 113.14 52.29 101.79 37C101.79 37 85.9101 47.2 83.8701 65.2" stroke="#FFB948" stroke-width="2" stroke-miterlimit="10"/>
    <path d="M97.9702 65.17L105.73 65.88C105.73 65.88 106.57 56.84 100.34 47.33L97.9702 65.17Z" fill="#8E5B23"/>
    <path d="M89.9502 64.43L97.9702 65.17L100.34 47.33C100.32 47.29 100.29 47.24 100.26 47.2C100.26 47.2 91.3202 54.63 89.9502 64.43Z" fill="#FFB948"/>
    <path d="M41.5599 72.1C41.5599 72.1 37.8699 73.52 34.8099 75.69L22.8999 62.99C26.0999 62.82 35.8499 63.11 41.5599 72.1Z" fill="#FFB948"/>
    <path d="M35.28 91.66L18 55.18C18 55.18 37.99 53.71 47.9 68.57" stroke="#FFB948" stroke-width="2" stroke-miterlimit="10"/>
    <path d="M34.8101 74.91C32.6801 76.43 30.8901 78.34 31.1201 80.37L22.8701 63.29C22.8701 63.29 27.0401 63.29 28.2701 63.45L34.8101 74.91Z" fill="#FFB948"/>
    <path d="M142.75 62.51C142.75 62.51 129.47 60.59 122.32 71.85C122.32 71.85 134.9 76.79 133.81 81.8C132.73 86.81 133.81 81.8 133.81 81.8L142.75 62.51Z" fill="#8E5B23"/>
    <path d="M131.08 86.44L146.04 54.59C146.04 54.59 125.7 53.09 115.61 68.22" stroke="#FFB948" stroke-width="2" stroke-miterlimit="10"/>
    <path d="M123.19 103.76C123.19 104.68 122.88 105.57 122.29 106.43C118.37 112.24 101.86 116.62 82.0902 116.62C62.3102 116.62 45.8002 112.24 41.8902 106.43C41.3002 105.57 40.9902 104.68 40.9902 103.76C40.9902 100.81 44.1502 98.1 49.4402 95.93C52.7202 94.59 56.8302 93.46 61.5302 92.6C67.5702 91.51 74.6002 90.88 82.0902 90.88C89.4702 90.88 96.3902 91.49 102.37 92.55C107.13 93.39 111.29 94.53 114.62 95.89C119.99 98.06 123.19 100.79 123.19 103.76Z" stroke="#FFB948" stroke-width="2" stroke-miterlimit="10"/>
    <path d="M41.9001 106.43L32.9601 86.46L31.0901 82.17C31.0901 73.39 53.9101 64.28 82.0501 64.28C110.2 64.28 133.01 73.39 133.01 82.17L131.14 86.46L123.09 104.88H122.82" stroke="#FFB948" stroke-width="2" stroke-miterlimit="10"/>
    <path d="M32.9602 85.47C38.1102 78.39 57.8002 71.09 82.0502 71.09C105.45 71.09 125.15 78.77 131.14 85.47" stroke="#FFB948" stroke-width="2" stroke-miterlimit="10"/>
    <path d="M82.0899 83.89C74.5999 83.89 67.5699 84.52 61.5299 85.61C56.8299 86.47 52.7199 87.59 49.4399 88.94C49.4399 88.94 39.3299 92.79 38.3999 97.41" stroke="#FFB948" stroke-width="2" stroke-miterlimit="10"/>
    <path d="M82.04 83.89C89.53 83.89 96.56 84.52 102.6 85.61C107.3 86.47 111.41 87.59 114.69 88.94C114.69 88.94 127.9 93.97 125.5 99.43" stroke="#FFB948" stroke-width="2" stroke-miterlimit="10"/>
    <rect x="16.158" y="33" width="1.57895" height="7.83784" rx="0.789474" fill="#FFB948"/>
    <rect x="20.8948" y="36.1351" width="1.56757" height="7.89474" rx="0.783784" transform="rotate(90 20.8948 36.1351)" fill="#FFB948"/>
    <g opacity="0.4">
        <rect x="1.57886" y="51.8108" width="1.57895" height="4.7027" rx="0.789474" fill="#FFB948"/>
        <rect x="4.73682" y="53.3784" width="1.56757" height="4.73684" rx="0.783784" transform="rotate(90 4.73682 53.3784)" fill="#FFB948"/>
    </g>
    <g opacity="0.4">
        <rect x="19.842" y="86.2973" width="1.57895" height="4.7027" rx="0.789474" fill="#FFB948"/>
        <rect x="23" y="87.8649" width="1.56757" height="4.73684" rx="0.783784" transform="rotate(90 23 87.8649)" fill="#FFB948"/>
    </g>
    <rect x="4.05273" y="70.6216" width="1.57895" height="7.83784" rx="0.789474" fill="#FFB948"/>
    <rect x="8.78955" y="73.7568" width="1.56757" height="7.89474" rx="0.783784" transform="rotate(90 8.78955 73.7568)" fill="#FFB948"/>
</svg>
