<svg width="164" height="153" viewBox="0 0 164 153" fill="none"
    xmlns="http://www.w3.org/2000/svg">
    <g clip-path="url(#collection_ftue_clip0)">
        <path d="M131.97 115C131.97 115.34 131.95 115.68 131.91 116.01H131.97V115Z" fill="#FFB948"/>
        <path d="M131.97 34.03V106.6H41.59C39.19 106.6 37.02 107.58 35.44 109.16C34.18 110.41 33.32 112.02 33 113.82V42.78C33 37.95 36.92 34.03 41.75 34.03H131.97Z" stroke="#FFB948" stroke-width="2" stroke-miterlimit="10"/>
        <path d="M72.72 80.6H41.59C39.19 80.6 37.02 81.58 35.44 83.16C34.18 84.41 33.32 86.03 33 87.83V79.02V72.44C33.32 70.64 34.18 69.03 35.43 67.78C37.01 66.2 39.18 65.22 41.58 65.22H68.26" stroke="#FFB948" stroke-width="2" stroke-miterlimit="10"/>
        <path d="M102.98 65.22H131.97V72.44V80.6H98.7402" stroke="#FFB948" stroke-width="2" stroke-miterlimit="10"/>
        <path d="M85.7299 53.68C88.0599 55.35 93.3799 58.55 101.59 60.02C101.98 65.18 102.06 82.97 85.7299 90.17C77.8699 86.71 72.8299 80.49 70.7499 71.67C69.5799 66.71 69.6999 62.21 69.8699 60.02C78.0799 58.55 83.3999 55.35 85.7299 53.68ZM85.7299 51.14C85.7299 51.14 79.7099 56.59 68.0499 58.29C68.0499 58.29 64.0899 83.5 85.7299 92.35C107.37 83.51 103.42 58.29 103.42 58.29C91.7499 56.59 85.7299 51.14 85.7299 51.14Z" fill="#FFB948"/>
        <path d="M85.73 85.7999V57.6899C85.73 57.6899 89.84 61.4099 97.8 62.5699C97.8 62.5699 100.49 79.7699 85.73 85.7999Z" fill="#8E5B23"/>
        <path d="M85.7298 57.6899V85.7999C70.9698 79.7599 73.6698 62.5699 73.6698 62.5699C81.6198 61.4099 85.7298 57.6899 85.7298 57.6899Z" fill="#FFB948"/>
        <path d="M33 113.82L33.01 115.85C33.01 120.56 36.86 124.41 41.57 124.41H121.91H131.98V106.6" stroke="#FFB948" stroke-width="2" stroke-miterlimit="10"/>
        <path d="M131.97 115.51H43.01" stroke="#FFB948" stroke-width="2" stroke-miterlimit="10"/>
        <path d="M61.4201 34.03L42.5601 52.75V34.03H61.4201Z" fill="#FFB948"/>
        <path d="M131.97 52.82L113.25 33.96H131.97V52.82Z" fill="#FFB948"/>
        <path d="M113.11 106.62L131.97 87.9V106.62H113.11Z" fill="#FFB948"/>
        <path d="M42.5601 87.83L61.2901 106.69H42.5601V87.83Z" fill="#FFB948"/>
        <path d="M111.64 116.09H100.33V137.14H111.64V116.09Z" fill="#FFB948"/>
        <path d="M93.8801 116.09H82.5701V129.76H93.8801V116.09Z" fill="#FFB948"/>
        <path d="M74.6401 21.87H63.3301V33.18H74.6401V21.87Z" fill="#FFB948"/>
        <path d="M92.9401 16H81.6301V33.18H92.9401V16Z" fill="#FFB948"/>
        <rect x="20.4221" y="16.783" width="1.57895" height="7.83784" rx="0.789474" transform="rotate(17.4269 20.4221 16.783)" fill="#FFB948"/>
        <rect x="24.0027" y="21.1929" width="1.56757" height="7.89474" rx="0.783784" transform="rotate(107.427 24.0027 21.1929)" fill="#FFB948"/>
        <g opacity="0.4">
            <rect x="4.24341" y="31.4203" width="1.57895" height="4.7027" rx="0.789474" transform="rotate(17.4269 4.24341 31.4203)" fill="#FFB948"/>
            <rect x="6.78687" y="33.8616" width="1.56757" height="4.73684" rx="0.783784" transform="rotate(107.427 6.78687 33.8616)" fill="#FFB948"/>
        </g>
        <g opacity="0.4">
            <rect x="18.0186" y="71.8899" width="1.57895" height="4.7027" rx="0.789474" transform="rotate(17.4269 18.0186 71.8899)" fill="#FFB948"/>
            <rect x="20.562" y="74.3312" width="1.56757" height="4.73684" rx="0.783784" transform="rotate(107.427 20.562 74.3312)" fill="#FFB948"/>
        </g>
        <rect x="7.64844" y="52.2049" width="1.57895" height="7.83784" rx="0.789474" transform="rotate(17.4269 7.64844 52.2049)" fill="#FFB948"/>
        <rect x="11.229" y="56.6148" width="1.56757" height="7.89474" rx="0.783784" transform="rotate(107.427 11.229 56.6148)" fill="#FFB948"/>
    </g>
    <defs>
        <clipPath id="collection_ftue_clip0">
            <rect width="164" height="153" fill="white"/>
        </clipPath>
    </defs>
</svg>
