<svg width="164" height="153" viewBox="0 0 164 153" fill="none"
    xmlns="http://www.w3.org/2000/svg">
    <path d="M155.829 28.661L92.5127 13.6147L71.2632 102.955L134.579 118.001L155.829 28.661Z" stroke="#FFB948" stroke-width="2" stroke-miterlimit="10"/>
    <path d="M106.82 111.414L98.9999 109.554C83.6799 105.916 74.2099 90.5429 77.8499 75.2297L85.9099 41.3449C89.5499 26.0318 104.93 16.566 120.25 20.2044L128.08 22.0635C143.4 25.7019 152.87 41.075 149.23 56.3882L141.17 90.273C137.52 105.586 122.14 115.052 106.82 111.414Z" stroke="#FFB948" stroke-width="2" stroke-miterlimit="10"/>
    <path d="M162.568 24.1351L88.4624 6.52484L64.4535 107.467L138.559 125.077L162.568 24.1351Z" stroke="#FFB948" stroke-width="2" stroke-miterlimit="10"/>
    <path d="M122.66 52.1601L112.41 49.7212L119.89 41.045L122.66 52.1601Z" fill="#FFB948"/>
    <path d="M105.27 79.7277L115.53 82.1566L108.04 90.8428L105.27 79.7277Z" fill="#FFB948"/>
    <path d="M99.9999 56.9579L97.5599 67.2033L88.8799 59.7266L99.9999 56.9579Z" fill="#FFB948"/>
    <path d="M127.22 74.2601L129.66 64.0047L138.34 71.4814L127.22 74.2601Z" fill="#FFB948"/>
    <path d="M113.65 51.2504C114.78 51.2504 115.92 51.3804 117.03 51.6503C120.81 52.5499 124.02 54.8688 126.06 58.1773C128.1 61.4859 128.73 65.3941 127.83 69.1724C126.26 75.7595 120.44 80.3674 113.68 80.3674C112.55 80.3674 111.41 80.2375 110.3 79.9676C106.52 79.068 103.31 76.749 101.27 73.4405C99.2301 70.132 98.6001 66.2237 99.5001 62.4454C101.06 55.8484 106.88 51.2504 113.65 51.2504ZM113.65 49.2513C106.15 49.2513 99.3601 54.3691 97.5501 61.9756C95.4301 70.8717 100.93 79.7977 109.83 81.9167C111.12 82.2266 112.41 82.3665 113.68 82.3665C121.18 82.3665 127.97 77.2488 129.78 69.6422C131.9 60.7462 126.4 51.8202 117.5 49.7011C116.21 49.3913 114.92 49.2513 113.65 49.2513Z" fill="#FFB948"/>
    <path d="M122.62 79.7277L125.03 83.6359" stroke="#FFB948" stroke-width="2" stroke-miterlimit="10"/>
    <path d="M102.99 47.8619L105.99 52.7298" stroke="#FFB948" stroke-width="2" stroke-miterlimit="10"/>
    <path d="M131.91 54.7388L127.83 57.2477" stroke="#FFB948" stroke-width="2" stroke-miterlimit="10"/>
    <path d="M120.78 69.3831C118.76 73.2913 114.73 77.0097 106.23 73.0914C106.23 73.0914 104.93 72.1518 104.79 71.9819C104.64 71.812 105.63 72.6216 107.61 72.9315C110.67 73.3913 113 73.6512 115.73 72.0419C118.09 70.6525 119.69 67.9337 119.52 65.195C119.35 62.4562 117.29 59.8673 114.59 59.3276C113.33 59.0777 111.98 59.2576 110.9 59.9473C109.83 60.647 109.08 61.8664 109.08 63.1459C109.08 64.0055 109.45 64.8951 110.15 65.4049C110.85 65.9146 111.9 65.9546 112.57 65.4049C113.25 64.8351 113.4 63.8656 113.4 62.976C113.5 62.9959 113.6 63.0059 113.7 63.0459C114.03 64.2254 114.3 66.0146 113.27 66.8542C112.1 67.8038 108.95 67.1541 107.77 64.3953C106.8 62.1463 108.06 57.4384 114.06 57.5084C118.04 57.5684 124.62 61.9364 120.78 69.3831Z" fill="#8E5B23"/>
    <path d="M123.16 68.5427C121.77 73.2306 116.9 76.3792 112.08 75.7694C108.24 75.1197 105.72 72.9407 104.79 71.9911C112.94 77.1988 118.76 73.3005 120.78 69.3923C124.62 61.9456 118.04 57.5776 114.06 57.5276C108.06 57.4576 106.8 62.1655 107.77 64.4145C108.96 67.1733 112.1 67.823 113.27 66.8734C114.3 66.0338 114.03 64.2446 113.7 63.0651C114.96 63.425 115.79 64.8943 115.54 66.2137C115.27 67.6331 113.96 68.7226 112.53 68.9425C111.11 69.1724 109.63 68.6526 108.49 67.763C105.54 65.4541 104.29 61.176 107.2 58.2973C110.09 55.4385 114.58 55.0087 118.13 56.8779C122.32 59.0769 124.52 63.9547 123.16 68.5427Z" fill="#FFB948"/>
    <path d="M84.0002 23.243L31.6872 45.9605L67.9391 130.342L100.5 116.201" stroke="#FFB948" stroke-width="2" stroke-miterlimit="10"/>
    <path d="M94.1398 119.09C79.6698 125.297 62.8998 118.61 56.6898 104.147L42.9398 72.1511C36.7298 57.6876 43.4198 40.9251 57.8898 34.7178L65.2798 31.5493" stroke="#FFB948" stroke-width="2" stroke-miterlimit="10"/>
    <path d="M86.5 16.746L24.3408 42.7492L65.2095 137.877L108.5 118.201" stroke="#FFB948" stroke-width="2" stroke-miterlimit="10"/>
    <path d="M77 58.2273L69.21 63.0651L70.03 51.6403L77 58.2273Z" fill="#FFB948"/>
    <path d="M63.56 76.2792L67.72 85.9549L56.29 85.1353L63.56 76.2792Z" fill="#FFB948"/>
    <path d="M66.28 69.8421C65 73.2207 64.0474 77.3372 66.42 80.9871C67.2193 82.2167 68.2 83.3161 69 83.7159L68.5 86.7146C68.5 86.7146 65.6961 83.967 64.59 81.7668C60.484 73.5987 64.86 63.6349 73.27 60.0265C73.5692 59.8974 74.6333 59.5261 74.9777 59.3384L75 59.2269C75.1325 59.2269 75.1019 59.2707 74.9777 59.3384L74.5 61.7258C70.92 63.2551 67.73 66.2238 66.28 69.8421Z" fill="#FFB948"/>
    <path d="M60.54 67.1933L65.85 69.3133" stroke="#FFB948" stroke-width="2" stroke-miterlimit="10"/>
    <rect x="12.6313" y="29.7534" width="1.57895" height="7.83784" rx="0.789474" fill="#FFB948"/>
    <rect x="17.3682" y="32.8885" width="1.56757" height="7.89474" rx="0.783784" transform="rotate(90 17.3682 32.8885)" fill="#FFB948"/>
    <g opacity="0.4">
        <rect x="1.5791" y="48.5642" width="1.57895" height="4.7027" rx="0.789474" fill="#FFB948"/>
        <rect x="4.73682" y="50.1318" width="1.56757" height="4.73684" rx="0.783784" transform="rotate(90 4.73682 50.1318)" fill="#FFB948"/>
    </g>
    <g opacity="0.4">
        <rect x="26.8423" y="83.0507" width="1.57895" height="4.7027" rx="0.789474" fill="#FFB948"/>
        <rect x="30" y="84.6183" width="1.56757" height="4.73684" rx="0.783784" transform="rotate(90 30 84.6183)" fill="#FFB948"/>
    </g>
    <rect x="11.0527" y="67.3751" width="1.57895" height="7.83784" rx="0.789474" fill="#FFB948"/>
    <rect x="15.7896" y="70.5102" width="1.56757" height="7.89474" rx="0.783784" transform="rotate(90 15.7896 70.5102)" fill="#FFB948"/>
</svg>
