<svg width="164" height="153" viewBox="0 0 164 153" fill="none"
	xmlns="http://www.w3.org/2000/svg">
	<g clip-path="url(#duels-clip0)">
		<g clip-path="url(#duels-clip1)">
			<path d="M95.9998 61.5L88.9997 70C89.2243 70.6364 89.5599 71.4006 89.9997 72.1895M103 70L97.9997 77C97.2982 77.1754 96.631 77.2105 95.9997 77.1338M89.9997 72.1895L82.9997 81.5M89.9997 72.1895C91.2318 74.3996 93.2816 76.8035 95.9997 77.1338M95.9997 77.1338L87.9997 88.5M77.9997 88L62.9997 108M62.9997 108C62.833 110 63.8997 113.8 69.4997 113M62.9997 108C60.6664 108.333 55.8997 109.3 55.4997 110.5C54.9997 112 56.4997 123 57.4997 123C58.4997 123 68.4998 122.5 68.9998 120.5C69.3997 118.9 69.4997 114.833 69.4997 113M69.4997 113L82.9997 95" stroke="var(--icon-color, #FFB948)" stroke-width="2"/>
			<path d="M99.5 63.5L95 49L109.5 53.5L111.5 58C114.7 66.4 126.167 66.1667 131.5 65C131.1 75.4 117.333 81.6667 110.5 83.5C115.7 75.9 108.333 68.6667 104 66L99.5 63.5Z" stroke="var(--icon-color, #FFB948)"/>
			<path d="M110 37.5L124.5 32M110 37.5V46L107 50L111 51.5M110 37.5L115.5 44.5M124.5 32V46.5M124.5 32L115.5 44.5M124.5 46.5L115.5 50L113 53.5L111 51.5M124.5 46.5L115.5 44.5M111 51.5L115.5 44.5" stroke="var(--icon-color, #FFB948)" stroke-width="2"/>
			<path d="M105.5 49.5C104.5 47.8333 102.8 43.8 104 41C104.5 39.8333 105.2 37.6 104 38C101.36 39.3556 97.5534 41.7681 94 44.9M95 59C93.3333 59.1667 88.5 60.1 86.5 60.5C84.5 60.9 84.3334 60.6667 84.5 60.5C84.8404 56.0747 87.8052 51.5629 91 48" stroke="var(--icon-color, #FFB948)" stroke-width="2"/>
			<path d="M98 67.5L89.774 45.1069C89.4755 44.2943 90.2803 43.5121 91.084 43.8336L111.5 52C112.5 56 116.5 59 121.5 59C125.623 59 131.5 56.5 131.5 52.5C131.5 49.3 133.5 48.8333 134.5 49C142.1 57.4 139 67.8333 136.5 72L138 75C135 83 130.5 85.5 127.5 88L122.5 82L121.5 91.5C120.3 93.1 111.667 93.1667 107.5 93C104.333 91.8333 97.6 89.2 96 88C94.4 86.8 96 86.1667 97 86C108.6 82.4 105.5 73.1667 102.5 69L98 67.5Z" stroke="var(--icon-color, #FFB948)" stroke-width="2"/>
			<circle cx="105" cy="59" r="6.5" stroke="var(--icon-color, #FFB948)"/>
			<path d="M70.2986 62.5L77.2986 71C77.074 71.6364 76.7384 72.4006 76.2986 73.1895M63.2986 71L68.2986 78C69.0001 78.1754 69.6674 78.2105 70.2986 78.1338M76.2986 73.1895C75.0665 75.3996 73.0167 77.8035 70.2986 78.1338M76.2986 73.1895L103.299 109M70.2986 78.1338L96.7986 114M103.299 109C103.465 111 102.399 114.8 96.7986 114M103.299 109C105.632 109.333 110.399 110.3 110.799 111.5C111.299 113 109.799 124 108.799 124C107.799 124 97.7985 123.5 97.2986 121.5C96.8986 119.9 96.7986 115.833 96.7986 114" stroke="var(--icon-color, #FFB948)" stroke-width="2"/>
			<path d="M66.7988 64.5L71.2988 50L56.7988 54.5L54.7988 59C51.5988 67.4 40.1322 67.1667 34.7988 66C35.1988 76.4 48.9655 82.6667 55.7988 84.5C50.5988 76.9 57.9655 69.6667 62.2988 67L66.7988 64.5Z" stroke="var(--icon-color, #FFB948)"/>
			<path d="M56.2988 38.5L41.7988 33M56.2988 38.5V47L59.2988 51L55.2988 52.5M56.2988 38.5L50.7988 45.5M41.7988 33V47.5M41.7988 33L50.7988 45.5M41.7988 47.5L50.7988 51L53.2988 54.5L55.2988 52.5M41.7988 47.5L50.7988 45.5M55.2988 52.5L50.7988 45.5" stroke="var(--icon-color, #FFB948)" stroke-width="2"/>
			<path d="M60.7988 50.5C61.7988 48.8333 63.4988 44.8 62.2988 42C61.7988 40.8333 61.0988 38.6 62.2988 39C64.9387 40.3556 68.7454 42.7681 72.2988 45.9M71.2988 60C72.9655 60.1667 77.7988 61.1 79.7988 61.5C81.7988 61.9 81.9655 61.6667 81.7988 61.5C81.4584 57.0747 78.4936 52.5629 75.2988 49" stroke="var(--icon-color, #FFB948)" stroke-width="2"/>
			<path d="M68.2988 68.5L76.5249 46.1069C76.8234 45.2943 76.0185 44.5121 75.2148 44.8336L54.7988 53C53.7988 57 49.7988 60 44.7988 60C40.6757 60 34.7988 57.5 34.7988 53.5C34.7988 50.3 32.7988 49.8333 31.7988 50C24.1988 58.4 27.2988 68.8333 29.7988 73L28.2988 76C31.2988 84 35.7988 86.5 38.7988 89L43.7988 83L44.7988 92.5C45.9988 94.1 54.6322 94.1667 58.7988 94C61.9655 92.8333 68.6988 90.2 70.2988 89C71.8988 87.8 70.2988 87.1667 69.2988 87C57.6988 83.4 60.7988 74.1667 63.7988 70L68.2988 68.5Z" stroke="var(--icon-color, #FFB948)" stroke-width="2"/>
			<circle r="6.5" transform="matrix(-1 0 0 1 61.2988 60)" stroke="var(--icon-color, #FFB948)"/>
			<rect x="49.4331" y="14.8179" width="1.57895" height="7.83784" rx="0.789474" transform="rotate(35.4727 49.4331 14.8179)" fill="var(--icon-color, #FFB948)"/>
			<rect x="51.4712" y="20.1199" width="1.56757" height="7.89474" rx="0.783784" transform="rotate(125.473 51.4712 20.1199)" fill="var(--icon-color, #FFB948)"/>
			<g opacity="0.4">
				<rect x="29.4355" y="17.759" width="1.57895" height="4.7027" rx="0.789474" transform="rotate(35.4727 29.4355 17.759)" fill="var(--icon-color, #FFB948)"/>
				<rect x="31.0977" y="20.8682" width="1.56757" height="4.73684" rx="0.783784" transform="rotate(125.473 31.0977 20.8682)" fill="var(--icon-color, #FFB948)"/>
			</g>
			<g opacity="0.4">
				<rect x="12.3916" y="57.1862" width="1.57895" height="4.7027" rx="0.789474" transform="rotate(35.4727 12.3916 57.1862)" fill="var(--icon-color, #FFB948)"/>
				<rect x="14.0537" y="60.2953" width="1.56757" height="4.73684" rx="0.783784" transform="rotate(125.473 14.0537 60.2953)" fill="var(--icon-color, #FFB948)"/>
			</g>
			<rect x="16.0918" y="34.0364" width="1.57895" height="7.83784" rx="0.789474" transform="rotate(35.4727 16.0918 34.0364)" fill="var(--icon-color, #FFB948)"/>
			<rect x="18.1299" y="39.3386" width="1.56757" height="7.89474" rx="0.783784" transform="rotate(125.473 18.1299 39.3386)" fill="var(--icon-color, #FFB948)"/>
		</g>
	</g>
	<defs>
		<clipPath id="duels-clip0">
			<rect width="164" height="153" fill="white"/>
		</clipPath>
		<clipPath id="duels-clip1">
			<rect width="164" height="153" fill="white" transform="translate(2 -1)"/>
		</clipPath>
	</defs>
</svg>
