<svg width="78" height="107" viewBox="0 0 78 107" fill="none"
	xmlns="http://www.w3.org/2000/svg">
	<path d="M61.3011 26.75C61.3011 26.75 61.3011 31.8221 59.3099 36.9636C59.2388 37.1026 59.1677 37.311 59.0965 37.45C59.0965 37.45 59.0254 37.45 59.0254 37.3805C58.0298 40.1597 55.2563 42.1052 52.0562 42.1052C51.345 42.1052 50.6339 41.9662 49.9227 41.8273C49.7805 41.7578 49.7094 41.7578 49.5671 41.6883C49.496 41.6883 49.4249 41.6188 49.3538 41.6188C45.4425 40.0903 42.8112 35.2961 46.7225 28.7649C55.3986 14.3825 47.7893 7.22597 37.6909 0C37.6909 0 40.3222 18.5513 18.7744 35.0182C12.7296 22.6507 0 15.0773 0 15.0773C10.0272 34.0455 6.187 45.3708 2.63125 54.6812C0.99561 58.989 0.071115 64.061 0.071115 68.9247C0.071115 68.9942 0.071115 69.0636 0.071115 69.2026C0.071115 69.2721 0.071115 69.3416 0.071115 69.4805C0.071115 90.1857 17.4232 107 38.7577 107C49.7805 107 59.7366 102.484 66.8481 95.3273C70.3327 91.9922 73.0351 87.8234 74.8841 82.9597C76.4486 78.9994 77.3731 74.761 77.4442 70.3143C77.4442 70.1753 77.4442 70.1058 77.4442 69.9669C78.0843 56.8351 73.2484 36.0604 61.3011 26.75ZM59.381 71.287C59.3099 71.9123 59.2388 72.5377 59.0965 73.2325C58.8832 74.5526 58.5987 75.8727 58.5987 77.1929C58.5987 78.3045 57.9587 79.0688 57.3898 79.8331C56.3942 81.0838 55.8964 82.4734 55.8253 84.0714C55.8253 84.6273 55.6119 85.1831 55.4697 85.739C55.3986 85.9474 55.2563 86.0864 55.1141 86.2253C53.6918 87.5455 52.1984 88.7961 50.8472 90.1857C49.5671 91.5058 48.0026 92.4786 46.2959 93.2429H46.2247C44.5891 94.2851 42.8823 94.7714 40.9622 94.424C40.0377 94.2851 39.2555 94.563 38.4021 94.9104C36.7664 95.6052 35.1308 96.0916 33.2818 96.2305C32.2862 96.3 31.4328 96.2305 30.5794 95.7442C29.9394 95.3968 29.0149 95.3273 28.2326 95.3273C27.3082 95.3273 26.3837 95.1883 25.4592 94.8409C24.8191 94.563 24.108 94.563 23.4679 94.3545C23.1124 94.2156 22.6857 94.0766 22.4012 93.7987C22.1168 93.5208 21.9034 93.1734 21.6901 92.826C21.2634 92.2701 21.2634 92.2007 21.9034 91.9227C22.7568 91.5058 23.5391 90.95 24.4636 90.6026C25.4592 90.1857 26.4548 89.9078 27.5215 89.6994C28.7305 89.4909 29.6549 88.9351 30.4372 88.0318C31.3617 86.9896 32.7129 86.8506 33.9218 86.6422C36.1975 86.2948 38.1887 85.3221 40.2511 84.4883C40.6067 84.3493 40.8911 84.0714 41.1756 83.7935C42.669 82.4734 44.0913 81.1533 45.5136 79.7636C46.0114 79.2773 46.367 78.7214 46.7225 78.1656C47.2915 77.4013 47.7893 76.637 48.2871 75.8032C48.4293 75.5948 48.5004 75.3864 48.5004 75.1779C48.5004 74.3442 48.6426 73.5104 48.5004 72.7461C48.0737 71.0091 48.2871 69.2721 48.2871 67.5351C48.2871 66.4234 47.9315 65.4507 47.2915 64.4779C46.6514 63.4357 46.0114 62.3935 45.3714 61.3513C45.0869 60.7955 44.6602 60.4481 44.0202 60.2396C41.7445 59.5448 39.3977 59.4058 37.0509 59.6838C35.6286 59.8227 34.2063 60.4481 32.784 60.7955C32.6418 60.8649 32.4995 60.9344 32.4284 61.0039C31.4328 61.9071 30.4372 62.8104 29.4416 63.7136C29.2994 63.8526 29.086 64.061 29.0149 64.339C28.7305 65.8675 28.3038 67.4656 28.2326 68.9942C28.1615 70.1059 28.2326 71.3565 29.086 72.3292C29.5127 72.8156 29.8683 73.3019 30.295 73.7883C30.5794 74.1357 31.0061 74.2052 31.4328 74.0662C32.144 73.7883 32.8551 73.4409 33.7085 73.0935C33.2818 71.9123 32.9262 70.8007 32.4995 69.8279C33.993 68.7162 35.6997 68.8552 37.3354 68.8552C38.0465 68.8552 38.6866 69.1331 39.3977 69.2721C39.4688 69.2721 39.5399 69.3416 39.611 69.411C41.1045 71.1481 42.029 73.024 41.9578 75.3169C41.9578 76.2896 41.7445 77.1929 41.6734 78.1656C41.6734 78.3046 41.5311 78.4435 41.46 78.513C40.3222 79.4857 39.1132 80.4584 37.9754 81.4312C37.7621 81.5701 37.4776 81.7091 37.2643 81.7091C35.4153 81.987 33.4952 82.2649 31.7173 83.0292C31.5751 83.0987 31.5039 83.1682 31.3617 83.0987C30.0105 82.8208 28.5882 82.8903 27.5215 81.9175C27.3082 81.7091 27.1659 81.3617 26.9526 81.0838C26.597 80.6669 26.2414 80.25 25.8147 79.9026C24.0369 78.513 22.3301 77.1234 21.4056 74.9695C20.9789 73.9273 20.0544 73.0935 19.2722 72.2597C18.9166 71.8429 18.7032 71.426 18.6321 70.8007C18.2054 68.6468 18.4899 66.4234 18.4188 64.2695C18.4188 63.7831 18.2054 63.2968 17.9921 62.8799C17.7787 62.324 17.8499 62.1156 18.4188 61.7682C19.4144 61.2123 20.3389 60.587 21.1923 59.8922C21.8323 59.3364 22.3301 58.6416 22.7568 57.9468C23.4679 56.9045 24.3924 56.0708 25.4592 55.4455C27.5215 54.0558 29.5838 52.6662 31.7884 51.4156C32.7129 50.9292 33.8507 50.7208 34.8463 50.5123C35.0597 50.4429 35.4153 50.7208 35.5575 50.9292C36.1264 51.763 36.4109 51.9019 37.2643 51.4156C38.4732 50.7208 39.3977 50.8597 40.3933 51.8325C40.6778 52.1104 41.3178 52.2494 41.7445 52.3188C42.669 52.3883 43.5224 52.3188 44.4469 52.3883C44.6602 52.3883 45.0158 52.5273 45.158 52.6662C45.4425 53.1526 45.8692 53.2221 46.367 53.2221C46.7937 53.1526 47.1492 53.361 47.3626 53.7084C47.647 54.2643 48.1448 54.4032 48.7138 54.2643C49.1405 54.1948 49.6383 54.0558 50.0649 53.9169C50.4205 53.7779 50.705 53.8474 50.9183 54.1253C52.0562 55.376 53.2651 56.5571 54.3318 57.8773C55.3986 59.1279 56.3942 60.4481 57.3898 61.7682C57.6031 62.1156 57.7454 62.5325 57.8165 62.9494C58.1721 64.5474 58.5276 66.2149 58.8832 67.813C59.0254 68.5078 59.381 69.2026 59.5232 69.8974C59.4521 70.1753 59.4521 70.7312 59.381 71.287Z" fill="#FFB948"/>
</svg>
