<svg width="254" height="250" viewBox="0 0 254 196" fill="none"
	xmlns="http://www.w3.org/2000/svg">
	<g clip-path="url(#loading-clip0)">
		<g class="oscillate">
			<path d="M243.968 32.9519L149.715 10.554L118.083 143.546L212.336 165.944L243.968 32.9519Z" stroke="var(--icon-color, currentcolor)" stroke-width="2" stroke-miterlimit="10"/>
			<path d="M171.013 156.138L159.372 153.37C136.566 147.954 122.469 125.07 127.888 102.274L139.886 51.8333C145.305 29.0381 168.199 14.9473 191.005 20.3634L202.66 23.1309C225.466 28.547 239.563 51.4315 234.144 74.2267L222.146 124.668C216.713 147.463 193.818 161.554 171.013 156.138Z" stroke="var(--icon-color, currentcolor)" stroke-width="2" stroke-miterlimit="10"/>
			<path d="M254 26.2147L143.686 0L107.946 150.262L218.26 176.477L254 26.2147Z" stroke="var(--icon-color, currentcolor)" stroke-width="2" stroke-miterlimit="10"/>
			<path d="M194.592 67.9327L179.334 64.3021L190.469 51.3868L194.592 67.9327Z" fill="var(--icon-color, currentcolor)"/>
			<path d="M168.705 108.97L183.978 112.586L172.829 125.516L168.705 108.97Z" fill="var(--icon-color, currentcolor)"/>
			<path d="M160.86 75.075L157.228 90.3263L144.307 79.1965L160.86 75.075Z" fill="var(--icon-color, currentcolor)"/>
			<path d="M201.38 100.831L205.012 85.5649L217.934 96.6947L201.38 100.831Z" fill="var(--icon-color, currentcolor)"/>
			<path d="M181.18 66.5789C182.862 66.5789 184.559 66.7723 186.211 67.1741C191.838 68.5132 196.617 71.9652 199.653 76.8903C202.69 81.8154 203.628 87.6332 202.288 93.2576C199.951 103.063 191.288 109.923 181.225 109.923C179.542 109.923 177.845 109.729 176.193 109.327C170.566 107.988 165.788 104.536 162.751 99.6111C159.714 94.6861 158.776 88.8682 160.116 83.2438C162.438 73.4234 171.102 66.5789 181.18 66.5789ZM181.18 63.603C170.015 63.603 159.908 71.2213 157.213 82.5445C154.058 95.7871 162.245 109.074 175.493 112.229C177.414 112.69 179.334 112.898 181.225 112.898C192.389 112.898 202.497 105.28 205.191 93.957C208.347 80.7143 200.16 67.427 186.911 64.2726C184.991 63.8113 183.07 63.603 181.18 63.603Z" fill="var(--icon-color, currentcolor)"/>
			<path d="M194.533 108.97L198.12 114.788" stroke="var(--icon-color, currentcolor)" stroke-width="2" stroke-miterlimit="10"/>
			<path d="M165.311 61.5347L169.777 68.7809" stroke="var(--icon-color, currentcolor)" stroke-width="2" stroke-miterlimit="10"/>
			<path d="M208.362 71.7717L202.288 75.5065" stroke="var(--icon-color, currentcolor)" stroke-width="2" stroke-miterlimit="10"/>
			<path d="M159.491 99.7366L153.417 103.471" stroke="var(--icon-color, currentcolor)" stroke-width="2" stroke-miterlimit="10"/>
			<path d="M191.794 93.5713C188.787 99.3891 182.788 104.924 170.134 99.0915C170.134 99.0915 168.199 97.6929 167.991 97.4399C167.768 97.187 169.241 98.3922 172.189 98.8535C176.744 99.5379 180.212 99.9248 184.276 97.5292C187.789 95.461 190.171 91.4138 189.918 87.3368C189.665 83.2599 186.598 79.4061 182.579 78.6026C180.704 78.2306 178.694 78.4985 177.086 79.5252C175.493 80.5667 174.377 82.382 174.377 84.2866C174.377 85.5662 174.928 86.8904 175.97 87.6493C177.012 88.4081 178.575 88.4677 179.572 87.6493C180.584 86.8012 180.808 85.3579 180.808 84.0336C180.957 84.0634 181.105 84.0782 181.254 84.1378C181.746 85.8935 182.147 88.5569 180.614 89.8068C178.873 91.2203 174.183 90.2532 172.427 86.1465C170.983 82.7986 172.859 75.7904 181.79 75.8946C187.715 75.9839 197.51 82.4862 191.794 93.5713Z" fill="var(--icon-secondary-color, currentcolor)"/>
			<path d="M195.336 92.3201C193.266 99.2986 186.017 103.986 178.842 103.078C173.126 102.111 169.374 98.867 167.99 97.4535C180.122 105.206 188.786 99.4027 191.793 93.5849C197.509 82.4997 187.714 75.9974 181.789 75.923C172.858 75.8189 170.982 82.8271 172.426 86.1749C174.197 90.2816 178.872 91.2488 180.613 89.8353C182.147 88.5854 181.745 85.922 181.253 84.1662C183.129 84.7019 184.365 86.8891 183.992 88.8532C183.591 90.9661 181.64 92.588 179.512 92.9153C177.398 93.2575 175.195 92.4838 173.498 91.1595C169.106 87.7224 167.246 81.354 171.577 77.0688C175.88 72.8133 182.563 72.1734 187.848 74.9559C194.085 78.2293 197.36 85.4905 195.336 92.3201Z" fill="var(--icon-color, currentcolor)"/>
			<path d="M137.043 24.8868L59.1694 58.7041L113.134 184.315L161.605 163.265" stroke="var(--icon-color, currentcolor)" stroke-width="2" stroke-miterlimit="10"/>
			<path d="M152.137 167.565C130.597 176.805 105.633 166.851 96.389 145.32L75.9207 97.6915C66.6765 76.1611 76.6352 51.2083 98.1753 41.9682L109.176 37.2515" stroke="var(--icon-color, currentcolor)" stroke-width="2" stroke-miterlimit="10"/>
			<path d="M140.764 15.215L48.2339 53.9236L109.071 195.531L173.514 166.241" stroke="var(--icon-color, currentcolor)" stroke-width="2" stroke-miterlimit="10"/>
			<path d="M126.623 76.9645L115.026 84.1661L116.247 67.1589L126.623 76.9645Z" fill="var(--icon-color, currentcolor)"/>
			<path d="M106.616 103.837L112.808 118.24L95.7936 117.02L106.616 103.837Z" fill="var(--icon-color, currentcolor)"/>
			<path d="M110.665 94.2544C108.759 99.2836 107.341 105.412 110.873 110.845C112.063 112.675 113.523 114.312 114.714 114.907L113.969 119.371C113.969 119.371 109.795 115.281 108.149 112.005C102.037 99.8465 108.551 85.0143 121.07 79.6428C121.515 79.4506 123.099 78.8979 123.612 78.6185L123.645 78.4525C123.843 78.4525 123.797 78.5177 123.612 78.6185L122.901 82.1724C117.572 84.4489 112.823 88.868 110.665 94.2544Z" fill="var(--icon-color, currentcolor)"/>
			<path d="M102.12 90.3114L110.025 93.4672" stroke="var(--icon-color, currentcolor)" stroke-width="2" stroke-miterlimit="10"/>
		</g>
		<g clip-path="url(#loading-clip1)">
			<g class="star">
				<rect x="30.8034" y="34.5781" width="2.35043" height="11.6674" rx="1.17521" fill="var(--icon-color, currentcolor)"/>
				<rect x="37.8547" y="39.2451" width="2.33349" height="11.7521" rx="1.16674" transform="rotate(90 37.8547 39.2451)" fill="var(--icon-color, currentcolor)"/>
			</g>
			<g class="star" opacity="0.4">
				<rect x="14.3504" y="62.58" width="2.35043" height="7.00046" rx="1.17521" fill="var(--icon-color, currentcolor)"/>
				<rect x="19.0513" y="64.9135" width="2.33349" height="7.05128" rx="1.16674" transform="rotate(90 19.0513 64.9135)" fill="var(--icon-color, currentcolor)"/>
			</g>
			<g class="star" opacity="0.4">
				<rect x="51.9573" y="113.917" width="2.35043" height="7.00046" rx="1.17521" fill="var(--icon-color, currentcolor)"/>
				<rect x="56.6581" y="116.25" width="2.33349" height="7.05128" rx="1.16674" transform="rotate(90 56.6581 116.25)" fill="var(--icon-color, currentcolor)"/>
			</g>
			<g class="star">
				<rect x="28.453" y="90.5818" width="2.35043" height="11.6674" rx="1.17521" fill="var(--icon-color, currentcolor)"/>
				<rect x="35.5043" y="95.2488" width="2.33349" height="11.7521" rx="1.16674" transform="rotate(90 35.5043 95.2488)" fill="var(--icon-color, currentcolor)"/>
			</g>
		</g>
	</g>
	<defs>
		<clipPath id="loading-clip0">
			<rect width="254" height="250" fill="white"/>
		</clipPath>
		<clipPath id="loading-clip1">
			<rect x="12" y="35" width="45" height="86" fill="white"/>
		</clipPath>
	</defs>
</svg>
