<svg width="30" height="30" viewBox="0 0 30 30" fill="none"
    xmlns="http://www.w3.org/2000/svg">
    <rect width="30" height="30" fill="var(--icon-color, currentcolor)"/>
    <path d="M9.39633 13.5339L8.95673 13.7721L9.19496 14.2117L9.79847 15.3254L10.0367 15.765L10.4763 15.5268L10.8284 15.336C10.8317 15.3902 10.8333 15.4449 10.8333 15.5C10.8333 15.6076 10.827 15.7138 10.8146 15.8181L10.4992 15.636L10.2492 16.069L9.61582 17.166L9.36582 17.599L9.61224 17.7412C9.19576 18.0104 8.69946 18.1667 8.16667 18.1667C6.69391 18.1667 5.5 16.9728 5.5 15.5C5.5 14.0272 6.69391 12.8333 8.16667 12.8333C8.75542 12.8333 9.2996 13.0241 9.74077 13.3473L9.39633 13.5339ZM11.4483 13.8626C11.4085 13.7829 11.3658 13.7049 11.3205 13.6286L17.3632 10.354C17.3923 10.4391 17.4245 10.5228 17.4595 10.605L11.4483 13.8626ZM10.4402 14.1056C10.4866 14.1812 10.5294 14.2592 10.5683 14.3395L10.4394 14.4093L10.3124 14.1749L10.4402 14.1056ZM18.8742 10.9758L19.0722 10.8685L19.5118 10.6303L19.2736 10.1907L18.6701 9.077L18.4319 8.6374L18.1967 8.76482C18.3905 7.48272 19.4972 6.5 20.8333 6.5C22.3061 6.5 23.5 7.69391 23.5 9.16667C23.5 10.6394 22.3061 11.8333 20.8333 11.8333C20.0588 11.8333 19.3614 11.5031 18.8742 10.9758ZM11.3666 17.2915L16.3105 20.1459C16.2695 20.2248 16.2313 20.3055 16.196 20.3877L11.2277 17.5192C11.2767 17.4452 11.323 17.3692 11.3666 17.2915ZM17.0707 20.8927C17.1024 20.8086 17.1382 20.7265 17.1779 20.6467L17.3618 20.7528L17.2284 20.9837L17.0707 20.8927ZM17.7895 19.8451C18.2613 19.4232 18.884 19.1667 19.5667 19.1667C21.0394 19.1667 22.2333 20.3606 22.2333 21.8333C22.2333 23.3061 21.0394 24.5 19.5667 24.5C18.1331 24.5 16.9637 23.3688 16.9025 21.9503L17.1614 22.0998L17.5945 22.3498L17.8445 21.9168L18.4778 20.8198L18.7278 20.3868L18.2948 20.1368L17.7895 19.8451Z" fill="var(--icon-secondary-color, currentcolor)" stroke="var(--icon-secondary-color, currentcolor)"/>
</svg>
