<svg xmlns="http://www.w3.org/2000/svg"
    xmlns:xlink="http://www.w3.org/1999/xlink" version="1.0" x="0px" y="0px" viewBox="0 0 30 30" enable-background="new 0 0 30 30" xml:space="preserve">
    <rect width="30" height="30" fill="var(--icon-color, currentcolor)"/>
    <path style="transform: translate(3px, 3px);" d="M19,2h-4.2c-0.4-1.2-1.5-2-2.8-2S9.6,0.8,9.2,2H5C3.9,2,3,2.9,3,4v16c0,1.1,0.9,2,2,2h14c1.1,0,2-0.9,2-2V4  C21,2.9,20.1,2,19,2z M12,2c0.6,0,1,0.4,1,1c0,0.6-0.4,1-1,1s-1-0.4-1-1C11,2.4,11.4,2,12,2z M19,20H5V4h2v2h10V4h2V20z" fill="var(--icon-secondary-color, currentcolor)"></path>
</svg>