<svg width="30" height="30" viewBox="0 0 30 30" fill="none"
    xmlns="http://www.w3.org/2000/svg">
    <rect width="30" height="30" fill="var(--icon-color, currentcolor)"/>
    <path d="M15.405 13.0454C13.73 13.0454 12.3718 14.4032 12.3718 16.0786C12.3718 17.754 13.73 19.112 15.405 19.112C17.0804 19.112 18.4382 17.754 18.4382 16.0786C18.4382 14.4032 17.0804 13.0454 15.405 13.0454ZM22.1382 9H20C20 8 20 7 20 7H11.0604C11.0604 7 11.0604 7.77831 11 9H8.5C7.009 9 6 10.3238 6 11.8152V19.825C6 21.3164 7.209 22.525 8.7 22.525H22.1102C23.6012 22.525 24.8102 21.3164 24.8102 19.825V11.8152C24.81 10.3238 23.6292 9 22.1382 9ZM15.405 20.5674C12.926 20.5674 10.9164 18.5576 10.9164 16.0786C10.9164 13.5996 12.9262 11.59 15.405 11.59C17.8838 11.59 19.8936 13.5998 19.8936 16.0786C19.8936 18.5578 17.884 20.5674 15.405 20.5674ZM22.1382 12.4336C21.6254 12.4336 21.21 12.018 21.21 11.5054C21.21 10.9928 21.6252 10.5772 22.1382 10.5772C22.6508 10.5772 23.0664 10.9926 23.0664 11.5054C23.0664 12.018 22.6508 12.4336 22.1382 12.4336Z" fill="var(--icon-secondary-color, currentcolor)"/>
</svg>
