<svg width="30" height="30" viewBox="0 0 30 30" fill="none"
	xmlns="http://www.w3.org/2000/svg">
	<rect width="30" height="30" fill="var(--icon-color, currentcolor)"/>
	<path d="M26.7 14.8C26.7 13.3 25.5 12.2 24.1 12.2C23.4 12.2 22.8 12.5 22.3 13C20.5 11.8 18.1 11 15.3 10.9L16.8 6.2L20.8 7.1C20.8 7.1 20.8 7.1 20.8 7.2C20.8 8.4 21.8 9.4 23 9.4C24.2 9.4 25.2 8.4 25.2 7.2C25.2 6 24.2 5 23 5C22.1 5 21.3 5.6 21 6.4L16.7 5.4C16.5 5.4 16.3 5.5 16.3 5.6L14.7 10.8C11.9 10.8 9.3 11.6 7.4 12.8C6.9 12.4 6.3 12.1 5.6 12.1C4.1 12.1 3 13.3 3 14.7C3 15.6 3.5 16.5 4.3 17C4.2 17.3 4.2 17.6 4.2 17.9C4.2 21.8 9 25 14.9 25C20.8 25 25.6 21.8 25.6 17.9C25.6 17.6 25.6 17.4 25.5 17.1C26.2 16.6 26.7 15.8 26.7 14.8ZM23 5.7C23.8 5.7 24.4 6.3 24.4 7.1C24.4 7.9 23.8 8.5 23 8.5C22.2 8.5 21.6 7.9 21.6 7.1C21.5 6.4 22.2 5.7 23 5.7ZM4.4 16.3C3.9 15.9 3.6 15.4 3.6 14.8C3.6 13.7 4.5 12.9 5.5 12.9C5.9 12.9 6.3 13 6.7 13.3C5.6 14.1 4.8 15.2 4.4 16.3ZM9.6 16.6C9.6 15.7 10.3 15 11.2 15C12.1 15 12.8 15.7 12.8 16.6C12.8 17.5 12.1 18.2 11.2 18.2C10.3 18.2 9.6 17.5 9.6 16.6ZM18.6 21.3C17.8 22.1 16.6 22.5 14.8 22.5C13 22.5 11.8 22.1 11 21.3C10.9 21.2 10.9 20.9 11 20.8C11.1 20.7 11.4 20.7 11.5 20.8C12.1 21.4 13.2 21.8 14.8 21.8C16.4 21.8 17.4 21.5 18.1 20.8C18.2 20.7 18.5 20.7 18.6 20.8C18.8 20.9 18.8 21.1 18.6 21.3ZM18.4 18.2C17.5 18.2 16.8 17.5 16.8 16.6C16.8 15.7 17.5 15 18.4 15C19.3 15 20 15.7 20 16.6C20 17.5 19.3 18.2 18.4 18.2ZM25.2 16.4C24.8 15.3 24 14.2 22.9 13.4C23.2 13.1 23.7 13 24.1 13C25.2 13 26 13.9 26 14.9C26 15.4 25.7 16 25.2 16.4Z" fill="var(--icon-secondary-color, currentcolor)"/>
</svg>
