<svg width="30" height="30" viewBox="0 0 30 30" fill="none"
    xmlns="http://www.w3.org/2000/svg">
    <path d="M10.4206 13.8553L9.98104 14.0935L10.2193 14.5331L10.6957 15.4123L10.9339 15.8519L11.1446 15.7377L11.0529 15.8966L10.5529 16.7626L10.3029 17.1956L10.4319 17.2701C10.1536 17.4169 9.83651 17.5 9.5 17.5C8.39543 17.5 7.5 16.6046 7.5 15.5C7.5 14.3954 8.39543 13.5 9.5 13.5C9.88065 13.5 10.2365 13.6063 10.5394 13.7909L10.4206 13.8553ZM11.4986 15.5765L11.4712 15.5607L11.4995 15.5454C11.4993 15.5558 11.499 15.5662 11.4986 15.5765ZM17.5677 9.98217C17.7958 9.12862 18.5745 8.5 19.5 8.5C20.6046 8.5 21.5 9.39543 21.5 10.5C21.5 11.6046 20.6046 12.5 19.5 12.5C18.9683 12.5 18.485 12.2925 18.1267 11.954L18.1598 11.9361L18.5994 11.6979L18.3612 11.2583L17.8847 10.3791L17.6465 9.93946L17.5677 9.98217ZM16.5202 20.7852L16.5485 20.8015L16.9815 21.0515L17.2315 20.6185L17.7315 19.7525L17.9815 19.3195L17.5485 19.0695L17.2805 18.9147C17.618 18.6547 18.0409 18.5 18.5 18.5C19.6046 18.5 20.5 19.3954 20.5 20.5C20.5 21.6046 19.6046 22.5 18.5 22.5C17.4922 22.5 16.6586 21.7547 16.5202 20.7852Z" fill="var(--icon-color, currentcolor)" stroke="var(--icon-color, currentcolor)"/>
</svg>
