<svg width="21" height="16" viewBox="0 0 21 16">
	<path d="M18 3.9C18 4.1 18 4.2 18 4.4C18 9.7 13.9 15.9 6.3 15.9C4 15.9 1.8 15.2 0 14.1C0.3 14.1 0.6 14.2 1 14.2C2.9 14.2 4.7 13.6 6.1 12.5C4.3 12.5 2.8 11.3 2.3 9.7C2.5 9.7 2.8 9.8 3.1 9.8C3.5 9.8 3.8 9.8 4.2 9.7C2.3 9.3 0.900002 7.7 0.900002 5.7V5.6C1.5 5.9 2.1 6.1 2.8 6.1C1.7 5.4 1 4.1 1 2.7C1 2 1.2 1.3 1.6 0.7C3.6 3.1 6.6 4.8 10.1 4.9C10 4.6 10 4.3 10 4C10 1.8 11.8 0 14.1 0C15.3 0 16.3 0.5 17.1 1.3C18 1.1 18.9 0.8 19.7 0.3C19.4 1.2 18.7 2 17.9 2.5C18.7 2.4 19.5 2.2 20.3 1.9C19.5 2.6 18.8 3.3 18 3.9Z" fill="var(--icon-color, currentcolor)"/>
</svg>