<svg width="30" height="30" viewBox="0 0 30 30" fill="none"
	xmlns="http://www.w3.org/2000/svg">
	<rect width="30" height="30" fill="var(--icon-color, currentcolor)"/>
	<path d="M23 10.9C23 11.1 23 11.2 23 11.4C23 16.7 18.9 22.9 11.3 22.9C9 22.9 6.8 22.2 5 21.1C5.3 21.1 5.6 21.2 6 21.2C7.9 21.2 9.7 20.6 11.1 19.5C9.3 19.5 7.8 18.3 7.3 16.7C7.5 16.7 7.8 16.8 8.1 16.8C8.5 16.8 8.8 16.8 9.2 16.7C7.3 16.3 5.9 14.7 5.9 12.7V12.6C6.5 12.9 7.1 13.1 7.8 13.1C6.7 12.4 6 11.1 6 9.7C6 9 6.2 8.3 6.6 7.7C8.6 10.1 11.6 11.8 15.1 11.9C15 11.6 15 11.3 15 11C15 8.8 16.8 7 19.1 7C20.3 7 21.3 7.5 22.1 8.3C23 8.1 23.9 7.8 24.7 7.3C24.4 8.2 23.7 9 22.9 9.5C23.7 9.4 24.5 9.2 25.3 8.9C24.5 9.6 23.8 10.3 23 10.9Z" fill="var(--icon-secondary-color, currentcolor)"/>
</svg>
