<svg
	xmlns="http://www.w3.org/2000/svg" style="display: none;">
	<symbol id="replays_battlegrounds"  viewBox="0 0 30 30">
		<path d="M3.50062 16.0061L10.3573 24.8071C17.1757 21.0919 21.651 20.9942 23.0364 21.4097L24.6755 10.8858L20.709 14.3089C20.709 14.3089 14.9108 5.34861 12.5335 5.98561C9.92774 6.68381 9.41674 17.3346 9.41674 17.3346L6.50042 16.0061L3.50062 16.0061Z" fill="#D2860B"/>
		<path d="M3.89452 14.9521C2.15115 15.4192 3.52573 16.4814 4.43094 16.954C4.39518 16.8206 4.39218 16.4924 4.66624 16.2473C4.94031 16.0022 8.15096 17.1016 9.72202 17.682C9.63961 15.4725 11.1876 10.2085 11.972 7.85265L13.2965 12.0037L10.9643 17.5637L15.4051 20.6652L15.566 21.2658L17.349 20.788L17.1881 20.1874L19.2313 15.134L14.6833 11.6321L13.7549 7.3749C14.762 7.96335 19.9165 14.5212 20.6717 14.9626C21.427 15.4039 23.107 12.1644 24.0439 11.6988C24.7934 11.3263 24.6313 12.042 24.4566 12.4465C24.9615 11.9535 25.817 10.7087 25.1996 9.67253C24.5823 8.63636 21.8661 11.4955 20.5852 13.0547C18.6882 10.2014 14.3288 4.60339 12.067 5.03777C9.80529 5.47215 8.84323 12.5532 8.64491 16.0395C7.78785 15.4824 5.63789 14.4849 3.89452 14.9521Z" fill="#FFB948"/>
		<path d="M9.59063 24.5891C9.36979 25.0356 10.2817 25.3711 10.7161 25.3545C18.0891 25.0737 24.1891 21.888 23.2908 20.9181C22.3925 19.9482 20.0318 19.8545 16.0557 20.9198C11.6876 22.0903 9.86667 24.0309 9.59063 24.5891Z" fill="#FFB948"/>
		<path d="M11.5571 24.2989C11.3554 24.5302 12.0157 24.6186 12.3442 24.5762C17.9201 23.8577 22.7672 21.8491 22.1674 21.4559C21.5676 21.0626 19.7969 21.2048 16.7176 22.0298C13.3346 22.9363 11.8093 24.0097 11.5571 24.2989Z" fill="#BC8937"/>
		<path d="M18.2407 15.3994L14.2498 12.3919L12.1529 17.2452L16.3419 20.1995L18.2407 15.3994Z" fill="#3B5141"/>
	</symbol>
	<symbol id="match_result_victory" viewBox="0 0 30 30">
		<path fill-rule="evenodd" clip-rule="evenodd" d="M15 5L19.7896 12.5284L27 9.7262L23.1464 22.5204C22.9891 23.8982 19.402 25 15 25C10.5983 25 7.01135 23.8984 6.85366 22.5206L3 9.7262L10.2104 12.5284L15 5ZM23.0503 19.3031L22.4293 21.365C21.1492 20.4726 18.3042 19.8519 15 19.8519C11.6958 19.8519 8.85079 20.4727 7.57072 21.365L6.94967 19.3031C7.27535 19.1272 7.66918 18.9538 8.13142 18.7903C9.84116 18.1857 12.2695 17.7927 15 17.7927C17.7305 17.7927 20.1589 18.1857 21.8686 18.7903C22.3308 18.9538 22.7247 19.1272 23.0503 19.3031ZM23.3519 18.3017L25.4174 11.4444L19.3811 13.7903L15 6.90403L10.6189 13.7903L4.58265 11.4444L6.64806 18.3017C8.49061 17.3714 11.5444 16.763 15 16.763C18.4556 16.763 21.5094 17.3714 23.3519 18.3017ZM22.1 22.426C22.0663 22.3864 22.0072 22.3279 21.9057 22.2521C21.6204 22.0391 21.1424 21.804 20.4603 21.5886C19.108 21.1616 17.1773 20.8815 15 20.8815C12.8227 20.8815 10.892 21.1616 9.53979 21.5886C8.85759 21.804 8.37965 22.0391 8.09437 22.2521C7.99282 22.3279 7.93369 22.3863 7.90001 22.4259C7.93369 22.4655 7.99282 22.524 8.09437 22.5998C8.37965 22.8127 8.85759 23.0479 9.53979 23.2633C10.892 23.6903 12.8227 23.9704 15 23.9704C17.1773 23.9704 19.108 23.6903 20.4603 23.2633C21.1424 23.0479 21.6204 22.8127 21.9057 22.5998C22.0072 22.524 22.0663 22.4655 22.1 22.426Z" fill="#FFB948"/>
	</symbol>
	<symbol id="match_result_defeat" viewBox="0 0 32 30">
		<path fill-rule="evenodd" clip-rule="evenodd" d="M21.5251 23.3352L13.3735 19.7064L8.91175 26.0257L5.05508 13.2325C4.42494 11.9971 6.80609 9.09694 10.4752 6.66485C14.1442 4.2329 17.7426 3.16939 18.6352 4.23067L28.9161 12.7659L21.358 14.4139L21.4039 16.8624L21.5251 23.3352ZM6.91269 15.8611L6.29116 13.7993C7.85113 13.8359 10.5655 12.7814 13.3195 10.9559C16.0736 9.13033 18.1021 7.04105 18.676 5.59004L20.3329 6.96555C20.1586 7.29207 19.9261 7.65419 19.6311 8.04584C18.5401 9.49446 16.7332 11.1637 14.4573 12.6723C12.1814 14.1809 9.94013 15.1949 8.18096 15.6356C7.70537 15.7547 7.28131 15.8277 6.91269 15.8611ZM7.21454 16.8624L9.2816 23.7192L13.0168 18.4288L20.4732 21.7481L20.3586 15.6356L20.3203 13.5877L26.6477 12.2081L21.1375 7.63356C20.1157 9.42703 17.9064 11.6213 15.0261 13.5305C12.1459 15.4397 9.26436 16.6198 7.21454 16.8624ZM5.97941 12.7331C6.02936 12.7475 6.11092 12.7635 6.23745 12.7706C6.59291 12.7905 7.1212 12.7224 7.80884 12.5251C9.17187 12.1339 10.9359 11.3006 12.7507 10.0977C14.5655 8.89472 16.02 7.5946 16.9112 6.49158C17.3608 5.93512 17.6293 5.47505 17.7494 5.13991C17.7922 5.02061 17.8092 4.93926 17.8154 4.88765C17.7654 4.87325 17.6839 4.85723 17.5573 4.85015C17.2019 4.83024 16.6736 4.89829 15.9859 5.09565C14.6229 5.48685 12.8589 6.32011 11.0441 7.52306C9.22928 8.72601 7.77475 10.0261 6.88354 11.1291C6.43394 11.6856 6.1655 12.1457 6.04538 12.4808C6.00262 12.6001 5.98561 12.6815 5.97941 12.7331Z" fill="#FFB948"/>
		<path d="M14.5 6.50024L15.5 13.0002L21 14.0002" stroke="#FFB948"/>
	</symbol>
	<symbol id="match_watch" viewBox="0 0 30 20">
		<path d="M12 14L19 10L12 6V14Z" fill="var(--icon-color, currentcolor)"/>
		<path fill-rule="evenodd" clip-rule="evenodd" d="M0 0H30V20H0V0ZM1 1H29V19H1V1Z" fill="var(--icon-color, currentcolor)"/>
	</symbol>
	<symbol id="match_stats" viewBox="0 0 30 20">
		<path fill-rule="evenodd" clip-rule="evenodd" d="M0 0H30V20H0V0ZM1 1H29V19H1V1Z" fill="var(--icon-color, currentcolor)"/>
		<circle cx="25" cy="6" r="0.5" stroke="var(--icon-color, currentcolor)"/>
		<circle cx="5" cy="14" r="0.5" stroke="var(--icon-color, currentcolor)"/>
		<path d="M5.5 13.5L10 8L18.5 12.5L25 6" stroke="var(--icon-color, currentcolor)"/>
	</symbol>
	<symbol id="match_coin" viewBox="0 0 30 30">
		<circle cx="15" cy="15" r="9.7439" fill="#D2860B" stroke="#FFB948" stroke-width="0.512195"/>
		<path d="M23.28 15.0005C23.28 19.5736 19.5727 23.2809 14.9995 23.2809C10.4263 23.2809 6.71899 19.5736 6.71899 15.0005C6.71899 10.4273 10.4263 6.71996 14.9995 6.71996C19.5727 6.71996 23.28 10.4273 23.28 15.0005Z" stroke="#FFB948" stroke-width="0.512195"/>
		<path d="M14.9998 9.76172L19.5361 12.3808V17.6189L14.9998 20.2379L10.4635 17.6189V12.3808L14.9998 9.76172Z" fill="#FFB948"/>
	</symbol>
	<symbol id="match_play" viewBox="0 0 30 30">
		<path fill-rule="evenodd" clip-rule="evenodd" d="M14.5186 5L10.7143 12.6128L14.5238 16.4245L12.619 21.1891L19.2857 14.9951L16.4286 10.707L19.6338 6.12538C22.8236 7.79731 25 11.1415 25 14.9943C25 20.5203 20.5228 25 15 25C9.47715 25 5 20.5203 5 14.9943C5 9.62979 9.21932 5.25131 14.5186 5Z" fill="#D2860B"/>
		<path d="M10.7143 12.6128L10.5179 12.5147L10.4472 12.6561L10.559 12.768L10.7143 12.6128ZM14.5186 5L14.715 5.09813L14.8825 4.76297L14.5082 4.78072L14.5186 5ZM14.5238 16.4245L14.7277 16.506L14.7814 16.3717L14.6791 16.2693L14.5238 16.4245ZM12.619 21.1891L12.4152 21.1076L12.7685 21.35L12.619 21.1891ZM19.2857 14.9951L19.4351 15.1559L19.572 15.0288L19.4684 14.8734L19.2857 14.9951ZM16.4286 10.707L16.2487 10.5811L16.1628 10.7039L16.2459 10.8287L16.4286 10.707ZM19.6338 6.12538L19.7358 5.93095L19.5647 5.84128L19.454 5.99954L19.6338 6.12538ZM10.9107 12.7109L14.715 5.09813L14.3222 4.90187L10.5179 12.5147L10.9107 12.7109ZM14.6791 16.2693L10.8696 12.4576L10.559 12.768L14.3685 16.5797L14.6791 16.2693ZM12.8229 21.2706L14.7277 16.506L14.32 16.343L12.4152 21.1076L12.8229 21.2706ZM19.1363 14.8343L12.4696 21.0283L12.7685 21.35L19.4351 15.1559L19.1363 14.8343ZM16.2459 10.8287L19.103 15.1168L19.4684 14.8734L16.6113 10.5852L16.2459 10.8287ZM19.454 5.99954L16.2487 10.5811L16.6085 10.8328L19.8137 6.25123L19.454 5.99954ZM25.2195 14.9943C25.2195 11.0567 22.995 7.63929 19.7358 5.93095L19.5319 6.31982C22.6522 7.95532 24.7805 11.2263 24.7805 14.9943H25.2195ZM15 25.2195C20.6442 25.2195 25.2195 20.6414 25.2195 14.9943H24.7805C24.7805 20.3992 20.4015 24.7805 15 24.7805V25.2195ZM4.78047 14.9943C4.78047 20.6414 9.35579 25.2195 15 25.2195V24.7805C9.59851 24.7805 5.21953 20.3992 5.21953 14.9943H4.78047ZM14.5082 4.78072C9.0923 5.03756 4.78047 9.51214 4.78047 14.9943H5.21953C5.21953 9.74744 9.34634 5.46506 14.529 5.21928L14.5082 4.78072Z" fill="#FFB948"/>
		<path d="M13.5709 6.55664C9.53635 7.23678 6.46289 10.7488 6.46289 14.979C6.46289 19.6963 10.2848 23.5205 14.9995 23.5205C19.7141 23.5205 23.5361 19.6963 23.5361 14.979C23.5361 11.6621 21.6464 8.7867 18.8855 7.37187" stroke="#FFB948" stroke-width="0.512195"/>
	</symbol>
</svg>