<svg width="100" height="101" viewBox="0 0 100 101" fill="none"
	xmlns="http://www.w3.org/2000/svg">
	<path fill-rule="evenodd" clip-rule="evenodd" d="M74.7224 20.2L71.3103 31.5852L57.9643 45.1384L68.4852 55.8227L71.9724 52.2814L76.895 53.4172L77.8972 58.5056L72.7383 63.7447L81.6079 72.7519L77.3548 77.071L68.4852 68.0637L63.3284 73.3006L58.3032 72.2799L57.2993 67.1822L60.6843 63.7446L50.1634 53.0604L39.6424 63.7446L43.0275 67.1822L42.0235 72.2799L36.9984 73.3006L31.8415 68.0637L22.9719 77.071L18.7189 72.7519L27.5885 63.7447L22.4295 58.5056L23.4317 53.4172L28.3544 52.2814L31.8415 55.8227L42.3625 45.1384L29.0164 31.5852L25.6043 20.2L36.8207 23.6667L50.1634 37.2164L63.506 23.6667L74.7224 20.2ZM50.8685 37.9326L53.7112 40.8194L72.211 22.0324L64.0383 24.5584L50.8685 37.9326ZM72.9128 22.752L54.4164 41.5355L57.2591 44.4223L70.4255 31.0515L72.9128 22.752ZM43.0677 45.8546L32.5467 56.5388L35.3894 59.4256L45.9103 48.7413L43.0677 45.8546ZM46.6155 49.4575L36.0946 60.1417L38.9372 63.0285L49.4582 52.3443L46.6155 49.4575ZM28.2936 64.4608L20.1292 72.7519L22.9719 75.6387L31.1363 67.3476L28.2936 64.4608ZM61.3895 63.0285L64.2321 60.1417L27.4139 22.752L29.9013 31.0515L61.3895 63.0285ZM28.1157 22.0324L36.2884 24.5584L67.78 56.5388L64.9373 59.4256L28.1157 22.0324ZM69.1904 67.3476L77.3548 75.6387L80.1975 72.7519L72.0331 64.4608L69.1904 67.3476ZM24.2861 54.256L23.5143 58.1749L37.3283 72.2033L41.1728 71.4225L41.9427 67.5129L28.0364 53.3907L24.2861 54.256ZM72.2903 53.3907L58.384 67.5129L59.1539 71.4225L62.9984 72.2033L76.8125 58.1749L76.0407 54.256L72.2903 53.3907Z" fill="var(--icon-color, currentcolor)"/>
	<path fill-rule="evenodd" clip-rule="evenodd" d="M17.0251 78.7913C18.3637 80.1507 20.4216 80.2149 21.8235 78.7913C22.2818 78.3259 22.6197 77.4934 22.7886 76.7L19.0845 72.9384C18.3031 73.1098 17.4834 73.453 17.0251 73.9184C15.6233 75.342 15.6865 77.4319 17.0251 78.7913ZM19.4243 71.8512L23.8591 76.3549C23.7293 77.3629 23.3069 78.7172 22.5287 79.5074C20.724 81.3401 18.0344 81.2485 16.3199 79.5074C14.6054 77.7663 14.5152 75.035 16.3199 73.2023C17.0981 72.412 18.4316 71.983 19.4243 71.8512Z" fill="var(--icon-color, currentcolor)"/>
	<path fill-rule="evenodd" clip-rule="evenodd" d="M83.302 78.7913C81.9634 80.1507 79.9055 80.2149 78.5036 78.7913C78.0453 78.3259 77.7074 77.4934 77.5385 76.7L81.2426 72.9384C82.024 73.1098 82.8437 73.453 83.302 73.9184C84.7039 75.342 84.6406 77.4319 83.302 78.7913ZM80.9028 71.8512L76.468 76.3549C76.5978 77.3629 77.0202 78.7172 77.7984 79.5074C79.6031 81.3401 82.2927 81.2485 84.0072 79.5074C85.7217 77.7663 85.8119 75.035 84.0072 73.2023C83.229 72.412 81.8955 71.983 80.9028 71.8512Z" fill="var(--icon-color, currentcolor)"/>
	<path d="M19.9938 76.9177C19.9938 77.6213 19.4322 78.1916 18.7394 78.1916C18.0467 78.1916 17.4851 77.6213 17.4851 76.9177C17.4851 76.2142 18.0467 75.6439 18.7394 75.6439C19.4322 75.6439 19.9938 76.2142 19.9938 76.9177Z" fill="var(--icon-color, currentcolor)"/>
	<path d="M82.7116 76.9177C82.7116 77.6213 82.15 78.1916 81.4572 78.1916C80.7645 78.1916 80.2029 77.6213 80.2029 76.9177C80.2029 76.2142 80.7645 75.6439 81.4572 75.6439C82.15 75.6439 82.7116 76.2142 82.7116 76.9177Z" fill="var(--icon-color, currentcolor)"/>
</svg>