<?xml version="1.0" encoding="UTF-8"?>
<svg width="128" height="128" style="padding: 15px; opacity: 0.6;" version="1.1" viewBox="0 0 33.867 33.867"
    xmlns="http://www.w3.org/2000/svg">
    <g>
        <path d="m7.0406 2.1261-0.053748 1.1825h-1.613l-1.3443 5.269 6.1295-0.053748-3.2798 0.69929 0.1075 1.1287 0.85997 0.1075-1.0212 13.495h-1.9892c3e-7 0 0.053748-0.05364 0.053748 1.3443 4.5163 1.0216 7.097 1.4518 7.097 1.4518l-9.1943-0.05375-0.69873 5.0003c9.8929 0.0771 19.786 0.03509 29.679 0l-0.69873-5.0003-9.1937 0.05375s2.5807-0.43021 7.097-1.4518c0-1.3979 0.05375-1.3443 0.05375-1.3443h-1.9892l-1.0218-13.495 0.86053-0.1075 0.1075-1.1287-3.2798-0.69929 6.129 0.053748-1.3443-5.269h-1.6124l-0.054308-1.1825-6.6665 0.16124-0.32305 1.613h-5.8065l-0.32249-1.613zm6.4968 5.9901h6.7924v1.3879l0.20883 0.28498 1.7491 0.019036 0.76031 13.934s-1.6168 0.91313-6.1144 0.91316c-4.4976 3.4e-5 -6.115-0.91316-6.115-0.91316l0.76087-13.934 1.7485-0.019036 0.20939-0.28498zm3.9068 2.37c0.66227 1.5227 0.72833 2.775-0.51061 2.3392 0 0-1.5716-2.0686-3.5866-0.39583 1.4819-0.12001 2.1102 0.36462 2.1292 0.85885 0.019 0.49424 0 0.41655 0 0.41655s-2.5093 0.038-2.8515 2.3761c1.0265-0.70334 1.5206-0.41823 1.5206-0.41823l-0.01904 0.57052s-1.7427 1.7759-1.2295 4.114c0.91244-2.129 1.4579-1.8901 1.4579-1.8901l0.41823 0.30457v2.3571s0.28299 1.5711 1.6516 2.0654c-0.49424-1.5017-0.7016-2.408-0.35944-2.7501 0.34216-0.34216 0.86837-0.51173 0.86837-0.51173s1.1022 2.3118 3.3066 2.1236c-1.1828-1.2097-1.5593-1.532-1.4249-2.5536 0.96778 0.05377 2.7956-0.7262 2.5267-2.3123-0.7796 1.2366-1.9892 0.3768-1.9892 0.3768l0.08063-0.75304s1.9356-0.94091 1.5593-3.3873c-0.53766 1.2097-1.0754 1.3713-1.5593 0.86053-0.02688-0.86025-0.24187-1.6936-0.24187-1.6936s-0.18816-1.5865-1.7474-2.0973z" fill="var(--icon-color, currentcolor)"/>
    </g>
</svg>
