<?xml version="1.0" encoding="UTF-8"?>
<svg width="128" height="128" style="padding: 15px; opacity: 0.6;" version="1.1" viewBox="0 0 33.867 33.867"
    xmlns="http://www.w3.org/2000/svg">
    <g>
        <path d="m17.833 1.897s-2.6504 1.691-3.4416 2.5895c-0.7913 0.8985-1.3756 6.6104-1.3756 6.6104l0.07752-0.0098a6.6444 6.8801 0 0 0-2.2707 2.5234c-3.8107 1.0463-5.501 3.7238-5.501 3.7238l-2.9667-0.64492 1.4981 2.7073s1.4792 0.77739 3.2747 1.249c1.3141-0.30619 3.8186 0.47111 4.4566 0.68006a6.6444 6.8801 0 0 0 2.0831 1.7048c0.0058 0.03493 0.01017 0.06815 0.01809 0.10594 0.74488 3.5528 3.1838 5.3175 3.1838 5.3175l0.05994 3.5155 2.991-3.0696 0.55449-2.912-1.0924-2.82a6.6444 6.8801 0 0 0 3.2189-3.19l4.2483-1.3333 2.3105-1.6356 2.3513 0.38189s-1.2844-1.6693-2.159-2.5606c-0.84603-0.86212-6.5526-1.3453-6.9319-1.3767a6.6444 6.8801 0 0 0-2.5761-2.6045l0.07855 0.0062-1.4175-4.0096-1.3265-1.3813zm8.2744 3.9114-1.3508 2.6867s-2.3027-0.23616-4.2204 0.6997l0.31678 0.77721 2.6102 2.6148 1.5234 0.14831s1.9726-2.7608 1.8764-4.1558c-0.08249-1.1961-0.75551-2.7709-0.75551-2.7709zm-17.141 0.89969c-0.9112-0.00787-4.3336 0.73277-4.3336 0.73277l3.3972 1.8821 0.17777 2.3037 0.84026 1.4593 1.5198-1.0583s0.87129-1.2388 1.1684-1.5529c0.11195-0.87847 0.32143-2.3332 0.32143-2.3332s-2.3781-1.4273-3.0913-1.4335zm7.7794 4.5062a5.2844 5.7083 0 0 1 0.01705 0 5.2844 5.7083 0 0 1 5.2844 5.7082 5.2844 5.7083 0 0 1-5.2844 5.7082 5.2844 5.7083 0 0 1-5.2844-5.7082 5.2844 5.7083 0 0 1 5.2674-5.7082zm-0.0067 1.3689s-1.7025 4.1663-1.6392 5.148c0.0637 0.98809 1.8051 3.9011 1.8051 3.9011s1.3901-1.9136 1.4945-2.9011c0.10038-0.9494-0.67452-4.8765-1.6604-6.1479zm7.9577 8.1468-1.2475 0.40101s-2.0098 2.3185-2.8112 2.85c0.64035 1.3591 1.3366 2.0798 3.2329 2.8267 2.1732-0.07845 3.8695-0.10232 3.8695-0.10232l-2.4278-2.2717 0.03979-2.1689zm-16.166 0.9865-1.5043 2.9714 0.35502 3.2701s1.0236-1.5247 1.7048-2.2748c1.3515-0.13474 2.7449-0.46364 3.7677-1.4392-0.82826-0.70319-2.6153-2.3508-2.6153-2.3508z" fill="var(--icon-color, currentcolor)"/>
    </g>
</svg>
