<svg width="100" height="101" viewBox="0 0 100 101" fill="none"
	xmlns="http://www.w3.org/2000/svg">
	<ellipse opacity="0.3" cx="47" cy="45.45" rx="31" ry="31.31" fill="#7A35A0"/>
	<ellipse opacity="0.5" cx="47" cy="45.45" rx="25" ry="25.25" fill="#7A35A0"/>
	<ellipse cx="47.5" cy="45.955" rx="18.5" ry="18.685" fill="#7A35A0"/>
	<path d="M66.7453 66.2806C64.4266 65.8903 58.7638 70.1838 56.5095 72.1353C54.9637 83.4545 69.5522 87.7479 75.4405 87.26C82.698 86.6587 86.2289 76.3638 86.5509 72.1353C87.7103 65.8903 82.5254 61.727 79.788 60.4259C79.305 69.208 76.8896 69.208 73.0251 69.6959C69.1606 70.1838 69.6437 66.7685 66.7453 66.2806Z" fill="#46494A"/>
	<path d="M40.5685 77.9901C43.2736 71.745 36.865 65.6301 32.8395 63.8412C31.2292 65.4675 25.1054 69.5007 22.7867 70.6717C20.4679 71.8426 17.312 66.6059 16.0239 63.8412C10.2271 77.5022 17.9562 85.3085 25.6852 86.7722C31.8684 87.9431 38.6362 81.568 40.5685 77.9901Z" fill="#46494A"/>
	<path d="M26.6706 85.5026C15.1015 83.2774 15.6528 72.7054 16.2037 68.8107C20.0601 81.0514 25.0181 82.7206 37.1376 77.713L29.9761 82.7206L35.4847 81.0514C32.1796 84.9462 29.4252 86.0324 26.6706 85.5026Z" fill="#636D71"/>
	<path d="M73.9163 85.3719C85.4854 83.1467 84.9341 72.5748 84.3832 68.68C79.976 83.7027 71.7126 82.5899 68.9582 81.4771L71.1618 83.7027L64.0002 81.4771C67.3053 85.3719 73.3653 85.4779 73.9163 85.3719Z" fill="#636D71"/>
	<path d="M30 71.6676L34.4071 66.66C35.2885 66.66 36.2434 67.7728 36.6107 68.3292L30 71.6676Z" fill="#636D71"/>
	<path d="M70.1904 72.7053L66.3342 67.1414C65.4528 67.1414 63.3961 68.2542 63.0289 68.8105L70.1904 72.7053Z" fill="#636D71"/>
	<path d="M65.2325 73.8182L60.8254 70.4798L59.7236 71.5926L65.2325 73.8182Z" fill="#636D71"/>
	<path d="M30.4238 38.471C33.129 41.9838 31.551 57.9867 30.4238 65.7929C34.2883 65.7929 35 67.1649 36.0355 68.2541C37.0709 69.3433 40.161 76.3405 40 78.7799H57.5C57.5 78.7799 56.7948 75.7278 59.5 72.2149C62.2052 68.7021 65.5264 67.094 68.1027 66.7687C65.784 56.6206 70.8401 39.9347 73.4164 33.1041C71.4842 28.8107 58 28.785 51.6786 30.6647L47.331 43.8378L45.8818 32.1284C37.7664 30.5671 32.1951 35.7062 30.4238 38.471Z" fill="url(#rumble-run-paint0_linear)"/>
	<path d="M33.4582 39.5834C35.8898 42.6549 33.3696 57.0154 32.3564 63.8411C35.8302 63.8411 37.567 65.8 38.0012 66.2266C41.1276 68.9568 41.1963 75.3692 41.0516 77.5023H55.8676C55.8676 77.5023 55.1448 73.6198 58.0712 69.9232C60.9976 66.2266 63.9093 65.6578 66.2251 65.3734C64.1409 56.5001 68.6842 40.8902 71 34.9178C69.2631 31.1637 60 31.31 54.7659 32.0882L47.0534 50.4493L43.7481 34.9178C37.1374 34.9178 35.0503 37.166 33.4582 39.5834Z" fill="#2FAEB7"/>
	<path d="M59.4077 58.4745L49.7465 61.4019C50.9059 65.6953 53.8412 67.094 55.6124 66.7687C61.8231 65.7929 59.8908 61.0766 59.4077 58.4745Z" fill="#3EC0BD"/>
	<path d="M44.0189 62.8655L37.67 57.4987C37.0259 59.125 36.0001 63.3534 38.7052 65.305C41.4104 67.2566 43.3749 64.4919 44.0189 62.8655Z" fill="#3EC0BD"/>
	<path d="M48.2973 71.1597L46.8481 67.7445L44.4328 71.1597H48.2973Z" fill="#3EC0BD"/>
	<path d="M59.4762 57.4987L49.815 61.4019C50.9743 65.6953 54.8066 66.1182 56.5779 65.7929C60.0559 65.4026 59.9593 60.1008 59.4762 57.4987Z" fill="#204335"/>
	<path d="M44.5013 62.3777L37.7384 57.4987C37.0943 59.125 36.4824 62.8655 39.1876 64.8171C41.8927 66.7687 43.8572 64.004 44.5013 62.3777Z" fill="#204335"/>
	<path d="M48.3658 70.6718L46.9167 67.2566L44.9844 70.6718H48.3658Z" fill="#204335"/>
	<path d="M59.7154 60.3812C56.7154 60.7179 50.208 61.3557 49.808 61.3557L59.504 57.3627C59.7154 58.5035 59.7154 59.4543 59.7154 60.3812Z" fill="#0C241A"/>
	<path d="M37.3564 58.7909L44.5324 62.4211C42.3865 60.7833 37.7226 57.387 37.7226 57.387C37.7226 57.2643 37.4053 58.2859 37.3564 58.7909Z" fill="#0C241A"/>
	<defs>
		<linearGradient id="rumble-run-paint0_linear" x1="51.9201" y1="29.8628" x2="51.9201" y2="78.9661" gradientUnits="userSpaceOnUse">
			<stop stop-color="#64EEEB"/>
			<stop offset="1" stop-color="#237371"/>
		</linearGradient>
	</defs>
</svg>
