<?xml version="1.0" encoding="UTF-8"?>
<svg width="128" height="128" version="1.1" viewBox="0 0 33.866666 33.866668" style="padding: 15px; opacity: 0.6;"
    xmlns="http://www.w3.org/2000/svg">
    <path d="m25.079 4.5818s-7.5537 7.0638-10.657 9.3504c-3.1032 2.2866-7.1862 3.7157-10.289 3.7157-0.12249 2.2049-2.4091 5.839-2.4091 5.839 1.8374-1.6741 5.2264-2.695 9.3504-4.8182 1.9599 2.0824 4.9931 2.9981 7.6356 1.7559 3.3998-1.5982 3.5928-6.043 3.062-7.717 0.89829-0.7758 2.7961-1.6358 2.7961-1.6358s0.28098-0.13808 0.79736 2.6566c0.16332 5.6347-3.4708 9.636-8.0031 10.33-4.5323 0.69413-8.6564-2.6131-8.6564-2.6131s-0.81652 0.24486-1.9598 0.8165c1.7558 2.8582 8.5339 3.7567 8.5339 3.7567l2.5724 3.2663s2.0008-2.3683 2.9807-4.1649c1.1433-0.3879 3.9236-1.4079 6.1248-4.8586 2.0902-3.2768 1.5514-10.494 1.5514-10.494s0.65317-0.32658 3.6339-1.3065c-2.4499-2.6949-7.0638-3.8792-7.0638-3.8792zm-6.043 9.7179s1.3167 2.0149-0.44897 2.8992c-1.539 0.77077-2.4502-1.1433-2.4502-1.1433z" fill="var(--icon-color, currentcolor)"/>
</svg>
