<?xml version="1.0" encoding="UTF-8"?>
<svg width="128" height="128" version="1.1" viewBox="0 0 33.866666 33.866668" style="padding: 15px; opacity: 0.6;"
    xmlns="http://www.w3.org/2000/svg"
    xmlns:xlink="http://www.w3.org/1999/xlink">
    <g>
        <path d="m25.345 3.1348-3.9104 2.0919-1.5462-0.09095-1.0609-1.2123-1.3338 1.2728s-7.5169 0.78162-7.8507 1.5766c-0.05511 0.58068-0.31098 0.96788-0.7028 1.1446-0.45003 0.20301-1.0686 0.087056-1.7074-0.3793 0 0-3.4858 1.5155-4.0163 3.2055 6.4264 5.6382 5.0317 13.065 5.0317 13.065s-2.213-1.7886-5.3656-2.6071c4.1832 3.5163 3.9109 5.9114 3.729 6.8208 0.18188 0.60626 2.1821 1.3942 5.0012 2.5461 0.21219-1.6672 1.4248-2.2733 2.4252-3.0918-0.42438 1.0003-0.2727 0.84862-0.42426 3.0009 2.8191 0.6972 5.6382-0.18199 7.0326-0.9095 0.09094-0.93971-1.7582-2.819-3.3042-4.2437 0.75783-0.21219 1.7885 0.18219 2.9404 1.1219 0.06063-1.3944 0.81854-1.9402 2.0614-3.8499-0.36376 2.0613 0.42419 3.759 1.2123 5.4565 0.33344-0.03032 0.8188 0.0302 2.8195-3.668-4.1529-4.6379-4.0013-9.2155-4.0013-9.2155l8.6088-5.2741s-0.21222-0.27332-3.0313 0.090434c1.0913-3.6376-0.27285-3.9104-0.27285-3.9104-2.031 6.4264-2.4555 5.396-5.2746 6.2751-0.6972-3.5163 2.9404-9.2155 2.9404-9.2155zm-8.2992 3.9812c1.4321 5.672e-4 2.9694 0.12342 4.6013 0.41444-0.30618 2.2107-1.896 3.0037-4.1072 4.0318-1.6513 0.76774-5.1563 0.48731-5.1563 0.48731l0.50281 3.1807s-2.6672-2.1825-3.0613-3.9104c-2.3424 0.20179-3.2739 0.42431-5.1837-0.63665 0 0 4.6713-3.5703 12.404-3.5672zm-10.673 11.355c-0.085739 1.0289 0.085451 1.1574-0.55759 1.9291 0 0 1.3292 1.0291 1.5436 1.372 0.21435-1.1146 0.12861-2.7009-0.98599-3.3011z" fill="var(--icon-color, currentcolor)"/>
    </g>
</svg>
