<svg width="65" height="60" viewBox="0 0 65 60" fill="none" xmlns="http://www.w3.org/2000/svg">
<path d="M30.9466 12.1905L28.7531 9H26.759L25.762 9.79763H14.3958L13 11.7917L15.1935 13.9852L15.9911 33.7264L14.5953 40.905C14.5953 40.905 26.759 50.4765 32.5418 51.2741C37.168 50.1575 46.1679 43.032 50.289 39.5092L49.2919 33.7264V15.9792L52.283 11.7917L50.6878 9.79763H38.1252L37.527 9H35.1341L33.7383 12.1905H30.9466Z" stroke="#FFB948" stroke-width="0.797625"/>
<path d="M45.1043 13.9851H19.1815V37.7145L32.5417 45.8901L45.1043 37.7145V13.9851Z" stroke="#FFB948" stroke-width="0.797625"/>
<path d="M25.218 14.7762C25.3718 14.5121 25.7534 14.5121 25.9072 14.7762L27.2792 17.1317C27.3355 17.2285 27.43 17.2971 27.5394 17.3208L30.2035 17.8977C30.5023 17.9624 30.6202 18.3253 30.4165 18.5532L28.6003 20.5858C28.5257 20.6693 28.4896 20.7803 28.5009 20.8917L28.7755 23.6038C28.8063 23.9079 28.4976 24.1321 28.2179 24.0089L25.7234 22.9097C25.621 22.8645 25.5043 22.8645 25.4018 22.9097L22.9074 24.0089C22.6277 24.1321 22.319 23.9079 22.3498 23.6038L22.6244 20.8917C22.6356 20.7803 22.5996 20.6693 22.525 20.5858L20.7087 18.5532C20.5051 18.3253 20.623 17.9624 20.9217 17.8977L23.5859 17.3208C23.6953 17.2971 23.7897 17.2285 23.8461 17.1317L25.218 14.7762Z" fill="#FFB948"/>
<path d="M30.2034 17.8977L27.5372 17.3203C27.429 17.2969 27.3354 17.2295 27.2788 17.1344L25.8638 14.7548C25.8006 14.6485 25.6861 14.5834 25.5625 14.5834V22.5787C25.5625 22.7368 25.6558 22.8799 25.8005 22.9437L28.2177 24.0089C28.4974 24.1321 28.8061 23.9078 28.7754 23.6037L28.5008 20.8917C28.4895 20.7803 28.5256 20.6693 28.6002 20.5858L30.4164 18.5532C30.62 18.3252 30.5021 17.9624 30.2034 17.8977Z" fill="#8E5B23"/>
<path d="M25.218 24.7465C25.3718 24.4823 25.7534 24.4823 25.9072 24.7465L27.2792 27.1019C27.3355 27.1987 27.43 27.2673 27.5394 27.291L30.2035 27.8679C30.5023 27.9326 30.6202 28.2955 30.4165 28.5234L28.6003 30.5561C28.5257 30.6396 28.4896 30.7506 28.5009 30.862L28.7755 33.574C28.8063 33.8781 28.4976 34.1023 28.2179 33.9791L25.7234 32.8799C25.621 32.8347 25.5043 32.8347 25.4018 32.8799L22.9074 33.9791C22.6277 34.1023 22.319 33.8781 22.3498 33.574L22.6244 30.862C22.6356 30.7506 22.5996 30.6396 22.525 30.5561L20.7087 28.5234C20.5051 28.2955 20.623 27.9326 20.9217 27.8679L23.5859 27.291C23.6953 27.2673 23.7897 27.1987 23.8461 27.1019L25.218 24.7465Z" fill="#FFB948"/>
<path d="M25.218 34.3181C25.3718 34.054 25.7534 34.054 25.9072 34.3181L27.2792 36.6736C27.3355 36.7703 27.43 36.8389 27.5394 36.8626L30.2035 37.4395C30.5023 37.5042 30.6202 37.8671 30.4165 38.095L28.6003 40.1277C28.5257 40.2112 28.4896 40.3222 28.5009 40.4336L28.7755 43.1456C28.8063 43.4497 28.4976 43.674 28.2179 43.5507L25.7234 42.4515C25.621 42.4064 25.5043 42.4064 25.4018 42.4515L22.9074 43.5507C22.6277 43.674 22.319 43.4497 22.3498 43.1456L22.6244 40.4336C22.6356 40.3222 22.5996 40.2112 22.525 40.1277L20.7087 38.095C20.5051 37.8671 20.623 37.5042 20.9217 37.4395L23.5859 36.8626C23.6953 36.8389 23.7897 36.7703 23.8461 36.6736L25.218 34.3181Z" fill="#FFB948"/>
<path d="M38.3788 14.7762C38.5326 14.5121 38.9142 14.5121 39.068 14.7762L40.4399 17.1317C40.4963 17.2285 40.5907 17.2971 40.7002 17.3208L43.3643 17.8977C43.663 17.9624 43.7809 18.3253 43.5773 18.5532L41.761 20.5858C41.6864 20.6693 41.6504 20.7803 41.6617 20.8917L41.9362 23.6038C41.967 23.9079 41.6583 24.1321 41.3786 24.0089L38.8842 22.9097C38.7817 22.8645 38.665 22.8645 38.5626 22.9097L36.0681 24.0089C35.7884 24.1321 35.4797 23.9079 35.5105 23.6038L35.7851 20.8917C35.7964 20.7803 35.7603 20.6693 35.6857 20.5858L33.8695 18.5532C33.6659 18.3253 33.7838 17.9624 34.0825 17.8977L36.7466 17.3208C36.8561 17.2971 36.9505 17.2285 37.0068 17.1317L38.3788 14.7762Z" fill="#FFB948"/>
<path d="M43.3643 17.8977L40.6981 17.3203C40.5899 17.2969 40.4963 17.2295 40.4397 17.1344L39.0247 14.7548C38.9615 14.6485 38.847 14.5834 38.7234 14.5834V22.5787C38.7234 22.7368 38.8167 22.8799 38.9614 22.9437L41.3786 24.0089C41.6583 24.1321 41.967 23.9078 41.9362 23.6037L41.6617 20.8917C41.6504 20.7803 41.6864 20.6693 41.761 20.5858L43.5773 18.5532C43.7809 18.3252 43.663 17.9624 43.3643 17.8977Z" fill="#8E5B23"/>
<path d="M30.2034 27.868L27.5372 27.2906C27.429 27.2672 27.3354 27.1998 27.2788 27.1047L25.8638 24.7251C25.8006 24.6188 25.6861 24.5537 25.5625 24.5537V32.5491C25.5625 32.7071 25.6558 32.8503 25.8005 32.914L28.2177 33.9792C28.4974 34.1025 28.8061 33.8782 28.7754 33.5741L28.5008 30.8621C28.4895 30.7507 28.5256 30.6397 28.6002 30.5562L30.4164 28.5235C30.62 28.2956 30.5021 27.9327 30.2034 27.868Z" fill="#8E5B23"/>
<path d="M38.3788 34.3181C38.5326 34.054 38.9142 34.054 39.068 34.3181L40.4399 36.6736C40.4963 36.7703 40.5907 36.8389 40.7002 36.8626L43.3643 37.4395C43.663 37.5042 43.7809 37.8671 43.5773 38.095L41.761 40.1277C41.6864 40.2112 41.6504 40.3222 41.6617 40.4336L41.9362 43.1456C41.967 43.4497 41.6583 43.674 41.3786 43.5507L38.8842 42.4515C38.7817 42.4064 38.665 42.4064 38.5626 42.4515L36.0681 43.5507C35.7884 43.674 35.4797 43.4497 35.5105 43.1456L35.7851 40.4336C35.7964 40.3222 35.7603 40.2112 35.6857 40.1277L33.8695 38.095C33.6659 37.8671 33.7838 37.5042 34.0825 37.4395L36.7466 36.8626C36.8561 36.8389 36.9505 36.7703 37.0068 36.6736L38.3788 34.3181Z" fill="#FFB948"/>
<path d="M43.3643 37.4394L40.6981 36.862C40.5899 36.8386 40.4963 36.7713 40.4397 36.6761L39.0247 34.2965C38.9615 34.1902 38.847 34.1251 38.7234 34.1251V42.1205C38.7234 42.2785 38.8167 42.4217 38.9614 42.4854L41.3786 43.5506C41.6583 43.6739 41.967 43.4496 41.9362 43.1455L41.6617 40.4335C41.6504 40.3221 41.6864 40.2111 41.761 40.1276L43.5773 38.0949C43.7809 37.867 43.663 37.5041 43.3643 37.4394Z" fill="#8E5B23"/>
<path d="M30.2034 37.4394L27.5372 36.862C27.429 36.8386 27.3354 36.7713 27.2788 36.6761L25.8638 34.2965C25.8006 34.1902 25.6861 34.1251 25.5625 34.1251V42.1205C25.5625 42.2785 25.6558 42.4217 25.8005 42.4854L28.2177 43.5506C28.4974 43.6739 28.8061 43.4496 28.7754 43.1455L28.5008 40.4335C28.4895 40.3221 28.5256 40.2111 28.6002 40.1276L30.4164 38.0949C30.62 37.867 30.5021 37.5041 30.2034 37.4394Z" fill="#8E5B23"/>
<path d="M38.3788 24.7465C38.5326 24.4823 38.9142 24.4823 39.068 24.7465L40.4399 27.1019C40.4963 27.1987 40.5907 27.2673 40.7002 27.291L43.3643 27.8679C43.663 27.9326 43.7809 28.2955 43.5773 28.5234L41.761 30.5561C41.6864 30.6396 41.6504 30.7506 41.6617 30.862L41.9362 33.574C41.967 33.8781 41.6583 34.1023 41.3786 33.9791L38.8842 32.8799C38.7817 32.8347 38.665 32.8347 38.5626 32.8799L36.0681 33.9791C35.7884 34.1023 35.4797 33.8781 35.5105 33.574L35.7851 30.862C35.7964 30.7506 35.7603 30.6396 35.6857 30.5561L33.8695 28.5234C33.6659 28.2955 33.7838 27.9326 34.0825 27.8679L36.7466 27.291C36.8561 27.2673 36.9505 27.1987 37.0068 27.1019L38.3788 24.7465Z" fill="#FFB948"/>
<path d="M43.3643 27.868L40.6981 27.2906C40.5899 27.2672 40.4963 27.1998 40.4397 27.1047L39.0247 24.7251C38.9615 24.6188 38.847 24.5537 38.7234 24.5537V32.5491C38.7234 32.7071 38.8167 32.8503 38.9614 32.914L41.3786 33.9792C41.6583 34.1025 41.967 33.8782 41.9362 33.5741L41.6617 30.8621C41.6504 30.7507 41.6864 30.6397 41.761 30.5562L43.5773 28.5235C43.7809 28.2956 43.663 27.9327 43.3643 27.868Z" fill="#8E5B23"/>
</svg>
