<svg width="65" height="60" viewBox="0 0 65 60" fill="none" xmlns="http://www.w3.org/2000/svg">
<mask id="path-1-inside-1" fill="white">
<path d="M41.5784 19.5098C41.5784 19.5098 41.5784 21.4989 40.7943 23.5152C40.7663 23.5697 40.2342 24.4459 40.2062 24.5004C40.2062 24.5004 40.6823 23.7059 40.6823 23.6787C40.2902 24.7686 39.1981 25.5315 37.9379 25.5315C37.6578 25.5315 37.3778 25.477 37.0978 25.4225C37.0417 25.3953 37.0137 25.3953 36.9577 25.368C36.9297 25.368 36.9017 25.3408 36.8737 25.3408C35.3335 24.7413 34.2974 22.8613 35.8376 20.3C39.2541 14.6598 36.2576 11.8534 32.2811 9.01965C32.2811 9.01965 33.3172 16.2947 24.832 22.7523C22.4517 17.9023 17.439 14.9323 17.439 14.9323C21.3875 22.3708 19.8753 26.8121 18.4751 30.4632C17.831 32.1526 17.467 34.1416 17.467 36.0489C17.467 36.0762 17.467 36.1034 17.467 36.1579C17.467 36.1852 17.467 36.2124 17.467 36.2669C17.467 44.3866 24.2999 50.9804 32.7011 50.9804C37.0417 50.9804 40.9623 49.2094 43.7627 46.4029C45.1349 45.095 46.199 43.4602 46.9271 41.5529C47.5432 39.9998 47.9073 38.3377 47.9353 36.5939C47.9353 36.5394 47.9353 36.5121 47.9353 36.4576C48.1873 31.3079 46.2831 23.161 41.5784 19.5098ZM40.8223 36.9753C40.7943 37.2206 40.7663 37.4658 40.7103 37.7383C40.6263 38.256 40.5142 38.7737 40.5142 39.2914C40.5142 39.7273 40.2622 40.027 40.0382 40.3268C39.6461 40.8172 39.4501 41.3622 39.4221 41.9888C39.4221 42.2068 39.3381 42.4248 39.2821 42.6428C39.2541 42.7245 39.1981 42.779 39.142 42.8335C38.582 43.3512 37.9939 43.8417 37.4618 44.3866C36.9577 44.9043 36.3416 45.2858 35.6695 45.5855H35.6415C34.9975 45.9942 34.3254 46.1849 33.5693 46.0487C33.2052 45.9942 32.8972 46.1032 32.5611 46.2394C31.917 46.5119 31.2729 46.7026 30.5448 46.7571C30.1528 46.7844 29.8167 46.7571 29.4807 46.5664C29.2286 46.4301 28.8646 46.4029 28.5565 46.4029C28.1925 46.4029 27.8284 46.3484 27.4644 46.2122C27.2124 46.1032 26.9323 46.1032 26.6803 46.0214C26.5403 45.9669 26.3722 45.9124 26.2602 45.8035C26.1482 45.6945 26.0642 45.5582 25.9802 45.422C25.8122 45.204 25.8122 45.1768 26.0642 45.0678C26.4002 44.9043 26.7083 44.6863 27.0723 44.5501C27.4644 44.3866 27.8564 44.2776 28.2765 44.1959C28.7526 44.1141 29.1166 43.8961 29.4247 43.5419C29.7887 43.1332 30.3208 43.0787 30.7969 42.997C31.693 42.8607 32.4771 42.4793 33.2892 42.1523C33.4292 42.0978 33.5412 41.9888 33.6533 41.8799C34.2413 41.3622 34.8014 40.8445 35.3615 40.2995C35.5575 40.1088 35.6976 39.8908 35.8376 39.6728C36.0616 39.3731 36.2576 39.0734 36.4537 38.7464C36.5097 38.6647 36.5377 38.5829 36.5377 38.5012C36.5377 38.1742 36.5937 37.8473 36.5377 37.5475C36.3696 36.8664 36.4537 36.1852 36.4537 35.504C36.4537 35.068 36.3136 34.6866 36.0616 34.3051C35.8096 33.8964 35.5575 33.4877 35.3055 33.079C35.1935 32.861 35.0255 32.7248 34.7734 32.643C33.8773 32.3706 32.9532 32.3161 32.029 32.4251C31.469 32.4795 30.9089 32.7248 30.3488 32.861C30.2928 32.8883 30.2368 32.9155 30.2088 32.9428C29.8167 33.297 29.4247 33.6512 29.0326 34.0054C28.9766 34.0599 28.8926 34.1416 28.8646 34.2506C28.7526 34.8501 28.5845 35.4767 28.5565 36.0762C28.5285 36.5121 28.5565 37.0026 28.8926 37.3841C29.0606 37.5748 29.2006 37.7655 29.3687 37.9562C29.4807 38.0925 29.6487 38.1197 29.8167 38.0652C30.0968 37.9562 30.3768 37.82 30.7128 37.6838C30.5448 37.2206 30.4048 36.7846 30.2368 36.4032C30.8249 35.9672 31.497 36.0217 32.1411 36.0217C32.4211 36.0217 32.6731 36.1307 32.9532 36.1852C32.9812 36.1852 33.0092 36.2124 33.0372 36.2397C33.6253 36.9208 33.9893 37.6565 33.9613 38.5557C33.9613 38.9371 33.8773 39.2914 33.8493 39.6728C33.8493 39.7273 33.7933 39.7818 33.7653 39.8091C33.3172 40.1905 32.8412 40.572 32.3931 40.9534C32.3091 41.0079 32.1971 41.0624 32.113 41.0624C31.3849 41.1714 30.6288 41.2804 29.9287 41.5801C29.8727 41.6074 29.8447 41.6346 29.7887 41.6074C29.2566 41.4984 28.6966 41.5256 28.2765 41.1442C28.1925 41.0624 28.1365 40.9262 28.0525 40.8172C27.9125 40.6537 27.7724 40.4902 27.6044 40.354C26.9043 39.8091 26.2322 39.2641 25.8682 38.4194C25.7001 38.0107 25.3361 37.6838 25.028 37.3568C24.888 37.1933 24.804 37.0298 24.776 36.7846C24.608 35.9399 24.72 35.068 24.692 34.2234C24.692 34.0326 24.608 33.8419 24.524 33.6784C24.44 33.4604 24.468 33.3787 24.692 33.2425C25.084 33.0245 25.4481 32.7793 25.7841 32.5068C26.0362 32.2888 26.2322 32.0163 26.4002 31.7439C26.6803 31.3352 27.0443 31.0082 27.4644 30.763C28.2765 30.218 29.0886 29.6731 29.9567 29.1826C30.3208 28.9919 30.7689 28.9102 31.1609 28.8284C31.2449 28.8012 31.3849 28.9102 31.441 28.9919C31.665 29.3189 31.777 29.3734 32.113 29.1826C32.5891 28.9102 32.9532 28.9646 33.3452 29.3461C33.4572 29.4551 33.7093 29.5096 33.8773 29.5368C34.2413 29.5641 34.5774 29.5368 34.9414 29.5641C35.0255 29.5641 35.1655 29.6186 35.2215 29.6731C35.3335 29.8638 35.5015 29.8911 35.6976 29.8911C35.8656 29.8638 36.0056 29.9456 36.0896 30.0818C36.2016 30.2998 36.3977 30.3543 36.6217 30.2998C36.7897 30.2725 36.9857 30.218 37.1538 30.1635C37.2938 30.109 37.4058 30.1363 37.4898 30.2453C37.9379 30.7357 38.4139 31.1989 38.834 31.7166C39.2541 32.2071 39.6461 32.7248 40.0382 33.2425C40.1222 33.3787 40.1782 33.5422 40.2062 33.7057C40.3462 34.3324 40.4862 34.9863 40.6263 35.613C40.6823 35.8855 40.8223 36.1579 40.8783 36.4304C40.8503 36.5394 40.8503 36.7574 40.8223 36.9753Z"/>
</mask>
<path d="M41.5784 19.5098C41.5784 19.5098 41.5784 21.4989 40.7943 23.5152C40.7663 23.5697 40.2342 24.4459 40.2062 24.5004C40.2062 24.5004 40.6823 23.7059 40.6823 23.6787C40.2902 24.7686 39.1981 25.5315 37.9379 25.5315C37.6578 25.5315 37.3778 25.477 37.0978 25.4225C37.0417 25.3953 37.0137 25.3953 36.9577 25.368C36.9297 25.368 36.9017 25.3408 36.8737 25.3408C35.3335 24.7413 34.2974 22.8613 35.8376 20.3C39.2541 14.6598 36.2576 11.8534 32.2811 9.01965C32.2811 9.01965 33.3172 16.2947 24.832 22.7523C22.4517 17.9023 17.439 14.9323 17.439 14.9323C21.3875 22.3708 19.8753 26.8121 18.4751 30.4632C17.831 32.1526 17.467 34.1416 17.467 36.0489C17.467 36.0762 17.467 36.1034 17.467 36.1579C17.467 36.1852 17.467 36.2124 17.467 36.2669C17.467 44.3866 24.2999 50.9804 32.7011 50.9804C37.0417 50.9804 40.9623 49.2094 43.7627 46.4029C45.1349 45.095 46.199 43.4602 46.9271 41.5529C47.5432 39.9998 47.9073 38.3377 47.9353 36.5939C47.9353 36.5394 47.9353 36.5121 47.9353 36.4576C48.1873 31.3079 46.2831 23.161 41.5784 19.5098ZM40.8223 36.9753C40.7943 37.2206 40.7663 37.4658 40.7103 37.7383C40.6263 38.256 40.5142 38.7737 40.5142 39.2914C40.5142 39.7273 40.2622 40.027 40.0382 40.3268C39.6461 40.8172 39.4501 41.3622 39.4221 41.9888C39.4221 42.2068 39.3381 42.4248 39.2821 42.6428C39.2541 42.7245 39.1981 42.779 39.142 42.8335C38.582 43.3512 37.9939 43.8417 37.4618 44.3866C36.9577 44.9043 36.3416 45.2858 35.6695 45.5855H35.6415C34.9975 45.9942 34.3254 46.1849 33.5693 46.0487C33.2052 45.9942 32.8972 46.1032 32.5611 46.2394C31.917 46.5119 31.2729 46.7026 30.5448 46.7571C30.1528 46.7844 29.8167 46.7571 29.4807 46.5664C29.2286 46.4301 28.8646 46.4029 28.5565 46.4029C28.1925 46.4029 27.8284 46.3484 27.4644 46.2122C27.2124 46.1032 26.9323 46.1032 26.6803 46.0214C26.5403 45.9669 26.3722 45.9124 26.2602 45.8035C26.1482 45.6945 26.0642 45.5582 25.9802 45.422C25.8122 45.204 25.8122 45.1768 26.0642 45.0678C26.4002 44.9043 26.7083 44.6863 27.0723 44.5501C27.4644 44.3866 27.8564 44.2776 28.2765 44.1959C28.7526 44.1141 29.1166 43.8961 29.4247 43.5419C29.7887 43.1332 30.3208 43.0787 30.7969 42.997C31.693 42.8607 32.4771 42.4793 33.2892 42.1523C33.4292 42.0978 33.5412 41.9888 33.6533 41.8799C34.2413 41.3622 34.8014 40.8445 35.3615 40.2995C35.5575 40.1088 35.6976 39.8908 35.8376 39.6728C36.0616 39.3731 36.2576 39.0734 36.4537 38.7464C36.5097 38.6647 36.5377 38.5829 36.5377 38.5012C36.5377 38.1742 36.5937 37.8473 36.5377 37.5475C36.3696 36.8664 36.4537 36.1852 36.4537 35.504C36.4537 35.068 36.3136 34.6866 36.0616 34.3051C35.8096 33.8964 35.5575 33.4877 35.3055 33.079C35.1935 32.861 35.0255 32.7248 34.7734 32.643C33.8773 32.3706 32.9532 32.3161 32.029 32.4251C31.469 32.4795 30.9089 32.7248 30.3488 32.861C30.2928 32.8883 30.2368 32.9155 30.2088 32.9428C29.8167 33.297 29.4247 33.6512 29.0326 34.0054C28.9766 34.0599 28.8926 34.1416 28.8646 34.2506C28.7526 34.8501 28.5845 35.4767 28.5565 36.0762C28.5285 36.5121 28.5565 37.0026 28.8926 37.3841C29.0606 37.5748 29.2006 37.7655 29.3687 37.9562C29.4807 38.0925 29.6487 38.1197 29.8167 38.0652C30.0968 37.9562 30.3768 37.82 30.7128 37.6838C30.5448 37.2206 30.4048 36.7846 30.2368 36.4032C30.8249 35.9672 31.497 36.0217 32.1411 36.0217C32.4211 36.0217 32.6731 36.1307 32.9532 36.1852C32.9812 36.1852 33.0092 36.2124 33.0372 36.2397C33.6253 36.9208 33.9893 37.6565 33.9613 38.5557C33.9613 38.9371 33.8773 39.2914 33.8493 39.6728C33.8493 39.7273 33.7933 39.7818 33.7653 39.8091C33.3172 40.1905 32.8412 40.572 32.3931 40.9534C32.3091 41.0079 32.1971 41.0624 32.113 41.0624C31.3849 41.1714 30.6288 41.2804 29.9287 41.5801C29.8727 41.6074 29.8447 41.6346 29.7887 41.6074C29.2566 41.4984 28.6966 41.5256 28.2765 41.1442C28.1925 41.0624 28.1365 40.9262 28.0525 40.8172C27.9125 40.6537 27.7724 40.4902 27.6044 40.354C26.9043 39.8091 26.2322 39.2641 25.8682 38.4194C25.7001 38.0107 25.3361 37.6838 25.028 37.3568C24.888 37.1933 24.804 37.0298 24.776 36.7846C24.608 35.9399 24.72 35.068 24.692 34.2234C24.692 34.0326 24.608 33.8419 24.524 33.6784C24.44 33.4604 24.468 33.3787 24.692 33.2425C25.084 33.0245 25.4481 32.7793 25.7841 32.5068C26.0362 32.2888 26.2322 32.0163 26.4002 31.7439C26.6803 31.3352 27.0443 31.0082 27.4644 30.763C28.2765 30.218 29.0886 29.6731 29.9567 29.1826C30.3208 28.9919 30.7689 28.9102 31.1609 28.8284C31.2449 28.8012 31.3849 28.9102 31.441 28.9919C31.665 29.3189 31.777 29.3734 32.113 29.1826C32.5891 28.9102 32.9532 28.9646 33.3452 29.3461C33.4572 29.4551 33.7093 29.5096 33.8773 29.5368C34.2413 29.5641 34.5774 29.5368 34.9414 29.5641C35.0255 29.5641 35.1655 29.6186 35.2215 29.6731C35.3335 29.8638 35.5015 29.8911 35.6976 29.8911C35.8656 29.8638 36.0056 29.9456 36.0896 30.0818C36.2016 30.2998 36.3977 30.3543 36.6217 30.2998C36.7897 30.2725 36.9857 30.218 37.1538 30.1635C37.2938 30.109 37.4058 30.1363 37.4898 30.2453C37.9379 30.7357 38.4139 31.1989 38.834 31.7166C39.2541 32.2071 39.6461 32.7248 40.0382 33.2425C40.1222 33.3787 40.1782 33.5422 40.2062 33.7057C40.3462 34.3324 40.4862 34.9863 40.6263 35.613C40.6823 35.8855 40.8223 36.1579 40.8783 36.4304C40.8503 36.5394 40.8503 36.7574 40.8223 36.9753Z" stroke="#FFB948" stroke-width="2" mask="url(#path-1-inside-1)"/>
</svg>
