<svg width="65" height="60" viewBox="0 0 65 60" fill="none" xmlns="http://www.w3.org/2000/svg">
<path d="M32.5133 38.4998V38.4997L32.5008 38.5H32.4994L32.4994 38.4998H32.4869C32.4802 38.4998 32.4765 38.498 32.4746 38.4967L32.4743 38.4966C32.34 38.4058 30.626 37.242 28.6445 35.6311C26.6507 34.0102 24.4393 31.9786 23.2644 30.1526C23.2642 30.1523 23.2639 30.1518 23.2635 30.1511L23.2555 30.1384L23.2555 30.1384C22.7607 29.3567 22.5 28.4609 22.5 27.546C22.5 24.7869 24.8656 22.5 27.8241 22.5C29.5338 22.5 31.1132 23.2736 32.1058 24.546L32.5 25.0513L32.8942 24.546C33.8868 23.2736 35.4665 22.5 37.1759 22.5C40.1344 22.5 42.5 24.7869 42.5 27.546C42.5 28.4609 42.2393 29.3567 41.7445 30.1384L41.7406 30.1444L41.738 30.1488L41.7368 30.1508C40.5623 31.9772 38.3501 34.0096 36.3557 35.6311C34.3742 37.242 32.6601 38.4058 32.5258 38.4965L32.5244 38.4974C32.5238 38.4979 32.5206 38.4998 32.5133 38.4998Z" fill="#FFB948" stroke="#FFB948"/>
<rect x="21.757" y="13.7837" width="0.849365" height="4.21622" rx="0.424682" fill="#FFB948"/>
<rect x="24.3049" y="15.4702" width="0.843243" height="4.24682" rx="0.421622" transform="rotate(90 24.3049 15.4702)" fill="#FFB948"/>
<g opacity="0.4">
<rect x="14.5243" y="22.373" width="1.23775" height="3.68649" rx="0.618875" fill="#FFB948"/>
<rect x="17.0001" y="23.6021" width="1.22883" height="3.71325" rx="0.614415" transform="rotate(90 17.0001 23.6021)" fill="#FFB948"/>
</g>
<g opacity="0.4">
<rect x="23.28" y="38.8396" width="1.35982" height="4.05006" rx="0.67991" fill="#FFB948"/>
<rect x="26" y="40.1895" width="1.35002" height="4.07946" rx="0.67501" transform="rotate(90 26 40.1895)" fill="#FFB948"/>
</g>
<rect x="15.7443" y="31.1079" width="1.18695" height="5.892" rx="0.593477" fill="#FFB948"/>
<rect x="19.3049" y="33.4648" width="1.1784" height="5.93477" rx="0.5892" transform="rotate(90 19.3049 33.4648)" fill="#FFB948"/>
</svg>
