<svg width="30" height="30" viewBox="0 0 30 30" fill="none"
	xmlns="http://www.w3.org/2000/svg">
	<circle cx="15" cy="15" r="15" fill="#DFB3D3"/>
	<circle cx="14.9999" cy="14.9999" r="13" fill="var(--icon-color-secondary, #40032E)"/>
	<path d="M9.63916 19.6417L16.9549 7.70521M9.63916 19.6417L8.93952 24.2834C8.80782 25.1572 9.79115 25.7599 10.51 25.246L14.3285 22.5158M9.63916 19.6417L11.9838 21.0787L14.3285 22.5158M14.3285 22.5158L21.6442 10.5793M16.9549 7.70521L17.4774 6.85261C17.766 6.38173 18.3817 6.23395 18.8526 6.52255L21.8367 8.35149C22.3076 8.64008 22.4554 9.25576 22.1668 9.72665L21.6442 10.5793M16.9549 7.70521L19.2996 9.14223L21.6442 10.5793" stroke="var(--icon-color, #DFB3D3)"/>
</svg>
 