<svg version="1.0" xmlns="http://www.w3.org/2000/svg"
 width="30.000000pt" height="30.000000pt" viewBox="0 0 30 30"
 preserveAspectRatio="xMidYMid meet">
<g transform="translate(0.000000,30.000000) scale(0.003891,-0.003891)"
fill="#000000" stroke="none">
<path d="M3640 5043 c-718 -74 -1473 -426 -2117 -986 -219 -192 -212 -223 112
-486 313 -255 645 -461 1005 -625 284 -129 682 -237 983 -266 156 -15 437 -8
587 15 668 103 1370 449 1966 968 99 86 124 114 141 155 l21 50 -28 49 c-47
83 -345 327 -620 508 -222 146 -530 312 -763 411 -79 34 -405 127 -556 158
-182 39 -355 56 -536 54 -88 0 -176 -3 -195 -5z m605 -272 c309 -54 560 -138
864 -291 282 -141 656 -390 813 -541 90 -85 67 -122 -192 -315 -500 -370 -969
-585 -1477 -675 -150 -27 -490 -37 -653 -20 -126 13 -283 42 -380 71 -36 10
-105 30 -155 44 -189 53 -549 222 -780 366 -209 130 -476 328 -530 392 -41 48
-34 83 28 143 67 65 288 228 447 331 427 276 878 451 1306 508 164 22 551 15
709 -13z" fill="var(--icon-color, currentcolor)"/>
<path d="M3691 4540 c-40 -9 -116 -39 -169 -65 -137 -68 -222 -155 -290 -296
-113 -234 -110 -419 9 -656 44 -87 64 -115 121 -168 80 -74 230 -153 340 -179
240 -57 537 45 689 236 56 71 126 217 144 303 46 218 -25 465 -182 635 -58 63
-80 78 -177 125 -177 85 -324 105 -485 65z" fill="var(--icon-color, currentcolor)"/>
</g>
</svg>
