<svg width="30" height="30" viewBox="0 0 30 30" fill="none" xmlns="http://www.w3.org/2000/svg">
<path fill-rule="evenodd" clip-rule="evenodd" d="M15 5L19.7896 12.5284L27 9.7262L23.1464 22.5204C22.9891 23.8982 19.402 25 15 25C10.5983 25 7.01135 23.8984 6.85366 22.5206L3 9.7262L10.2104 12.5284L15 5ZM23.0503 19.3031L22.4293 21.365C21.1492 20.4726 18.3042 19.8519 15 19.8519C11.6958 19.8519 8.85079 20.4727 7.57072 21.365L6.94967 19.3031C7.27535 19.1272 7.66918 18.9538 8.13142 18.7903C9.84116 18.1857 12.2695 17.7927 15 17.7927C17.7305 17.7927 20.1589 18.1857 21.8686 18.7903C22.3308 18.9538 22.7247 19.1272 23.0503 19.3031ZM23.3519 18.3017L25.4174 11.4444L19.3811 13.7903L15 6.90403L10.6189 13.7903L4.58265 11.4444L6.64806 18.3017C8.49061 17.3714 11.5444 16.763 15 16.763C18.4556 16.763 21.5094 17.3714 23.3519 18.3017ZM22.1 22.426C22.0663 22.3864 22.0072 22.3279 21.9057 22.2521C21.6204 22.0391 21.1424 21.804 20.4603 21.5886C19.108 21.1616 17.1773 20.8815 15 20.8815C12.8227 20.8815 10.892 21.1616 9.53979 21.5886C8.85759 21.804 8.37965 22.0391 8.09437 22.2521C7.99282 22.3279 7.93369 22.3863 7.90001 22.4259C7.93369 22.4655 7.99282 22.524 8.09437 22.5998C8.37965 22.8127 8.85759 23.0479 9.53979 23.2633C10.892 23.6903 12.8227 23.9704 15 23.9704C17.1773 23.9704 19.108 23.6903 20.4603 23.2633C21.1424 23.0479 21.6204 22.8127 21.9057 22.5998C22.0072 22.524 22.0663 22.4655 22.1 22.426Z" fill="#FFB948"/>
</svg>
