<svg width="20" height="20" viewBox="0 0 20 20" fill="none"
	xmlns="http://www.w3.org/2000/svg">
	<path d="M3.20076 16.5989L4.20358 17.6017L7.40264 14.4026L10 17V11.8053L12 9.80529V14.2645C13.3664 13.4132 14.2857 11.8222 14.2857 9.99998C14.2857 9.26391 14.1357 8.56557 13.8668 7.93848L14.8787 6.92654C15.4088 7.82167 15.7143 8.874 15.7143 10C15.7143 12.5321 14.1696 14.6916 12.0001 15.5287V18C15.4505 17.083 18 13.8489 18 10C18 8.23439 17.4635 6.59816 16.5496 5.25564L18.1699 3.63542L17.1577 2.62325L17.0963 2.68461L17.1057 2.69396L3.20076 16.5989Z" fill="#D9C3AB"/>
	<path d="M14.5888 3.23285C13.8152 2.67256 12.9411 2.2501 12.0001 2V4.47133C12.3156 4.59306 12.6179 4.74276 12.9041 4.91751L14.5888 3.23285Z" fill="#D9C3AB"/>
	<path d="M10 7.82161V3L6 7H2V13H4.82161L10 7.82161Z" fill="#D9C3AB"/>
</svg>
