<svg width="100" height="101" viewBox="0 0 100 101" fill="none"
	xmlns="http://www.w3.org/2000/svg">
	<circle opacity="0.3" cx="50" cy="40" r="28" fill="#7A35A0"/>
	<circle opacity="0.5" cx="50" cy="40" r="22" fill="#7A35A0"/>
	<circle cx="50" cy="40" r="16" fill="#7A35A0"/>
	<path d="M44.7884 35.629C46.923 33.325 47.6271 31.0685 43.9615 29.2882C55.0769 27.3465 59 35.6293 59 41.7437C59 46.3035 55.1944 50 50.5 50C45.8056 50 42 46.3035 42 41.7437C42 39.3195 42.6538 37.933 44.7884 35.629Z" fill="#FFCB7E"/>
	<path d="M54 43.0714C54 45.2411 52.433 47 50.5 47C48.567 47 47 45.2411 47 43.0714C47 40.9017 50.5 36 50.5 36C50.5 36 54 40.9017 54 43.0714Z" fill="#E65741"/>
	<circle cx="49.5" cy="43.5" r="1.5" fill="#FF9A8A"/>
	<path d="M46.4997 49C41.4998 46.5 39.5 39.5 45.9998 34C45.9998 34 44 37 44 41C44 45 45.292 47.5772 46.4997 49Z" fill="#FFF3E5"/>
	<path d="M39.7552 50.8867C43.9443 54.5575 48.5989 54.0988 51.3917 54.0988V68.2961C51.3917 69.3244 52.2253 70.158 53.2536 70.158C54.2819 70.158 55.1155 69.3244 55.1155 68.2961V54.0988C56.6049 54.0988 57.9082 53.4105 58.8392 52.7222C62.5628 49.969 63.9593 49.969 64.8903 51.3457C66.3335 53.4798 65.0454 57.7695 63.4939 59.1461V77.9584L66.2866 80.7115C69.5448 83.9231 67.4444 84.8408 65.8212 84.3822C65.8212 84.3822 62.551 83.4643 60.4624 84.3822C58.3738 85.3001 57.5359 88.6032 50.4608 88.9703C45.0682 89.2501 42.2176 87.5041 40.9607 85.8452C40.3818 85.0812 39.5239 84.4341 38.5654 84.4277C32.3156 84.3861 32.4127 81.666 33.7039 80.7115C35.1001 79.6792 37.1172 79.3347 37.4275 78.417V68.3228C34.4485 65.7533 35.3273 64.1931 36.9623 62.8168C38.5973 61.4405 38.2034 58.8399 37.4275 57.7693C32.959 51.162 36.9623 48.4394 39.7552 50.8867Z" fill="#D9C3AB"/>
	<path d="M39.5 56.5C38.5 53.5 36.5 52.5 37.3549 50C33.5005 50.5 34.5713 53.6998 35.5 55C38 58.5 38.0005 61.5 36.8988 62.7705C34.0005 65.5 35.5305 67.0274 36.8988 67.7875V78.7337C36.8988 78.7337 32.5 80.5 32.5 82C32.5 83.5 34.0004 84 36.4427 84.5C39.3617 84.8649 39.5 85 41.5005 86.5C47.5005 91.5 56.5005 90 59.0005 86C59.7886 84.739 60.0615 84 62.5005 84.5C66.514 86.3244 68.0005 84.2602 68.0005 83.5C68.0005 82.0405 65.0207 79.2162 63.5005 78C63.5005 78 67 82 64.5 82.5C62 83 60.5005 79.6459 59.0005 82.5C57.5005 85.3541 55.5 88 50 87.5C43.8273 86.9388 43.8278 83.4703 42.5005 82C41.1731 80.5297 37 82.2152 36 81.5C35 80.7848 39.0005 80.5 39.0005 79V67C35.5005 66 37.3919 63.9561 38 63.5C40.5 61.5 40.1907 58.5722 39.5 56.5Z" fill="#FFF3E5"/>
	<path d="M57 62.4999C57 67 56 70 54 70C55.2621 69 55 60.5 55 54C56.5 54 57.3333 53.5 58 53C62.5 49 64.5 50.5 65 51.5C63.3633 51.1527 61.7303 51.7696 60.5 52.9999C59.2697 54.2303 58.1667 54.8333 57 55V62.4999Z" fill="#FFF3E5"/>
	<path d="M57.5 40.5C57.5 34.7971 52.5 29.5 48 29C55.5 29.5 58 34.5 59 37.5C61 45 56.6667 47.8334 54.5 49C57 45.5 57.5 43 57.5 40.5Z" fill="#B27B32"/>
</svg>
