<svg width="100" height="101" viewBox="0 0 100 101" fill="none"
	xmlns="http://www.w3.org/2000/svg">
	<path fill-rule="evenodd" clip-rule="evenodd" d="M78 48.9697C78 49.3112 77.9944 49.6513 77.9834 49.9899H78V51.0101H73.0055C73.0589 50.3373 73.0862 49.6568 73.0862 48.9697C73.0862 35.4471 62.5263 24.4849 49.5 24.4849C36.4737 24.4849 25.9138 35.4471 25.9138 48.9697C25.9138 49.6568 25.9411 50.3373 25.9945 51.0101H21V49.9899H21.0166C21.0056 49.6513 21 49.3112 21 48.9697C21 32.6299 33.7599 19.3839 49.5 19.3839C65.2401 19.3839 78 32.6299 78 48.9697ZM77.0172 48.9697C77.0172 49.3112 77.0115 49.6513 77 49.9899H74.0497C74.0625 49.6515 74.069 49.3114 74.069 48.9697C74.069 34.8837 63.0691 23.4647 49.5 23.4647C35.9309 23.4647 24.931 34.8837 24.931 48.9697C24.931 49.3114 24.9375 49.6515 24.9503 49.9899H22C21.9885 49.6513 21.9828 49.3112 21.9828 48.9697C21.9828 33.1933 34.3026 20.4041 49.5 20.4041C64.6974 20.4041 77.0172 33.1933 77.0172 48.9697Z" fill="var(--icon-color, currentcolor)"/>
	<path d="M43.5 70.3939C44.8807 70.3939 46 69.252 46 67.8434C46 66.4348 44.8807 65.2929 43.5 65.2929C42.1193 65.2929 41 66.4348 41 67.8434C41 69.252 42.1193 70.3939 43.5 70.3939Z" fill="var(--icon-color, currentcolor)"/>
	<path d="M58 67.8434C58 69.252 56.8807 70.3939 55.5 70.3939C54.1193 70.3939 53 69.252 53 67.8434C53 66.4348 54.1193 65.2929 55.5 65.2929C56.8807 65.2929 58 66.4348 58 67.8434Z" fill="var(--icon-color, currentcolor)"/>
	<path d="M46 73.4546L49.5 69.3737L53 73.4546L49.5 72.0607L46 73.4546Z" fill="var(--icon-color, currentcolor)"/>
	<path fill-rule="evenodd" clip-rule="evenodd" d="M29.4995 50.7672L40.4251 48.9502C37.3237 50.9163 35.4753 53.6968 34.3813 56.183C33.682 57.7725 33.2879 59.2474 33.0683 60.3257C32.9584 60.8653 32.8919 61.3069 32.8528 61.6157C32.8332 61.7702 32.8205 61.8915 32.8125 61.9753C32.8086 62.0173 32.8058 62.0498 32.804 62.0725L32.8019 62.099C32.5009 65.067 32.679 67.806 32.9313 69.8004C33.0577 70.7994 33.2031 71.6143 33.3173 72.1811C33.3744 72.4645 33.4237 72.6861 33.4591 72.8378C33.4767 72.9137 33.4909 72.9721 33.5008 73.0121L33.5123 73.0581L33.5155 73.0704L33.5166 73.075L33.6157 73.4545H38.691L40.191 76.5151H42.0952L42.1134 81.6169H57.0002V76.5151H58.2773L60.5 72.4343H65.9501L65.9974 71.9761L65.9977 71.9732L65.9986 71.9631L66.0022 71.9258C66.0051 71.8935 66.0092 71.8462 66.0141 71.7845C66.0238 71.6611 66.0366 71.4799 66.049 71.2451C66.0738 70.7753 66.0973 70.0905 66.093 69.2224C66.0843 67.4879 65.9643 65.0204 65.52 62.0746L65.5199 62.0734L65.5165 62.0468C65.5136 62.0239 65.5092 61.9909 65.5032 61.9484C65.4911 61.8633 65.4725 61.74 65.4457 61.583C65.3923 61.269 65.3064 60.8196 65.1756 60.2715C64.9143 59.1762 64.4727 57.6808 63.7504 56.0792C62.6123 53.556 60.7619 50.738 57.7961 48.8295L69.0978 50.7511L69.1227 50.1758C69.1786 48.8829 68.8302 47.0687 68.5243 45.476L68.4465 45.0696C68.1589 43.5641 67.8868 42.1391 67.114 40.4558C66.2082 38.4827 64.9478 36.5221 63.2377 34.7672C60.8549 32.322 57.9212 30.7187 53.638 29.6054L53.6316 29.6034C53.6169 29.5987 53.5962 29.5922 53.5697 29.5844C53.5167 29.5686 53.4402 29.5469 53.3401 29.5214C53.1399 29.4703 52.8456 29.4038 52.4572 29.3378C51.6805 29.2057 50.528 29.0758 49 29.0758C47.4721 29.0758 46.3196 29.2057 45.5428 29.3378C45.1545 29.4038 44.8602 29.4703 44.66 29.5214C44.5599 29.5469 44.4834 29.5686 44.4304 29.5844C44.4038 29.5922 44.3832 29.5987 44.3685 29.6034L44.3508 29.6091L44.3493 29.6096C41.25 30.5778 38.0258 32.1919 35.0962 35.8899C34.0615 37.1959 33.1085 38.7078 32.2845 40.4506C31.5683 41.9655 31.0098 43.3708 30.5167 45.2683C30.1531 46.6679 29.7962 48.4668 29.5873 50.0868L29.4995 50.7672ZM45 30.487V40.0627L49.5 36.7273L53 39.3216V30.487C52.8286 30.4458 52.5929 30.3951 52.2928 30.3441C51.5696 30.2211 50.4721 30.096 49 30.096C47.528 30.096 46.4305 30.2211 45.7072 30.3441C45.4072 30.3951 45.1715 30.4458 45 30.487ZM35.6361 36.8372L44.1461 40.6957L41.416 42.7193L42.9382 47.4986L30.6738 49.5382C30.8592 48.2994 31.1182 47.0027 31.3874 45.9091H39.3251L33.3525 40.5471C34.0384 39.1531 34.8092 37.9219 35.6361 36.8372ZM35.2936 56.6008C36.5824 53.6717 38.9491 50.3652 43.2955 48.6208L44.5038 52.4146H54.4962L55.6437 48.8114C59.3526 50.4916 61.5527 53.6473 62.8419 56.5057C63.5312 58.0338 63.9539 59.4644 64.204 60.5128C64.3289 61.0364 64.4104 61.4633 64.4605 61.7575C64.4824 61.8861 64.4982 61.9892 64.5091 62.0639L57.723 75.4949H40.809L33.8114 62.0374C33.8185 61.9657 33.8292 61.8678 33.8445 61.7466C33.8808 61.4606 33.9432 61.0447 34.0474 60.5332C34.2559 59.5092 34.6305 58.1079 35.2936 56.6008ZM68.1212 49.5508L56.0613 47.5003L57.584 42.7193L54.0356 40.0892L62.7773 35.7468C64.1677 37.2307 65.2326 38.8615 66.0329 40.516L59.0032 45.9091H67.5883C67.8369 47.2096 68.0762 48.5185 68.1212 49.5508ZM53 40.6036V40.5826L49.5 37.9883L42.5916 43.109L45.2304 51.3944H53.7696L56.4084 43.109L53.017 40.5952L53 40.6036ZM34 72.9444L33.5166 73.075C33.5166 73.075 33.5168 73.0756 34 72.9444ZM54 30.7583V38.9722L62.0211 34.9877C59.9982 33.0848 57.518 31.7436 54 30.7583ZM66.4578 41.4665L61.9969 44.8889H67.3928C67.167 43.7217 66.9374 42.6545 66.4578 41.4665ZM31.6578 44.8889H36.675L32.9036 41.5031C32.4215 42.5729 32.0199 43.6201 31.6578 44.8889ZM36.2934 36.0188L44 39.5131V30.7952C41.3916 31.6895 38.7488 33.1188 36.2934 36.0188ZM61.2889 71.4141H65.0375C65.0403 71.3703 65.0431 71.3235 65.0459 71.2738L65.0504 71.1901C65.0743 70.7389 65.0973 70.0742 65.093 69.2276C65.0862 67.8764 65.0102 66.0631 64.7579 63.9162L61.2889 71.4141ZM56.0002 76.5151H54.0002V79.5757H53.0002V76.5151H50.0002V79.5757H49.0002V76.5151H46.0002V79.5757H45.0002V76.5151H43.0952L43.1097 80.5967H56.0002V76.5151ZM38.1629 72.4343H34.3938C34.3661 72.3098 34.3332 72.1561 34.2968 71.9757C34.1869 71.4303 34.0459 70.6405 33.9231 69.6698C33.7275 68.1238 33.5788 66.1252 33.6731 63.9274L38.1629 72.4343Z" fill="var(--icon-color, currentcolor)"/>
</svg>