<svg width="100" height="100" viewBox="0 0 100 100" fill="none"
	xmlns="http://www.w3.org/2000/svg">
	<path d="M49.125 46.5625C49.9154 52.8861 45.3504 52.069 44.1382 51.8521C44.0086 51.8288 43.9173 51.8125 43.875 51.8125C45.625 55.6625 50.7292 55.4583 53.0625 54.875C57.9625 54.175 58.8958 48.4583 58.75 45.6875C56.1643 51.2283 51.3954 48.0365 49.7099 46.9084C49.3991 46.7004 49.1931 46.5625 49.125 46.5625Z" fill="var(--icon-color, currentcolor)"/>
	<path fill-rule="evenodd" clip-rule="evenodd" d="M57.628 37.2594C57.7668 36.3421 57.7565 35.6552 57.7565 35.6552C57.9786 36.0687 58.2964 36.5063 58.6753 36.9705C59.0529 37.4334 59.4912 37.9227 59.9554 38.441C60.7978 39.3817 61.7257 40.4178 62.5325 41.5644C65.9459 46.4161 63.8715 59.25 51.3313 59.25C39.715 59.25 33.2573 53.4937 37.1214 41.0116C37.4288 40.0189 37.8014 38.9836 38.2419 37.9053C38.1109 38.8161 38.0522 39.9651 38.1308 41.1331C38.3371 44.1988 39.4895 47.3953 42.7644 46.7586C45.4248 46.2414 44.2172 43.5292 42.8971 40.5645C42.2656 39.1463 41.6084 37.6703 41.3366 36.3491C40.7159 33.3324 43.8571 31.1105 46.8711 28.9785C47.3238 28.6583 47.7737 28.3401 48.2074 28.0216C49.2526 27.3393 50.6486 24.5418 49.3048 21.0652C49.0471 20.3984 48.6885 19.7066 48.2074 19C48.7025 19.3463 49.385 19.8417 50.1345 20.4485C53.785 23.4042 59.0252 29.0027 51.9444 32.8793C46.0385 36.1127 48.6741 40.4903 51.9444 41.5644C56.121 42.9361 57.2975 39.4443 57.628 37.2594ZM58.4564 38.2594C58.3485 38.732 58.2009 39.2326 57.9983 39.7224C57.5962 40.6944 56.9369 41.7201 55.8444 42.3344C54.7205 42.9664 53.3128 43.0664 51.6324 42.5145C49.75 41.8962 47.9414 40.3028 47.5231 38.2294C47.0745 36.0058 48.2948 33.7374 51.4642 32.0022C53.4418 30.9194 54.1915 29.8015 54.3898 28.8261C54.5943 27.8199 54.271 26.6892 53.5173 25.4781C52.7892 24.3082 51.7414 23.1933 50.6877 22.2376C50.8865 23.2229 50.9002 24.1501 50.7865 24.987C50.5463 26.756 49.7133 28.216 48.7798 28.8419C48.3166 29.1817 47.8507 29.5113 47.3915 29.8362C46.132 30.7272 44.922 31.5833 43.9531 32.5185C42.6405 33.7853 42.0647 34.9258 42.3161 36.1476C42.5035 37.0585 42.906 38.0895 43.3846 39.1926C43.5166 39.4969 43.6558 39.8095 43.7961 40.1247C44.1459 40.9104 44.5036 41.7139 44.7775 42.4492C45.151 43.452 45.469 44.5701 45.3049 45.5491C45.2163 46.0779 44.9845 46.586 44.5472 46.992C44.121 47.3878 43.5711 47.6205 42.9553 47.7402C41.5694 48.0097 40.3888 47.7252 39.4638 46.9957C38.5774 46.2966 38.024 45.2667 37.6787 44.2105C37.606 43.9882 37.5411 43.7604 37.4834 43.5286C36.5039 47.9572 37.0713 51.2195 38.6613 53.4932C40.8347 56.6011 45.1855 58.25 51.3313 58.25C57.1858 58.25 60.4897 55.294 61.9975 51.8277C63.5523 48.2534 63.1755 44.2162 61.7146 42.1398C60.9427 41.0427 60.0505 40.0463 59.2002 39.0968L59.0798 38.9623C58.8708 38.7288 58.6611 38.4941 58.4564 38.2594Z" fill="var(--icon-color, currentcolor)"/>
	<path d="M61 66H39V65H61V66Z" fill="var(--icon-color, currentcolor)"/>
	<path d="M70 73H30V72H70V73Z" fill="var(--icon-color, currentcolor)"/>
	<path d="M79.0001 80H21V79H79.0001V80Z" fill="var(--icon-color, currentcolor)"/>
</svg>