<svg width="100" height="101" viewBox="0 0 100 101" fill="none"
	xmlns="http://www.w3.org/2000/svg">
	<path d="M21 15.15C21 15.7078 20.5523 16.16 20 16.16C19.4477 16.16 19 15.7078 19 15.15C19 14.5922 19.4477 14.14 20 14.14C20.5523 14.14 21 14.5922 21 15.15Z" fill="var(--icon-color, currentcolor)"/>
	<path d="M46 19.19C46 19.7478 45.5523 20.2 45 20.2C44.4477 20.2 44 19.7478 44 19.19C44 18.6322 44.4477 18.18 45 18.18C45.5523 18.18 46 18.6322 46 19.19Z" fill="var(--icon-color, currentcolor)"/>
	<path d="M29.5675 57.8231L35.0674 67.418L35.9328 66.9119L30.4329 57.317L29.5675 57.8231Z" fill="var(--icon-color, currentcolor)"/>
	<path d="M43.0004 35.3497L53.0003 35.3499L53.0003 34.3399L43.0004 34.3397L43.0004 35.3497Z" fill="var(--icon-color, currentcolor)"/>
	<path d="M29.0781 48.7138L36.0781 37.6038L36.9218 38.146L29.9218 49.256L29.0781 48.7138Z" fill="var(--icon-color, currentcolor)"/>
	<path d="M36.0713 43.6751L33.0713 48.7251L33.9288 49.2447L36.9288 44.1947L36.0713 43.6751Z" fill="var(--icon-color, currentcolor)"/>
	<path fill-rule="evenodd" clip-rule="evenodd" d="M63 76.76L77.1557 53.0423L63.4998 30.3L36 30.3L22.3257 53.0423L36 76.76H63ZM62.7177 75.2766L75.6866 53.5473H50.3222L50.205 53.7454L62.7177 75.2766ZM49.6199 54.7339L61.8333 75.75L37.1804 75.75L49.6199 54.7339ZM48.9303 53.5473L49.0427 53.7407L36.2988 75.2711L23.774 53.5473L48.9303 53.5473ZM49.755 52.5373H49.5029L37.1668 31.31L62.3195 31.31L49.755 52.5373ZM50.9201 52.5373H75.6829L63.2126 31.7694L50.9201 52.5373ZM36.2802 31.7798L48.3433 52.5373H23.7993L36.2802 31.7798Z" fill="var(--icon-color, currentcolor)"/>
	<path d="M22 30.3C22.5523 30.3 23 29.8478 23 29.29C23 28.7322 22.5523 28.28 22 28.28C21.4477 28.28 21 28.7322 21 29.29C21 29.8478 21.4477 30.3 22 30.3Z" fill="var(--icon-color, currentcolor)"/>
	<path d="M32 26.26V22.22H30V21.21H32V17.17H33V21.21H35V22.22H33V26.26H32Z" fill="var(--icon-color, currentcolor)"/>
	<path d="M15 35.35V39.39H13V40.4H15V43.43H16V40.4H18V39.39H16V35.35H15Z" fill="var(--icon-color, currentcolor)"/>
</svg>