<svg width="100" height="101" viewBox="0 0 100 101" fill="none"
	xmlns="http://www.w3.org/2000/svg">
	<path d="M27.0664 52.015C27.0664 52.8517 26.3948 53.53 25.5664 53.53C24.738 53.53 24.0664 52.8517 24.0664 52.015C24.0664 51.1783 24.738 50.5 25.5664 50.5C26.3948 50.5 27.0664 51.1783 27.0664 52.015Z" fill="var(--icon-color, currentcolor)"/>
	<path d="M74.5664 53.53C75.3948 53.53 76.0664 52.8517 76.0664 52.015C76.0664 51.1783 75.3948 50.5 74.5664 50.5C73.738 50.5 73.0664 51.1783 73.0664 52.015C73.0664 52.8517 73.738 53.53 74.5664 53.53Z" fill="var(--icon-color, currentcolor)"/>
	<path fill-rule="evenodd" clip-rule="evenodd" d="M50.5664 46.46L43.0664 50.6045V58.8934L50.5664 63.63L58.0664 58.8934V50.5686L50.5664 46.46ZM54.0663 54.035C54.0663 55.4452 53.2488 56.6625 52.0663 57.2298V59.59H49.0663V57.2298C47.8839 56.6625 47.0663 55.4452 47.0663 54.035C47.0663 52.0827 48.6333 50.5 50.5663 50.5C52.4993 50.5 54.0663 52.0827 54.0663 54.035Z" fill="var(--icon-color, currentcolor)"/>
	<path fill-rule="evenodd" clip-rule="evenodd" d="M20.2931 25.4931L35.0784 27.1524L35 31.31H65.0663L65.0346 27.1515L80.0695 25.4949L81.5339 47.4699H84.6689L82.9814 56.5599H79.4568L76.2068 69.6899H78.2601L75.9268 76.7599H25.2574L21.7574 69.6899H23.926L20.676 56.5599H17.125L16 47.4699H19.0932L20.2931 25.4931ZM35 32.32L35.0663 48.3354L38.5376 48.5023L50.5633 40.8143L62.6985 48.3965L65.0663 48.2938V32.32H35ZM34.0784 28.0564L34.0663 48.2872L30.7912 48.1297L31.0604 27.7177L34.0784 28.0564ZM24.7349 27.0078L30.0618 27.6056L29.7918 48.0816L23.5756 47.7826L24.7349 27.0078ZM21.2334 26.6149L23.7395 26.8961L22.5767 47.7345L20.0868 47.6148L21.2334 26.6149ZM18.0078 55.5499L17.1333 48.4838L38.1715 49.4959V55.5499H18.0078ZM21.7068 56.5599H38.1715V61.1983L50.7906 68.2491L63.0663 61.1942V56.5599H78.426L75.1646 69.7358L51.0641 72.7164L24.9673 69.7325L21.7068 56.5599ZM82.1514 55.5499H63.0663V49.3915L83.4589 48.5069L82.1514 55.5499ZM79.1417 26.6131L80.5418 47.6225L77.5637 47.7517L76.401 26.9151L79.1417 26.6131ZM70.0725 27.6124L75.4055 27.0248L76.5646 47.795L70.3422 48.0649L70.0725 27.6124ZM66.0346 28.0573L69.0738 27.7224L69.3427 48.1083L66.0663 48.2504L66.0346 28.0573ZM24.5382 70.6999H23.3754L25.8754 75.7499H75.206L76.8727 70.6999H75.5969L51.0687 73.7334L24.5382 70.6999ZM62.0663 49.1891L50.5693 42.0057L39.1715 49.2924V60.6028L50.7837 67.091L62.0663 60.6068V49.1891Z" fill="var(--icon-color, currentcolor)"/>
</svg>