<?xml version="1.0" encoding="UTF-8"?>
<svg width="128" height="128" version="1.1" viewBox="0 0 33.866666 33.866668" style="padding: 15px; opacity: 0.6;"
    xmlns="http://www.w3.org/2000/svg">
    <g>
        <path d="m11.833 6.2851c-1.0966 0.028914-1.4552 0.89607-1.4552 0.89607s-0.99014 1.7258-1.357 2.3663c1.1206-0.37953 1.9862-0.25554 2.774 0.25166l1.4898-2.5714c0.25748-0.47549-0.29426-0.86674-1.2221-0.93689-0.07978-0.00603-0.15634-0.00761-0.22944-0.00568zm4.1594 0.22944c-1.2282 0.035091-1.5265 0.63149-1.5265 0.63149s-8.8733 15.19-9.0966 15.574c-0.22332 0.3846-0.058445 0.53328 0.099735 0.60772 0.15818 0.07444 0.33486-0.08372 0.33486-0.08372-2e-7 0 0.1177-0.27226 0.39843-0.58808 0.28073-0.31582 1.0175-0.26303 1.0175-0.26303s9.5463 0.49057 12.18 0.46767c0.16802-0.0015 0.3225-0.0138 0.47129-0.02997-0.07925 0.45232-0.10042 1.1477-0.03721 1.7989 0.04634 0.47739 0.31507 0.90922 0.5178 1.2552-1.9391-0.08493-10.721-0.46755-11.703-0.43408-0.86331-0.01329-1.5916-0.2434-1.5916-0.2434s-0.43488-0.15173-1.1669-0.75964c-0.09925 0.1985-0.20156 0.66367-0.79427 0.89297-0.58274 0.22544-1.1169-0.2191-1.6376-0.99219-0.45265-0.72736-0.44665-1.6871 0.049609-2.0841 0.49626-0.397 1.0919-0.04961 1.0919-0.04961l2.3937-4.131c-0.18551-0.25138-0.55231-0.46415-1.0374-0.56847-0.78261-0.10286-1.1883 0.08406-1.7516 0.42377-1.2875 2.2378-2.3124 4.0107-2.4458 4.2132-0.35979 0.54588-0.16318 1.9404 0.43408 2.7916 0.81206 1.1573 1.4642 1.4639 2.3823 1.6872 0.9677 0.16128 1.3544-0.79582 1.3544-0.79582s0.25823 0.2252 0.71727 0.54777c0.52107 0.40942 1.0795 0.49609 1.0795 0.49609s12.555 0.5958 14.044 0.69505c1.4888 0.09925 1.7865-0.74466 1.7865-0.74466s7.7414-11.612 8.4858-12.704-0.44648-1.3395-0.44648-1.3395l-1.0738 0.02894-0.37827 0.01705c-0.70372-0.82251-0.66132-1.964-0.6289-2.7797 0.2654-0.40919 0.9013-1.3962 1.0397-1.6077 1.2633-1.93-0.31626-1.8247-0.31626-1.8247zm-6.5103 4.1771c-0.60046 0.0058-1.2944 0.30893-1.2944 0.30893-0.95052 1.6586-2.1186 3.6934-3.205 5.5842 0.46606-0.18183 0.98696-0.31639 1.4299-0.24495 0.61107 0.09856 1.0488 0.30769 1.2966 0.50953l3.3709-5.8172c-0.22253-0.1377-0.90736-0.35522-1.598-0.34045zm6.1946 0.34975 6.6322 0.17518s-2.9095 5.9419-6.0007 6.0709c-2.3164 0.09671-1.614-4.2109-0.63149-6.2461zm13.203-0.20528c0.07899 1.2303 0.13693 1.694 0.86195 2.5621l-8.1689 12.538s-0.4039-0.02202-0.45544-0.02429c-0.24183-0.36529-0.48702-0.82299-0.5948-1.3157-0.13208-0.60381-0.08652-1.3159-0.01705-1.851 1.2361-0.29907 1.5091-1.078 1.5091-1.078s4.4007-7.0238 6.8651-10.832z" fill="var(--icon-color, currentcolor)"/>
    </g>
</svg>
