<?xml version="1.0" encoding="UTF-8"?>
<svg width="128" height="128" version="1.1" viewBox="0 0 33.866666 33.866668" style="padding: 15px; opacity: 0.6;"
    xmlns="http://www.w3.org/2000/svg">
    <g>
        <path d="m28.607 4.1073c-13.575-0.056292-16.06 8.3971-22.936 12.347-2.493 0.73236-1.7093-4.9556-1.7093-4.9556-3.4177 4.6383-2.9783 7.4211 0 9.9111 0.83001-2.0994 1.8554-1.6598 2.9783-0.63451 1.123 1.0253 1.7091 2.9292-0.78093 5.2728-2.49 2.3436-2.8807 3.7109-2.8807 3.7109s2.8807-1.5626 6.0542-0.73263c-0.43942-1.7088-0.14677-6.0541 4.0033-6.5423 4.1501-0.48824 12.206 5.0867 12.206 5.0867s-6.4503-7.8478-13.553-9.6991c6.6183-0.04464 9.8918 4.0145 9.8918 4.0145-0.12206-0.75678-0.96725-1.9674-0.29285-3.2102 0.93873-1.7299 5.2243-1.758 8.9838-2.2462-1.6112-1.123-10.156-2.4902-14.257-2.6855 2.2459-1.3183 9.423-0.29285 9.423-0.29285s-0.82969-1.2694-0.97616-3.1735c-0.14647-1.9041 2.514-2.6652 3.5152-2.7343 0 0-0.49755-0.26935-2.2243-0.61112 0.91771-1.0526 3.4483-2.418 6.2546-2.6204-1.3191-0.13492-2.5494-0.20063-3.6998-0.2054zm-8.0228 3.3001c0.33877-0.00935 0.3198 0.8694 0.3198 0.8694l-1.7332 1.1963s-0.83008-0.75703-1.3427-0.78144c-0.51265-0.024412-0.31725-0.39047-0.31725-0.39047s2.3924-0.48848 2.9051-0.83025c0.06408-0.042721 0.11989-0.062217 0.16829-0.063552zm-3.293 2.6514s0.31721 0.14636 0.43927 0.34166c0.12206 0.19529 0.6594-0.14655 0.70823 0.24404 0.04882 0.39059-0.36645 0.39095-0.73263 0.43978-0.36618 0.04882-0.73204-0.12241-1.0006-0.48859-0.26853-0.36618 0.5857-0.53689 0.5857-0.53689z" fill="var(--icon-color, currentcolor)"/>
    </g>
</svg>
