<?xml version="1.0" encoding="UTF-8"?>
<!DOCTYPE svg PUBLIC "-//W3C//DTD SVG 1.1//EN" "http://www.w3.org/Graphics/SVG/1.1/DTD/svg11.dtd">
<svg enable-background="new 0 0 128 128" version="1.1" style="padding: 15px; opacity: 0.6;" viewBox="0 0 128 128" xml:space="preserve"
    xmlns="http://www.w3.org/2000/svg">
    <path d="m64.125 1.926c-34.352 0-62.199 27.847-62.199 62.199s27.847 62.199 62.199 62.199 62.199-27.847 62.199-62.199-27.848-62.199-62.199-62.199zm-0.334 118.55c-3.158 0-6.255-0.263-9.272-0.761l38.825-54.331s0.878 0.376 2.006-0.314c0.969-0.592 8.276-9.53 8.276-9.53l-4.013-4.326s-7.022 9.28-7.9 10.534-0.376 2.132-0.376 2.132l-39.428 55.342c-5.118-1.095-9.979-2.884-14.481-5.262 1.819-2 4.063-6.233 7.385-11.833 4.389-7.399 5.199-17.634 3.762-26.46-1.755-10.786-11.734-17.692-0.125-34.486 12.916-18.685 24.99-17.759 37.62-13.042 10.408 3.887 11.662 19.061 11.662 19.061l10.157 11.035c0.125 0.125 1.63-0.878 4.891-4.891s-1.63-12.164-3.01-14.547c-1.471-2.541-9.53-14.045-23.826-18.81s-31.099-3.762-38.624-1.003c-6.929 2.541-15.55 9.781-20.566 18.81s-2.006 35.112-2.759 41.633c-0.577 4.999-6.308 10.73-8.954 13.135-4.934-8.39-7.766-18.164-7.766-28.602 0-31.212 25.302-56.514 56.514-56.514s56.514 25.302 56.514 56.514-25.301 56.516-56.512 56.516z" fill="var(--icon-color, currentcolor)"/>
</svg>