<svg width="65" height="60" viewBox="0 0 65 60" fill="none"
    xmlns="http://www.w3.org/2000/svg">
    <path d="M57.1142 12.8255L32.0193 6.82666L23.5972 42.446L48.6921 48.4448L57.1142 12.8255Z" stroke="var(--icon-color, currentcolor)" stroke-width="0.797386" stroke-miterlimit="10"/>
    <path d="M37.6899 45.8184L34.5905 45.0772C28.5186 43.6266 24.7652 37.4974 26.2079 31.3922L29.4024 17.8825C30.8451 11.7773 36.9408 8.00338 43.0128 9.45397L46.1161 10.1952C52.1881 11.6458 55.9414 17.775 54.4988 23.8802L51.3042 37.3898C49.8576 43.4951 43.7619 47.269 37.6899 45.8184Z" stroke="var(--icon-color, currentcolor)" stroke-width="0.797386" stroke-miterlimit="10"/>
    <path d="M59.7853 11.0211L30.4141 4L20.8983 44.2448L50.2695 51.2659L59.7853 11.0211Z" stroke="var(--icon-color, currentcolor)" stroke-width="0.797386" stroke-miterlimit="10"/>
    <path d="M43.968 22.1944L39.9055 21.222L42.8702 17.7629L43.968 22.1944Z" fill="var(--icon-color, currentcolor)"/>
    <path d="M37.0756 33.1854L41.142 34.1538L38.1734 37.6169L37.0756 33.1854Z" fill="var(--icon-color, currentcolor)"/>
    <path d="M34.9869 24.1073L34.0198 28.1921L30.5796 25.2112L34.9869 24.1073Z" fill="var(--icon-color, currentcolor)"/>
    <path d="M45.7753 31.0056L46.7423 26.9169L50.1826 29.8978L45.7753 31.0056Z" fill="var(--icon-color, currentcolor)"/>
    <path d="M40.3969 21.8318C40.8448 21.8318 41.2966 21.8836 41.7365 21.9912C43.2347 22.3499 44.507 23.2744 45.3155 24.5935C46.124 25.9126 46.3737 27.4708 46.017 28.9772C45.3948 31.6034 43.0881 33.4405 40.4088 33.4405C39.9609 33.4405 39.5091 33.3887 39.0692 33.2811C37.571 32.9225 36.2987 31.9979 35.4902 30.6788C34.6817 29.3598 34.432 27.8016 34.7887 26.2952C35.407 23.665 37.7137 21.8318 40.3969 21.8318ZM40.3969 21.0348C37.4243 21.0348 34.7332 23.0752 34.0158 26.1079C33.1756 29.6547 35.3554 33.2134 38.8829 34.0582C39.3942 34.1818 39.9054 34.2376 40.4088 34.2376C43.3814 34.2376 46.0725 32.1972 46.7899 29.1645C47.6301 25.6177 45.4503 22.059 41.9228 21.2141C41.4115 21.0906 40.9003 21.0348 40.3969 21.0348Z" fill="var(--icon-color, currentcolor)"/>
    <path d="M43.952 33.1854L44.9072 34.7436" stroke="var(--icon-color, currentcolor)" stroke-width="0.797386" stroke-miterlimit="10"/>
    <path d="M36.1719 20.4808L37.3609 22.4216" stroke="var(--icon-color, currentcolor)" stroke-width="0.797386" stroke-miterlimit="10"/>
    <path d="M47.634 23.2227L46.017 24.2229" stroke="var(--icon-color, currentcolor)" stroke-width="0.797386" stroke-miterlimit="10"/>
    <path d="M43.2229 29.0611C42.4223 30.6193 40.825 32.1017 37.4561 30.5396C37.4561 30.5396 36.9409 30.165 36.8854 30.0972C36.8259 30.0295 37.2183 30.3523 38.0031 30.4758C39.2159 30.6591 40.1394 30.7627 41.2214 30.1211C42.1567 29.5672 42.7909 28.4832 42.7235 27.3913C42.6561 26.2994 41.8397 25.2672 40.7695 25.052C40.2702 24.9524 39.7351 25.0241 39.307 25.2991C38.883 25.5781 38.5857 26.0642 38.5857 26.5743C38.5857 26.9171 38.7324 27.2717 39.0098 27.475C39.2872 27.6782 39.7034 27.6942 39.9689 27.475C40.2384 27.2478 40.2979 26.8613 40.2979 26.5066C40.3375 26.5146 40.3772 26.5186 40.4168 26.5345C40.5476 27.0047 40.6546 27.7181 40.2464 28.0528C39.7827 28.4314 38.5342 28.1724 38.0665 27.0725C37.682 26.1758 38.1814 24.2988 40.5595 24.3267C42.1369 24.3506 44.7449 26.0921 43.2229 29.0611Z" fill="#8E5B23"/>
    <path d="M44.1668 28.7261C43.6159 30.5951 41.6857 31.8504 39.7753 31.6073C38.2534 31.3483 37.2546 30.4795 36.886 30.1009C40.1162 32.1772 42.4229 30.623 43.2235 29.0648C44.7454 26.0959 42.1375 24.3544 40.5601 24.3344C38.182 24.3065 37.6826 26.1835 38.0671 27.0802C38.5387 28.1801 39.7832 28.4391 40.247 28.0605C40.6552 27.7258 40.5482 27.0124 40.4174 26.5422C40.9168 26.6857 41.2457 27.2715 41.1467 27.7975C41.0396 28.3634 40.5204 28.7978 39.9537 28.8855C39.3909 28.9771 38.8043 28.7699 38.3524 28.4152C37.1832 27.4946 36.6878 25.789 37.8412 24.6413C38.9866 23.5015 40.7662 23.3302 42.1732 24.0754C43.8339 24.9521 44.7058 26.8969 44.1668 28.7261Z" fill="var(--icon-color, currentcolor)"/>
    <path d="M28.6454 10.6655L7.91158 19.7228L22.2797 53.3651L35.1851 47.7273" stroke="var(--icon-color, currentcolor)" stroke-width="0.797386" stroke-miterlimit="10"/>
    <path d="M32.6644 48.8791C26.9293 51.3538 20.2827 48.6878 17.8214 42.9213L12.3717 30.1648C9.91041 24.3983 12.5619 17.7152 18.297 15.2405L21.226 13.9772" stroke="var(--icon-color, currentcolor)" stroke-width="0.797386" stroke-miterlimit="10"/>
    <path d="M29.6363 8.07507L5 18.4424L21.198 56.3692L38.3558 48.5243" stroke="var(--icon-color, currentcolor)" stroke-width="0.797386" stroke-miterlimit="10"/>
    <path d="M25.8711 24.6135L22.7836 26.5423L23.1086 21.9873L25.8711 24.6135Z" fill="var(--icon-color, currentcolor)"/>
    <path d="M20.5442 31.8107L22.193 35.6683L17.6628 35.3415L20.5442 31.8107Z" fill="var(--icon-color, currentcolor)"/>
    <path d="M21.6223 29.2442C21.1149 30.5912 20.7374 32.2324 21.6778 33.6876C21.9945 34.1778 22.3832 34.6162 22.7003 34.7756L22.5021 35.9711C22.5021 35.9711 21.3908 34.8756 20.9524 33.9984C19.325 30.7419 21.0595 26.7694 24.3927 25.3308C24.5113 25.2793 24.933 25.1312 25.0695 25.0564L25.0784 25.012C25.1309 25.012 25.1187 25.0294 25.0695 25.0564L24.8802 26.0082C23.4613 26.618 22.197 27.8016 21.6223 29.2442Z" fill="var(--icon-color, currentcolor)"/>
    <path d="M19.3473 28.1881L21.4519 29.0333" stroke="var(--icon-color, currentcolor)" stroke-width="0.797386" stroke-miterlimit="10"/>
</svg>
