<?xml version="1.0" encoding="UTF-8"?>
<!DOCTYPE svg  PUBLIC '-//W3C//DTD SVG 1.1//EN'  'http://www.w3.org/Graphics/SVG/1.1/DTD/svg11.dtd'>
<svg enable-background="new 0 0 128 128" style="padding: 15px; opacity: 0.6;" version="1.1" viewBox="0 0 128 128" xml:space="preserve"
	xmlns="http://www.w3.org/2000/svg">
	<path d="m83.604 43.372l13.606-4.593c-11.892-2.995-17.333-14.43-17.333-14.43l-1.745 14.855-32.809 3.176-4.499-14.148c-2.995 11.892-14.43 17.333-14.43 17.333l14.372 2.074 0.506 28.926 11.257 9.419 29.108-5.117 4.884 14.469c2.995-11.892 14.43-17.333 14.43-17.333l-14.565-2.234-2.782-32.397zm-13.816 23.936l-5.736 3.492-8.606 0.668-0.903-8.584 2.395-6.274 5.457-3.289 7.739 0.504 1.898 7.52-2.244 5.963z" fill="var(--icon-color, currentcolor)"/>
	<path d="m64.125 1.926c-34.352 0-62.199 27.847-62.199 62.199s27.847 62.199 62.199 62.199 62.199-27.847 62.199-62.199-27.848-62.199-62.199-62.199zm-0.334 118.55c-11.762 0-22.684-3.595-31.729-9.743l18.796-22.577-10.988-9.147-18.529 22.256c-8.753-9.952-14.064-23.007-14.064-37.303 0-31.212 25.302-56.514 56.514-56.514s56.514 25.302 56.514 56.514-25.303 56.514-56.514 56.514z" fill="var(--icon-color, currentcolor)"/>
</svg>
