<?xml version="1.0" encoding="UTF-8"?>
<svg width="128" height="128" version="1.1" viewBox="0 0 33.866666 33.866668" style="padding: 15px; opacity: 0.6;"
    xmlns="http://www.w3.org/2000/svg">
    <g>
        <path d="m12.159 4.1712-1.2435 0.14701 0.03267 1.2693-1.2609-0.080617-6.6011 6.3882-0.089574 1.2345-1.2382 0.05058-0.070605 1.2424 3.3643 3.4765 1.587 0.24712 0.032668-1.2451 1.1718 0.07904 6.7881-6.5695-0.09958-1.2851 1.3157 0.10854-0.15017-1.4063zm5.4904 0.63756 5.5178 3.662 0.11697 1.5733 3.5461 3.1804 1.3436-0.26925 4.005 5.0673c-2.1056-13.321-14.529-13.214-14.529-13.214zm5.9967 6.4446-0.6971 0.96951-5.6874 5.4493 2.5713 2.3063 4.8438-6.2075 0.86413-0.81828zm-10.735 1.792-2.0117 1.9469 3.5376 3.7389 1.2319-1.2646s0.41229-0.50269 0.85728-0.24343c0.47675-0.52329 0.2898-0.63861 0.2898-0.63861zm3.1794 5.2601s-5.985 6.3084-7.0305 7.4072c-1.1838 1.1582-0.63598 1.6497-0.63598 1.6497s1.8997 1.6934 2.3305 2.0902c0.43083 0.39682 0.9704 0.3182 1.5317-0.31614 0.44517-0.50308 6.873-8.0785 6.873-8.0785zm4.4845 2.1224c-0.12017 0.0071-0.25573 0.05172-0.39887 0.15333 0.29235 0.47757 0.17752 0.60383 0.07429 0.75874l-1.802 2.4148s2.8486 3.3631 3.9081 4.4244c0.96173 1.0253 1.5844 0.47211 1.5844 0.47211s1.2012-1.1548 2.0966-2.0244c0.64907-0.6304-0.59277-1.6724-0.59277-1.6724l-4.4292-4.3375c-0.08219-0.10821-0.24021-0.20098-0.44049-0.18916z" fill="var(--icon-color, currentcolor)"/>
    </g>
</svg>
