<?xml version="1.0" encoding="UTF-8"?>
<!DOCTYPE svg  PUBLIC '-//W3C//DTD SVG 1.1//EN'  'http://www.w3.org/Graphics/SVG/1.1/DTD/svg11.dtd'>
<svg enable-background="new 0 0 128 128" style="padding: 15px; opacity: 0.6;" version="1.1" viewBox="0 0 128 128" xml:space="preserve"
	xmlns="http://www.w3.org/2000/svg">
	<path d="m74.157 22.492l-52.501 13.209 0.836 30.431 15.884 0.836-7.524 16.386 16.219-6.186 6.019 31.267 18.057-21.905 7.022 6.186 0.836-19.061 21.569 12.038 12.206-25.582-38.623-37.619zm-20.394 34.109l-5.058-3.233 4.155-4.687-2.71-1.778-4.516 4.903-7.467-4.526 10.839-9.698 13.489 9.052-8.732 9.967zm24.932 1.131l-1.011-5.4-3.71 0.859 0.92 5.523-4.05 1.227-1.012-10.063 17.442-5.645 2.217 10.063-10.796 3.436z" fill="var(--icon-color, currentcolor)"/>
	<path d="m64.125 1.926c-34.352 0-62.199 27.847-62.199 62.199s27.847 62.199 62.199 62.199 62.199-27.847 62.199-62.199-27.848-62.199-62.199-62.199zm-0.334 118.55c-31.212 0-56.514-25.302-56.514-56.514s25.302-56.514 56.514-56.514 56.514 25.302 56.514 56.514-25.303 56.514-56.514 56.514z" fill="var(--icon-color, currentcolor)"/>
</svg>
