<svg id="Layer_1" data-name="Layer 1" xmlns="http://www.w3.org/2000/svg" viewBox="0 0 30 30"><g id="DeLYWu.tif"><path d="M13.23,15.69c-.15.45-.32.86-.43,1.28-.15.57-.51.75-1,.41a3.08,3.08,0,0,1-1.3-2A1.52,1.52,0,0,1,11,14.26a5.42,5.42,0,0,1,3.13-1.45.91.91,0,0,1,.74.3,27.07,27.07,0,0,1,2,2.87,2.27,2.27,0,0,1,.08,1.42,6.68,6.68,0,0,1-.65,1.8,3,3,0,0,1-1,1.07,17.33,17.33,0,0,1-2.66,1.23,4.58,4.58,0,0,1-1.53.12,4,4,0,0,1-.83-.17,4.55,4.55,0,0,1-3.5-3.27c-.23-.75-.47-1.51-.67-2.28a3.2,3.2,0,0,0-1-1.68A3.09,3.09,0,0,1,3.81,12.4a1,1,0,0,1,.12-.78c.14-.14.5-.06.76,0a2.16,2.16,0,0,1,.43.14c.73.18,1-.07,1-.81A25.46,25.46,0,0,1,6.59,8,2.64,2.64,0,0,1,7.1,7c.78-1.08,1.05-1,1.84,0A8.76,8.76,0,0,0,10.3,8.43c.62.53.83.44,1.3-.22.87-1.23,1.73-2.47,2.67-3.65a6.24,6.24,0,0,1,1.52-1.33c.8-.52,1.29-.21,1.26.74,0,1.61-.11,3.21-.16,4.82a1.7,1.7,0,0,0,0,.39c.21,1.55.76,2,2.26,1.54,1.25-.34,2.47-.79,3.71-1.18a9.45,9.45,0,0,1,1.36-.37c.88-.13,1.27.28,1,1.1A11.86,11.86,0,0,1,24,12.69c-.63.93-1.43,1.75-2.12,2.65s-.68,1.74.37,2.43a17,17,0,0,0,2.27,1.11c.34.16.72.26,1.05.43.8.43.85,1,.15,1.6a8.71,8.71,0,0,1-3.28,1.59c-.56.16-1.14.22-1.72.33s-.68.44-.31.87a5.44,5.44,0,0,0,.73.71c.37.32.3.67-.06.8a4.87,4.87,0,0,1-1.89.38A4.1,4.1,0,0,1,17.53,25a2.06,2.06,0,0,0-2.38,0,6.05,6.05,0,0,1-3.85.86,7.56,7.56,0,0,0-3.78.73A7,7,0,0,1,6.18,27a.93.93,0,0,1-1.25-1,5,5,0,0,1,.77-2.58c1-1.76,1.63-2.09,3.54-1.43,2.85,1,5.28.19,7.53-1.6a3.3,3.3,0,0,0,1.14-1.9c.06-.26.06-.53.13-.78.73-2.62-1-4-2.72-5.33A2.32,2.32,0,0,0,12.74,12a4,4,0,0,1-.57.24c-2.06.62-2.61,2.2-2.62,4.12a1.51,1.51,0,0,0,1.22,1.67,5.62,5.62,0,0,0,.71.16c1.38.24,1.55.15,2.2-1.06C14,16.51,14,16.24,13.23,15.69Z" fill="var(--icon-color, currentcolor)"></path></g></svg>