<?xml version="1.0" encoding="UTF-8"?>
<svg width="128" height="128" version="1.1" viewBox="0 0 33.866666 33.866668" style="padding: 15px; opacity: 0.6;"
    xmlns="http://www.w3.org/2000/svg">
    <g>
        <path d="m20.454 4.2526c-2.7317 0.03395-4.6488 0.74517-4.6488 0.74517l-0.9431 4.1682 0.69505 0.89349-0.24805 1.34-1.2904-1.588s-0.3089-1.2755-0.58963-4.2933c-3.7196 0.77199-6.3867 2.1053-6.3867 2.1053 1.7826 2.3033 1.7158 10.574 1.418 12.361 0.74438 0.44663 3.5238 2.4319 3.5238 2.4319s0.34714-0.14884 0.74414 3.0272c4.0693 1.588 6.8978-0.34727 6.8978-0.34727s-0.19844-2.1341-0.19844-2.5807 1.4887-1.1913 4.8633-2.2831c-1.3399-5.0618-0.27283-9.4534 1.2408-15.185-1.5973-0.55053-3.146-0.76188-4.5207-0.7922-0.18902-0.00417-0.37496-0.00485-0.55707-0.00259zm0.31368 10.918 1.2656 1.5632s1.315 2.3576-1.3648 3.5982c-2.467 1.1421-3.4737-0.54622-3.4737-0.54622l-0.9927-1.7368zm-9.5777 1.4392 3.1264 3.0272s-0.54583 1.1415-1.7368 1.1911c-1.464 0.07444-1.5632-2.0345-1.5632-2.0345zm19.18 1.5632c0.1985 1.8858-0.76899 4.094-2.2081 4.9377-1.4391 0.84364-2.1773-0.72065-3.176-0.94258-0.89326-0.1985-3.8215 1.5384-3.8215 1.5384-0.64513 2.5805 1.861 4.7639 4.6152 5.1609 2.4386 0.35152 4.6648-0.64504 6.4513-3.4241 1.7865-2.779-0.39691-6.3275-1.8609-7.2704zm-15.111 2.2086 1.712 1.6376s0.62282 0.62494-0.19844 0.76894c-0.44663 0.04963-1.1559 0.20103-1.6872 0.0248-0.60873-0.2019-0.28166-0.67007-0.19895-1.1911zm-13.449 0.14883c-2.6302 6.0047 1.4392 8.9322 4.4664 9.0811 3.0272 0.14888 4.9109-4.4648 4.516-5.6074-0.42309-1.2242-2.5807-2.2335-2.5807-2.2335-1.588 2.5805-2.5308 2.3575-3.4489 2.3823-0.79401-0.07444-2.0595-0.2976-2.9528-3.6225z" fill="var(--icon-color, currentcolor)"/>
    </g>
</svg>
