<?xml version="1.0" encoding="UTF-8"?>
<!DOCTYPE svg  PUBLIC '-//W3C//DTD SVG 1.1//EN'  'http://www.w3.org/Graphics/SVG/1.1/DTD/svg11.dtd'>
<svg enable-background="new 0 0 128 128" version="1.1" viewBox="0 0 128 128" style="padding: 15px; opacity: 0.6;" xml:space="preserve"
	xmlns="http://www.w3.org/2000/svg">
	<path d="m90.6 9.712s0.849 27.679-11.886 40.074-15.246 17.518-15.622 19.528c-0.509 2.717 2.717 7.472 7.132 7.302s11.547-8.83 16.471-10.019 22.515 0.809 31.754-2.887c0.849-0.34-13.585 26.829-33.792 32.094-5.758 1.5-10.102 3.183-13.924 5.094-9.849 4.924-17.489 3.849-27.339 7.132-3.566 1.189-10.019 18.169-23.943 11.377-15.791-7.703-8.49-18.849-6.622-24.622s0-5.943-1.019-10.868 2.038-15.962 0.849-21.905-3.396-12.226-1.358-22.415 9.339-30.565 12.735-32.602c0 0 1.189 6.962 3.566 12.396s6.113 9.679 6.283 12.566-3.137 20.845 0 24.962c2.717 3.566 6.113 2.717 9-0.17s8.49-12.566 12.056-20.886c3.229-7.535 20.207-24.793 35.659-26.151z" fill="var(--icon-color, currentcolor)"/>
</svg>
