<svg xmlns="http://www.w3.org/2000/svg" viewBox="0 0 100 100"><g id="guides"><path class="cls-1" d="M22.34,62.09a8.06,8.06,0,0,0-3.17,6.18l-.09,0a1.63,1.63,0,0,1-.11-.17,34.78,34.78,0,0,1-3.29-10,33.43,33.43,0,0,1-.52-6.77A24.71,24.71,0,0,1,16.7,43a.18.18,0,0,0,0-.14,48.26,48.26,0,0,0-6,9.18,1.83,1.83,0,0,1-1-1.35A8.68,8.68,0,0,1,9.59,48a46.25,46.25,0,0,1,1.09-7.19,2.11,2.11,0,0,1,.19-.47,19.16,19.16,0,0,1,5.46-6.63.22.22,0,0,0,.07-.16l-1,.2c-.35.08-.71.15-1.06.26a7.72,7.72,0,0,0-1,.43,11.48,11.48,0,0,0-1,.6l.12-.39a31.71,31.71,0,0,1,6.55-11.72A47,47,0,0,1,31.24,12.61a28.69,28.69,0,0,1,7-2.71,63,63,0,0,1,10-1.75A18.18,18.18,0,0,1,57.6,9.64a1,1,0,0,1,.23.11c.29.18.28.34,0,.57a3.27,3.27,0,0,1-1.7.68,11.61,11.61,0,0,0-5.42,2.15A33.27,33.27,0,0,0,41.6,23.49,25.58,25.58,0,0,0,39.44,29c-.3,1.06-.7,2.09-1,3.13A24,24,0,0,0,37.3,38.5c0,.86-.11,1.72-.15,2.59,0,.26,0,.53,0,.8v2.4l-.13,0c-.12-.18-.24-.37-.35-.56s-.13-.31-.2-.47q-1.71-3.7-3.44-7.41l-.18-.37A30.11,30.11,0,0,0,31,51.83c0-.21,0-.42,0-.63.06-1.58.06-3.17.18-4.75a30.18,30.18,0,0,1,.93-5.23,6.33,6.33,0,0,1,.57-1.65c.15-.27.34-.29.51,0a5.34,5.34,0,0,1,.43.82,29.78,29.78,0,0,0,2.53,4.89c.75,1.25,1.51,2.49,2.27,3.73.24.4.52.79.78,1.19l.09,0a2.85,2.85,0,0,0,0-.41c-.32-1.72-.71-3.43-1-5.16a22.75,22.75,0,0,1-.19-3.3c0-1.49,0-3,.16-4.48a25.61,25.61,0,0,1,1.14-5,.69.69,0,0,1,.2-.28,30.37,30.37,0,0,1,8.77-5.23c.51-.18,1-.31,1.58-.54a2.48,2.48,0,0,0-.35-.13,15,15,0,0,0-4.38-.1l-.26,0c-.26,0-.37-.24-.17-.41a6.82,6.82,0,0,1,1.3-1,14.17,14.17,0,0,1,2.09-.87,51.15,51.15,0,0,1,7.09-2,29.53,29.53,0,0,1,5.39-.49h.44a8,8,0,0,0-1.93-3.17,1,1,0,0,1,.88-.28,23.06,23.06,0,0,1,2.5.51,40,40,0,0,1,5.83,2.06A19,19,0,0,1,72,21.92l.18.11c-.07-.4-.13-.72-.18-1.05-.08-.65-.16-1.29-.2-1.94,0-.14.13-.4.23-.42a.61.61,0,0,1,.5.17c1.15,1.11,2.27,2.24,3.42,3.34a39.1,39.1,0,0,1,4.74,5.69c.07.1.15.2.21.3l.87-1.3.11,0c0,.11.07.23.1.35.41,1.47.79,2.95,1.22,4.41a11.29,11.29,0,0,0,.65,1.57,1.7,1.7,0,0,0,.63.78,1.16,1.16,0,0,1,.47,1.38.38.38,0,0,0,.14.45c.57.43,1.12.93,1.73,1.3A1.44,1.44,0,0,0,89,36.55a.39.39,0,0,1,.7,0,5.42,5.42,0,0,1,.69,2.35,9,9,0,0,1-2.47,7.65A8.84,8.84,0,0,1,84.63,49a7.46,7.46,0,0,1-3.38.55,4.6,4.6,0,0,0,2-2.78,2,2,0,0,0,.11-.4c.06-.39-.1-.63-.49-.61-.65,0-1.31.13-2,.21-.47.06-.93.16-1.4.22a3.93,3.93,0,0,1-2.63-.61c-.52-.31-1-.72-1.47-1.08a.52.52,0,0,0-.27-.11c-1,.16-2.1.28-3.12.52A15.4,15.4,0,0,0,60,56.8a13.66,13.66,0,0,0-.15,6.75,13.24,13.24,0,0,0,4.44,7,17.59,17.59,0,0,0,4.35,2.75,2.83,2.83,0,0,1,.48.36,13.3,13.3,0,0,1-2.95.78,16.57,16.57,0,0,1-1.86.11,2.24,2.24,0,0,1-1.05-.3,15.48,15.48,0,0,1-1.49-1.06,1.27,1.27,0,0,0-.33-.22,21.64,21.64,0,0,0,6.64,5.32.43.43,0,0,1-.4.36,19.57,19.57,0,0,1-2,.21c-1.79,0-3.59,0-5.38-.17-2.06-.14-4.12-.36-6.16-.6A33.53,33.53,0,0,1,48.23,77,3.06,3.06,0,0,1,46.77,76a58.56,58.56,0,0,1-5.39-7.26l-.23-.36a4.56,4.56,0,0,0,.05,1.74,14.78,14.78,0,0,0,2,4.75c.05.09.11.18.22.34L43,75.1A37.08,37.08,0,0,1,38,72.88c-1.25-.64-2.49-1.32-3.74-2a3.06,3.06,0,0,1-1.38-1.46c-.93-2-1.9-4-2.85-6l-.15-.27-.11,0a3.43,3.43,0,0,0-.23.86,24.2,24.2,0,0,0,0,3,39.34,39.34,0,0,0,1.09,6.73,18,18,0,0,0,6.07,9.74,3.59,3.59,0,0,0,.54.4.86.86,0,0,1,.43.63c.07.35,0,.52-.33.66a1.92,1.92,0,0,1-1.23,0,10.42,10.42,0,0,1-3.63-1.78A44.4,44.4,0,0,1,22,73a.64.64,0,0,1-.15-.31c-.12-1.57-.29-3.13-.33-4.7a22.22,22.22,0,0,1,.8-5.31l.09-.41S22.35,62.16,22.34,62.09ZM73.06,34.77c0,.07,0,.1.06.1a8.27,8.27,0,0,0,5.1.49,1,1,0,0,0,.44-.37,3.35,3.35,0,0,0,.33-.54l.91.87a1.68,1.68,0,0,0,.08-.54,6.58,6.58,0,0,0-.31-1,12.29,12.29,0,0,0-3.33-4.69,4.39,4.39,0,0,1-1.24-1.72c-.19-.49-.4-1-.59-1.45-.29.16-.37.25-.33.55a8.29,8.29,0,0,0,.29,1.5A9.63,9.63,0,0,0,76,30.75l-.14.1A1.62,1.62,0,0,0,75.12,33,3.41,3.41,0,0,0,76,34.47l0,.1Zm.07,5.43.15-.11.4-.2a13.67,13.67,0,0,1,3.93-1.21,5.78,5.78,0,0,0,3.5-1.78c.28-.31.58-.6.86-.91a1.71,1.71,0,0,1,1.54-.61c.23,0,.45,0,.71,0a1.58,1.58,0,0,0-2.13-.49,4.73,4.73,0,0,0-.81.67A5.28,5.28,0,0,1,79,37a13.94,13.94,0,0,1-1.79.49c-2.52.43-5,.82-7.56,1.22a1.45,1.45,0,0,0-.93,1c.26-.07.51-.16.76-.22a1.71,1.71,0,0,1,1.94.66,5.74,5.74,0,0,1,.62,1A7,7,0,0,0,74,43.56a1,1,0,0,0,.9.23Zm11.48-1.09a2.11,2.11,0,0,0-.33-2,1.12,1.12,0,0,0-1.92.17c-.22.4-.21.71,0,.94a1.12,1.12,0,0,0,1.17.15.56.56,0,0,1,.89.28C84.51,38.79,84.55,38.94,84.61,39.11Z"/><path class="cls-1" d="M83.25,66.1c-.58.21-.8.69-1.06,1.15a1.8,1.8,0,0,1-2.11.44,4,4,0,0,1-1.45-1.33,11.79,11.79,0,0,1-1-1.54,4,4,0,0,0-4.34-2.07,1.93,1.93,0,0,0-1.17.68,1.5,1.5,0,0,0,.08,1.9s.1.15.08.18a.27.27,0,0,1-.2.12,1.7,1.7,0,0,1-.54-.17,2.53,2.53,0,0,1-1.24-2,4.38,4.38,0,0,1,3-4.76,7.14,7.14,0,0,1,4.59-.14,16.17,16.17,0,0,1,6.9,4,11.75,11.75,0,0,1,3.35,5.68c.17.75.43,1.48.53,2.24a15.05,15.05,0,0,1-2.14,10,19.12,19.12,0,0,1-10,8.06,37.14,37.14,0,0,1-8.37,2.07,88.79,88.79,0,0,1-13,.63,46.07,46.07,0,0,1-8.61-.81,11.4,11.4,0,0,1-1.28-.32,1,1,0,0,1-.43-.37,2.07,2.07,0,0,1-.19-.51c-.11-.28-.15-.51.2-.71a.57.57,0,0,0,.17-.8,4.66,4.66,0,0,0-.81-1.18c-.86-.79-1.79-1.5-2.66-2.27a34.92,34.92,0,0,1-6.23-7.22,4.73,4.73,0,0,1-.39-.74.45.45,0,0,1,.14-.6c.23-.15.37,0,.56.14.87.6,1.72,1.23,2.63,1.77A43.49,43.49,0,0,0,53,83a58.21,58.21,0,0,0,8.84.7,43.42,43.42,0,0,0,8.66-1,34.72,34.72,0,0,0,7.61-2.2,14.75,14.75,0,0,0,4.78-3.12,7.54,7.54,0,0,0,2.31-5.66A10.71,10.71,0,0,0,83.25,66.1Z"/></g></svg>