<svg version="1.1" id="Layer_1" xmlns="http://www.w3.org/2000/svg" xmlns:xlink="http://www.w3.org/1999/xlink" x="0px" y="0px"
	 viewBox="0 0 960 960" style="enable-background:new 0 0 960 960;" xml:space="preserve">
<path d="M315.8,514.9c11.5,48.2-24.6,63.7-47.9,86.8c-14.8,14.6-44.8,18.5-34.6,50.5c0.5,1.7-5.1,7.8-6.3,7.4
	c-28.7-10.3-58.2,9.3-86.4-1.9c-23.8-9.5-34.7-26.6-18-50.1c8.8-12.4,10.7-27.9,17.9-39.1c30.6-47.8,48.1-111,101.4-134.5
	c27.6-12.2,67.5-19.9,103.4-14.3c3.1,48.1,59.2,45,77.7,81.8c22,43.8,17.3,80.4-2.1,122c-27.3,58.5-1.5,117.7,52.1,128.1
	c28.4,5.5,53.3-0.4,72-24.3c24.8-31.6,26-67.5,13.6-102.9c-12.4-35.6-33.7-67-63.1-91.4c-32.4-26.9-34.6-55.1-13.6-91.7
	c25-43.4,61.5-77.7,89.2-119.1c13.2-19.7,54.9-12.5,84.6-14.7c1-18.4-21.7-13.7-25.3-28.3c20.5-8,39.6-4.5,58.8,5.2
	c16.4,8.3,16.6,7.8,38.4-5.1c7.9-4.7,12.3,2.5,17.2,5.8c55.4,37.9,102.5,85.6,140.1,140c15.3,22.1-14,43.4-35.8,50.8
	c-24.5,8.4-50.2,14.3-83.2,29.6c23.9-40-1-41.2-22.1-50.6c-37.9-16.9-91.1-16.4-95.4-76.2c-4,2.2-8.4,3.9-8.3,4.6
	c7.4,34.6-3.2,66.6-13.4,98.8c-4.9,15.5,5.4,24.3,16.3,33.4c37.3,31,69.6,67.1,99.2,105.2c40.7,52.4,37.6,106-0.8,159.1
	c-89.6,123.7-212.7,149.7-353.2,122.3c-74.9-14.6-135.2-83.9-145.7-159.5c-3.9-27.7-2.5-57.8,18.3-75.4
	c33.2-28.2,45.1-67.7,66.3-102.2C336.6,549.6,347.1,531.3,315.8,514.9z M749.6,367.5c0.7,43.5,9.6,50.6,46.7,36.6
	C783.8,387.8,767.9,376.6,749.6,367.5z M233,511.9c-18.2,18.2-35.5,28.3-41.9,50.8C223.5,563.1,241.2,553.2,233,511.9z"/>
<path d="M503.7,144.9c-16.9,14.2-14.8,26.5-12.1,34.9c8.7,27.1,3.7,48-18.2,66.9c-24.2,20.9-3.4,34.6,10.7,48.1
	c41.4,39.5,41.2,39.2,5.6,84.6c-12.3,15.7-26,31.5-33.6,49.6c-12.9,30.7-28.7,28.9-51,11.3c-33.9-26.8-62.9-58.4-88.6-92.7
	c-35.4-47.3-34.6-78.2-4-128.9c5.3-8.8,35.5-24.8-2.9-34.3c-11-2.7,0.2-12.5,3.9-18.5c9.4-15,21.2-27.8,37-36
	c15-7.8,30.6-14.4,54.9-25.6c-17.5-4-26.2-6-40.1-9.2c41.8-34.6,86.2-28.2,129.2-25.2c7.2,0.5,16.3,6.8,22.4,2.4
	c10.9-7.9-3.9-12-4.5-17.3c-1.1-9.5,8.4-6.5,14.7-6.6c45.9-1.2,81.6,22.1,115.5,48.9c12.8,10.1,25.2,16.2,42,19.5
	c39.3,7.7,54.4,45.8,73.3,74c10.9,16.4-13.4,34.8-34.3,40.2c-23,6-55.8,17-68.7,10c-40.9-22.4-87.2-8-126.5-27.6
	C502.2,200.1,506.2,173.8,503.7,144.9z M603.5,128.5c3.5,41.3,27.1,43.9,59.5,39.5C645.5,149.9,627.4,138.9,603.5,128.5z"/>
</svg>
