<svg width="22" height="22" viewBox="0 0 22 22" fill="none" xmlns="http://www.w3.org/2000/svg">
<g clip-path="url(#clip0)">
<path d="M14.3275 7.44446C14.3662 7.33688 14.3909 7.2227 14.3909 7.10192V6.83154C14.3909 6.57106 14.2897 6.33544 14.1284 6.15482C14.2897 5.9742 14.3909 5.7388 14.3909 5.4781V5.20772C14.3909 4.87332 14.227 4.57852 13.9777 4.3924L14.7475 2.0351C14.7504 2.0263 14.751 2.01728 14.7532 2.00848C14.7574 1.99242 14.7618 1.97614 14.7638 1.96008C14.7653 1.94798 14.7649 1.93632 14.7653 1.92422C14.7658 1.90992 14.7669 1.89584 14.766 1.88176C14.7651 1.86878 14.7625 1.85624 14.7603 1.8437C14.7581 1.83072 14.7565 1.81752 14.7532 1.80476C14.7499 1.79266 14.7451 1.78144 14.7409 1.76978C14.7361 1.7568 14.7319 1.74382 14.7259 1.7315C14.7207 1.72094 14.7141 1.71104 14.7079 1.70092C14.7006 1.6886 14.6936 1.67628 14.685 1.66484C14.6775 1.65472 14.6683 1.64592 14.6599 1.63668C14.6509 1.62634 14.6423 1.616 14.6322 1.60698C14.6212 1.59708 14.6085 1.58872 14.5964 1.58014C14.5878 1.57398 14.5805 1.56694 14.5713 1.56144C14.5207 1.53108 14.4677 1.4785 14.4067 1.41778C14.2391 1.25146 13.9859 1 13.5159 1C13.0473 1 12.7948 1.25102 12.6274 1.41712C12.4885 1.55484 12.4388 1.5984 12.3108 1.5984C12.183 1.5984 12.133 1.55484 11.9944 1.41712C11.827 1.25102 11.5742 1 11.1056 1C10.6359 1 10.3827 1.25124 10.2148 1.41734C10.076 1.55484 10.0261 1.5984 9.89826 1.5984C9.77022 1.5984 9.72028 1.55484 9.58168 1.41712C9.41426 1.25102 9.1617 1 8.6931 1C8.22142 1 7.96754 1.25278 7.79946 1.4202C7.74908 1.47058 7.7053 1.5137 7.66328 1.54494C7.65184 1.55396 7.64106 1.56364 7.63072 1.57376C7.4754 1.7106 7.44526 1.94424 7.56912 2.11496L8.30766 4.37106C8.043 4.55564 7.86854 4.86144 7.86854 5.20794V5.47832C7.86854 5.7388 7.96974 5.97442 8.131 6.15504C7.96974 6.33566 7.86854 6.57106 7.86854 6.83176V7.10214C7.86854 7.22292 7.8934 7.3371 7.9319 7.44468C5.26396 8.85708 3 13.708 3 16.5C3 20.2165 6.49508 20.8 11.1298 20.8C15.7646 20.8 19.5 20.2165 19.5 16.5C19.5 13.708 16.9957 8.85708 14.3275 7.44446ZM8.6931 1.81158C8.82114 1.81158 8.87108 1.85514 9.00968 1.99286C9.1771 2.15896 9.42966 2.40998 9.89826 2.40998C10.3662 2.40998 10.619 2.1594 10.7862 1.99352C10.9257 1.85536 10.9758 1.81158 11.1054 1.81158C11.2334 1.81158 11.2834 1.85514 11.422 1.99286C11.5892 2.15896 11.842 2.40998 12.3103 2.40998C12.7789 2.40998 13.0315 2.15896 13.1989 1.99286C13.3377 1.85514 13.3875 1.81158 13.5155 1.81158C13.6451 1.81158 13.695 1.85514 13.8343 1.9933C13.8519 2.0109 13.8706 2.02916 13.8895 2.04742L13.1908 4.18692H9.10164L8.38136 1.98648C8.5138 1.85514 8.56616 1.81158 8.6931 1.81158ZM13.3703 5.68732H8.88934C8.77582 5.68732 8.68034 5.59162 8.68034 5.47832V5.20794C8.68034 5.09464 8.77604 4.99894 8.88934 4.99894H13.3701C13.4836 4.99894 13.5791 5.09464 13.5791 5.20794V5.47832C13.5793 5.59162 13.4836 5.68732 13.3703 5.68732ZM13.5793 6.83154V7.10192C13.5793 7.21522 13.4836 7.31092 13.3703 7.31092H8.88934C8.77582 7.31092 8.68034 7.21522 8.68034 7.10192V6.83154C8.68034 6.71824 8.77604 6.62254 8.88934 6.62254H13.3701C13.4836 6.62254 13.5793 6.71824 13.5793 6.83154ZM11.1298 19.9884C7.83378 19.9884 3.76587 20.4123 3.76587 16.5C3.76587 13.9044 5.99656 9.25924 8.51754 8.05034C8.63304 8.09588 8.758 8.12294 8.88956 8.12294H13.3703C13.5019 8.12294 13.6266 8.09588 13.7423 8.05034C16.2633 9.25924 18.5 13.9044 18.5 16.5C18.4998 20.4123 14.4259 19.9884 11.1298 19.9884Z" fill="#FFB948"/>
<path d="M14.5 10C14.5 10.3333 13.6 11.4 12 11" stroke="#FFB948"/>
<path d="M16 13C15 14.5 13.6 14.4 12 14M11.5 7.5C14 10.5 14 12.5 15 20" stroke="#FFB948"/>
<path d="M17 16C17 17 14.6 17.9 13 17.5" stroke="#FFB948"/>
</g>
<defs>
<clipPath id="clip0">
<rect width="22" height="22" fill="white"/>
</clipPath>
</defs>
</svg>
