<svg width="22" height="22" viewBox="0 0 22 22" fill="none"
    xmlns="http://www.w3.org/2000/svg">
    <path d="M11.0568 12.9941C9.02579 12.7412 7.36405 12.9941 7.27173 13.5L7.21565 16.8803C7.21565 16.8803 8.60044 18.651 13.2164 17.8078L14.2319 14C14.3242 13.4941 13.0878 13.2471 11.0568 12.9941ZM16.8168 7.2684C16.9091 6.84682 16.9091 6.08798 16.5399 5.58209C16.3552 5.32915 16.1706 5.16052 15.8936 5.0762L15.8013 3.30558L15.709 3.22126C15.6167 3.13695 13.1241 1.11338 9.61595 2.46243L9.43131 2.54674L8.69276 4.14873C7.40029 4.31736 6.84638 5.16052 6.75406 5.91935C5.55391 6.1723 5 7.2684 5 9.03902V17.6392L5.09232 17.7235C5.18464 17.8078 7.03102 20 11.093 20C12.1086 20 13.3087 19.8314 14.6935 19.4941L14.9704 19.4098L17.8323 10.7253C18.1093 9.96648 18.2016 8.19586 16.8168 7.2684ZM9.98522 3.13695C10.5391 3.38989 11.37 3.55852 12.2932 3.72716C13.3087 3.81147 14.2319 3.81147 14.7858 3.64284L14.8781 4.99188C11.7393 5.49778 9.98522 4.73894 9.43131 4.31736L9.98522 3.13695ZM8.69276 4.99188C9.15435 5.32915 10.4468 6.08798 12.8471 6.08798C13.5857 6.08798 14.3242 6.00367 15.2474 5.83504C15.432 5.83504 15.5244 5.91935 15.6167 6.08798C15.8936 6.42524 15.8013 7.09977 15.709 7.35271C10.1699 8.53313 7.86189 6.59387 7.30797 6.08798C7.49261 5.75072 7.67725 5.0762 8.69276 4.99188ZM16.9091 10.5567L14.2319 18.7353C8.87739 20 6.38478 17.8078 5.92319 17.3019V9.03902C5.92319 7.77429 6.29246 6.84682 6.84638 6.67819C7.40029 7.18408 9.15435 8.53312 12.5702 8.53312C13.678 8.53312 14.9704 8.3645 16.3552 8.02723C17.4631 8.87039 16.9091 10.4724 16.9091 10.5567Z" fill="var(--icon-color, #FFB948)"/>
</svg>
