<svg width="30" height="30" viewBox="0 0 30 30" fill="none"
    xmlns="http://www.w3.org/2000/svg">
    <path d="M22 10.5C22 11.8807 20.8807 13 19.5 13C18.1193 13 17 11.8807 17 10.5C17 9.11929 18.1193 8 19.5 8C20.8807 8 22 9.11929 22 10.5Z" fill="var(--icon-color, currentcolor)"/>
    <path d="M12 15.5C12 16.8807 10.8807 18 9.5 18C8.11929 18 7 16.8807 7 15.5C7 14.1193 8.11929 13 9.5 13C10.8807 13 12 14.1193 12 15.5Z" fill="var(--icon-color, currentcolor)"/>
    <path d="M21 20.5C21 21.8807 19.8807 23 18.5 23C17.1193 23 16 21.8807 16 20.5C16 19.1193 17.1193 18 18.5 18C19.8807 18 21 19.1193 21 20.5Z" fill="var(--icon-color, currentcolor)"/>
    <path d="M10.6589 14.2949L17.4451 10.6173L17.9216 11.4965L11.1353 15.1741L10.6589 14.2949Z" fill="var(--icon-color, currentcolor)"/>
    <path d="M11.4859 16.1466L17.2985 19.5025L16.7985 20.3685L10.9859 17.0126L11.4859 16.1466Z" fill="var(--icon-color, currentcolor)"/>
</svg>
