<svg width="100" height="101" viewBox="0 0 100 101" fill="none"
	xmlns="http://www.w3.org/2000/svg">
	<path d="M58.0126 34.3011C58.3552 35.1751 57.943 36.1688 57.092 36.5206C56.241 36.8724 55.2734 36.4491 54.9308 35.5752C54.5882 34.7012 55.0004 33.7075 55.8514 33.3557C56.7024 33.0039 57.67 33.4272 58.0126 34.3011Z" fill="var(--icon-color, currentcolor)"/>
	<path d="M63.7679 42.5874C64.6189 42.2356 65.0311 41.2419 64.6885 40.368C64.3459 39.494 63.3783 39.0708 62.5273 39.4226C61.6763 39.7744 61.2641 40.7681 61.6067 41.642C61.9493 42.516 62.9169 42.9393 63.7679 42.5874Z" fill="var(--icon-color, currentcolor)"/>
	<path d="M73.4532 42.6288C73.7958 43.5028 73.3836 44.4965 72.5326 44.8483C71.6816 45.2001 70.714 44.7768 70.3714 43.9029C70.0288 43.0289 70.441 42.0352 71.292 41.6834C72.143 41.3316 73.1106 41.7549 73.4532 42.6288Z" fill="var(--icon-color, currentcolor)"/>
	<path fill-rule="evenodd" clip-rule="evenodd" d="M55.9141 25.25C59.963 26.7093 70.7815 31.8814 79 39.5047C74.6605 51.0846 56.6477 75.166 20.3104 76.7045L19 76.76L19.945 75.8261C33.7866 62.1458 48.7821 45.5969 55.4232 26.6506L55.9141 25.25ZM38.531 72.7814C33.428 74.2548 27.7896 75.2599 21.5875 75.6178C25.0779 72.1472 28.637 68.4874 32.1105 64.6465C32.5085 64.6482 33.458 64.9891 34.7017 66.3199C35.8484 67.5468 37.2001 69.5707 38.531 72.7814ZM39.4937 72.496C40.2488 72.2663 40.9919 72.0263 41.723 71.7766C40.2516 68.1558 38.6462 65.8095 37.251 64.364C36.5249 63.6118 35.8595 63.1073 35.3035 62.7924C34.793 62.5033 34.3979 62.387 34.1437 62.3651C33.7286 62.838 33.3117 63.3083 32.8934 63.7759C33.6073 64.0283 34.482 64.6094 35.4195 65.6125C36.6841 66.9656 38.1138 69.1372 39.4937 72.496ZM34.9024 61.4957C35.1789 61.5886 35.475 61.7228 35.7839 61.8977C36.4362 62.2671 37.176 62.8351 37.9575 63.6448C39.4687 65.2105 41.1496 67.6942 42.6669 71.4466C46.6392 70.0251 50.2512 68.3178 53.5188 66.4255C53.3107 64.1406 51.8309 61.0153 49.5628 58.4319C47.2748 55.826 44.2814 53.8807 41.1602 53.8526C39.1503 56.4697 37.0515 59.0181 34.9024 61.4957ZM60.9355 61.4026C61.8152 60.7109 62.66 60.0085 63.4704 59.2988C63.1974 55.432 60.6782 51.9066 57.5422 49.0351C54.5214 46.269 51.0021 44.1783 48.618 43.0502C47.5231 44.8454 46.3704 46.6133 45.1703 48.3534L46.8022 49.2545L49.1827 46.023L53.0975 49.0645L50.595 51.9685L52.2884 53.6544L55.0544 51.3847L57.945 55.2981L55.2354 57.5216L56.9448 59.8358L59.5905 57.9715L60.9355 61.4026ZM60.1124 62.0387L59.1308 59.5345L56.7255 61.2294L53.8565 57.3453L56.5661 55.1218L54.8784 52.8369L52.225 55.0142L49.2199 52.0226L51.6405 49.2136L49.3759 47.4542L47.0815 50.5687L44.5873 49.1914C43.7167 50.4317 42.8227 51.6576 41.9088 52.8691C45.134 53.1719 48.0868 55.2252 50.3016 57.7478C52.5213 60.276 54.0839 63.3705 54.4544 65.8731C56.4758 64.6564 58.3604 63.3698 60.1124 62.0387ZM49.1458 42.1754C51.598 43.3487 55.1429 45.4693 58.2043 48.2725C61.2203 51.0341 63.8378 54.5238 64.385 58.4817C71.2991 52.1801 75.5547 45.4176 77.5258 40.5641C73.3009 40.5556 68.5964 39.2821 64.5787 37.0561C60.7608 34.9409 57.506 31.9323 55.9016 28.2637C54.1174 33.0624 51.8139 37.7024 49.1458 42.1754Z" fill="var(--icon-color, currentcolor)"/>
</svg>