<?xml version="1.0" encoding="UTF-8"?>
<svg xmlns="http://www.w3.org/2000/svg" viewBox="0 0 72.4 72.4" width="128" height="128" style="padding: 15px; opacity: 0.6;" version="1.1"><g transform="translate(21.90, 24.40)"><path fill="var(--icon-color, currentcolor)" d="M40.6 50h-4.7c-.9-2.2.3-5.9-.3-7.9s-2.3-1.6-2.7-2.8 0-2.5 0-3.8l-6.5-7.8c0-.6 3.7-3.6 4.2-3.6l6.6 8.9c2.7.9 4.5 2.4 4.1 5.5-2.3 3.5-.2 7.6-.6 11.5Z" /><path fill="var(--icon-color, currentcolor)" d="M63.1 34.3c-1.1-1.3-1.9-3.7-2.9-5.2-1.8-2.5-5.6-6.1-8.7-6.4-4.3-.5-.3 2.7.6 3.8 7.4 9.6 4 24-6.8 29.3-17 8.3-34.5-9.5-26.1-26.4 4.3-8.6 14.7-12 23.8-11.4 1.3 0 7 1.5 7.4 1.3 1.8-.6 2.2-3.3 2.9-4.8-.7 0-1 .7-1.6.8-.6 0-1.8-.5-2.6-.5-1.9 0-3.8.2-5.7-.1.8-.6 6.6-2.3 7-1.9v1.3c1 .6 1.6-1 2.4-1.4.6-.2 1.2 0 1.4 0 .4-.2 1.4-2.8 1-3.4s-2 0-3-.5c-.6-.4-1.7-2.5-1.9-3.2-1.1 0-1 1.4-1.2 2.2 0 .3.1.7-.4.4-.5-.2-3.1-1.7-3.5-2-1-.8-1.6-1.9-2.3-2.9-.8-.4-.3 1.9-.4 2-4.4-.6-8.4-2.9-12.1-5.2-.4.3-.4.4-.4.9.1 1 1.4 3.1 2 3.8L34 7c-1.4-.1-3.2 1-4.3 1.1-2.5.2-5.7-.7-8.3.7-.4.2-1.1.6-.7 1.1l4.7 2.6c-1.2.8-2.6 1.3-3.8 2-.8.5-3.4 2.4-3.9 2.6-1.1.3-3.1-.9-4.4-.8l1.1 4.7c-3 4.1-5.1 8.7-5.8 13.8-1 .2-5.7 2.9-5.8 3.7 0 .4 0 .6.3.9.6.7 4.9 2.3 5.5 3.1.8 5 3 9.8 6.1 13.8l-.8 4.7c.4.4 3.7-1.1 4.7-.8.6.2 4 2.9 5.3 3.5 2.4 1.2 5.1 1.9 7.8 2.4l4.5 6.2 4-6.2c4-.6 7.5-2.1 11-4.2.7-.4 2.1-1.7 2.6-1.8 1.1-.2 3.4 1.5 4.7 1.1l-1.1-4.4c3-4.4 5.5-9 6.1-14.4.4-.6 4.4-2.4 5.3-3 .3-.2.5-.3.5-.7 0-1-5.3-3.4-6.3-4.5ZM41.3 7.1c3 0 2.9 4.5 0 4.5-3 0-2.7-4.5 0-4.5" /></g></svg>