<svg xmlns="http://www.w3.org/2000/svg" width="512" height="512" fill="none" viewBox="0 0 30 30"><path fill="#000" d="M2.004 11.214v-.752c.113-.038.225-.087.346-.085.486.005.973-.021 1.46.015.08.006.158-.005.195-.09.045-.104.107-.208.111-.324.012-.378.009-.755.109-1.128.044-.164.052-.34.105-.51.346-1.111 1.072-1.884 1.999-2.474.361-.23.75-.406 1.151-.558.538-.206 1.066-.437 1.623-.573.794-.194 1.59-.378 2.405-.442.07-.005.142-.023.21-.042a1.74 1.74 0 0 1 .438-.068 1.16 1.16 0 0 0 .379-.071.99.99 0 0 1 .28-.05c.296-.017.591-.034.887-.037 1.258-.017 2.517-.089 3.768.13.474.084.953.14 1.428.224.668.12 1.317.326 1.973.503.5.135.987.31 1.463.512.515.218 1.02.472 1.503.769.57.35 1.056.783 1.42 1.365.24.384.435.782.536 1.235.092.41.186.819.197 1.241.01.371.001.371.36.373.469 0 .936-.002 1.404 0 .19.002.237.055.242.251.004.12.001.24 0 .361 0 .272-.037.31-.3.312l-1.546.001c-.19 0-.238.038-.263.238a4.82 4.82 0 0 1-.135.66c-.103.39-.154.796-.31 1.171-.068.162-.025.212.15.206.739-.027 1.479-.005 2.218-.013.105 0 .157.051.173.157.026.18.013.36.014.54 0 .21-.02.23-.224.23h-2.147c-.139 0-.277 0-.415.005-.102.004-.192.045-.215.162-.061.307-.204.582-.312.87-.126.341-.264.678-.41 1.009-.11.248-.119.243.145.243l3.321-.002c.224 0 .256.034.258.27.002.13 0 .26 0 .39 0 .259-.008.268-.26.268-1.255 0-2.51.002-3.765-.003-.159 0-.262.043-.32.204-.16.443-.451.812-.65 1.233-.083.175-.189.337-.283.505-.049.087-.185.16-.14.257.052.117.197.061.303.061 1.622.003 3.245.002 4.867.003.204 0 .244.038.248.252.004.165 0 .33 0 .495 0 .098-.047.15-.14.15-.105.002-.21.003-.316.003-1.77 0-3.54.002-5.311-.004a.476.476 0 0 0-.458.26c-.153.258-.333.5-.503.748-.455.665-.962 1.282-1.47 1.9-.284.344-.565.693-.89.997-.268.249-.53.504-.796.755-.63.592-1.328 1.046-2.147 1.307-.973.31-1.902.185-2.795-.26-.747-.373-1.394-.906-1.98-1.517-.535-.56-1.023-1.163-1.502-1.773a18.894 18.894 0 0 1-1.417-2.056c-.149-.252-.333-.368-.632-.366-1.674.013-3.349.007-5.025.007-.205 0-.41.007-.614-.03v-.841c.143-.01.285-.026.428-.026h4.75l.142-.001c.048-.003.1-.003.123-.058.02-.05-.013-.085-.04-.12a5.872 5.872 0 0 1-.531-.924 16.29 16.29 0 0 0-.475-.925.418.418 0 0 0-.408-.235c-1.211.007-2.421.003-3.633.004-.12 0-.238-.004-.356-.027v-.811a.637.637 0 0 1 .383-.09c.267.005.534 0 .8 0 .83 0 1.66.001 2.49 0 .174 0 .199-.04.124-.204-.063-.14-.148-.27-.203-.414-.188-.492-.386-.981-.528-1.491-.038-.136-.109-.182-.237-.18-.3.005-.601.007-.9 0-.644-.011-1.288.034-1.931-.028v-.841c.285-.084.576-.054.865-.055.558-.003 1.115 0 1.673 0h.057c.07-.003.093-.039.074-.108-.074-.258-.143-.518-.222-.775-.11-.363-.168-.738-.237-1.11-.041-.224-.072-.269-.296-.269-.51 0-1.02-.003-1.529 0A.706.706 0 0 1 2 11.216l.004-.002ZM18.3 13.233l-.06.994c-.056.982-.41 1.864-.814 2.732-.2.43-.52.765-.791 1.138-.474.65-.986 1.263-1.596 1.778-.414.35-.851.662-1.301.956-.715.468-1.455.881-2.284 1.09-.086.023-.24.006-.234.115.005.11.151.127.254.15l.057.007c.223.023.448.04.67.072.907.132 1.803.12 2.688-.174.505-.167 1.021-.301 1.5-.542a7.984 7.984 0 0 0 2.495-1.957 7.733 7.733 0 0 0 1.121-1.682c.367-.764.685-1.545.796-2.402.009-.065.007-.154.084-.177.071-.02.107.054.15.096.287.29.5.63.667 1.006.024.056.049.135.123.13.079-.005.104-.082.121-.15.167-.63.31-1.263.301-1.92a11.269 11.269 0 0 0-.105-1.331c-.066-.488-.157-.97-.33-1.427-.125-.33-.289-.643-.43-.965-.462-1.05-1.113-1.953-1.967-2.677a6.302 6.302 0 0 0-3.317-1.477 14.36 14.36 0 0 0-.527-.058c-.052-.005-.11 0-.135.06-.027.065.027.098.066.134a.473.473 0 0 0 .08.063c.333.208.624.473.921.735.497.438 1.008.858 1.431 1.378.245.3.553.555.724.907.36.737.79 1.446.968 2.269.011.05.064.11.008.15-.052.037-.097-.024-.139-.053a4.521 4.521 0 0 0-1.204-.619c-.063-.02-.128-.056-.185.01-.052.058-.047.13-.02.197.18.46.176.95.213 1.442v.002Zm-9.742 1.39c0 .07-.002.14 0 .21.002.049-.004.112.048.132.066.024.088-.042.118-.086.156-.234.31-.469.466-.702.227-.337.49-.641.756-.942.109-.123.156-.114.24.03.081.141.16.285.234.43.283.552.559 1.11.708 1.72.153.629.335 1.254.328 1.916 0 .104.023.206.136.237.32.088.646.183.972.154.788-.07 1.542-.276 2.21-.75 1.004-.716 1.7-1.647 1.887-2.944.077-.536-.017-1.046-.163-1.552-.032-.109-.083-.213-.132-.316-.026-.054-.066-.104-.13-.104-.074 0-.087.07-.107.125-.13.36-.339.67-.562.97-.465.625-1.061 1.06-1.74 1.384-.111.053-.183.027-.227-.09l-.04-.113c-.4-1.081-.919-2.08-1.773-2.85-.117-.105-.117-.156-.003-.268.15-.147.318-.271.464-.425.538-.57 1.194-.897 1.94-1.053.813-.171 1.604-.035 2.394.15a5.39 5.39 0 0 1 1.366.529c.03.017.07.058.101.014.026-.038-.013-.074-.038-.104-.159-.192-.317-.386-.479-.578a6.949 6.949 0 0 0-.785-.809c-.409-.35-.874-.609-1.31-.913-.821-.573-1.74-.884-2.705-1.05-.64-.11-1.281-.129-1.917.04-.073.019-.188.006-.196.111-.006.095.104.103.17.132.342.148.636.362.882.653.07.082.113.162.005.253a5.263 5.263 0 0 0-.657.69c-.83.992-1.452 2.118-1.943 3.328-.316.777-.45 1.6-.514 2.439l-.004.001Z"/></svg>