<svg id="Layer_1___7dxxYYYE" data-name="Layer 1" xmlns="http://www.w3.org/2000/svg" viewBox="0 0 100 100"><path d="M84.58,73.75l-18.66.42L79.8,71.33A21.14,21.14,0,0,0,79.47,68l-4.93-.19-3-32.84,3.08-.25s0-1.75-.37-2.17a73,73,0,0,0-7-2.66s11.82,0,14.55.56c0,0-2.79-10.51-2.79-13.17H74.14l-.31-3.5L57.65,14.89v3.62h-16V14.34l-16.3-.9-.07,3.8H21.08s-2.54,12.44-2.9,13S28.8,29.56,33,29.56c0,0-7.25,2.89-7.79,3.37s-.12,1.52-.12,1.52l2.46.54L24.7,67.83s-4.29-.37-4.29,0-.79,3.38-.79,3.38L36,74.05,15,74.47,13.17,86.79H86.7ZM63.87,68.82c-.35.25-12.91.66-14,.66s-14.57-.66-14.57-.66l2.05-34.16,4.22-.25V29.2H58.08v5.38h3.81s2.35,34,2,34.21Z"></path><path d="M40.09,39.55s5.37-1.39,6.28,1.82c0,0-7.49,2.77-7.49,7.49,0,0,3.2-2.6,3.69-1.75s-.24,3.08-2.11,5.06-2.11,7.07-.55,8.15c0,0,.91-5.26,2.66-5.8s2.11.61,2.11,1.7-1.44,7.85,3.7,9.6c0,0-3-6,.6-8.39,0,0,4.35,8.75,9.72,4.93,0,0-4.35-1.15-4.64-3.7s1.81-1.93,3.56-2.78A7.51,7.51,0,0,0,61,50.63s-2.65,2.83-4.7,1.93,0-2.66,0-2.66,3.38-3.14,3.69-4.47a18.32,18.32,0,0,0,0-4.85s-.77,3.51-2.1,3.69-2.19-2.46-2.19-2.46-.11-6.76-4.76-7.39A11.1,11.1,0,0,1,52.81,38a1.65,1.65,0,0,1-2.73,1.64c-1.54-1.15-2.75-2.47-5-2.66A6.49,6.49,0,0,0,40.09,39.55Z"></path></svg>