<?xml version="1.0" encoding="UTF-8"?>
<svg width="128" height="128" version="1.1" viewBox="0 0 33.866666 33.866668" style="padding: 15px; opacity: 0.6;"
    xmlns="http://www.w3.org/2000/svg">
    <g>
        <path d="m31.835 4.2163s-3.6972 2.9032-4.5408 2.8536c-0.79829-0.046958-1.1839-0.763-1.8738-2.1616 0.42559 1.0267 0.06253 2.9311 0.06253 2.9311l2.2831 1.3146c0.45355 0.38535-0.1988 1.1416-0.67024 0.9679 0 0-1.2405-0.74455-1.8609-1.0671-0.24813 0.64513-1.712 1.464-1.712 1.464s1.5631-0.22294 1.8113 0.447c0.24813 0.66995-1.3648 3.5481-1.3648 3.5481s2.1339-2.5808 3.2008-2.4815c1.067 0.09925 3.3001 3.052 3.3001 3.052s-1.3896-3.722-1.3648-4.64c0.02481-0.91807 3.2758-1.34 3.2758-1.34s-3.5486 0.074739-3.5982-0.91777c-0.04963-0.99251 3.052-3.9703 3.052-3.9703zm-6.4146 0.69195c-0.03257-0.078558-0.06878-0.15312-0.1111-0.22014 0.04134 0.084019 0.07192 0.1407 0.1111 0.22014zm-1.6066 2.8102c-1.8151-0.036607-3.0444 0.92267-3.5786 1.4009-0.68476-0.50253-1.2656-0.63045-1.2656-0.63045l-1.7896 1.5436 1.3333 0.94775-0.31729 0.41031c-0.92158-0.73614-1.9634-1.3076-3.0794-1.6893-0.15715 0.24949-0.43119 0.40105-0.72605 0.40153-0.45001-1.6e-5 -0.82386-0.34705-0.85731-0.79582-0.5571-0.096926-1.1213-0.14757-1.6867-0.15141-4.6884 0.0044371-8.7757 3.1905-9.9245 7.736 0.19112 0.11539 0.30921 0.33008 0.30954 0.56276-4.577e-4 0.32599-0.22954 0.60107-0.53537 0.64286-0.059804 0.43245-0.091909 0.86828-0.096118 1.3048 0.00329 5.3234 4.0824 9.7575 9.387 10.204-0.0029-0.0092-0.0054-0.01847-0.0072-0.02791-0.04878-0.27804 0.36204-0.61322 0.91777-0.74879 0.5559-0.13562 1.0464-0.02016 1.0955 0.25787 0.02905 0.16588-0.10701 0.3609-0.3638 0.52141 1.0805-0.08083 2.1413-0.33252 3.143-0.74569-0.09144-0.31113 0.01669-0.70933 0.27544-1.0144 0.3597-0.42391 0.89113-0.53519 1.187-0.24856 0.09953 0.09715 0.16308 0.23228 0.18345 0.39016 2.9117-1.8866 4.6709-5.1186 4.6747-8.5881-0.0024-0.72181-0.08102-1.4414-0.23461-2.1466-0.02688 0.0038-0.05398 0.0059-0.08113 0.0062-0.34893 2.05e-4 -0.63192-0.28256-0.632-0.63149 1.93e-4 -0.24762 0.14505-0.47228 0.37052-0.57464-0.32736-0.94115-0.79026-1.8295-1.3741-2.637 0.23671-0.30125 0.72754-0.89497 1.881-2.1926-0.23488-0.45168-0.55173-0.85109-0.89194-1.1968 1.67-1.4828 3.8396-1.1539 3.8396-1.1539s-0.03531 0.21056 0.21032-1.0878c-0.50004-0.061409-0.95415-0.060406-1.3668-0.068729zm-12.704 2.8055 0.06976 1.6495s-1.1907 0.09334-2.5745 0.72347l-0.83199-1.4697c0.96268-0.43592 2.0722-0.74987 3.3367-0.9033zm-4.1346 1.3121 0.91674 1.4289c-2.3775 1.3809-4.8257 4.4807-2.6774 11.401-3.3639-4.1554-2.9217-10.131 1.7606-12.83z" fill="var(--icon-color, currentcolor)"/>
    </g>
</svg>
