<svg xmlns="http://www.w3.org/2000/svg" viewBox="0 0 25 25"><path d="M13.15 24.65h-.85s-.05 0-.07-.01c-.22-.02-.45-.03-.67-.06a9.59 9.59 0 0 1-2.67-.71 9.64 9.64 0 0 1-4.22-3.46c-1.1-1.6-1.67-3.38-1.72-5.33-.02-.67.04-1.34.16-2 0-.04 0-.09-.02-.12a10 10 0 0 0-.79-1.17c-.37-.46-.8-.88-1.22-1.3-.1-.1-.16-.22-.19-.35-.03-.13 0-.25.08-.35.07-.08.15-.16.24-.23.53-.38 1.1-.68 1.72-.89.21-.07.42-.13.63-.2 0-.02-.02-.04-.03-.06-.2-.36-.33-.74-.37-1.15-.09-.85.19-1.55.86-2.07.76-.59 1.65-.8 2.6-.75.45.02.88.1 1.31.2.82.18 1.61.45 2.35.84.25.13.48.28.73.41.62.31 1.24.61 1.86.91.36.17.74.23 1.13.21a2.4 2.4 0 0 0 1.22-.38c.25-.16.44-.37.57-.64.18-.37.21-.76.15-1.16-.03-.2-.09-.4-.18-.58-.13-.27-.33-.49-.55-.69-.07-.06-.15-.1-.23-.15l-.02.02s.02.05.03.07c.12.3.19.6.17.92-.03.33-.15.62-.45.8-.17.11-.36.15-.55.16-.64.06-1.23-.1-1.77-.45-.53-.34-.96-.78-1.33-1.29-.26-.36-.47-.74-.59-1.17-.11-.41-.05-.8.23-1.13.25-.3.55-.54.92-.68.73-.29 1.5-.35 2.26-.25.89.11 1.72.43 2.48.91.63.4 1.17.9 1.65 1.47.3.37.58.75.8 1.17.35.67.58 1.38.71 2.13a5.95 5.95 0 0 1-.06 2.45s.11-.03.16-.04c.47-.1.94-.08 1.41-.02.78.1 1.52.34 2.22.68.24.11.48.25.67.44.17.16.21.35.11.56-.08.17-.17.33-.25.5-.51 1.02-.96 2.06-1.34 3.13-.02.05-.03.11-.02.17.06.74.05 1.47-.05 2.2-.13.95-.39 1.87-.79 2.74a9.622 9.622 0 0 1-3.55 4.13c-1.38.91-2.9 1.42-4.55 1.56-.12 0-.24.02-.36.03l.03.03Zm.18-5.35s.05.02.07.04c.23.15.47.28.69.45.78.61 1.33 1.39 1.62 2.34.06.19.09.38.14.57.03.12.11.15.21.09.04-.02.07-.06.09-.09.04-.07.08-.13.09-.21.1-.4.22-.8.28-1.21.07-.48.09-.97.11-1.46.03-.5 0-1-.08-1.5-.09-.59-.2-1.18-.31-1.77-.07-.37-.14-.74-.25-1.1-.2-.63-.46-1.24-.82-1.8-.37-.57-.76-1.13-1.14-1.69a4.12 4.12 0 0 0-.84-.93c-.03-.03-.07-.05-.1-.07-.07-.04-.14-.03-.19.03-.04.04-.07.1-.09.15-.08.25-.15.51-.24.76-.39 1.1-1.04 2.03-1.88 2.84-.11.1-.22.19-.34.29a.163.163 0 0 0-.03-.06l-.33-.9c-.28-.76-.62-1.49-1.09-2.16-.78-1.1-1.82-1.81-3.11-2.18a3.26 3.26 0 0 0-1.52-.08c-.36.06-.71.18-1.06.3-.17.05-.33.14-.49.23-.09.05-.08.12-.02.19.17.19.35.38.52.57.41.48.7 1.03.96 1.6.34.76.65 1.54.96 2.31.16.39.3.78.43 1.18.14.43.26.87.4 1.3.36 1.07.78 2.11 1.42 3.05.49.72 1.06 1.38 1.75 1.92.32.25.66.48 1.04.62.06.02.11.02.17 0 .26-.13.51-.26.74-.43.17-.13.35-.26.51-.4.65-.58 1.1-1.3 1.44-2.09.09-.22.18-.45.28-.68v-.02Zm7.47-9.55c-.61.06-1.13.22-1.63.49-.6.33-1.09.8-1.55 1.3-.25.28-.43.59-.58.93-.04.09-.04.18 0 .26.1.17.19.36.26.54.07.19.16.38.22.57.33.98.48 1.99.54 3.01.07 1.18-.04 2.34-.34 3.49-.02.06-.03.13-.03.19 0 .03.03.08.06.09.03.01.09 0 .11-.02.29-.26.56-.54.75-.88.39-.68.73-1.39 1.02-2.11.34-.84.6-1.72.9-2.58.21-.61.41-1.21.68-1.8.26-.56.52-1.12.77-1.68.18-.39.36-.79.54-1.18.04-.09 0-.17-.09-.21-.4-.16-.81-.3-1.23-.39-.15-.03-.31-.04-.43-.06l.03.04Z" style="stroke-width:0"/></svg>