<svg id="Layer_1" xmlns="http://www.w3.org/2000/svg" viewBox="0 0 30 30"><path d="M9.67,3.41h.12c.12,.07,.25,.16,.37,.21,1.47,.57,2.64,1.49,3.43,2.85,.24,.41,.28,.94,.42,1.41l-.2,.09c-.1-.07-.22-.11-.29-.19-.39-.4-.75-.36-1,.11-.28,.54-.6,1.1-.73,1.68-.24,1.08,.16,2.01,.9,2.87,.49-1.53,.53-1.61,1.48-2.59,.65-.68,.85-.68,1.49,0,.7,.73,1.4,1.46,1.38,2.66,1.24-1.22,1.43-3.12,.5-4.36-.5-.67-.61-.96-1.39-.25-.04,.03-.11,.02-.34,.06,.15-.54,.18-1.07,.43-1.45,.41-.61,.88-1.22,1.46-1.67,.7-.56,1.53-.95,2.31-1.41h.12c-.15,.63-.35,1.27-.44,1.91-.07,.42,.17,.62,.64,.6,.24,0,.59,.12,.71,.31,.99,1.56,1.81,3.21,2.2,5.05,.27,1.32,.53,2.65,.82,3.96,.23,.99,.3,1.01,1.19,.54,.07-.04,.16,0,.24,0v.38c-.17,.44-.36,.87-.5,1.32-.37,1.18-1.06,2.18-1.81,3.23-1.38-2.16-2.75-4.23-4.71-5.84-.76,1.47-2.1,2.21-3.31,3.11-.12,.09-.46,.06-.6-.06-1.19-.89-2.51-1.64-3.23-3.05-1.96,1.64-3.33,3.71-4.68,5.8-1.18-1.41-2.26-3.89-2.12-4.9,.92,.52,1.02,.46,1.27-.6,.09-.41,.18-.81,.26-1.22,.46-2.68,1.12-5.27,2.65-7.59,.22-.32,.41-.55,.83-.46,.47,.09,.7-.17,.62-.6-.11-.64-.32-1.27-.48-1.9Z" fill="var(--icon-color, currentcolor)"></path><path d="M18.89,16.14l3.97,5.35c-.51,.65-.99,1.18-1.36,1.77-.29,.46-.44,1-.66,1.51-.03,.06-.03,.12-.06,.18-.43,.81-2.49,1.61-3.4,1.28,1-1.24,1.5-2.64,1.5-4.41-.35,.26-.62,.42-.81,.63-1.13,1.32-2.06,2.75-2.47,4.48-.06,.25-.37,.43-.56,.65-.21-.2-.55-.38-.6-.61-.35-1.64-1.22-2.99-2.24-4.25-.25-.31-.59-.56-.95-.78-.11,1.62,.4,3.01,1.45,4.32-.28,.05-.5,.12-.7,.1-.99-.12-1.86-.55-2.59-1.25-.06-.06-.15-.12-.16-.19-.18-1.4-1.18-2.29-2.09-3.42l3.99-5.37c.27,.39,.43,.6,.58,.82,.73,1.19,1.81,1.92,3.08,2.41,.15,.06,.36,.03,.52-.03,1.31-.51,2.4-1.3,3.11-2.56,.09-.16,.22-.3,.46-.63h0Z" fill="var(--icon-color, currentcolor)"></path></svg>