<svg xmlns="http://www.w3.org/2000/svg" viewBox="0 0 15 15"><path d="M10.21 12.93a.75.75 0 0 1-.16-.04c-.03 0-.06 0-.09.01-.15.07-.29.15-.44.22-.11.05-.22.1-.34.13-.19.06-.38.11-.58.16-.06.02-.13.01-.19.03-.07.02-.13.06-.19.09l-.51.3c-.06.04-.13.08-.19.12-.02.01-.04.02-.06 0-.19-.11-.38-.22-.56-.34-.06-.04-.13-.08-.19-.12-.07-.04-.14-.05-.21-.06-.15-.03-.31-.06-.46-.1-.22-.06-.43-.13-.63-.24-.13-.07-.26-.13-.4-.2-.05-.02-.08 0-.12.01-.06 0-.12.04-.18 0-.19-.11-.38-.22-.55-.37-.2-.17-.36-.36-.49-.58-.03-.06-.02-.11 0-.17.07-.23.15-.46.23-.68.07-.2.15-.4.23-.6.03-.09.09-.15.17-.18.12-.04.19-.13.26-.23l.3-.39.4-.49c.14-.17.29-.34.42-.51.12-.16.24-.32.34-.49.09-.15.14-.32.16-.5.02-.12.02-.24 0-.36a1.42 1.42 0 0 0-.27-.74c-.16-.21-.31-.42-.48-.62-.18-.22-.37-.44-.55-.67-.15-.19-.29-.38-.44-.57-.03-.04-.08-.06-.12-.08a.398.398 0 0 1-.23-.26c-.09-.25-.19-.5-.28-.75-.06-.16-.1-.32-.15-.48-.03-.08 0-.14.03-.21.11-.18.24-.33.4-.47.16-.14.33-.27.52-.37.03 0 .05-.03.08-.04.05-.04.11-.03.16-.02.03 0 .06.02.09.02s.07 0 .09-.02c.14-.07.28-.15.43-.21.15-.07.3-.12.45-.17.13-.04.26-.07.4-.1.09-.02.18-.02.27-.05s.18-.08.26-.13c.21-.12.41-.25.62-.37h.07c.24.14.48.29.72.44.08.05.17.07.27.08.08 0 .15.03.23.05.16.04.33.09.49.14a4.553 4.553 0 0 1 .72.34c.04.02.07 0 .09 0 .12-.06.23-.03.34.05.15.1.3.2.44.31.16.13.3.29.42.46l.01.02c.07.09.1.18.06.29-.05.14-.09.29-.14.43-.09.24-.18.49-.27.73-.01.04-.03.08-.04.12a.24.24 0 0 1-.12.14l-.12.06c-.07.03-.1.09-.15.15l-.4.52-.28.34-.3.36-.32.41c-.09.13-.18.26-.25.4-.06.13-.1.26-.11.4 0 .07-.02.14-.02.21 0 .22.05.43.14.64.07.14.16.27.25.4.12.16.25.32.37.48.09.12.19.23.29.34l.28.34c.14.18.27.35.4.53.02.02.05.04.07.05.06.04.13.07.19.11.03.02.06.06.07.1l.27.72c.06.17.11.34.17.51.05.13.02.24-.06.35-.21.29-.47.53-.77.71-.06.03-.11.07-.17.1-.03.02-.07.02-.1.03v.03ZM5.43 2.88c-.08 0-.17.02-.25.04-.11.03-.19.1-.26.19-.17.21-.26.44-.29.7-.01.13 0 .26.03.39.05.2.14.37.25.54.14.22.29.44.44.65.2.28.42.54.63.82.11.15.23.29.35.43.16.22.29.46.36.72.01.05.03.1.03.15-.02.16-.08.3-.15.44-.13.28-.32.53-.53.77-.11.13-.21.25-.32.39-.18.23-.35.47-.52.7-.18.25-.35.52-.48.81-.05.12-.08.24-.09.37-.01.2.02.39.09.58.09.22.23.39.44.5.11.05.22.1.33.14.24.1.48.18.73.24.22.05.44.09.66.12.14.02.28.03.42.03h.32c.13 0 .26-.02.39-.03.11 0 .22-.02.33-.04.13-.02.26-.04.38-.08.18-.05.36-.1.53-.16.16-.05.31-.12.46-.18.22-.09.39-.23.5-.45.07-.15.12-.3.13-.47.01-.13 0-.26-.02-.39-.04-.2-.14-.38-.25-.55s-.22-.34-.33-.5c-.16-.25-.35-.48-.53-.71-.15-.19-.3-.37-.45-.55-.18-.23-.33-.47-.43-.74-.05-.14-.08-.27-.03-.42.1-.31.26-.59.46-.84.17-.22.36-.44.54-.66.18-.23.35-.46.52-.7.13-.18.24-.38.35-.57.1-.17.17-.36.18-.56 0-.12 0-.24-.03-.35-.04-.21-.13-.4-.27-.56a.563.563 0 0 0-.42-.2c-.18 0-.35.02-.52.08-.19.07-.37.16-.54.27-.15.09-.3.2-.44.3-.11.08-.23.18-.33.27s-.19.18-.29.27h-.04c-.05-.05-.1-.1-.16-.14-.11-.1-.22-.21-.34-.3-.19-.15-.39-.29-.59-.42-.13-.09-.28-.15-.43-.21-.17-.07-.34-.12-.53-.12Z"/><path d="M4.88 11.36c0-.08.03-.15.07-.21.09-.14.2-.26.32-.36.18-.15.35-.29.53-.43.15-.12.31-.22.47-.33.27-.19.53-.38.79-.58.1-.08.2-.16.27-.28.02-.04.04-.08.04-.13V7.53c0-.17-.02-.34-.06-.5a.73.73 0 0 0-.3-.39c-.17-.11-.33-.22-.49-.34-.15-.1-.28-.23-.4-.36-.18-.19-.34-.39-.47-.62-.04-.08-.08-.16-.11-.24-.03-.09-.01-.12.07-.17.1-.05.2-.08.31-.09.15-.02.29-.04.44-.05.12-.01.23-.02.35-.02.38 0 .76-.01 1.14-.01.17 0 .35 0 .52.01.12 0 .24.01.35.03.2.02.4.04.59.11.17.06.17.12.11.27-.07.18-.18.33-.29.48-.13.17-.27.33-.43.48-.19.18-.41.32-.63.47-.09.06-.17.13-.25.2-.07.06-.1.14-.12.22a.92.92 0 0 0-.06.33v1.74c0 .07.04.12.08.17.13.15.28.27.44.38.26.19.52.36.78.55.25.18.5.37.75.57.13.1.25.22.35.36.06.09.11.19.1.3-.01.11-.06.2-.13.29-.1.12-.24.19-.38.25-.13.05-.27.1-.41.14-.15.04-.31.06-.46.09-.14.02-.28.04-.42.05h-.36c-.3 0-.6.01-.9 0-.15 0-.3-.02-.46-.03-.09 0-.19-.02-.28-.03-.09-.01-.17-.02-.26-.04-.13-.03-.26-.05-.38-.09-.2-.05-.38-.14-.55-.25a.551.551 0 0 1-.24-.3c-.02-.04-.02-.09-.03-.14Z"/></svg>