<svg id="Layer_1" data-name="Layer 1" xmlns="http://www.w3.org/2000/svg" viewBox="0 0 80 80"><path d="M33.07,60.59c1.07-.9,2.1-1.85,3.23-2.68,2.94-2.16,6.05-4.11,8.85-6.42,3-2.42,3.55-7.45,1.54-10.71a15.61,15.61,0,0,0-5.87-6.06,3.37,3.37,0,0,0-2.22-.17,8.89,8.89,0,0,0-5.1,3.86,1.89,1.89,0,0,0-.27,1.38,6.69,6.69,0,0,0,3,4.14c.8.48,1.33.31,1.57-.65s.57-2.1.86-3.14A4.71,4.71,0,0,1,43.57,44a6,6,0,0,1-1.51,6.17l-.2.2c-4.35,4.35-4.36,4.37-10,2.1-2.28-.92-4.55-1.9-6.75-3a4.11,4.11,0,0,1-1.77-1.87c-1.36-3-2.6-6-3.81-9a2.48,2.48,0,0,1,0-1.59,47.07,47.07,0,0,1,7.52-12.67,3.13,3.13,0,0,1,1.16-.78,59.47,59.47,0,0,1,17-4.58,2.75,2.75,0,0,1,1.9.59,38.91,38.91,0,0,1,12.1,16.75,44.88,44.88,0,0,1,1.42,5.79,1.68,1.68,0,0,1-.11,1A42.28,42.28,0,0,1,49.7,59a6.17,6.17,0,0,1-2.87,1C42.36,60.83,37.88,61.63,33.07,60.59Z" fill="var(--icon-color, currentcolor)"></path><path d="M29.88,54.51a9.26,9.26,0,0,1-8,3.34,17.22,17.22,0,0,1-14.7-9.3A49.14,49.14,0,0,1,5,43.79a9.65,9.65,0,0,1-.56-2.68c2.5,2.4,5.38,1.82,8.25,1.37a14.24,14.24,0,0,1,1.83-.21c4-.16,4.49.14,6.06,3.77.5,1.16,1,2.31,1.54,3.46l-.24.44-6.8-1.45c2,1.44,3.8,2.41,5.79,2.41C24.34,50.9,26.69,53.32,29.88,54.51Z" fill="var(--icon-color, currentcolor)"></path><path d="M56.42,55.18A64.56,64.56,0,0,0,60,48.41c1.82-4.64,5.48-6.84,9.92-8.16,2-.59,3.94-1.15,5.1-3.13l.47.14c0,2.23.15,4.47.08,6.7,0,.46-.64,1-1.09,1.32a26.53,26.53,0,0,1-2.4,1.51l2.42.71C71.49,54.08,64,56.4,56.42,55.18Z" fill="var(--icon-color, currentcolor)"></path><path d="M18.48,41c-1.56-.23-2.68-.37-3.79-.57-1.8-.33-3.64-2.82-4-5.41a15.43,15.43,0,0,1,1.12-7.5c.58-1.53,1-3.11,1.61-4.81a2.38,2.38,0,0,1,.85.44c1.88,2,3.78,3.95,5.54,6,.33.4.14,1.31,0,2a6.92,6.92,0,0,1-.69,1.39C18,35.17,16.3,37.77,18.48,41Z" fill="var(--icon-color, currentcolor)"></path><path d="M68.51,23.38c-.85,2.27-.3,4.45.3,6.66a11.86,11.86,0,0,1,.48,3.49,6.47,6.47,0,0,1-3.65,6.11c-.89.44-1.71,1-2.68,1.57-.45-1.5-.91-2.88-1.25-4.29-.07-.27.3-.72.57-1A5.72,5.72,0,0,0,64.6,31.3l-3.38,3.56c-2.53-3.91-1.56-7.63,2.3-10.07A7.44,7.44,0,0,1,68.51,23.38Z" fill="var(--icon-color, currentcolor)"></path></svg>