<svg viewBox="0 0 100 100" xmlns="http://www.w3.org/2000/svg"><path d="M94.11,24s-11.75-9.4-21-10.43c0,0-19.46,16.82-22.84,19.55S32.26,46.17,24.37,49.18C17.73,51.71,12.71,52.74,9.89,52L3.22,68.07s-.94,3.57,1.22,2.35S29.63,56.89,31.42,56c0,0,5.26,8.27,13.81,7.15S57.17,59.33,59,55.67,61,44.29,60.08,40.34c0,0,9.12-5.54,10.25-6.2s2.25-.75,2.54,0,.56,7.24,0,12-3.76,13.26-8.74,18S55,70.84,44.86,70.68,27.09,66.57,24,63a42.55,42.55,0,0,0-6.2,2.91s7.8,7,12.87,8.74S40.91,77.47,44,77.38l6.11,8.27s2,1.79,3.1,0,5-8.93,6-10.06c0,0,13.31-7.16,17.57-13.91a49.53,49.53,0,0,0,7.81-32s8.55-3.29,9.87-3.47S94.11,24,94.11,24ZM54.16,49.18a4.16,4.16,0,0,1-5.17.56c-2.07-1.45-1.32-2.44-1.32-2.44,2.65-1.65,5.83-4,5.83-4,1.36-1,1.88.42,2.07,1.59A6.59,6.59,0,0,1,54.16,49.18Z"></path></svg>