<?xml version="1.0" encoding="UTF-8"?>
<svg xmlns="http://www.w3.org/2000/svg" version="1.1" x="0px" y="0px" viewBox="0 0 80.0 80.0" style="padding: 15px; opacity: 0.6;" xml:space="preserve" width="128" height="128">
<g transform="translate(11.50, 21.75)"><style type="text/css">
	.st0{display:none;}
	.st1{display:inline;}
</style>
<g id="Layer_1" class="st0">
	<g class="st1">
		<path fill="var(--icon-color, currentcolor)" d="M31.1,80c1.9-4.8,0.9-8.7-1.7-12.7c-1.2-1.8-1.3-4.4-1.3-6.7c0.1-5.2-2.6-9.5-5.1-13.4c-2.4-3.6-7.3-4.6-11.7-5.6    c-6.2-1.4-8.6-4.4-9.2-11c1.7-0.1,2.9,1.1,4.2,1.7c1.7,0.8,3.2,1.1,4.8-0.2c3.3-2.7,7.4-3.5,11.4-4.6c7.1-1.9,12.5-5.6,14.7-13.4    c2.2-7.7,7.2-13,15.7-14.1c0.2,1.2-0.5,1.5-1,2c-3.4,2.6-3.5,5.6-1.2,9c1.1,1.5,2.2,3.2,2.1,5.1c-0.6,5.6,1.6,10.1,4.4,14.8    c1.9,3,3.9,5.1,7.1,6.3c3.9,1.4,7.6,3.3,10.9,6c1.3,1,2.2,2.3,2.7,3.8c0.8,2,0.1,2.9-2,2.1c-2.5-1-4.7-0.3-7,0.7    C67,50.5,65,51,63,50.9c-4.8-0.1-9,1.4-12.5,4.7c-0.7,0.7-1.6,1.4-2.5,1.6c-6,1.5-8,5.2-7,11.2c0.5,3-1.1,5.4-3.2,7.1    C35.7,77,33.5,78.3,31.1,80z M39.2,57.8C46.9,58,51.8,54,55.3,47.7c3.5-6.2,2-12.4-1.3-17.9c-5-8.4-9.8-10.4-16.7-7.9    c-5.1,1.8-9.3,5.1-12.5,9.4c-3.8,5.3-1,17.5,5.2,22.8C32.7,56.4,35.5,58.3,39.2,57.8z" />
		<path fill="var(--icon-color, currentcolor)" d="M13.8,6c7.4-1.2,13.3-0.2,18.3,4.3c2,1.8,0.9,6.4-2.4,9c-1.9,1.5-4.1,2.5-6.2,3.8c-1.1,0.7-1.9,0.3-2.2-0.9    c-0.2-1-0.6-2.1-0.4-2.9C22.7,13,20,9,13.8,6z" />
		<path fill="var(--icon-color, currentcolor)" d="M61.6,73.4c-4.2-2-9.2,0.7-12.6-3.5c-3.9-4.7-3.8-6.9,1.4-10c1.6-0.9,3-2.2,4.5-3.2c1.1-0.7,2.4-1.1,3.7-0.5    c1.4,0.7,1.5,2.4,1,3.4C57.1,64.7,58.6,69,61.6,73.4z" />
		<path fill="var(--icon-color, currentcolor)" d="M73.7,16.4c0.8,3.5,0.9,5.5-0.5,7.4c-1.6,2-3,4.1-4.4,6.3c-2.6,4.1-7,3.6-9.3-0.7c-0.6-1.1-1.3-2.2-2-3.3    c-0.7-1.2-1.8-2.5-1.1-3.9c0.8-1.5,2.6-1.5,3.8-1.1C65.4,22.4,70.2,23.3,73.7,16.4z" />
		<path fill="var(--icon-color, currentcolor)" d="M7.8,62.2c-1-4.8,0.7-8.3,3.3-11.4c1.3-1.6,2.3-4.3,5.3-3.2c3.6,1.4,6.2,4,7.5,7.7c0.4,1.2-0.7,1.8-1.7,2    c-1.2,0.3-2.5,0.6-3.8,0.5C14.2,57.6,10.3,57.9,7.8,62.2z" />
		<path fill="var(--icon-color, currentcolor)" d="M42.6,29.6c0.5,0.3,0.7,0.4,0.7,0.5c2,5.1-0.2,15.5-3.7,19.3c-1.9,2.1-2.7,1.9-3.6-0.7c-1.4-4-0.8-7.5,1.3-11    C38.9,34.9,40.3,32.1,42.6,29.6z" />
	</g>
</g>
<g id="Layer_2">
	<g>
		<path fill="var(--icon-color, currentcolor)" d="M41,71.8c1.2-4.2,1.3-7.5-1.2-10.7c-1.1-1.4-1.4-3.6-1.6-5.6c-0.3-4.4-2.9-7.8-5.3-10.9c-2.3-2.9-6.5-3.3-10.3-3.9    C17.3,40,15,37.6,14,32.1c1.4-0.2,2.5,0.7,3.7,1.1c1.5,0.5,2.8,0.7,4-0.5c2.6-2.5,6-3.5,9.3-4.7c5.9-2.1,10.1-5.6,11.4-12.4    c1.3-6.7,6.3-12,13.4-13.6c0.3,1-0.9,1.4-1.5,2.5C52.6,7.2,52,8.8,53.6,12c1,1.2,2.1,2.5,2.1,4.1c-0.1,4.8,2.1,8.4,4.8,12.2    c1.8,2.4,3.7,4,6.5,4.8c3.4,0.9,5.1,2.3,8.1,4.3c1.2,0.7,4.1,4.2,4.6,5.4c0.8,1.6-0.2,0.7-2,0.2c-2.2-0.7-3.6-0.4-5.4,0.6    c-1.6,0.7-3.3,1.6-5,1.7c-4.1,0.3-7.8,1.3-10.5,4.4c-0.5,0.6-1.2,1.3-2,1.5c-5,1.7-5.4,5.1-5.1,10c0.1,2.6-0.5,4.6-2.2,6.2    C45.8,68.8,42.9,70.2,41,71.8z M47.4,52.3c6.5-0.4,10.4-4.1,12.8-9.7c2.5-5.5,0.8-10.6-2.4-15c-4.8-6.7-9-8.1-14.7-5.4    c-4.2,1.9-7.5,5-9.9,8.9c-2.8,4.8,0.4,14.8,6.1,18.9C41.8,51.6,44.3,53,47.4,52.3z" />
		<path fill="var(--icon-color, currentcolor)" d="M22.7,9.6c9.5-1.3,11.6,0.3,16.2,3.7c1.8,1.4,0.5,5.2-2.1,7.6c-1.5,1.4-3.6,2-5.3,3.3c-0.9,0.7-1.6,0.4-1.9-0.6    c-0.2-0.8-0.7-1.7-0.6-2.4C30.1,15.7,28.2,11.7,22.7,9.6z" />
		<path fill="var(--icon-color, currentcolor)" d="M66.5,64.4c-3.7-1.4-7.7,1.3-10.9-2c-3.6-3.7-3.7-5.5,0.4-8.5c1.3-0.9,2.4-2.1,3.6-3c0.9-0.7,1.9-1.1,3.1-0.7    c1.2,0.5,1.4,1.9,1.1,2.8C62.1,57.3,63.7,60.9,66.5,64.4z" />
		<path fill="var(--icon-color, currentcolor)" d="M73.4,15.5c0.9,2.9,1.2,4.6,0.1,6.3c-1.2,1.8-2.2,3.7-3.2,5.6c-1.9,3.7-5.6,3.6-7.9,0.1c-0.6-0.9-1.3-1.8-1.9-2.6    c-0.7-1-1.7-2-1.2-3.2c0.6-1.3,2.1-1.5,3.1-1.2C66.9,21.1,71,21.5,73.4,15.5z" />
		<path fill="var(--icon-color, currentcolor)" d="M20.7,57.8c-1.2-4,0-7.1,1.9-9.9c1-1.4,1.6-3.8,4.2-3.1c3.1,0.9,5.5,2.9,6.9,5.9c0.4,1,0.2,2.2-0.6,2.5    c-1,0.3-2.7,0.7-3.8,0.7C25.9,54.1,22.5,54,20.7,57.8z" />
		<path fill="var(--icon-color, currentcolor)" d="M48.2,27.5c0.4,0.2,0.6,1.1,0.6,1.2c2.1,4.2,1,13.1-1.7,16.6c-1.4,1.9-1.8,2.6-2.7,0.4c-1.5-3.3-1.6-7-0.1-10.1    C45.4,33,46.4,29.8,48.2,27.5z" />
	</g>
	<g>
		<path fill="var(--icon-color, currentcolor)" d="M24.1,13.6c-5.4,1.4-10.4,2.7-15.5,4c-3.3,0.9-5.3,4.2-4.5,7.5C7.9,40,11.6,54.9,15.4,69.8c1,4.1,3,5.2,7.1,4.2    c4.5-1.2,9.1-2.3,13.6-3.4c0.7-0.2,1.7-1.1,2.1,0.2c0.3,1-0.2,1.9-1.4,2.2c-2.7,0.7-5.3,1.4-8,2.1c-3.5,0.9-7,1.7-10.4,2.7    c-2.7,0.8-3.9,0-4.6-2.7C9.6,58.2,5.3,41.5,1,24.8c-0.3-1-0.5-2.1-0.8-3.1c-0.8-3,0.3-5,3.3-5.7c5.6-1.5,11.1-2.9,16.7-4.4    C21.9,11.1,23,11.7,24.1,13.6z" />
		<path fill="var(--icon-color, currentcolor)" d="M6.5,24.2c1-1.6,1.1-4.1,3.8-4.8c4.8-1.2,9.5-2.4,14.3-3.7c1.1-0.3,2.5-0.6,2.7,0.7c0.3,1.3-1.3,1-2.1,1.2    c-4.2,1.1-8.3,2.2-12.5,3.3c-3.4,0.9-4.5,2.7-3.6,6c3.3,13,6.7,26,10,39c0.7,3,2.2,3.9,5.2,3.1c4.3-1.2,8.6-2.2,12.9-3.3    c0.7-0.2,1.6-0.6,1.9,0.2c0.4,1-0.5,1.5-1.4,1.7c-5.2,1.3-10.4,2.7-15.7,4c-2.3,0.5-3.7-1.1-4.2-3c-3.8-14.5-7.4-29-11.1-43.5    C6.6,25,6.5,24.7,6.5,24.2z" />
		<path fill="var(--icon-color, currentcolor)" d="M35.3,8.1c1.6-0.5,6.6-1,7,0.5c0.3,1.2-0.5,3.5-0.9,3.7C40.5,12.8,35.9,9.4,35.3,8.1z" />
		<path fill="var(--icon-color, currentcolor)" d="M48.7,69.9c0.3-2.6,2.6-2.4,4-3.8c0.4-0.3-0.1-1.6,0.1-2c0.5-0.9,3.2,1.1,4.1,2.2c0.9,1.2-0.4,1.6-1.3,1.8    C53.4,68.8,51.1,69.3,48.7,69.9z" />
	</g>
	<path fill="var(--icon-color, currentcolor)" d="M16.9,11.9" />
</g>
</g></svg>