<?xml version="1.0" encoding="UTF-8"?>
<!DOCTYPE svg  PUBLIC '-//W3C//DTD SVG 1.1//EN'  'http://www.w3.org/Graphics/SVG/1.1/DTD/svg11.dtd'>
<svg enable-background="new 0 0 128 128" version="1.1" viewBox="0 0 128 128" xml:space="preserve"
	xmlns="http://www.w3.org/2000/svg">
	<path d="m64.125 1.926c-34.352 0-62.199 27.847-62.199 62.199s27.847 62.199 62.199 62.199 62.199-27.847 62.199-62.199-27.848-62.199-62.199-62.199zm0 5.685c-31.212 0-56.514 25.302-56.514 56.514s25.302 56.514 56.514 56.514 56.514-25.302 56.514-56.514-25.302-56.514-56.514-56.514z" fill="var(--icon-color, currentcolor)" fill-rule="evenodd"/>
	<g transform="translate(64.125 64.125) scale(0.115) translate(-400 -400)">
		<path d="M 697.280 83.522 C 694.959 84.928, 690.978 86.704, 688.433 87.470 C 685.888 88.236, 682.115 89.982, 680.048 91.350 C 677.981 92.717, 673.877 94.553, 670.929 95.429 C 667.980 96.304, 663.915 98.114, 661.897 99.449 C 659.879 100.785, 655.774 102.591, 652.775 103.463 C 649.777 104.335, 645.828 106.151, 644 107.500 C 642.172 108.849, 638.223 110.665, 635.225 111.537 C 632.226 112.409, 628.121 114.215, 626.103 115.551 C 624.085 116.886, 619.999 118.702, 617.024 119.585 C 614.049 120.469, 610.239 122.222, 608.558 123.481 C 606.876 124.741, 603.025 126.484, 600 127.355 C 596.975 128.226, 592.900 130.034, 590.946 131.372 C 588.991 132.711, 584.956 134.530, 581.979 135.414 C 579.002 136.298, 574.915 138.114, 572.897 139.449 C 570.879 140.785, 566.774 142.591, 563.775 143.463 C 560.777 144.335, 556.828 146.151, 555 147.500 C 553.172 148.849, 549.200 150.672, 546.174 151.552 C 543.147 152.432, 539.057 154.252, 537.085 155.598 C 535.113 156.943, 531.700 158.520, 529.500 159.103 C 527.300 159.686, 523.475 161.364, 521 162.832 C 518.525 164.299, 513.585 166.412, 510.022 167.527 C 504.930 169.120, 503.058 170.275, 501.272 172.925 C 496.693 179.719, 498.967 182.733, 510 184.495 C 512.475 184.890, 516.578 186.095, 519.118 187.173 L 523.736 189.133 534.118 185.688 C 539.828 183.794, 546.075 181.311, 548 180.172 C 549.925 179.032, 554.271 177.237, 557.658 176.183 C 561.045 175.129, 565.095 173.365, 566.658 172.263 C 568.221 171.161, 572.147 169.496, 575.383 168.563 C 578.619 167.630, 583.569 165.579, 586.383 164.005 C 589.197 162.431, 593.175 160.839, 595.221 160.466 C 597.268 160.093, 600.916 158.536, 603.329 157.006 C 605.741 155.477, 610.367 153.467, 613.608 152.541 C 616.848 151.615, 621.156 149.779, 623.180 148.461 C 625.204 147.142, 629.029 145.530, 631.680 144.877 C 634.331 144.224, 638.926 142.409, 641.891 140.845 C 650.717 136.187, 655.691 137.868, 651.172 143.981 C 650.018 145.542, 648.552 148.997, 647.913 151.659 C 647.274 154.322, 645.284 159.200, 643.491 162.500 C 641.697 165.800, 639.902 170.075, 639.500 172 C 639.098 173.925, 637.291 178.200, 635.484 181.500 C 633.676 184.800, 631.876 189.075, 631.484 191 C 631.091 192.925, 629.281 197.200, 627.460 200.500 C 625.640 203.800, 623.844 208.175, 623.469 210.221 C 623.095 212.268, 621.536 215.916, 620.006 218.329 C 618.477 220.741, 616.467 225.367, 615.541 228.608 C 614.615 231.848, 612.826 236.084, 611.566 238.021 C 610.306 239.957, 608.540 244.071, 607.641 247.162 C 606.742 250.254, 604.612 255.420, 602.908 258.642 C 599.299 265.464, 599.348 270.842, 603.088 278.173 C 604.298 280.543, 606.010 285.140, 606.893 288.387 C 608.533 294.411, 610.558 296.767, 613.218 295.746 C 614.824 295.130, 625 275.400, 625 272.903 C 625 272.071, 626.326 269.301, 627.947 266.745 C 629.567 264.190, 631.596 259.734, 632.454 256.842 C 633.313 253.951, 635.104 249.991, 636.434 248.043 C 637.764 246.094, 639.571 241.985, 640.450 238.912 C 641.329 235.838, 643.151 231.828, 644.500 230 C 645.849 228.172, 647.665 224.223, 648.537 221.225 C 649.409 218.226, 651.209 214.130, 652.538 212.122 C 653.867 210.114, 655.608 206.297, 656.408 203.639 C 657.208 200.981, 658.982 197.115, 660.350 195.048 C 661.717 192.981, 663.553 188.877, 664.429 185.929 C 665.304 182.980, 667.114 178.915, 668.449 176.897 C 669.785 174.879, 671.591 170.774, 672.463 167.775 C 673.335 164.777, 675.151 160.828, 676.500 159 C 677.849 157.172, 679.665 153.223, 680.537 150.225 C 681.409 147.226, 683.209 143.130, 684.538 141.122 C 685.867 139.114, 687.608 135.297, 688.408 132.639 C 689.208 129.981, 690.982 126.115, 692.350 124.048 C 693.717 121.981, 695.553 117.877, 696.429 114.929 C 697.304 111.980, 699.070 107.977, 700.352 106.033 C 701.633 104.090, 703.679 99.497, 704.897 95.826 C 706.116 92.155, 707.785 88.593, 708.607 87.911 C 709.429 87.229, 709.966 85.508, 709.801 84.086 C 709.359 80.289, 703.085 80.007, 697.280 83.522 M 352.472 177.087 C 351.447 180.319, 352.740 185.198, 355.975 190.299 C 357.597 192.857, 359.585 197.480, 360.392 200.570 C 361.199 203.661, 362.992 207.900, 364.376 209.992 C 366.817 213.680, 370 223.744, 370 227.773 C 370 229.634, 364.710 234.685, 356 241.141 C 349.277 246.123, 329 267.578, 329 269.709 C 329 270.254, 327.538 272.680, 325.750 275.100 C 323.962 277.520, 321.375 281.750, 320 284.500 C 317.976 288.547, 316.948 289.563, 314.605 289.830 C 310.939 290.249, 303.818 287.566, 301.372 284.844 C 300.343 283.698, 297.250 281.232, 294.500 279.364 C 286.809 274.140, 282.734 271.096, 280 268.531 C 278.625 267.241, 275.700 265.380, 273.500 264.396 C 271.300 263.411, 269.163 262.432, 268.750 262.219 C 266.265 260.940, 272.808 278.971, 276.149 282.610 C 277.214 283.771, 278.986 287.088, 280.085 289.982 C 281.185 292.877, 283.153 296.652, 284.459 298.372 C 285.765 300.093, 287.752 303.925, 288.874 306.890 C 289.996 309.854, 291.778 313.229, 292.834 314.390 C 293.890 315.550, 295.323 318.300, 296.019 320.500 C 296.715 322.700, 298.683 326.463, 300.392 328.861 L 303.500 333.223 304.157 353.861 C 304.814 374.514, 305.762 381.705, 308.533 387.064 C 309.347 388.637, 310.861 393.477, 311.898 397.820 C 312.935 402.163, 314.942 407.468, 316.358 409.608 C 317.774 411.749, 319.453 415.075, 320.090 417 C 320.726 418.925, 322.472 422.075, 323.969 424 C 325.466 425.925, 327.444 428.956, 328.364 430.737 C 329.284 432.517, 331.411 435.537, 333.089 437.448 C 336.815 441.692, 336.779 445.798, 333 447.685 C 325.331 451.514, 313.922 455.900, 310 456.526 C 307.525 456.921, 302.913 458.545, 299.752 460.135 C 296.591 461.725, 290.819 463.697, 286.927 464.515 C 283.034 465.334, 277.970 467.084, 275.674 468.403 C 273.378 469.722, 268.170 471.542, 264.099 472.447 C 260.029 473.352, 254.854 475.161, 252.599 476.468 C 250.345 477.774, 245.676 479.389, 242.225 480.056 C 237.376 480.994, 235.445 481.907, 233.725 484.073 C 229.117 489.879, 226.125 495.705, 224.522 502 C 223.612 505.575, 221.796 510.141, 220.487 512.147 C 219.179 514.152, 217.372 518.652, 216.472 522.147 C 215.572 525.641, 213.582 530.750, 212.050 533.500 C 210.517 536.250, 208.725 540.750, 208.066 543.500 C 207.407 546.250, 205.810 550.317, 204.517 552.537 C 203.223 554.758, 201.423 559.483, 200.516 563.037 C 199.609 566.592, 197.796 571.141, 196.487 573.147 C 195.179 575.152, 193.383 579.593, 192.496 583.014 C 191.610 586.436, 189.560 591.581, 187.942 594.449 C 181.040 606.678, 186.397 611.082, 199.158 603.670 C 201.546 602.283, 206.408 600.403, 209.963 599.492 C 213.517 598.581, 218.242 596.781, 220.463 595.492 C 222.683 594.203, 227.408 592.403, 230.963 591.492 C 234.517 590.581, 239.242 588.777, 241.463 587.483 C 243.683 586.190, 247.750 584.598, 250.500 583.945 C 253.250 583.292, 257.867 581.456, 260.759 579.865 C 263.652 578.274, 268.722 576.342, 272.027 575.571 C 275.332 574.800, 279.957 573.043, 282.305 571.667 C 284.653 570.291, 289.483 568.413, 293.037 567.493 C 296.592 566.574, 300.043 565.372, 300.707 564.823 C 303.186 562.775, 309.908 549.143, 311.500 542.934 C 312.408 539.395, 314.273 534.475, 315.646 532 C 317.019 529.525, 318.815 524.575, 319.638 521 C 320.461 517.425, 322.228 512.623, 323.564 510.328 C 324.899 508.034, 326.698 503.115, 327.560 499.398 C 328.422 495.680, 330.190 490.807, 331.490 488.569 C 332.789 486.331, 334.561 481.733, 335.427 478.352 C 337.721 469.398, 343.849 457.026, 346.614 455.766 C 348.951 454.701, 354 456.851, 354 458.911 C 354 459.897, 364.903 467.260, 371.901 471 C 374.474 472.375, 378.050 474.562, 379.849 475.860 C 381.647 477.159, 385.655 478.883, 388.755 479.693 C 391.855 480.502, 396.506 482.236, 399.092 483.546 C 405.370 486.728, 414.028 488.002, 435.010 488.831 C 450.975 489.461, 452.801 489.722, 455.694 491.782 C 457.440 493.025, 460.700 494.689, 462.940 495.479 C 465.180 496.269, 468.697 498.229, 470.756 499.834 C 472.815 501.439, 475.850 503.203, 477.500 503.754 C 479.150 504.305, 482.908 506.385, 485.850 508.378 C 488.793 510.370, 491.743 512, 492.406 512 C 493.069 512, 495.161 513.164, 497.056 514.587 C 498.950 516.010, 502.970 518.283, 505.990 519.638 C 509.009 520.993, 512.453 523.016, 513.642 524.133 C 516.227 526.562, 523.386 527.803, 524.491 526.014 C 524.917 525.325, 524.329 523.656, 523.127 522.150 C 521.965 520.693, 520.273 518.150, 519.368 516.500 C 518.463 514.850, 516.548 512.104, 515.111 510.398 C 513.675 508.691, 511.725 505.991, 510.778 504.398 C 507.536 498.942, 502.131 491.501, 499.565 488.962 C 494.072 483.528, 497.294 476.579, 507.413 472.039 C 510.761 470.537, 514.145 468.531, 514.933 467.581 C 515.721 466.631, 518.063 464.988, 520.138 463.930 C 525.678 461.103, 547.177 439.257, 551.205 432.360 C 553.088 429.137, 555.724 425.919, 557.064 425.209 C 560.570 423.350, 567.413 424.319, 571.244 427.215 C 573.035 428.570, 577.320 430.623, 580.766 431.779 C 584.212 432.934, 588.220 434.815, 589.673 435.958 C 591.126 437.101, 594.832 438.747, 597.908 439.617 C 600.983 440.486, 605.175 442.331, 607.223 443.716 C 613.189 447.752, 616.463 444.401, 612.044 438.783 C 610.968 437.415, 609.134 433.867, 607.969 430.898 C 606.803 427.929, 605.006 424.594, 603.974 423.488 C 602.942 422.381, 601.121 419.231, 599.928 416.488 C 598.735 413.744, 596.763 410.150, 595.546 408.500 C 594.330 406.850, 592.095 403.025, 590.580 400 C 584.874 388.605, 581.422 382.338, 579 378.973 C 576.534 375.548, 576.491 375.143, 575.836 349.500 C 575.168 323.382, 574.760 319.874, 571.530 312.500 C 570.566 310.300, 568.963 305.426, 567.967 301.668 C 566.972 297.910, 564.988 293.069, 563.559 290.910 C 558.151 282.738, 557.824 273.449, 562.695 266.351 C 564.148 264.233, 566.198 260.250, 567.251 257.500 C 568.304 254.750, 570.271 251.045, 571.622 249.266 C 572.972 247.487, 574.744 244.143, 575.558 241.835 C 576.373 239.526, 578.146 236.187, 579.498 234.414 C 580.851 232.640, 582.896 228.681, 584.043 225.614 C 585.191 222.547, 586.606 219.743, 587.189 219.383 C 587.772 219.023, 589.587 215.776, 591.223 212.167 C 592.860 208.559, 595.217 204.233, 596.461 202.553 C 600.562 197.022, 600.367 191, 596.087 191 C 593.441 191, 587.016 193.808, 583.372 196.556 C 581.652 197.854, 577.877 199.815, 574.982 200.915 C 572.088 202.014, 568.771 203.763, 567.610 204.799 C 566.450 205.836, 562.930 207.701, 559.789 208.943 C 556.648 210.184, 553.593 211.785, 553 212.500 C 552.407 213.215, 549.352 214.825, 546.211 216.078 C 543.070 217.332, 539.276 219.361, 537.781 220.588 C 536.286 221.815, 532.851 223.553, 530.149 224.451 C 527.446 225.348, 524.475 226.923, 523.545 227.950 C 519.154 232.802, 512.153 232.950, 505.351 228.334 C 503.233 226.897, 499.092 224.892, 496.149 223.879 C 493.206 222.867, 489.271 221.094, 487.404 219.941 C 485.231 218.598, 478.885 216.944, 469.755 215.341 C 447.458 211.427, 443.195 211.008, 432.350 211.666 C 422.424 212.268, 422.048 212.211, 415.350 209.078 C 411.582 207.316, 407.594 205.024, 406.486 203.985 C 405.379 202.946, 402.696 201.353, 400.524 200.446 C 398.353 199.538, 394.994 197.492, 393.060 195.898 C 391.126 194.304, 389.063 193, 388.475 193 C 387.887 193, 384.323 190.975, 380.555 188.500 C 376.787 186.025, 373.111 184, 372.387 184 C 371.662 184, 369.591 182.712, 367.785 181.139 C 360.782 175.039, 353.716 173.169, 352.472 177.087 M 89.457 213.425 C 88.583 214.759, 86.574 216.301, 84.992 216.853 C 83.309 217.440, 80.995 219.648, 79.412 222.178 C 77.924 224.555, 75.423 227.978, 73.854 229.785 C 72.284 231.591, 71 233.655, 71 234.371 C 71 235.086, 69.479 237.658, 67.620 240.086 C 65.760 242.514, 63.671 246.300, 62.978 248.500 C 62.284 250.700, 60.452 254.300, 58.908 256.500 C 57.363 258.700, 55.560 262.750, 54.900 265.500 C 54.240 268.250, 52.480 272.975, 50.988 276 C 49.382 279.255, 47.601 285.538, 46.625 291.390 C 43.962 307.350, 41.427 309.614, 33.223 303.356 C 26.457 298.196, 20.119 294.215, 19.559 294.774 C 18.551 295.783, 18.973 300.046, 20.355 302.800 C 21.100 304.285, 22.267 308.412, 22.949 311.971 C 23.630 315.531, 25.494 320.953, 27.091 324.020 C 28.687 327.088, 30.486 332.260, 31.087 335.514 C 31.689 338.767, 33.489 343.942, 35.087 347.014 C 36.686 350.085, 38.486 355.260, 39.087 358.514 C 39.689 361.767, 41.489 366.942, 43.087 370.014 C 44.686 373.085, 46.485 378.255, 47.085 381.503 C 47.685 384.750, 49.532 390.092, 51.188 393.373 C 53.509 397.970, 54.235 400.810, 54.350 405.745 C 54.524 413.196, 53.069 415, 46.880 415 C 38.558 415, 38.467 415.607, 39.696 462.974 C 40.715 502.233, 40.740 502.545, 43.361 509.078 C 44.812 512.697, 46 516.123, 46 516.694 C 46 518.645, 50.143 523, 52 523 C 54.112 523, 57.999 518.541, 58.002 516.115 C 58.003 515.227, 59.294 512.025, 60.871 509 C 62.447 505.975, 64.302 501.700, 64.992 499.500 C 65.683 497.300, 67.253 494.150, 68.482 492.500 C 69.711 490.850, 71.897 487.169, 73.339 484.321 C 74.782 481.472, 76.429 478.853, 77 478.500 C 77.571 478.147, 79.214 475.528, 80.651 472.679 C 82.088 469.831, 84.555 466.022, 86.132 464.215 C 87.709 462.409, 89 460.440, 89 459.841 C 89 459.242, 90.800 456.057, 93 452.762 C 95.200 449.468, 97 446.079, 97 445.232 C 97 444.385, 98.554 440.913, 100.454 437.517 C 106.937 425.923, 109.469 399.442, 106.504 374.226 C 103.824 351.438, 103.021 346.835, 100.907 342.133 C 99.761 339.585, 97.976 332.300, 96.940 325.944 C 95.904 319.589, 93.924 311.378, 92.538 307.698 C 89.418 299.409, 85.497 263.669, 86.483 252.500 C 88.269 232.252, 90.295 219.359, 92.175 216.268 C 95.147 211.381, 92.566 208.681, 89.457 213.425 M 425.500 232.969 C 422.200 233.441, 417.130 234.763, 414.234 235.906 C 411.338 237.048, 405.846 238.693, 402.031 239.561 C 398.215 240.429, 394.059 241.940, 392.796 242.919 C 391.533 243.898, 387.462 246.140, 383.750 247.901 C 380.038 249.661, 377 251.520, 377 252.031 C 377 252.541, 375.313 253.821, 373.250 254.875 C 366.951 258.093, 347.236 278.727, 343.511 286 C 342.525 287.925, 340.668 290.759, 339.384 292.297 C 338.100 293.836, 336.414 297.235, 335.637 299.851 C 334.860 302.468, 333.064 306.834, 331.645 309.554 C 323.342 325.476, 323.479 376.329, 331.869 392.674 C 333.513 395.878, 335.344 400.360, 335.937 402.634 C 336.529 404.907, 337.721 407.354, 338.585 408.071 C 339.449 408.788, 341.231 411.495, 342.544 414.087 C 349.627 428.065, 375.512 451.606, 389.241 456.556 C 391.298 457.298, 394.984 459.079, 397.432 460.513 C 400.310 462.200, 405.528 463.776, 412.192 464.972 C 417.861 465.990, 424.525 467.302, 427 467.887 C 438.434 470.591, 474.898 465.834, 483 460.582 C 484.925 459.334, 488.300 457.732, 490.500 457.022 C 492.700 456.312, 496.525 454.275, 499 452.495 C 501.475 450.715, 504.850 448.565, 506.500 447.717 C 512.602 444.581, 533.680 422.522, 537.197 415.592 C 538.339 413.341, 540.337 410.228, 541.637 408.673 C 542.936 407.119, 544 405.014, 544 403.996 C 544 402.978, 545.592 399.091, 547.538 395.358 C 551.280 388.179, 556.013 363.236, 555.990 350.813 C 555.971 340.068, 551.340 313.259, 548.720 308.730 C 547.374 306.404, 545.496 302.124, 544.546 299.219 C 543.596 296.314, 541.798 292.714, 540.550 291.219 C 539.302 289.724, 537.589 287.150, 536.742 285.500 C 535.895 283.850, 533.919 281.105, 532.351 279.399 C 530.783 277.694, 528.265 274.683, 526.754 272.708 C 524.375 269.597, 517.603 263.474, 503.964 252.103 C 502.020 250.482, 498.420 248.363, 495.964 247.395 C 493.509 246.426, 489.859 244.562, 487.853 243.252 C 485.847 241.942, 481.542 240.249, 478.286 239.490 C 475.029 238.730, 468.895 236.944, 464.655 235.520 C 456.009 232.618, 436.732 231.362, 425.500 232.969 M 165.826 549.350 C 160.862 551.555, 63.952 649.590, 62.873 653.498 C 61.580 658.181, 63.191 663.787, 67.425 669.334 C 69.279 671.763, 71.357 674.818, 72.042 676.125 C 75.187 682.117, 94.108 703.118, 104.775 712.456 C 122.794 728.231, 130.207 733, 136.711 733 C 140.315 733, 142.264 731.190, 189.754 683.750 C 216.869 656.663, 240.198 632.856, 241.596 630.847 C 243.971 627.433, 244.056 626.917, 242.881 622.996 C 240.529 615.147, 234.092 614.102, 220.960 619.438 C 217.489 620.849, 210.435 622.681, 205.284 623.509 C 200.134 624.338, 193.199 626.122, 189.873 627.474 C 178.841 631.956, 167.175 633.212, 163.098 630.356 C 159.960 628.158, 160.525 618.339, 164.303 609.426 C 165.719 606.085, 167.608 599.143, 168.500 594 C 169.392 588.857, 171.177 582.140, 172.466 579.074 C 180.706 559.478, 177.305 544.251, 165.826 549.350 M 650.500 669.184 C 649.400 669.802, 646.680 671.926, 644.455 673.904 C 640.251 677.641, 632.996 683.052, 627.566 686.500 C 625.834 687.600, 622.861 689.675, 620.959 691.112 C 619.056 692.548, 615.957 694.240, 614.072 694.872 C 612.186 695.504, 608.586 697.318, 606.072 698.904 C 603.557 700.491, 598.810 702.554, 595.522 703.489 C 592.234 704.423, 588.405 705.999, 587.013 706.991 C 584.204 708.991, 579.054 710.480, 571.500 711.477 C 568.750 711.840, 562.225 713.344, 557 714.819 C 542.535 718.901, 508.047 718.877, 494.500 714.774 C 489.550 713.275, 482.125 711.541, 478 710.920 C 473.875 710.300, 467.800 708.522, 464.500 706.970 C 461.200 705.418, 455.800 703.611, 452.500 702.956 C 449.200 702.301, 443.994 700.502, 440.931 698.959 C 437.867 697.416, 432.467 695.639, 428.931 695.010 C 425.394 694.380, 420.129 692.792, 417.231 691.479 C 406.321 686.538, 381.006 684.313, 359.442 686.399 C 346.043 687.695, 345.013 687.956, 337.442 691.966 C 327.072 697.459, 327.637 696.835, 325.009 705.689 L 322.727 713.375 324.963 720.318 C 327.372 727.796, 332.829 734.838, 338.448 737.717 C 340.127 738.578, 342.732 740.310, 344.238 741.566 C 345.744 742.823, 349.434 744.566, 352.437 745.439 C 355.441 746.312, 358.205 747.523, 358.580 748.130 C 358.955 748.737, 362.474 750.697, 366.400 752.486 C 370.327 754.275, 374.175 756.506, 374.952 757.443 C 375.730 758.380, 377.971 759.977, 379.933 760.992 C 381.895 762.007, 384.227 763.662, 385.115 764.669 C 386.003 765.676, 390.201 768.975, 394.445 772 C 398.688 775.025, 404.176 779.188, 406.641 781.250 C 409.105 783.313, 411.502 785, 411.966 785 C 412.431 785, 414.655 786.541, 416.908 788.423 C 419.162 790.306, 422.692 792.388, 424.753 793.050 C 429.057 794.432, 432 796.708, 432 798.655 C 432 799.700, 434.452 800, 443 800 C 452.873 800, 454 799.818, 454 798.223 C 454 796.357, 448.523 788.652, 443.474 783.416 C 434.513 774.123, 432.881 771.866, 433.189 769.198 C 433.467 766.788, 433.874 766.524, 437 766.728 C 512.080 771.627, 602.686 767.635, 610.421 759.087 C 613.977 755.158, 610.709 752.947, 597.105 750.075 C 592.852 749.177, 591.047 747.770, 591.015 745.327 C 590.986 743.061, 595.809 738.471, 599.635 737.126 C 601.761 736.378, 604.625 734.739, 606 733.485 C 607.375 732.230, 609.889 730.371, 611.587 729.352 C 629.212 718.778, 655.782 687.240, 657.411 674.959 C 657.778 672.195, 657.809 669.499, 657.480 668.967 C 656.682 667.676, 652.980 667.791, 650.500 669.184" fill="var(--icon-color, currentcolor)" fill-rule="evenodd"/>
	</g>
</svg>
