<?xml version="1.0" encoding="UTF-8"?>
<svg enable-background="new 0 0 128 128" style="padding: 15px; opacity: 0.6;" version="1.1" viewBox="0 0 128 128" xml:space="preserve"
    xmlns="http://www.w3.org/2000/svg">
    <g>
        <path d="m63.998 1.9775a62.003 62.023 0 0 0-62.002 62.023 62.003 62.023 0 0 0 62.002 62.021 62.003 62.023 0 0 0 62.006-62.021 62.003 62.023 0 0 0-62.006-62.023zm-0.48047 5.5547a56.361 56.378 0 0 1 56.363 56.377 56.361 56.378 0 0 1-56.363 56.379 56.361 56.378 0 0 1-26.992-6.8887l4.4414-1.9121s-13.901-3.9315-12.463-5.082c1.4382-6.5198-0.67188-12.369-0.67187-12.369 0 0-1.8957-0.82916-4.5059 1.1504 0 0-3.8364-5.8491 1.7246-14.67-5.7165 3.6948-9.3772 8.1713-10.965 10.355a56.361 56.378 0 0 1-6.9277-26.963 56.361 56.378 0 0 1 56.359-56.377zm28.17 15.17c4.0269 6.7115 3.0686 18.6-1.3418 25.887-4.4104 7.2868-15.149 9.3972-21.094 9.0137 1.7258 5.3692-2.0029 13.753-7.2871 11.697-4.93-1.9175-3.5759-9.0088 3.7109-12.748-7.2868-4.7939-13.85 2.9964-15.576 8.1738 4.2187-0.38352 11.382 7.8612 11.574 12.176-4.4104 1.3423-9.3666 5.7882-8.9141 11.574 0.53498 6.8407 4.3223 8.3301 4.3223 8.3301l-6.9707 10.598s4.5663 3.1241 7.8262 2.5488 8.2461-6.6152 8.2461-6.6152-3.3433 0.14556-5.2734-1.7266c-1.2942-1.2553-2.033-4.6193 0.19141-6.8066 1.4993-1.4744 3.393-2.1994 5.8496-0.86328 2.7558 1.4988 2.7805 3.932 2.1094 6.9043 4.9857-1.4382 10.259-7.7673 9.7793-13.232-7.095 0.67115-8.4709-5.1708-6.5195-8.3418 1.5341-2.4929 4.4111-3.2603 7.0957-1.918 4.9383 2.4691 2.1074 7.8633 2.1074 7.8633s14.958-8.055 20.902-22.82c5.9445-14.765-1.3418-32.789-1.3418-32.789zm-45.127 44.055c-6.2323 0.47294-15.613 5.2773-18.713 11.918-3.6974 8.2341-3.5621 11.527-2.6992 12.869 2.7805-0.86291 4.794-0.19137 5.2734 1.918 0.47939 2.1093 2.3959 5.0807 0.57422 12.176 7.095 2.2052 13.23 4.2188 13.23 4.2188l8.4375-12.656s-8.5315-14.574 4.4121-20.902c0 0-2.4364-9.4072-10.516-9.541zm0.17578 3.0117c0.9308 0.03887 1.8908 0.19892 3.125 0.46094l-2.8633 5.5703s3.7078-0.83434 6.4883-0.64258c-4.4104 3.5475-5.6502 8.0448-5.7461 12.359-0.09588 4.3145 2.1406 9.5723 2.1406 9.5723l-6.7012 9.6172-10.184-2.4531s1.8883-15.456-4.6973-15.34c1.4382-3.6434 3.2188-5.5918 3.2188-5.5918l-2.877-0.86328s1.4775-8.062 12.557-11.809c2.5174-0.67633 3.9877-0.94565 5.5391-0.88086zm-6.0957 4.8301c-0.89446-0.13672-2.5448 0.87414-3.6719 2.5352-1.2881 1.8983 1.2285 2.9121 1.2285 2.9121s-0.72571 1.7798-2.1406 7.3652c5.23-4.2213 8.9204-3.1625 7.5645 2.668-1.3559 5.8305-5.9663 6.5083-7.3223 5.627-1.3559-0.88136-0.51963-3.3198 0.31055-4.3789 1.3608-1.736 2.9512 0.55469 2.9512 0.55469s0.3991-2.2765-2.1094-2.4121c-2.5085-0.13559-3.798 3.2278-3.5254 6.3047 0.16848 1.9017 3.389 5.2883 8.1348 1.8984 4.7458-3.3898 4.8926-7.9823 4.1523-12.428-0.7753-4.6558-5.3242-3.1055-5.3242-3.1055l-2.332 1.502 1.7344-4.7168s-1.959 0.24014-1.959-1.1836c-1e-6 -1.4237 1.6915-2.4016 2.6406-3.0117-0.09322-0.0678-0.20425-0.11133-0.33203-0.13086z" fill-opacity=".9746" fill="var(--icon-color, currentcolor)"/>
    </g>
</svg>
