<?xml version="1.0" encoding="UTF-8"?>
<!DOCTYPE svg PUBLIC "-//W3C//DTD SVG 1.1//EN" "http://www.w3.org/Graphics/SVG/1.1/DTD/svg11.dtd">
<svg enable-background="new 0 0 128 128" version="1.1" style="padding: 15px; opacity: 0.6;" viewBox="0 0 128 128" xml:space="preserve"
    xmlns="http://www.w3.org/2000/svg">
    <path d="m64.125 1.926c-34.352 0-62.199 27.847-62.199 62.199s27.847 62.199 62.199 62.199 62.199-27.847 62.199-62.199-27.848-62.199-62.199-62.199zm-0.334 118.55c-31.212 0-56.514-25.302-56.514-56.514s25.302-56.514 56.514-56.514c7.765 0 15.164 1.567 21.899 4.401l-4.761 4.126-0.502 2.884s-4.514 2.257-5.894 4.013c-1.379 1.756-3.26 0.376-3.26 0.376s0.502 3.637-1.254 6.019-3.135 1.881-4.138 4.514-4.765 2.884-4.765 2.884-2.383 3.135-3.762 3.386-1.756 4.138-2.759 4.891c-1.003 0.752-4.64 3.637-4.64 3.637l-15.675 16.679 16.929-10.534 5.392-5.016 1.003-1.505s3.135-0.125 4.264-1.254 2.759 0.752 3.26 0.125c0.502-0.627-0.125-4.891-0.125-4.891l8.026-9.405s1.003-0.878 2.383-1.003c1.379-0.125 7.022-7.399 7.022-7.399s4.514-4.264 6.27-5.518c1.508-1.077 2.46-3.539 2.699-4.214 2.824 1.585 5.499 3.404 7.996 5.434l-0.663 1.915-4.891 2.132-9.781 11.537-1.63 2.759-2.634 0.628-3.01 6.772s-8.653 8.276-9.781 8.402-4.64 2.132-5.643 2.257-2.884 1.254-2.884 1.254-0.627 3.01-1.756 4.514c-1.129 1.505-6.521 4.138-6.521 4.138s0.251 2.132-0.502 3.26c-0.752 1.129-7.022 4.013-7.022 4.013l-9.53 8.653 14.045-8.903 8.151-4.389 2.132-2.884s1.881-0.878 3.511-1.254 4.389-3.637 4.389-3.637-0.752-1.379 0.878-2.132c1.63-0.752 3.762-1.254 3.762-1.254l2.383-2.759 2.633 0.376s3.26-2.257 3.26-3.135 0.376-2.257 0.376-2.257 1.129 0.752 1.63 0.125c0.502-0.627 0.752-1.756 0.752-1.756s-1.505-1.254-0.627-1.63 2.257-0.376 2.257-0.376 0.878-1.505 1.881-2.383 6.145-4.891 6.145-4.891l0.502-2.006 2.383 0.627 0.125-1.003-1.003-2.006 1.63 0.251 0.125-2.884s3.637-1.003 3.637-1.881-0.627-2.006-0.125-2.257 3.01 0.125 3.01 0.125l0.376-2.383 2.383-0.502 0.35-0.896c1.9 1.933 3.661 4.002 5.268 6.192-1.136 1.761-5.676 8.72-6.88 9.377-1.379 0.752-1.752 3.416-1.752 3.416s-1.125 1.661-2.379 1.661h-1.881l-2.006 4.233-1.63 1.113s-0.752 2.312-1.379 2.939-2.884 0.968-2.884 0.968-0.627 1.613-1.254 2.741-3.637 3.628-3.637 3.628l-2.759 2.002s0.627 1.503-0.878 2.506-3.386 4.137-3.386 4.137-3.135 2.131-3.26 2.884c-0.125 0.752-1.003 1.505-1.003 1.505s-3.26 0.376-4.138 1.254-1.881 3.762-1.881 3.762-3.511 1.254-4.389 2.257-1.129 2.508-1.881 3.386-7.399 6.395-7.399 6.395 5.894-1.129 9.907-4.64 2.884-3.135 4.765-4.389 2.884-0.752 3.887-1.63 3.386-3.511 3.386-3.511l0.752-1.756s1.254 0 2.006-0.125 2.759-1.505 2.759-1.505l0.752-3.26s0-0.251 1.63-1.254 2.633-1.63 2.633-1.63l1.379-3.637 7.9-7.649 0.627-1.756s1.129-1.881 2.132-1.379 1.63 1.254 1.63 1.254l1.505-2.759 2.383-5.518s2.633-0.251 3.511-1.379 4.389-5.518 4.389-5.518l1.709-3.619c1.925 3.228 3.538 6.664 4.796 10.266-0.396 0.65-0.736 1.127-0.736 1.127l-1.63 2.633-3.511 1.003-2.132 4.514-2.006 3.511-2.383 0.878s-1.254 1.129-1.254 1.63c0 0.502-1.756 0.502-1.756 0.502s-3.01 3.511-3.637 4.514-4.013 2.508-4.013 2.508c-0.878 1.379-0.376 2.759-1.129 4.013-0.752 1.254-2.132-0.878-2.132-1.254s-1.756 2.132-1.881 3.135-1.254 2.884-1.254 2.884-1.63 0.251-2.257 0.502-0.627 3.135-1.129 3.637-2.759 1.881-3.511 2.884-1.63 3.386-1.63 3.386l-5.267 5.643s11.161-7.9 13.293-10.032 11.035-10.534 11.035-10.534l2.132 0.627 2.508-5.392s0.376 0 1.254-0.502 4.891-4.264 6.395-7.649c1.505-3.386 3.386-4.013 4.013-5.518s1.254-1.881 2.006-2.132c0.456-0.152 1.188-1.271 1.918-2.241 1.202 4.587 1.844 9.4 1.844 14.363 3e-3 31.214-25.3 56.516-56.511 56.516z" fill="var(--icon-color, currentcolor)"/>
</svg>