<svg id="Layer_1" data-name="Layer 1" xmlns="http://www.w3.org/2000/svg" viewBox="0 0 30 30"><path d="M12.15,2.4,12,1.91a.66.66,0,0,1,.33-.72l1.68-1a1.39,1.39,0,0,1,1.61.16L17.18,1.7a.66.66,0,0,1,.18.74l-.1.27a.38.38,0,0,1-.66.08l-.2-.29a7,7,0,0,0-3.3-.1l-.39.24A.37.37,0,0,1,12.15,2.4Z" fill="var(--icon-color, currentcolor)"></path><path d="M12.57,26.06a10.88,10.88,0,0,1-.36,3.38S12.84,30,15,30s2.66-.42,2.66-.42A11.45,11.45,0,0,1,17.48,27L16,25.85,14.2,27Z" fill="var(--icon-color, currentcolor)"></path><path d="M23.3,10.61l.58.31A4.46,4.46,0,0,0,25.43,9a5.41,5.41,0,0,0-1.66-2.62l-1.1.87a24.46,24.46,0,0,0-6.16-2.52l-.13-1a4.21,4.21,0,0,0-1.47-.58,4.69,4.69,0,0,0-1.63,0l.13.52-.15.71-3.13-.71h-.7l-.71.71-.55.08.1-1.63-.21-.26a.56.56,0,0,0-.75-.12A8.61,8.61,0,0,0,4.57,4.68,9.26,9.26,0,0,0,6.66,7.6a.55.55,0,0,0,.82-.1l.61-.9L8.51,7v4.14c0,3.49-1.89,9.26-1.89,9.26a22.38,22.38,0,0,0,7.71,5.69L16,25l3.86,2L24.19,21c-1-1-1.26-3.88-1.26-3.88V10.92Zm-11-5.46,6.4,1.42a1.35,1.35,0,0,1,.87,1.22V16s.07,3.31.82,4L18.91,22.7s-4.13-2.56-5.23-4.13V8.89s-.1-2.56-1.36-3.68C12.29,5.18,12.31,5.14,12.35,5.15ZM19.5,25.38s-5.35-1.85-8.34-5.83c0,0,.35-4.84.23-7.47-.09-2-.42-4.49-.58-5.6a3.88,3.88,0,0,0-.33-1.1l-.11-.23-.24-.31h.59s1.59,1.53,1.59,7.59v6.49s3.77,4.21,6.91,5.43l2.6-3.3A7,7,0,0,1,21.11,18V9.21l-.47-1.66.86.28s.32.31.32,2v8.38s.21,2.51,1.06,3Z" fill="var(--icon-color, currentcolor)"></path></svg>