<?xml version="1.0" encoding="UTF-8"?>
<svg width="128" height="128" version="1.1" viewBox="0 0 33.867 33.867" style="padding: 15px; opacity: 0.6;"
    xmlns="http://www.w3.org/2000/svg">
    <g>
        <path d="m29.573 4.5549c-10.708-0.044404-12.668 6.6238-18.092 9.74-1.9665 0.5777-1.3482-3.9093-1.3482-3.9093-2.696 3.6588-2.3493 5.8539 0 7.8181 0.65473-1.6561 1.4634-1.309 2.3492-0.50023 0.88581 0.80878 1.3482 2.3108-0.61598 4.1594-1.9642 1.8487-2.2727 2.927-2.2727 2.927s2.2726-1.2325 4.7759-0.57774c-0.34662-1.348-0.11571-4.7758 3.1579-5.1609 3.2737-0.38514 9.6284 4.0127 9.6284 4.0127s-5.0882-6.1904-10.691-7.6507c5.2206-0.03521 7.8031 3.1667 7.8031 3.1667-0.09628-0.59696-0.76298-1.5523-0.23099-2.5327 0.74049-1.3646 4.1208-1.3863 7.0864-1.7715-1.2709-0.88581-8.0112-1.9647-11.246-2.1187 1.7716-1.0399 7.4331-0.23099 7.4331-0.23099s-0.65444-1.0012-0.76998-2.5032c-0.11554-1.502 1.9832-2.1025 2.773-2.157 0 0-0.39229-0.21255-1.7544-0.48214 0.72391-0.8303 2.7199-1.9074 4.9335-2.0671-1.0405-0.10643-2.0112-0.15798-2.9187-0.16175zm-14.651 0.21342c-0.08262 0.00467-0.16569 0.018386-0.24856 0.041341l-12.384 3.4303c-0.66297 0.18364-1.0433 0.88344-0.87437 1.5472l4.7279 18.577c0.16893 0.66375 0.85632 1.089 1.5193 0.90537l12.384-3.4303c0.66297-0.18364 1.0438-0.88396 0.87488-1.5477l-1.1684-4.5915-1.0154-0.19224 1.2583 5.0193c0.04715 0.18525-0.05327 0.35044-0.20412 0.39222l-12.384 3.4298c-0.15085 0.041786-0.29237-0.034888-0.33951-0.22014l-4.7279-18.577c-0.047149-0.18525 0.053268-0.35044 0.20412-0.39222l12.384-3.4303c0.15085-0.041785 0.29236 0.035408 0.33951 0.22066l1.1684 3.7166 0.69815-0.62425-0.94154-3.328c-0.1267-0.49781-0.54479-0.86115-1.0258-0.93431-0.080165-0.012192-0.16233-0.016559-0.24495-0.011885zm8.3225 2.3895c0.26723-0.00738 0.25218 0.68626 0.25218 0.68626l-1.3674 0.94361s-0.65446-0.59724-1.0588-0.6165c-0.40439-0.019257-0.25063-0.30799-0.25063-0.30799s1.8875-0.38566 2.2918-0.65526c0.05055-0.033699 0.09463-0.049073 0.13281-0.050126zm-9.1581 0.11937c-0.0565 0.00346-0.11374 0.013456-0.17053 0.029973l-9.5999 2.7916c-0.45436 0.13214-0.70404 0.62171-0.59118 1.0873l3.6654 15.12c0.11286 0.46556 0.57814 0.77086 1.0325 0.63872l9.6004-2.7916c0.45436-0.13214 0.70352-0.62171 0.59066-1.0873l-0.9002-3.5941-0.45682 0.0894 0.8723 3.622c0.05466 0.22546-0.06892 0.43958-0.24546 0.49093l-9.5999 2.7921c-0.17654 0.051343-0.3541-0.052041-0.40876-0.2775l-3.6654-15.12c-0.054655-0.22546 0.06892-0.43958 0.24546-0.49093l9.6004-2.7921c0.17654-0.051342 0.3541 0.052042 0.40876 0.2775l0.68471 2.6861 0.38551-0.38654-0.58601-2.4169c-0.08465-0.34917-0.36721-0.60848-0.69505-0.66042-0.05464-0.00866-0.11041-0.011729-0.16691-0.00827zm6.5603 1.9725s0.25047 0.11518 0.34675 0.26923c0.09628 0.15405 0.5201-0.11536 0.55862 0.19275 0.03851 0.30811-0.28941 0.30823-0.57826 0.34675-0.28885 0.03851-0.57727-0.096653-0.7891-0.38551-0.21182-0.28885 0.46199-0.42323 0.46199-0.42323z" fill="var(--icon-color, currentcolor)"/>
    </g>
</svg>
