<svg id="Layer_1" data-name="Layer 1" xmlns="http://www.w3.org/2000/svg" viewBox="0 0 100 100"><title>icon_cardset_gadgetzan</title><path d="M79.74,44.38c6.49-2.45,10.61-9.4,9.31-15.55-2.36-11.13-14.83-15.72-24-9-1.4,1-3.8,1.8-5.32,1.34C50.85,18.43,45.6,20.5,41,28.72a6.22,6.22,0,0,1-3.9,2.9c-7.92,1.07-13.46,5.85-14.64,13.55-.4,2.54-1.51,3.71-3.81,4.64-5.14,2.1-8.08,5.92-7.88,13.24C10.79,69.8,15,75,22.83,76a16.18,16.18,0,0,0,12.68-3.53c1.17-.93,3.76-1.47,4.88-.81,2,1.16,2.74,3.16.18,5.28-1.38,1.13-3.49,3.28-2.88,4.91.64,1.23,2.36,1.48,4.57,1.45a27.2,27.2,0,0,0,5-.82c12.4-3.19,22.63-10.16,31.79-18.76a47.18,47.18,0,0,0,7.21-9.32c.78-1.23,1-4.41.38-4.9-.87-1.3-3.23-.35-4.45.27-2.55,1.28-4.29.77-5.35-1.66C75.68,45.39,77.93,45.07,79.74,44.38Zm-24.36-17c4.22,0,7.89,4.47,7.79,9.42C63.08,41.27,59.59,45,55.61,45c-4.28-.06-8.46-4.49-8.48-9S51.16,27.4,55.38,27.41ZM24.52,70.66c-4.14,0-8.23-4-8.23-8.07s3.23-7,7.49-6.93c4.57,0,8.91,3.67,8.8,7.38A8.27,8.27,0,0,1,24.52,70.66Zm13.9-15c-5-.14-9.41-4.77-9.22-9.6a7.07,7.07,0,0,1,7.24-6.78c5,0,9.55,4.57,9.44,9.37A7.15,7.15,0,0,1,38.42,55.69ZM70.79,57.4C68.58,64,59,70.67,51.62,71.39c-2.31-1.23-5-2.06-6.85-3.78-3.05-2.84-1.91-4.52.9-7.54,6.72-7.24,6.89-9.76,14.82-9.35A3.06,3.06,0,0,0,63.17,49c1.23-1.63,2.31-3.92,5.13-1.33A8.81,8.81,0,0,1,70.79,57.4Zm4.39-18.78c-4.09,0-7.71-4-7.71-8.5a7.32,7.32,0,0,1,7.7-7.3c3.87.06,7.9,4.05,8,8C83.31,34.51,79.15,38.59,75.18,38.62Z"></path></svg>