<svg id="Layer_1" data-name="Layer 1" xmlns="http://www.w3.org/2000/svg" viewBox="0 0 100 100">
<path d="M65.91,40.83c2.43-1.46,10.9-5.54,14.21-7s11.09-5.06,11.09-5.06-5,.29-9.34,1c0,0-2.39.73-1.41-2s2.09-9,.68-10.66c0,0-.58,8.08-3.8,11.92s-8.46,7-10.55,6.67-3.17-3.22-2.24-5.89S68.44,14.12,73.11,11c0,0-3.89-.2-6.18,1.51s-4.28,4.08-6.76,3.89-4.67-3.65-4.28-5c0,0-5,4.42-7.54,4.81S33,17.58,28.45,19.28c0,0-.88,3.11-3,3A3.67,3.67,0,0,1,22.56,21S11.17,27.31,8.79,30.42c0,0,9.93,7.59,12.84,16s4.48,17.81,3.6,22.19a2,2,0,0,1-1.94-.78A14.49,14.49,0,0,0,9.57,61.85S20.66,69,21.34,81.41c0,0,9.73,6,10.61,6.81s5-7.88,8-9c0,0,.49.2,0,2.34A56.75,56.75,0,0,0,38.76,89h4.38S55.6,85.79,60,86.08c0,0-5.54-9.24-8.85-12.07,0,0,4.09-1.07,8.85,3.12,0,0,2.34-10.61,4.48-12.75,0,0,3.89,13.33,3.89,16.06,0,0,5.16-4,5.74-5.91s1.76-5,.88-6.26S65,55,64.84,51.93,63.48,42.29,65.91,40.83ZM61.53,25.21c-.63,1.85-4,4.24-6.86,5.31s-3.94,4.62-4.23,6.18-1.51.34-1.51.34l-.29-4.19C46.93,33.34,36.23,34,36.23,34c-.73,1.41.78,6.62.78,6.62-3.65-1.41-7.28-10.88-7.4-10.51-.34,1.12-3.69,2.77-8.66,2.63s-4.67-1.42-4.62-2.23,7-7.7,16.69-9.16,22-1,25.4-.19S62.16,23.36,61.53,25.21Z"></path><path d="M22.61,62.53s1.21-6.18-3.51-10.12c0,0,.49,5.5-1.16,6.86C17.94,59.27,21.88,61.51,22.61,62.53Z"></path></svg>