<?xml version="1.0" encoding="UTF-8"?>
<svg xmlns="http://www.w3.org/2000/svg" data-name="Layer 1 Image" viewBox="0 0 33.867 33.867" width="128" height="128" style="padding: 15px; opacity: 0.6;" version="1.1"><g transform="translate(0.0000, 0.0000) scale(0.467647)"><path fill="var(--icon-color, currentcolor)" d="M6.93 56.01h.05c-.02.02-.03.04-.05.06v-.06Z" style="fill:#131512" /><path fill="var(--icon-color, currentcolor)" d="M7.1 56.13v-.9c.1-.95.41-1.84.73-2.73.76-2.12 1.98-3.99 3.22-5.84.79-1.17 1.67-2.28 2.54-3.39.61-.78 1.28-1.53 1.92-2.29.09-.11.24-.17.34-.24.15.83.32 1.6.42 2.38.03.21-.09.48-.22.67-.73 1.1-1.36 2.24-1.84 3.47-.35.88-.59 1.78-.56 2.74.04 1.39.83 2.33 2.19 2.72.71.2 1.44.22 2.17.17 1.23-.09 2.44-.3 3.61-.69.94-.31 1.86-.65 2.79-.98.03-.01.06-.03.07-.04-.49-.48-.98-.95-1.46-1.43-.84-.84-1.55-1.78-2.14-2.8-.54-.95-1.06-1.92-1.48-2.93-.36-.85-.58-1.76-.83-2.66-.12-.43-.16-.88-.25-1.31-.07-.34.18-.52.35-.72a30 30 0 0 1 1.69-1.87c.53-.53 1.11-1.02 1.68-1.5.09-.08.26-.1.39-.1 2.07 0 4.14 0 6.21.01h.6l.06-.03c-.02-1.52-.03-3.05-.06-4.57 0-.54-.04-1.07-.05-1.61 0-.23.07-.4.29-.56.67-.49 1.32-1.01 1.97-1.54.23-.19.45-.09.66-.03.97.28 1.94.57 2.91.86.1.03.21.01.39.02-1.39-1.44-2.75-2.84-4.13-4.27 1.32-1.35 2.49-2.85 3.4-4.58 8.1-.1 14.11 3.32 17.87 10.67.79-1.18 1.55-2.31 2.29-3.45.62-.96 1.12-1.99 1.45-3.08.29-.94.45-1.9.21-2.9-.22-.92-.81-1.48-1.66-1.81-.87-.33-1.79-.35-2.71-.29-.68.04-1.37.15-2.03.3-.94.22-1.86.5-2.79.77-.26.07-.52.15-.77.27-.18.09-.3.07-.48-.02-.61-.3-1.26-.5-1.93-.62-.17-.03-.34-.12-.59-.21.35-.18.6-.32.87-.44 1.51-.68 3.01-1.39 4.53-2.02 1.16-.48 2.35-.88 3.54-1.28.87-.29 1.76-.53 2.65-.77a51.4 51.4 0 0 1 2.14-.53c.31-.07.64-.12.96-.13.69-.04 1.39-.1 2.08-.06 1.21.08 2.37.39 3.36 1.12.46.34.78.8 1.06 1.29.69 1.17.61 2.39.26 3.64-.49 1.76-1.22 3.42-2.06 5.03-.44.83-.97 1.62-1.5 2.4-.73 1.06-1.47 2.12-2.26 3.14-.69.89-1.46 1.71-2.18 2.57-1.49 1.77-3.14 3.39-4.78 5.02-.57.57-1.2 1.07-1.79 1.61-.46.41-.9.84-1.36 1.25-.48.43-.97.85-1.46 1.26-.54.46-1.09.91-1.65 1.35-.79.63-1.57 1.28-2.37 1.89-1 .77-2 1.55-3.04 2.26A286 286 0 0 1 34 52.16c-1.12.73-2.31 1.36-3.49 2-1.58.85-3.17 1.69-4.78 2.46-1.25.6-2.54 1.13-3.83 1.61-1.35.5-2.73.95-4.12 1.34-.97.27-1.98.41-2.98.59-.44.08-.9.09-1.35.13h-1.98c-.37-.08-.74-.16-1.11-.25a3.9 3.9 0 0 1-2.01-1.15c-.61-.65-.99-1.41-1.21-2.26-.04-.16-.04-.33-.06-.49ZM26.84 17.47c.11.67.22 1.25.31 1.83.13.84.24 1.68.35 2.53.07.58.13 1.17.19 1.75.04.38.12.76.11 1.14-.02.4-.09.82-.21 1.2-.18.59-.43 1.16-.64 1.75-.1.27-.28.41-.56.5-.55.18-1.07.45-1.62.63-.34.11-.71.1-1.07.14-.04 0-.09-.03-.13-.06-.26-.24-.52-.49-.79-.73-.57-.51-1.14-1.01-1.7-1.53-.47-.43-.94-.85-1.4-1.29-.56-.53-1.12-1.08-1.68-1.61-.37-.35-.48-.76-.35-1.25.09-.36.15-.72.19-1.09.06-.7.51-1.09 1.08-1.38 1.67-.84 3.4-1.55 5.22-2.01.87-.22 1.75-.35 2.7-.53Z" /><path fill="var(--icon-color, currentcolor)" d="M53.83 40.48c-.09.44-.13.8-.23 1.14-.25.84-.48 1.7-.82 2.51-.51 1.21-1.09 2.38-1.87 3.45-.55.76-1.13 1.5-1.77 2.2a17.098 17.098 0 0 1-4.91 3.72c-.89.45-1.83.81-2.78 1.12-.89.29-1.81.53-2.74.64-1.18.14-2.38.11-3.56.16-.16 0-.32.02-.48 0-.09-.01-.25-.1-.25-.14.01-.11.06-.26.15-.31.89-.55 1.8-1.07 2.69-1.62 1.41-.87 2.82-1.74 4.21-2.64 1.07-.69 2.12-1.42 3.15-2.16.63-.46 1.21-.97 1.81-1.48.65-.55 1.3-1.1 1.92-1.68 1.51-1.41 3.01-2.84 4.51-4.26.19-.18.39-.37.6-.53.08-.06.19-.06.38-.12Z" style="fill:#010100" /><path fill="var(--icon-color, currentcolor)" d="M15.57 29.57c-.68-.14-1.39-.22-2.05-.43-1.35-.42-2.69-.91-4.03-1.37-.03 0-.05-.02-.08-.03q-.6-.21-.41-.85c.69-2.19 1.67-4.23 3.01-6.1.13-.18.24-.14.4-.07.57.24.95.7 1.35 1.14.45.48.87.98 1.3 1.46.73.82 1.48 1.63 2.21 2.45.39.45.75.92 1.11 1.4.27.36.24.51-.1.78-.5.4-1.02.77-1.49 1.2-.36.32-.76.38-1.21.33 0 .03 0 .06-.01.09ZM18.09 31.65c.57 0 1.14-.01 1.71 0 .14 0 .32.1.4.21.33.47.63.96.95 1.44.18.28-.02.49-.12.71-.18.4-.5.69-.84.97-.41.34-.78.74-1.2 1.06-.61.48-1.25.94-1.9 1.36-.39.25-.52.16-.68-.28-.28-.78-.47-1.58-.53-2.41-.06-.8-.1-1.6-.13-2.4-.02-.45.21-.67.66-.67h1.68Z" /></g></svg>