<svg width="100" height="100" viewBox="0 0 100 100" style="margin-top: 10px" fill="none"
    xmlns="http://www.w3.org/2000/svg">
    <circle opacity="0.3" cx="47" cy="45" r="31" fill="#7A35A0"/>
    <circle opacity="0.5" cx="47" cy="45" r="25" fill="#7A35A0"/>
    <circle cx="47.5" cy="45.5" r="18.5" fill="#7A35A0"/>
    <path d="M29.8197 31.2145L50.3986 24.0724L69.0102 36.9896L65.1865 60.7305L42.6567 67.4321L26.2162 53.9799L29.8197 31.2145Z" fill="url(#paint0_linear)"/>
    <circle cx="47.5031" cy="45.9725" r="15.5" transform="rotate(12.726 47.5031 45.9725)" fill="url(#paint1_linear)"/>
    <circle cx="47.5031" cy="45.9725" r="13.5" transform="rotate(12.726 47.5031 45.9725)" fill="url(#paint2_radial)"/>
    <path d="M53.9429 46.4698C53.862 46.6693 53.781 46.8689 53.6719 47.0851C53.4819 47.5009 53.2703 47.9105 53.1448 48.345C53.0392 48.7108 52.7727 48.9064 52.5278 49.1082C52.1074 49.4327 51.8245 49.8465 51.6512 50.3662C51.5984 50.5491 51.4809 50.7134 51.385 50.8839C51.3437 50.9462 51.2874 50.9795 51.2311 51.0128C50.6748 51.3229 50.1036 51.6039 49.5623 51.9431C49.0491 52.2656 48.4828 52.4489 47.8932 52.5512L47.8716 52.5449C47.2772 52.7449 46.7139 52.7557 46.1653 52.4735C45.8985 52.3469 45.6351 52.3699 45.3436 52.4096C44.7821 52.4953 44.2405 52.5123 43.6672 52.3963C43.359 52.3321 43.1071 52.2346 42.8948 51.9999C42.7339 51.8296 42.4605 51.7259 42.2235 51.6575C41.9435 51.5766 41.6766 51.4501 41.4296 51.2549C41.2621 51.1075 41.0467 51.0453 40.8726 50.9207C40.7781 50.8439 40.6621 50.7608 40.6023 50.6445C40.5425 50.5281 40.5109 50.3951 40.4793 50.2622C40.4029 50.0419 40.4095 50.019 40.6298 49.9836C40.9279 49.921 41.2176 49.8065 41.5307 49.773C41.8719 49.7229 42.1999 49.7185 42.5428 49.7431C42.9288 49.7803 43.2617 49.6782 43.5845 49.4493C43.9635 49.1872 44.386 49.2596 44.772 49.2967C45.4944 49.3814 46.19 49.2354 46.8939 49.1414C47.0148 49.1268 47.1274 49.0602 47.24 48.9936C47.8178 48.6897 48.374 48.3796 48.9369 48.0467C49.1339 47.9302 49.2944 47.7783 49.4549 47.6265C49.6999 47.4247 49.9233 47.2167 50.1533 46.9859C50.2162 46.9297 50.2575 46.8673 50.2773 46.7987C50.3566 46.5243 50.4789 46.2624 50.5084 45.9984C50.5442 45.3895 50.7738 44.8365 50.9389 44.2648C51.0445 43.8989 51.0292 43.5477 50.9278 43.1716C50.8329 42.7727 50.738 42.3737 50.6432 41.9747C50.6098 41.7669 50.5136 41.6153 50.3395 41.4907C49.7162 41.063 49.0185 40.8121 48.2812 40.6983C47.8372 40.6197 47.3469 40.7011 46.8831 40.691C46.8334 40.7014 46.7837 40.7119 46.7556 40.7285C46.3682 40.9387 45.9808 41.1489 45.5934 41.3591C45.5371 41.3924 45.4527 41.4423 45.4047 41.5276C45.1733 42.0058 44.8922 42.4944 44.7254 42.9912C44.5983 43.3509 44.501 43.7687 44.6671 44.1634C44.7501 44.3608 44.8116 44.552 44.8947 44.7493C44.9478 44.8885 45.0705 44.9487 45.2129 44.9403C45.4548 44.911 45.7032 44.8589 45.9947 44.8192C45.9777 44.3931 45.9756 43.9962 45.9387 43.6387C46.4967 43.4035 47.0005 43.5985 47.496 43.7415C47.7114 43.8037 47.8789 43.9511 48.0811 44.0591C48.1027 44.0653 48.1176 44.0944 48.1325 44.1235C48.4199 44.8257 48.5217 45.524 48.2823 46.2723C48.1899 46.5924 48.0394 46.871 47.9255 47.185C47.9123 47.2307 47.856 47.264 47.8278 47.2806C47.3907 47.5012 46.9321 47.7157 46.495 47.9363C46.4172 47.9633 46.3178 47.9842 46.2532 47.9655C45.6667 47.8953 45.0587 47.8189 44.4475 47.9149C44.3978 47.9253 44.3697 47.942 44.3332 47.9067C43.9503 47.6971 43.5129 47.5955 43.2822 47.1821C43.2373 47.0949 43.2273 46.9681 43.189 46.858C43.1209 46.6897 43.0528 46.5214 42.9566 46.3698C42.5501 45.757 42.1651 45.1504 42.0897 44.3607C42.0595 43.9804 41.8587 43.6251 41.7009 43.2823C41.6328 43.114 41.6078 42.9582 41.6457 42.7462C41.7211 42 42.0185 41.2931 42.2016 40.5781C42.2478 40.418 42.2294 40.2393 42.2043 40.0834C42.1925 39.8819 42.2339 39.8195 42.4392 39.7549C42.7936 39.659 43.1331 39.5341 43.4576 39.38C43.7043 39.2531 43.9211 39.068 44.1164 38.8766C44.4308 38.5958 44.7901 38.4023 45.1726 38.2898C45.9293 38.0128 46.6861 37.7358 47.4727 37.517C47.799 37.4378 48.1634 37.4687 48.4848 37.4872C48.556 37.483 48.6373 37.6055 48.6606 37.6866C48.7537 38.0107 48.8267 38.0813 49.1314 37.9959C49.5636 37.8729 49.8305 37.9995 50.0397 38.4067C50.0994 38.5231 50.2801 38.6248 50.4027 38.6849C50.6762 38.7887 50.9413 38.8404 51.2147 38.9441C51.2793 38.9628 51.3739 39.0396 51.4037 39.0978C51.4437 39.2827 51.5663 39.3429 51.7171 39.3864C51.853 39.4009 51.9409 39.5006 51.9725 39.6336C52.0059 39.8414 52.1435 39.9307 52.329 39.9347C52.4648 39.9491 52.6288 39.9469 52.7713 39.9385C52.8922 39.9239 52.9718 39.9716 53.01 40.0817C53.2358 40.5928 53.4898 41.0873 53.6875 41.615C53.8918 42.1199 54.068 42.6414 54.2441 43.1629C54.2758 43.2959 54.2792 43.4456 54.2612 43.589C54.2171 44.146 54.1663 44.7259 54.1222 45.2829C54.0993 45.524 54.141 45.7838 54.118 46.0249C54.0701 46.1101 54.0173 46.293 53.9429 46.4698Z" fill="#B65415"/>
    <path d="M46.4338 25.7399L51.7674 20.2808L49.7848 29.0597L46.4338 25.7399Z" fill="#D6D3CF"/>
    <path d="M54.2373 27.5023L51.7674 20.2808L49.7848 29.0597L54.2373 27.5023Z" fill="#868078"/>
    <path d="M47.5969 65.9847L42.2633 71.4439L44.2459 62.665L47.5969 65.9847Z" fill="#868078"/>
    <path d="M39.7934 64.2224L42.2633 71.4439L44.2459 62.665L39.7934 64.2224Z" fill="#D6D3CF"/>
    <path d="M29.4852 37.8027L20.4583 40.89L31.432 43.3682L29.4852 37.8027Z" fill="#D6D3CF"/>
    <path d="M27.2823 47.557L20.4583 40.89L31.432 43.3682L27.2823 47.557Z" fill="#868078"/>
    <path d="M67.7474 45.4185L74.5714 52.0855L63.5977 49.6072L67.7474 45.4185Z" fill="#868078"/>
    <path d="M65.5445 55.1728L74.5714 52.0855L63.5977 49.6072L65.5445 55.1728Z" fill="#6D6861"/>
    <path d="M81.858 42.676L78.3708 42.9999L76.3467 45.858L76.0228 42.3707L73.1647 40.3466L76.6519 40.0228L78.676 37.1647L78.9999 40.6519L81.858 42.676Z" fill="#FFB948"/>
    <path d="M61.4767 20.7089L59.5393 20.8888L58.4148 22.4766L58.2349 20.5393L56.647 19.4148L58.5844 19.2349L59.7089 17.647L59.8888 19.5844L61.4767 20.7089Z" fill="#FFB948"/>
    <path d="M74.4767 26.7089L72.5393 26.8888L71.4148 28.4766L71.2349 26.5393L69.647 25.4148L71.5844 25.2349L72.7089 23.647L72.8888 25.5844L74.4767 26.7089Z" fill="#FFB948"/>
    <defs>
        <linearGradient id="paint0_linear" x1="62.4025" y1="34.4722" x2="23.6076" y2="55.5727" gradientUnits="userSpaceOnUse">
            <stop offset="0.0857325" stop-color="#6D6861"/>
            <stop offset="0.932271" stop-color="#D6D3CF"/>
        </linearGradient>
        <linearGradient id="paint1_linear" x1="37.3896" y1="37.5202" x2="59.5031" y2="56.9725" gradientUnits="userSpaceOnUse">
            <stop offset="0.0577871" stop-color="#762F00"/>
            <stop offset="0.468996" stop-color="#FFC086"/>
            <stop offset="0.879411" stop-color="#762F00"/>
        </linearGradient>
        <radialGradient id="paint2_radial" cx="0" cy="0" r="1" gradientUnits="userSpaceOnUse" gradientTransform="translate(47.3801 40.9025) rotate(90.2686) scale(20.0125 16.6771)">
            <stop stop-color="#FDFF8F"/>
            <stop offset="0.311149" stop-color="#FFB948"/>
            <stop offset="1" stop-color="#AD480E"/>
        </radialGradient>
    </defs>
</svg>
