<svg id="Layer_1" data-name="Layer 1" xmlns="http://www.w3.org/2000/svg" viewBox="0 0 100 100"><title>icon_cardset_frozenthrone</title><path d="M79.2,67.31s1-1.11-2.54-3.66-.37-6.4-.37-6.4,1.85-6.83,2.44-7.46l-2.28-2.33s-4.55-3.55-5-4.71,1.12-3.71,5.67-4.34a74.57,74.57,0,0,1-6.09-6.19c-1.85-2.33-8.84-13.71-9.68-19.9l-.32,11.27s2,8,.74,13.39-4.45,5.5-4.45,5.5-4-1-2.64-7.25,4.13-9.31,3.91-14.66S58,6.71,52,3.64a19.09,19.09,0,0,1,1.9,9.21c-.16,5.55-2,8.09-3.85,8s-4.19-4.23-4-8.36a33.63,33.63,0,0,1,2-8.89s-6.3,5.18-6.56,12.75A40.53,40.53,0,0,0,43.9,31s3,7.94.79,10.16-4.44.42-5.29-1.48-2.54-10.85-.79-15.51L38.34,12s-1.8,8.79-3.49,11.75-7.94,12.17-12.6,14.5c0,0,5.72,1.06,5.93,3.71s-3.39,4.65-3.39,4.65l-4.12,2.65a24.3,24.3,0,0,1,1.69,3.6c.48,1.42,2.86,8.25,2.22,9.1s-2.11,3.28-3.91,4.34a112.26,112.26,0,0,0,4.76,12.91c2.12,4.24,3.39,7.1,2,8.37a42.47,42.47,0,0,1-4.34,3.17s6,5.29,10.69,5.61a20.26,20.26,0,0,0,6.56-3.7,76.29,76.29,0,0,0,6.46-6.57l-6.56-9s-.21-1.27,1.37-1.48a9.23,9.23,0,0,0,5.19-2.33,17.34,17.34,0,0,0,2.65-3.81s1-.59,1.85.79,2,3.6,3.55,4.34a19.29,19.29,0,0,0,3.54,1.16s1.43.22,1.17,1.33-4.34,6.51-6.51,8.78c0,0,6.14,7.25,11.06,9.74A9.56,9.56,0,0,0,69,95.41c3-.79,7.46-4.45,7.46-4.45S71.9,87.47,71.32,86s3.59-8.31,3.59-8.31S78.57,68,79.2,67.31Zm-36,.21c-1.32.32-4,2-6,1.8S33.37,66,31.41,62.49a20,20,0,0,1-2-8.2c.79-1.06,3.44,1.32,5.24,3.23s9.1,7.35,10,8.15S44.54,67.2,43.21,67.52Zm22.28.14c-1.54,2-3.93,1.23-4.76.8a24.35,24.35,0,0,0-4.64-1c-.6-.08-1.63-1.39-.32-2s14-11.71,14-11.71C72.32,57.26,67,65.72,65.49,67.66Z"></path></svg>