<svg xmlns="http://www.w3.org/2000/svg" viewBox="0 0 68.97 67.99"><path d="M1.13 63.17c.31-.82.62-1.64.93-2.47.41-1.1.81-2.2 1.22-3.3.05-.13.17-.25.28-.34.46-.38.98-.45 1.57-.45 19.68.01 39.37.01 59.05 0 .38 0 .69.09 1.02.28.33.19.52.43.65.78.64 1.78 1.31 3.56 1.97 5.34.05.14.04.24-.04.36-.4.62-.79 1.25-1.18 1.88-.08.13-.16.19-.31.17H2.83c-.24 0-.37-.07-.49-.28-.35-.58-.71-1.16-1.08-1.73-.04-.06-.09-.12-.14-.18v-.09ZM12.22 39.43c-.09.04-.16.07-.22.1-.79.42-1.59.83-2.38 1.25-.28.15-.55.11-.76-.12-.13-.14-.25-.28-.38-.41-.28-.28-.37-.62-.3-.99.33-1.89.66-3.77.99-5.65.11-.65.23-1.31.34-1.96.09-.51.35-.92.76-1.23 2.21-1.67 4.69-2.86 7.29-3.79 2.77-.98 5.63-1.63 8.53-2.07 3.25-.49 6.51-.66 9.79-.59 4.67.1 9.27.73 13.76 2.07 2.76.82 5.39 1.93 7.82 3.49.41.26.81.54 1.2.84.19.14.33.34.49.51.31.34.34.78.42 1.2.42 2.38.83 4.76 1.25 7.14.07.4 0 .75-.3 1.04-.11.1-.2.22-.3.32-.32.35-.51.38-.92.16-.82-.44-1.65-.87-2.52-1.34.03.33.06.6.09.87.2 1.72.39 3.44.59 5.15l.63 5.48.33 2.85c.03.24-.23.53-.48.53H53.1c-.25 0-.58-.29-.6-.54l-.42-4.85c-.15-1.71-.3-3.42-.44-5.12-.08-.92-.13-1.85-.26-2.77-.17-1.29-.54-2.53-1.25-3.65-.16-.25-.35-.49-.56-.7-.78-.76-1.65-.64-2.2.31-.41.71-.61 1.49-.65 2.3-.04.78 0 1.56.05 2.33.09 1.48.2 2.96.3 4.44.12 1.71.24 3.42.35 5.13.06.91.13 1.82.19 2.73.01.21-.15.38-.36.38h-6.77c-.28 0-.55-.27-.56-.55l-.27-10.33c-.05-1.78-.06-3.55-.15-5.33-.07-1.38-.75-2.49-1.81-3.34-2.99-2.4-7.43-.74-8.09 3.04-.12.69-.11 1.41-.13 2.12-.13 4.61-.25 9.22-.37 13.83 0 .31-.28.57-.59.57h-6.72c-.24 0-.4-.17-.38-.41.2-2.89.4-5.78.59-8.67.12-1.7.26-3.4.34-5.11.05-1.01-.14-2-.58-2.92-.07-.14-.16-.28-.26-.41-.56-.74-1.27-.8-1.97-.18-.42.37-.72.84-.97 1.34-.61 1.25-.91 2.58-1.02 3.96-.14 1.74-.3 3.48-.45 5.22l-.39 4.57-.18 2.08c-.02.24-.35.53-.6.53h-4.84c-.25 0-.5-.29-.47-.53l.9-7.85c.24-2.1.48-4.2.71-6.31v-.16ZM14.75 17.43c-.51.37-.98.7-1.44 1.05-.45.34-.88.7-1.33 1.05-.34.27-.68.21-1.02 0-.21-.13-.34-.4-.29-.72.16-.95.33-1.9.49-2.84.21-1.22.4-2.44.63-3.66.09-.53.27-1.03.63-1.44 1.68-1.94 3.7-3.45 5.94-4.67 3.04-1.65 6.29-2.68 9.68-3.27.83-.14 1.67-.24 2.5-.35.34-.05.62.05.86.3.23.24.46.48.7.71.32.3.44.67.42 1.1-.07 1.92-.13 3.84-.19 5.77-.01.33-.41.71-.75.73-.4.02-.8.07-1.2.1-.16.01-.19.1-.19.25-.06 2.59-.13 5.17-.19 7.76 0 .35-.02.69-.03 1.04 0 .24-.17.41-.4.45-1.52.24-3.03.49-4.55.74-.3.05-.59.12-.88.18-.24.05-.51-.17-.49-.42.05-.87.1-1.74.18-2.61.09-1.08.06-2.16-.22-3.22-.12-.47-.32-.94-.58-1.35-.45-.69-1.02-.67-1.63-.21-.51.38-.81.95-1.08 1.52-.5 1.06-.73 2.19-.8 3.36-.08 1.31-.21 2.62-.33 3.92-.02.27-.2.48-.45.58-1.49.57-2.94 1.24-4.36 1.98-.18.1-.28 0-.38-.09a.31.31 0 0 1-.1-.24c.22-1.98.44-3.96.67-5.94.06-.49.11-.98.18-1.53ZM38.79 11.28c-.48-.04-.94-.09-1.41-.12-.28-.02-.7-.41-.71-.7-.07-1.98-.13-3.97-.19-5.95 0-.32.1-.61.32-.84.25-.26.51-.51.76-.78.26-.29.58-.37.96-.33 2.87.32 5.67.92 8.38 1.93 2.89 1.07 5.58 2.51 7.9 4.57.66.59 1.27 1.24 1.87 1.9.4.44.51 1.03.6 1.6l.72 4.26c.11.66.23 1.32.34 1.98.05.32-.06.6-.28.72-.44.25-.74.24-1.04 0-.83-.64-1.66-1.26-2.49-1.89-.07-.06-.15-.1-.26-.17.05.47.1.9.15 1.33.2 1.72.39 3.44.59 5.15.04.31.08.61.1.92 0 .09-.02.21-.08.27-.11.11-.23.18-.43.09-1.38-.64-2.76-1.26-4.14-1.9-.14-.07-.29-.14-.41-.24-.19-.16-.22-.38-.24-.62-.13-1.62-.22-3.25-.43-4.87-.16-1.23-.6-2.38-1.4-3.36-.19-.23-.47-.42-.75-.56-.41-.21-.77-.11-1.09.23-.31.33-.49.73-.62 1.15-.23.71-.35 1.45-.34 2.19.03 1.15.1 2.29.16 3.44 0 .15 0 .31.03.46.06.25-.09.39-.25.53-.04.04-.13.04-.19.03-1.67-.29-3.34-.58-5.02-.87l-.44-.06c-.29-.04-.43-.2-.44-.49-.08-2.91-.15-5.82-.23-8.73 0-.07 0-.14-.01-.26Z"/></svg>