<svg id="Layer_1" data-name="Layer 1" xmlns="http://www.w3.org/2000/svg" viewBox="0 0 100 100"><title>icon_cardset_kobolds</title><path d="M26.29,36a3.67,3.67,0,0,0-.55,4.12c1.22,2.22,3.89,3.55,4.44,6.33s-.31,7-2.43,9S24.41,60,26.07,61.1s3.56,1.22,3.56,3.33v13s-2.11,6.11-4.34,6.89-5.66,2.89-2.55,4.55S32,90.43,32,90.43h4.22a1.22,1.22,0,0,1-.44,1.89c-1.33.66-2.78,1.89-.56,3S45.74,98,48.63,97.65s12.22-2,14.22-3.11,1.33-2.44,0-2.78.08-1.44,1.26-1.55,9.41.22,11.18-.34S79,89,78.41,87.43s-4-2.22-5.67-3.56A8.15,8.15,0,0,1,69.85,79c-.11-1.33-.56-30.22-.56-30.22A13.23,13.23,0,0,1,71,44.21c1.22-1.78,2.89-3.11,3.56-4.45s-.45-3.78-1.45-4.33-4.44-.22-6,.67a33.78,33.78,0,0,1-6.66,2.22c-2.78.78-3.67,5.78-3.67,7.89s.33,10.11.33,10.11A5.49,5.49,0,0,0,58,59.65c1,1.11,3.33,6.11-1,7.22s-7-1.55-7.44-2.66a5.43,5.43,0,0,1,1.55-5.11c1.56-1.34.78-5.89.78-5.89S51.07,41,51.07,40.54s-.55-1.67-2.66-1.22-10.89.33-14-2.11S26.73,35.38,26.29,36Z"></path><path d="M42.52,2.76s3.66,1.89,3.89,3.89S42.85,14.54,39.63,18,33.41,29.54,44,34.65c0,0-1.55-3.44-.89-6.11s5.11-5.11,5.22-9.83a3.36,3.36,0,0,1,2.56,2.61c.44,2.22.67,3.66,2.11,5.11s2.56,7.46-.55,8.73c0,0,5.77-2.51,7.33-5.95S62,20.54,57.29,13.65,48.74.54,42.52,2.76Z"></path></svg>