<svg xmlns="http://www.w3.org/2000/svg" xml:space="preserve" id="Layer_2_xA0_Image_00000054953447226704043690000016088632338459088048_" x="0" y="0" version="1.1" viewBox="0 0 61.4 61.4"><path d="M7.3 11.5c.3.4.7 1 1 1.5.4.6.8 1.3 1.3 1.9.4.4.9.8 1.4 1.2 1.1.9 2.3 1.7 3.4 2.6.4.3.4.3.1.7-.6 1.1-1.3 2.2-2 3.3-.5.9-1.1 1.9-1.6 2.8-.1.2-.3.5-.4.7-.1.2-.2.1-.4.1-.6-.2-1.2-.5-1.9-.7-.8-.4-1.6-.8-2.5-1.2-.5-.2-.8-.6-.9-1.1-.3-.9-.6-1.8-.8-2.7-.3-1.1-.7-2.2-1-3.4 0-.1-.1-.2-.1-.3-.3-.6.1-1 .4-1.3.8-.9 1.5-1.8 2.3-2.7.7-.5 1.2-.9 1.7-1.4zM46.6 18.9c.3-.3.6-.5 1-.8 1.2-.9 2.5-1.8 3.6-2.7.4-.3.7-.7.9-1.1.6-.9 1.3-1.8 1.9-2.7.1-.2.2-.1.3 0 .5.6 1.1 1.1 1.6 1.7.5.6 1 1.2 1.5 1.7.3.4.6.7.9 1.1.1.1.1.2 0 .3-.4 1.2-.8 2.5-1.1 3.7-.3 1.1-.7 2.1-1 3.2-.1.4-.4.6-.7.8-1.1.5-2.2 1-3.2 1.5-.4.2-.9.4-1.4.5-.1 0-.2 0-.2-.1-.6-1-1.1-2-1.7-3-.5-.9-1-1.8-1.6-2.7-.2-.4-.5-.8-.8-1.4zM49.2 44.2l.9.3c.6.3 1.3.6 1.9.8.4.1.4.5.5.8.3.9.6 1.7.8 2.6.6 1.8 1.1 3.5 1.7 5.3 0 .1 0 .2-.1.3-.5.6-1.2 1.1-1.9 1.6-.9.7-1.8 1.3-2.7 2-.1.1-.2.1-.3 0-.4-.5-.9-1-1.3-1.5l-1.8-1.8c-.8-.7-1.7-1.3-2.5-1.9-.3-.2-.5-.4-.8-.5-.3-.1-.2-.2-.1-.4.3-.4.6-.8.8-1.2.8-1.1 1.6-2.1 2.4-3.2.5-.7 1-1.3 1.5-2 .2-.3.5-.7.7-1 .1-.1.2-.2.3-.2zM6.3 54.1c.1-.5.3-.9.4-1.3.6-1.7 1.1-3.5 1.7-5.2.2-.6.4-1.3.6-1.9.1-.1.2-.3.4-.3.8-.4 1.7-.7 2.5-1.1.2-.1.4-.1.6.2 1.1 1.5 2.1 3 3.2 4.5.7 1 1.5 2 2.2 3 .1.1.1.2-.1.3-1 .6-2 1.2-2.9 1.9-.8.6-1.5 1.4-2.2 2.1-.5.6-1 1.2-1.5 1.7h-.3c-1-.7-1.9-1.4-2.8-2.2l-1.5-1.2c-.1-.2-.2-.3-.3-.5zM49.6 27.9c-.4-1-.9-2-1.4-3-.6-1.2-1.2-2.5-1.9-3.7-.5-.9-1-1.7-1.5-2.6-.3-.5-.5-.9-.8-1.3-.4-.5-1-.9-1.5-1.4-.6-.5-1.2-1-1.9-1.5l-1.5-1.2c-.2.2-.4.3-.5.5-.6.7-1.3 1.3-1.8 2-.1.2-.3.2-.5.2H24.9c-.1 0-.2 0-.3-.1-.3-.3-.5-.6-.8-.9l-1.6-1.6s-.2-.1-.2 0c-.3.2-.6.5-.9.8l-2.7 2.1c-.6.4-1.1.9-1.4 1.6-.3.5-.6 1.1-.9 1.6-.7 1.3-1.5 2.5-2.2 3.8-.8 1.5-1.5 3.1-2.2 4.7V30.3c0 .8 0 1.6.1 2.4 0 .6.1 1.3.1 1.9 0 .8.1 1.5.1 2.3v3c0 .2.1.4.2.6 1 1.5 2.1 3 3.1 4.6 1.5 2.1 2.9 4.3 4.4 6.4.3.4.5.8.8 1.1.3.5.9.6 1.3.8 1.5.7 3.1 1.3 4.6 2 .8.3 1.5.6 2.3 1 .7.3 1.3.6 2 .8h.3c1-.4 2.1-.9 3.1-1.3 1.1-.5 2.1-.9 3.2-1.4l2.7-1.2c.4-.2.9-.3 1.1-.7.5-.7 1-1.5 1.5-2.2 1.3-1.8 2.5-3.7 3.8-5.5 1-1.5 2-2.9 3-4.4.1-.2.2-.4.2-.6 0-.7-.1-1.5-.1-2.2 0-.7.1-1.3.1-2s.1-1.5.1-2.2c0-.7.1-1.4.1-2.1v-2.8c0-.2-.1-.5-.2-.7zm-6.7 3.6c-1 2-2 4-3 5.9-1 2-2.1 4-3.1 6-.7 1.3-1.3 2.7-2 4-.4.7-.8 1.4-1.2 2.2-.1.2-.2.2-.4.1-1.4-.5-2.9-.9-4.3-1.3-1.1-.3-2.1-.7-3.2-1-.9-.3-1.8-.5-2.7-.8-.1 0-.2-.1-.3-.2-.6-1.3-1.2-2.6-1.7-3.9-.2-.5-.5-1-.7-1.5v-.1c.2.1.4.1.6.2l3 1.2c1 .4 2 .9 3 1.3.9.4 1.7.7 2.6 1.1.3.1.6.2.9.4.2.1.3 0 .5-.1.9-1.3 1.7-2.7 2.6-4 .9-1.4 1.8-2.7 2.7-4.1.6-.9 1.1-1.7 1.7-2.6V34c-.6-.7-1.2-1.4-1.7-2.1-.7-.9-1.4-1.8-2.2-2.6-.5-.6-.9-1.1-1.4-1.7-.3-.3-.5-.6-.7-1-.2-.2-.3-.3-.6-.1-1.5.8-3 1.5-4.6 2.2-.5.2-.9.4-1.4.6-.2.1-.2.2-.2.4.1.3.1.7.2 1.1.1.6.1 1.1.2 1.7 0 .3.1.6.1.9 0 .4.1.8.1 1.2 0 .1.1.2.2.2.6.1 1.2.3 1.7.4.2 0 .4.1.5.1.4.1.7-.2 1-.4 1-.6 2-1.3 2.9-1.9.1 0 .2-.1.3-.2-.1.3-.2.6-.4.9-.4 1-.8 2.1-1.3 3.1-.4.9-.7 1.8-1.1 2.7-.1.2-.2.2-.3.1-.4-.2-.8-.3-1.3-.5-1.1-.4-2.1-.9-3.2-1.3-.8-.3-1.5-.6-2.3-.9-.2-.1-.4-.3-.5-.4l-1.8-3.3c-.7-1.3-1.5-2.7-2.2-4 0 0 0-.1-.1-.1.4-.3.8-.5 1.2-.8 1.2-.8 2.3-1.5 3.5-2.3 1.3-.8 2.6-1.7 3.9-2.6 1.2-.8 2.4-1.5 3.6-2.3.2-.1.3-.1.5 0 1 .9 2.1 1.8 3.1 2.7.7.6 1.4 1.2 2.1 1.7.9.7 1.7 1.4 2.6 2.2 1 .9 2 1.7 3.1 2.6.4.3.8.7 1.2 1 .4-.1.4 0 .3.2z" fill="var(--icon-color, currentcolor)"/><path d="M38.5 10c-.4-.5-.7-1-1.1-1.5-.9-1.2-1.9-2.3-3.1-3.2-1-.7-2-1.4-3.1-1.9-.2-.1-.4-.1-.6 0-.6.2-1.1.4-1.6.7-.8.5-1.7 1.1-2.4 1.7-.6.5-1.2 1.1-1.7 1.7-.7.8-1.3 1.7-1.9 2.5v.3c.4.5.9 1 1.3 1.5.6.7 1.2 1.3 1.7 2 .3.3.6.6 1.1.5.3-.1.6 0 .9 0h6.5c.2-.1.4 0 .5-.2.3-.4.7-.8 1.1-1.2.8-.9 1.5-1.7 2.3-2.6.2-.1.2-.2.1-.3zM27.7 8.4c0 .8-.4 1.3-1.1 1.6-.3.2-.7.2-1 0-.3-.3-.4-.7-.3-1.1.2-.5.4-.9.8-1.2.4-.3.8-.3 1.2-.2.2 0 .3.4.4.7v.2zm8.2 1.5c-.2.3-.7.3-1 .2-.7-.3-1.2-.9-1.2-1.6 0-.3.1-.6.3-.9.1-.2.5-.2.7-.2.8.1 1.5 1 1.5 1.8-.1.3-.2.5-.3.7z" fill="var(--icon-color, currentcolor)"/></svg>