<svg id="Layer_1" data-name="Layer 1" xmlns="http://www.w3.org/2000/svg" viewBox="0 0 100 100"><title>icon_cardset_ungoro</title><path d="M26.7,15s-1.8.32-4,4.88S16.94,36,16.83,40a54.65,54.65,0,0,0,1.06,9.77,10.17,10.17,0,0,1,.54,3.39c0,2-1.38,6.9-.75,10.3s1.81,5.94,1.81,7.11-.43,4.56-1.91,4.67-1.28,7.85-1.28,7.85,3.82,6.58,6.48,7.11,9.44.85,12-1.7,3.82-5.52,6.9-5.73a46.53,46.53,0,0,0,14.11-4.56c3.19-1.91,6.69-3.4,9.76-3.5s8.81-4,13.06-7S91.33,56.75,91.23,54.52s-3.29-.87-3.29-.87-6.37,1.72-10.4,1.19a25.49,25.49,0,0,0-11.36,1.59c-2.86,1.06-6.47,4.25-6.47,4.25s-3.4,1.48-4.67.53-2.24-2-1.28-3.72A44.87,44.87,0,0,0,57.59,50a13.09,13.09,0,0,1,4.56-6.05c1.48-1.06,7.43-7.22,8.7-12.42s1.06-13.37,1-16.45c0,0-11.47,4.35-17.3,10a30,30,0,0,0-7.64,11.46S45.59,40.73,42.94,43s-3.71,4.89-4.67,6-3,.75-3.71-.32-1.91-4.35-1-6.26,2.34-7.11,1-9.87S29,24.17,28.83,20.88,28.51,14.62,26.7,15Z"></path></svg>