<?xml version="1.0" encoding="UTF-8"?>
<!DOCTYPE svg PUBLIC "-//W3C//DTD SVG 1.1//EN" "http://www.w3.org/Graphics/SVG/1.1/DTD/svg11.dtd">
<svg enable-background="new 0 0 128 128" version="1.1" style="padding: 15px; opacity: 0.6;" viewBox="0 0 128 128" xml:space="preserve"
	xmlns="http://www.w3.org/2000/svg">
	<polygon points="89.37 62.876 73.631 77.192 61.907 76.074 67.763 72.436 76.831 52.119 56.837 61.846 53.383 67.812 51.9 56.129 65.719 39.951 65.929 38.292 64.383 37.725 48.094 47.084 43.549 58.979 43.453 67.967 38.375 68.401 38.553 91.626 61.78 91.086 62.059 86.001 71.041 85.626 82.79 80.714 91.636 64.141 91.022 62.613" fill="var(--icon-color, currentcolor)"/>
	<polygon points="53.235 56.434 54.145 63.603 55.694 60.563 79.199 49.466 69.285 73.388 65.941 75.036 73.045 75.635 97.369 54.503 100.93 26.867 73.783 31.991" fill="var(--icon-color, currentcolor)"/>
	<path d="m64.125 1.926c-34.352 0-62.199 27.847-62.199 62.199s27.847 62.199 62.199 62.199 62.199-27.847 62.199-62.199-27.848-62.199-62.199-62.199zm-0.334 118.55c-10.621 0-20.556-2.932-29.044-8.027l19.056-19.66-16.653 0.275-0.275-16.683-19.38 19.995c-6.438-9.178-10.218-20.354-10.218-32.414 0-31.212 25.302-56.514 56.514-56.514s56.514 25.302 56.514 56.514-25.303 56.514-56.514 56.514z" fill="var(--icon-color, currentcolor)"/>
</svg>