<?xml version="1.0" encoding="UTF-8"?>
<!DOCTYPE svg  PUBLIC '-//W3C//DTD SVG 1.1//EN'  'http://www.w3.org/Graphics/SVG/1.1/DTD/svg11.dtd'>
<svg enable-background="new 0 0 128 128" style="padding: 15px; opacity: 0.6;" version="1.1" viewBox="0 0 128 128" xml:space="preserve"
	xmlns="http://www.w3.org/2000/svg">
	<path d="m64.125 1.926c-34.352 0-62.199 27.847-62.199 62.199s27.847 62.199 62.199 62.199 62.199-27.847 62.199-62.199-27.848-62.199-62.199-62.199zm-0.334 118.55c-11.688 0-22.546-3.548-31.558-9.626l38.183-43.715-10.389-9.074-38.208 43.743c-9.039-10.019-14.542-23.287-14.542-37.842 0-31.212 25.302-56.514 56.514-56.514s56.514 25.302 56.514 56.514-25.303 56.514-56.514 56.514z" fill="var(--icon-color, currentcolor)"/>
	<path d="m66.12 11.431l-23.923 27.389 49.301 43.062 23.924-27.389-49.302-43.062zm18.993 40.399c-2.87 3.286-7.861 3.623-11.147 0.753s-3.623-7.861-0.753-11.147 7.861-3.623 11.147-0.753 3.623 7.861 0.753 11.147z" fill="var(--icon-color, currentcolor)"/>
</svg>
