<svg xmlns="http://www.w3.org/2000/svg" viewBox="0 0 30 30"><path d="M14.51 3.43h.93c1.62.81 1.84 1.45 1.18 3.12-.14.36-.2.9-.02 1.21.38.68.4 1.22-.12 1.78-.14.15-.15.41-.22.61.41-.12.68-.31.95-.48 1.02-.65 1.77-.6 2.71.16.21.17.41.37.65.49.29.14.62.2.93.3l.06-.92c0-.04.02-.07.05-.15.63-.06 1.15.18 1.6.61 1.29 1.21 1.59 2.54.92 4.22-.14.35-.42.65-.64.98-.26-.24-.55-.46-.77-.73-1-1.22-2.2-1.65-3.56-1.21.15.27.3.54.44.81.41.8.38.87-.41 1.27-.02.01-.02.07-.03.1 2.89.59 5.38 1.72 6.52 4.72v.7c-.22-.04-.48-.03-.66-.14-1.66-1.03-3.41-1.69-5.4-1.16-.37.1-.64.11-.95-.15-.39-.32-.85-.45-1.46-.04.35.28.62.6.96.75 1.24.53 1.92 1.52 2.38 2.71.05.14.02.32.02.48-.16-.01-.33.02-.48-.04-.67-.27-1.11-.19-1.49.43-.26.42-.44.9-.6 1.37-.14.43-.21.89-.31 1.36h-4.82c-.32-1.79-1.25-3.24-2.47-4.52a1.47 1.47 0 0 1-.33-.6c-.11-.38-.03-.6.47-.62.49-.02 1-.16 1.44-.37.61-.29.66-.75.25-1.35-.36.25-.69.64-1.08.71-.42.08-.9-.14-1.35-.23h-.06c-1.75-.02-3.38.37-4.85 1.35-.12.08-.36.14-.45.07-.1-.07-.16-.31-.12-.44.13-.44.26-.9.47-1.3.7-1.3 1.84-2.15 3.13-2.76.91-.43 1.91-.67 2.88-1a.68.68 0 0 0-.14-.09c-.67-.33-.74-.57-.36-1.22.16-.28.33-.55.55-.92-1.6.19-2.96.58-3.93 1.82-.31.39-.55.39-.78-.06-.17-.32-.3-.67-.41-1.02-.5-1.55-.03-3.08 1.3-4.02.38-.27.89-.36 1.47-.59-.07.33-.12.44-.11.54.03.23 0 .57.14.66.14.09.47 0 .67-.11.3-.16.57-.4.84-.62 1.01-.82 1.77-.86 2.86-.13.24.16.48.34.72.51.06-.05.12-.11.18-.16-.14-.21-.35-.41-.41-.64-.12-.48-.39-1.18-.17-1.42.57-.63.32-1.16.05-1.69-.52-1.04-.22-2.13.8-2.66.15-.08.3-.16.44-.24Zm1.02 17.82c.73-1.41.93-2.87 1.06-4.33.04-.5.21-.86.61-1.16.68-.51 1.09-1.19 1.12-2.07.02-.58-.09-.66-.63-.5-.8.24-1.38.09-1.81-.49-.14-.19-.28-.46-.26-.68.03-.36.19-.7.33-1.18h-2.04c.55.66.66 1.26.24 1.82-.62.81-1.47.81-2.4.38-.19 1.05-.09 2 .73 2.58.74.52.97 1.16 1 1.97 0 .19.04.39.08.57.23 1.02.48 2.03.72 3.05.06 0 .12-.01.18-.02.17-.22.33-.45.52-.69.19.27.35.48.53.74Z"/><path d="M14.06 15.65c-.96-.02-1.7-.67-1.8-1.47-.05-.37.15-.53.42-.36.57.38 1.09.82 1.62 1.27.08.07.1.31.05.41-.05.1-.24.13-.28.15ZM16.06 15.55s-.29-.08-.36-.22c-.05-.1.09-.37.22-.48.37-.33.77-.64 1.19-.92.13-.09.42-.11.51-.03.1.1.13.35.09.52-.17.72-.72 1.13-1.64 1.13Z"/></svg>