<svg xmlns="http://www.w3.org/2000/svg" viewBox="0 0 30 30"><path d="M12.32 3.98c2.5 1.5 3.3 5.1 1.9 7l-.3-.3c-.2-.3-.5-.4-.9-.3-.3 0-.6.3-.6.7s0 .9.1 1.4c.2.9.6 1.8.8 2.8 0 0 .1 0 .1.1.6-.6 1.1-1.1 1.6-1.7.2-.3.4-.3.6 0 .6.6 1.2 1.1 1.8 1.6.1-.1.2-.1.2-.2.6-1 1-2.1.8-3.3 0-.1 0-.2-.1-.3-.3-.9-.8-1.1-1.6-.6-.1 0-.1.1-.2.1-1.1-1.5.2-5.9 2-6.5v.3c0 .6-.1 1.1-.1 1.7-.1 1.3.4 2.4 1 3.4.7 1.4 1.4 2.8 1.7 4.4.4 1.9.6 3.7.4 5.6v.2q-.1.8-.9.5c-.7-.2-1.4.1-1.6.8-.2.6-.3 1.3-.3 1.9 0 .3-.1.6-.4.8-.4.4-.9.7-1.3 1.1l-.1-.1v-1.6q-.1 0-.2-.1c-.1.1-.2.3-.2.4-.1.3-.1.7-.1 1 0 .4-.1.6-.4.8-.8.6-.7.6-1.7 0-.3-.2-.5-.5-.5-.9v-1.1c0-.2-.1-.4-.2-.6h-.1v1.4c0 .1 0 .3-.1.3s-.3 0-.4-.1c-.4-.3-.8-.6-1.2-1-.1-.1-.1-.3-.1-.5.1-.8 0-1.5-.5-2.2-.4-.6-1.3-1-2-.6-.4.3-.6.2-.7-.3-.2-1-.1-2 .1-3.1.4-2.6 1.4-4.9 2.7-7.1.7-1.2 1.1-2.5 1.1-3.9 0-.6-.2-1.1-.2-1.7.1.1.1 0 .1-.2Zm1.9 14.8c-1.2-.7-2.5-1.4-3.8-2.1.5 1.9 2.3 2.9 3.8 2.1Zm2.3.1c.9.3 1.8.3 2.6-.2.7-.5 1.1-1.1 1-1.7-1.1.6-2.3 1.2-3.6 1.9Zm-.5 2.7c-.1-.6-.3-1.2-.6-1.6 0 0-.3-.1-.3 0-.3.5-.5.9-.7 1.5q1-.3 1.6.1Z"/></svg>