<svg id="Layer_1" data-name="Layer 1" xmlns="http://www.w3.org/2000/svg" viewBox="0 0 80 80"><defs><style>.cls-1{fill:none;}</style></defs><path class="cls-1" d="M36.7,30a5.91,5.91,0,0,1-1.8,1.63c-2.31,0-4.43-2.95-3.92-4.62.33-1,1-1.55,2-.94a14.11,14.11,0,0,1,2.83,1.89C36.36,28.41,36.93,29.52,36.7,30Z" fill="var(--icon-color, currentcolor)"></path><path d="M26,59.18c-2.75-3.51-5.88-6.67-6.26-11.35l-4.28,1.81a17.44,17.44,0,0,0-.3-3.43,21.3,21.3,0,0,1,.25-12.4,8.45,8.45,0,0,0,0-2.25c-3.79,3.79-4.94,8.09-3.37,13,.81,2.52,1.17,4.83-1.72,6.61a5.6,5.6,0,0,0,6.6,1.13l9.88,14.13c1.39-1.26,1.74-6.35.54-8.48Z" fill="var(--icon-color, currentcolor)"></path><path d="M14.83,26.23a11.76,11.76,0,0,1,2.5-3.43c1.47-1.17,3.39-1.77,4.92-2.88a7.22,7.22,0,0,0,2.49-3c.18-.47-1.14-1.52-1.78-2.31a3.31,3.31,0,0,1-.23-.45c2.7-2.53,6.25-2.77,9.71-3.63C31.05,9.77,29.55,8.8,28.22,9c-3.68.54-6.63,2.67-9.17,5.32a1.74,1.74,0,0,0-.14,1.62c.21.39.92.56,1.45.68a1.44,1.44,0,0,0,.74-.08,79.68,79.68,0,0,0-6.67,5.57,8.32,8.32,0,0,0-2.13,8.47A50,50,0,0,0,14.83,26.23Z" fill="var(--icon-color, currentcolor)"></path><path d="M33,26c-1.06-.61-1.71-.1-2,.94-.51,1.67,1.61,4.57,3.92,4.62A5.91,5.91,0,0,0,36.7,30c.23-.43-.34-1.54-.85-2A14.11,14.11,0,0,0,33,26Z" fill="var(--icon-color, currentcolor)"></path><path class="cls-1" d="M44.15,27.91A14.11,14.11,0,0,1,47,26c1.06-.61,1.71-.1,2,.94.51,1.67-1.61,4.57-3.92,4.62A5.91,5.91,0,0,1,43.3,30C43.07,29.52,43.64,28.41,44.15,27.91Z" fill="var(--icon-color, currentcolor)"></path><path d="M58.29,28.85a7,7,0,0,1-.79-1.39,5.37,5.37,0,0,1,2,0,12.31,12.31,0,0,1,2.26,1.64c.69-2.36.24-4.13-1.31-5.51a7.77,7.77,0,0,0-3.14-2C54,20.86,52.8,18.05,51,16.17c.64-.8,1.17-1.47,1.71-2.13A14.39,14.39,0,0,0,50,13a10.47,10.47,0,0,0-7.32,1.13c-1.55.91-2,2.61-.87,4.52a1.81,1.81,0,0,1-.31,2.54c-.47.46-.93.93-1.47.93s-1-.47-1.47-.93a1.81,1.81,0,0,1-.31-2.54c1.15-1.91.68-3.61-.87-4.52A10.47,10.47,0,0,0,30,13a14.39,14.39,0,0,0-2.73,1c.54.66,1.07,1.33,1.71,2.13-1.81,1.88-3,4.69-6.28,5.4a7.77,7.77,0,0,0-3.14,2c-1.55,1.38-2,3.15-1.31,5.51a12.31,12.31,0,0,1,2.26-1.64,5.37,5.37,0,0,1,2,0,7,7,0,0,1-.79,1.39c-2.58,2.85-4.85,5.89-4.9,9.94,0,2.15.3,4.29.49,6.68,2.13,0,2.44-1.78,3.33-2.93.55-.71.5-2.4,2-1.62s.54,2,.09,3a4.83,4.83,0,0,1-.37.62,4.73,4.73,0,0,0,.19,5.71c.62.89,1.31,1.73,2,2.58a1.65,1.65,0,0,0,2.58.49,3.06,3.06,0,0,1,3.85.28,6.28,6.28,0,0,1-.74.77c-2,1.46-1.94,2.06.11,3.47a6.92,6.92,0,0,1,1.18,1.43c1.45,1.82,2.82,3.69,4.37,5.42,1.14,1.27,2.68.57,4.08.43h.12c1.4.14,2.94.84,4.08-.43,1.55-1.73,2.92-3.6,4.37-5.42a6.92,6.92,0,0,1,1.18-1.43c2.05-1.41,2.09-2,.11-3.47a6.28,6.28,0,0,1-.74-.77,3.06,3.06,0,0,1,3.85-.28,1.65,1.65,0,0,0,2.58-.49c.66-.85,1.35-1.69,2-2.58a4.73,4.73,0,0,0,.19-5.71,4.83,4.83,0,0,1-.37-.62c-.45-1-1.39-2.21.09-3s1.45.91,2,1.62c.89,1.15,1.2,3,3.33,2.93.19-2.39.51-4.53.49-6.68C63.14,34.74,60.87,31.7,58.29,28.85ZM43,52.66a6.75,6.75,0,0,1-1.55,1.19,2.8,2.8,0,0,1-2.92,0A6.75,6.75,0,0,1,37,52.66c-.69-.77-1.29-1.63-1.93-2.45,1.16-.65,2.31-1.35,3.51-1.92.39-.18.68-.28,1.19-.49h.48c.51.21.8.31,1.19.49,1.21.57,2.35,1.27,3.51,1.92C44.3,51,43.7,51.89,43,52.66Zm8.35-23.39c-3.59,2.84-3.6,3.41-1.39,7.53a7.52,7.52,0,0,1-.26,8C47.07,49.1,44.38,49,42,44.51a3,3,0,0,1,.22-3.65,13.78,13.78,0,0,0,1.59-2.61c1-1.86.69-2.31-1.37-2.29H37.58c-2.06,0-2.35.43-1.37,2.29a13.78,13.78,0,0,0,1.59,2.61A3,3,0,0,1,38,44.51c-2.4,4.48-5.09,4.59-7.73.32a7.52,7.52,0,0,1-.26-8c2.22-4.12,2.2-4.69-1.39-7.53-1.47-1.16-1.22-1.9-.28-3a17.81,17.81,0,0,1,1.94-2.12c1.91-1.56,3.06-1.41,4.83.26,1.41,1.33,2.56,2.88,4.87,2.88s3.46-1.55,4.87-2.88c1.77-1.67,2.92-1.82,4.83-.26a17,17,0,0,1,1.94,2.12C52.58,27.37,52.83,28.11,51.36,29.27Z" fill="var(--icon-color, currentcolor)"></path><path d="M54,59.18c2.75-3.51,5.88-6.67,6.26-11.35l4.28,1.81a17.44,17.44,0,0,1,.3-3.43,21.3,21.3,0,0,0-.25-12.4,8.45,8.45,0,0,1,0-2.25c3.79,3.79,4.94,8.09,3.37,13-.81,2.52-1.17,4.83,1.72,6.61a5.6,5.6,0,0,1-6.6,1.13L53.19,66.39c-1.39-1.26-1.74-6.35-.54-8.48Z" fill="var(--icon-color, currentcolor)"></path><path d="M65.17,26.23a11.76,11.76,0,0,0-2.5-3.43c-1.47-1.17-3.39-1.77-4.92-2.88a7.22,7.22,0,0,1-2.49-3c-.18-.47,1.14-1.52,1.78-2.31a3.31,3.31,0,0,0,.23-.45c-2.7-2.53-6.25-2.77-9.71-3.63C49,9.77,50.45,8.8,51.78,9c3.68.54,6.63,2.67,9.17,5.32a1.74,1.74,0,0,1,.14,1.62c-.21.39-.92.56-1.45.68a1.44,1.44,0,0,1-.74-.08,79.68,79.68,0,0,1,6.67,5.57,8.32,8.32,0,0,1,2.13,8.47A50,50,0,0,1,65.17,26.23Z" fill="var(--icon-color, currentcolor)"></path><path d="M49.13,63,42,69.11A3.07,3.07,0,0,1,40,70a3.07,3.07,0,0,1-2-.93L30.87,63c-.78,2.47.36,5,2.89,7,1.84,1.43,3.54,3,5.3,4.58l.93.81h0l.94-.81c1.76-1.54,3.46-3.15,5.3-4.58C48.77,68,49.91,65.44,49.13,63Z" fill="var(--icon-color, currentcolor)"></path><path d="M44.66,6.46a2.23,2.23,0,0,1-3-.71A2.83,2.83,0,0,0,40,4.67h0a2.84,2.84,0,0,0-1.62,1.08,2.23,2.23,0,0,1-3,.71c-1.84-.71-4-1.54-6,.31a5.93,5.93,0,0,0,.76.42,23.89,23.89,0,0,1,8.48,4.62,2.52,2.52,0,0,0,1.39.44h0a2.53,2.53,0,0,0,1.4-.44,23.89,23.89,0,0,1,8.48-4.62,5.93,5.93,0,0,0,.76-.42C48.63,4.92,46.5,5.75,44.66,6.46Z" fill="var(--icon-color, currentcolor)"></path><path d="M47,26c1.06-.61,1.71-.1,2,.94.51,1.67-1.61,4.57-3.92,4.62A5.91,5.91,0,0,1,43.3,30c-.23-.43.34-1.54.85-2A14.11,14.11,0,0,1,47,26Z" fill="var(--icon-color, currentcolor)"></path></svg>