<svg id="Layer_1" data-name="Layer 1" xmlns="http://www.w3.org/2000/svg" viewBox="0 0 80 80"><path class="cls-1" d="M42.17,5.82a82.31,82.31,0,0,0-9.65,7.26S26,12.6,24.87,11.8a61.92,61.92,0,0,0,0,7.73s-6.37,6.62-8,8.37c0,0,7.57,6.45,6.69,10.12a10.5,10.5,0,0,1-3.67-.4c-1.51-.56-5.49-4.06-5.57-4.78s-.88,9.32,8.92,15.94c0,0,2.07-3.75,5.5-2.15s6.13,4.8,5.58,9-5.18,2.78-5.58,1.9,2.39,12.19,8.37,17.06c0,0,3-9.17,2.94-16s-2-11.56-4.3-14.82S29.26,32,32.84,26.07s9.65-4.87,11.64-4.39S51.33,24.55,51.73,32s-5.42,12.67-6.46,14.43S40,57.46,46.47,69c0,0,4.62-4.39,7.41-14.43,0,0-5.9,2.08-4.7-3.34s8.76-7.57,10.6-2.71c0,0,6.37-3.51,7.89-13.63,0,0-5.58,5.34-8.37,3.27s.08-6,4.86-7.33c0,0-2.63-6.38-4.78-9.17S61,15.15,61,15.15a14,14,0,0,0-6.77.48S45.35,6.7,42.17,5.82Z" fill="var(--icon-color, currentcolor)"></path><path class="cls-1" d="M41.61,23.52s-5.18,6.21-6.85,7.09l6.85,8L48,31.06S42.09,24.15,41.61,23.52Z" fill="var(--icon-color, currentcolor)"></path></svg>