<svg width="100" height="101" viewBox="0 0 100 101" fill="none"
	xmlns="http://www.w3.org/2000/svg">
	<circle opacity="0.4" r="28" transform="matrix(-1 0 0 1 55 50)" fill="#7A35A0"/>
	<circle opacity="0.6" r="22" transform="matrix(-1 0 0 1 55 50)" fill="#7A35A0"/>
	<circle r="16" transform="matrix(-1 0 0 1 55 50)" fill="#7A35A0"/>
	<path d="M63.9807 35.6935C60.668 35.1711 58.2544 38.9905 57.8727 40.8553L59.3049 46.2C60.2916 45.9356 61.4851 42.8251 61.4923 41.2074C63.483 36.7963 66.536 40.2966 66.7858 42.8736C67.1644 46.7782 61.9972 50.7664 59.6944 50.9428L59.6728 55.7957C59.6728 55.7957 63.9771 54.2564 65.3991 52.4988C72.6813 43.4971 68.1215 36.3466 63.9807 35.6935Z" fill="#F3951A"/>
	<path d="M36.0929 77.9772C34.5129 77.343 35.8896 76.1222 36.7755 75.5911L37.6784 74.0272L55.6284 67.0143C57.2093 66.8844 60.0922 67.2283 58.9765 69.6423C57.5818 72.6599 54.9589 74.3829 49.3887 76.6179C44.5447 78.5614 38.0679 78.77 36.0929 77.9772Z" fill="#EF9721"/>
	<path d="M22.1644 66.0867C17.8191 60.7714 16.503 54.8249 15.5921 49.7812C15.1947 47.5806 16.6903 45.9353 18.712 44.9794C27.3162 40.9113 37.0732 37.8563 50.2588 36.0858C52.6176 35.7691 54.9532 35.1344 56.2645 37.1205C59.231 41.6134 62.5102 54.379 58.161 63.9325C57.2844 65.858 56.7959 66.99 55.4523 68.6241C52.5077 72.2053 49.5902 73.2358 45.1229 74.4764C41.1966 75.5668 38.6865 75.9323 34.705 75.0647C28.82 73.7822 25.9766 70.7498 22.1644 66.0867Z" fill="#FFB948"/>
	<path d="M35 57.4432L35.5429 59.3681L38.9115 58.418L41.6262 68.0424L43.5511 67.4995L40.8364 57.875L44.205 56.9249L43.662 55L35 57.4432Z" fill="#8E5B23"/>
	<path d="M23.9181 53.9193C21.1106 53.9665 18.7446 53.2492 17.9125 52.8846C21.0442 67.2037 30.3462 71.8791 34.5506 72.2214C27.749 70.5187 24.6283 59.3105 23.9181 53.9193Z" fill="white" fill-opacity="0.4"/>
	<path d="M56.4485 42.1183C59.181 57.2494 55.8999 64.7383 52.3394 67.8956C52.3394 67.8956 54.1547 61.5 53.9169 57.338C53.6799 53.1892 51.9851 46.8394 51.9851 46.8394C51.9851 46.8394 56.2474 44.2552 56.4485 42.1183Z" fill="white" fill-opacity="0.4"/>
	<path d="M54.2237 38.7486C54.8929 41.2462 47.5997 46.2519 37.1549 49.0505C26.7101 51.8492 17.7004 52.0932 17.0312 49.5956C16.3619 47.0979 24.918 43.5164 35.3628 40.7178C45.8076 37.9191 53.5544 36.2509 54.2237 38.7486Z" fill="#8E5B23"/>
	<path d="M37.2967 75.892L35.8726 77.1549C38.78 78.1385 43.6329 78.1601 50.5926 74.5326C45.5489 75.4434 39.6829 76.5746 37.2967 75.892Z" fill="#FFB948"/>
	<path d="M24.7257 15.3208C22.7291 14.2562 25.571 11.2306 27.2415 9.8508C23.6235 15.1338 31.2765 12.8035 38.597 11.0972C45.9174 9.39083 45.7104 17.2938 42.9448 20.2266C40.5191 22.7988 28.8865 25.5525 27.0775 28.194C25.6303 30.3072 26.5307 34.9809 27.1618 37.0536C26.3922 36.2426 21.8688 30.9283 22.4546 26.8698C23.3665 20.5511 37.579 19.7697 36.5595 16.4215C35.54 13.0733 27.2216 16.6515 24.7257 15.3208Z" fill="white" fill-opacity="0.2"/>
	<path d="M28.4483 36.687C28.6976 35.2172 29.4012 32.9737 30.964 31.2169C33.5207 28.3429 37.8277 29.127 40.2292 27.8731C42.2263 26.8303 43.9431 24.0655 44.3808 22.889C44.4346 22.5017 44.4529 22.3046 44.4811 22.3971C44.5056 22.4777 44.4694 22.6508 44.3808 22.889C44.1565 24.503 43.3152 29.4206 38.5687 30.4443C32.6833 31.7137 29.9246 34.6695 28.4483 36.687Z" fill="white" fill-opacity="0.2"/>
</svg>
