<svg width="100" height="100" viewBox="0 0 100 100" fill="none"
	xmlns="http://www.w3.org/2000/svg">
	<defs>
		<linearGradient id="tombs-of-terror-paint0_linear" x1="37.7379" y1="68.1178" x2="73.4336" y2="39.1998" gradientUnits="userSpaceOnUse">
			<stop stop-color="#8E5B23"/>
			<stop offset="1" stop-color="#503312"/>
		</linearGradient>
		<linearGradient id="tombs-of-terror-paint1_linear" x1="56.6164" y1="27" x2="56.6164" y2="56.2469" gradientUnits="userSpaceOnUse">
			<stop stop-color="#8E5B23"/>
			<stop offset="1" stop-color="#5D3B15"/>
		</linearGradient>
		<linearGradient id="tombs-of-terror-paint2_linear" x1="60.4221" y1="28.3555" x2="55.7264" y2="41.459" gradientUnits="userSpaceOnUse">
			<stop stop-color="#844B1B"/>
			<stop offset="1" stop-color="#412209"/>
		</linearGradient>
		<linearGradient id="tombs-of-terror-paint3_linear" x1="51.2079" y1="31.0666" x2="49.0721" y2="40.2484" gradientUnits="userSpaceOnUse">
			<stop stop-color="#734015"/>
			<stop offset="1" stop-color="#3E2108"/>
		</linearGradient>
		<linearGradient id="tombs-of-terror-paint4_linear" x1="52.1968" y1="55.9181" x2="71.6261" y2="41.9109" gradientUnits="userSpaceOnUse">
			<stop stop-color="#3E2005"/>
			<stop offset="1" stop-color="#1C0F02"/>
		</linearGradient>
		<linearGradient id="tombs-of-terror-paint5_linear" x1="49.1747" y1="50.0441" x2="49.1747" y2="54.2609" gradientUnits="userSpaceOnUse">
			<stop stop-color="#C4C4C4"/>
			<stop offset="1" stop-color="#7D7D7D"/>
		</linearGradient>
		<linearGradient id="tombs-of-terror-paint6_linear" x1="47.8191" y1="58.1313" x2="48.9487" y2="54.5625" gradientUnits="userSpaceOnUse">
			<stop stop-color="#C4C4C4"/>
			<stop offset="0.645833" stop-color="#7D7D7D"/>
		</linearGradient>
	</defs>
	<circle opacity="0.3" cx="47" cy="45" r="31" fill="#7A35A0"/>
	<circle opacity="0.5" cx="47" cy="45" r="25" fill="#7A35A0"/>
	<circle cx="47.5" cy="45.5" r="18.5" fill="#7A35A0"/>
	<path d="M81.9334 57.7258C71.0891 60.8884 56.0495 75.3471 44.4303 70.829C40.4574 69.2841 73.8002 55.9184 81.9334 57.7258Z" fill="#301904"/>
	<path d="M82.0186 57.7254C92.8629 48.327 79.0063 40.5553 70.7225 37.8443C56.7153 31.5184 49.034 36.4887 43.6118 36.0369C39.2741 35.6754 34.8762 39.1998 33.2194 41.0072C35.4786 44.1701 32.0145 42.9652 30.9602 43.2664C28.7913 45.7967 28.8516 53.0564 29.1528 56.3699L32.3157 55.4662L30.0565 58.6291C32.9483 66.5816 38.4909 69.4734 40.9008 69.9252L43.6118 67.2141L44.0637 70.8289C49.034 73.0881 60.3301 67.2141 67.5596 62.6957C73.3432 59.0809 77.5002 58.6291 82.0186 57.7254Z" fill="url(#tombs-of-terror-paint0_linear)"/>
	<path d="M70.7225 34.2295C72.5298 36.7598 71.1743 43.417 70.2706 46.4293C58.0708 62.6957 45.4192 54.5625 42.7081 51.3996C40.5393 48.8693 42.1056 40.4047 43.16 36.4887C42.7985 34.6814 50.5401 29.7111 54.4561 27.4518L57.619 27C61.2337 28.3555 68.9151 31.6992 70.7225 34.2295Z" fill="url(#tombs-of-terror-paint1_linear)"/>
	<path d="M57.5338 30.1629C57.5338 30.1629 69.1965 33.3258 67.4743 36.4887C65.7522 39.6516 54.4561 42.8145 52.6487 41.0072C51.2028 39.5613 54.9733 33.7777 57.5338 30.1629Z" fill="url(#tombs-of-terror-paint2_linear)"/>
	<path d="M48.1302 40.1035C49.5761 40.1035 51.745 34.0789 52.6487 31.0666C51.5643 31.0666 47.0759 34.3801 44.9673 36.0369C45.4192 37.3924 46.6843 40.1035 48.1302 40.1035Z" fill="url(#tombs-of-terror-paint3_linear)"/>
	<path d="M52.1968 54.1107C67.0173 55.5566 71.1743 45.6763 71.6261 40.5554C67.5595 53.207 50.3894 51.8515 51.2931 52.3033C52.0161 52.6648 52.1968 53.6588 52.1968 54.1107Z" fill="#4D2A0A"/>
	<path d="M72.5298 45.0738L71.6261 40.5554C69.3669 51.8515 58.372 55.0144 52.1968 54.1107L51.2931 57.7254C62.8603 60.6173 70.2706 49.8935 72.5298 45.0738Z" fill="url(#tombs-of-terror-paint4_linear)"/>
	<path d="M44.0636 55.9181L44.9673 53.207C41.3526 52.1226 41.5032 45.375 41.8044 41.9109C40.3585 52.0322 42.5575 55.3156 44.0636 55.9181Z" fill="#3E2005"/>
	<path d="M45.7858 51.2033C49.0391 48.3115 51.6598 51.5046 52.5635 53.4626C51.1176 54.9085 50.4549 54.065 50.3043 53.4626C49.5813 51.2937 47.8944 51.9564 47.1414 52.5589C46.0569 52.5589 45.7858 51.6552 45.7858 51.2033Z" fill="url(#tombs-of-terror-paint5_linear)"/>
	<path d="M51.208 56.972C47.9547 59.8638 45.334 56.6707 44.4303 54.7128C45.8762 53.2669 46.5389 54.1103 46.6895 54.7128C47.4125 56.8816 49.0994 56.2189 49.8524 55.6164C50.9369 55.6164 51.208 56.5201 51.208 56.972Z" fill="url(#tombs-of-terror-paint6_linear)"/>
	<path d="M52.1117 53.207V52.3033L53.2084 54.1107L52.1117 57.7254C50.3043 58.1773 49.0391 55.6469 49.4006 54.5625C49.7621 53.4781 51.5092 52.9057 52.1117 53.207Z" fill="#3D1F05"/>
	<path d="M46.2377 51.3995L45.7859 50.9478L43.9785 55.918C44.8548 55.9767 46.1154 55.2794 46.9156 54.4631C47.7158 53.6469 46.7806 51.7983 46.2377 51.3995Z" fill="#3D1F05"/>
	<path d="M41.8044 41.9109C41.8044 41.9109 43.0747 49.5922 45.7858 50.9478C46.3883 52.7552 44.9673 53.207 44.9673 53.207C44.9673 53.207 43.6118 53.207 42.2563 50.4959C40.9007 47.7849 41.8044 41.9109 41.8044 41.9109Z" fill="#4D2A0A"/>
	<path d="M34.4438 25L37.1735 29.4438L34.4438 33.8875L31.7461 29.4438L34.4438 25Z" fill="#3FD636"/>
	<path d="M39.4437 19.137L40.8608 21.4438L39.4437 23.7506L38.0433 21.4438L39.4437 19.137Z" fill="#3FD636"/>
	<path d="M31.3068 16L32.7239 18.3068L31.3068 20.6136L29.9064 18.3068L31.3068 16Z" fill="#3FD636"/>
</svg>
