<svg xmlns="http://www.w3.org/2000/svg" id="Layer_1" data-name="Layer 1" viewBox="0 0 23.01 20.97"><defs><style>.cls-1{fill:#000;stroke-width:0}</style></defs><path d="M12.01 20.97c-.22-.1-.46-.17-.67-.29-.73-.43-1.49-.83-1.47-1.88.01-.52-.29-.91-.77-1.12-.49-.21-.99-.39-1.49-.57-.82-.3-1.64-.58-2.45-.88-.43-.17-.48-.5-.08-.74.59-.35.79-.87.83-1.51.05-.74.16-1.49.19-2.23.04-.99.45-1.85.89-2.71.19-.38.45-.56.92-.56 3.25.02 6.51.02 9.76 0 .49 0 .74.19.96.58.61 1.13.73 2.36.82 3.6.04.48.1.95.13 1.43.04.59.28 1.03.79 1.36.43.27.41.56-.07.78-.66.3-1.35.53-2.03.78-.53.19-1.07.37-1.61.55-.68.23-1.08.7-1.07 1.42.01.93-.65 1.31-1.31 1.69-.21.12-.45.19-.67.29h-1.6Zm-5.03-8.12c.03.72.08 1.42.74 1.68.86.34 1.78.54 2.69.76.36.09.57-.12.55-.51-.03-.78-.17-1.53-.89-1.99-.59-.38-1.19-.77-1.82-1.09-.59-.3-.96-.09-1.16.56-.07.22-.09.45-.11.59Zm7.58 1.57c-.04.8.1.96.69.86.69-.13 1.39-.29 2.05-.52 1.1-.38 1.56-1.71 1.01-2.74-.2-.38-.51-.58-.92-.37-.66.34-1.3.71-1.92 1.11-.67.43-.92 1.09-.91 1.67Zm-1.82.51c-.59.72-.92 1.48-.84 2.63.6-.89 1.14-.39 1.72-.12.03-1.01-.26-1.79-.88-2.51Z" class="cls-1"/><path d="M23.01 8.38c-.36.78-.64 1.61-1.09 2.34-.35.58-.88 1.07-1.61 1.21-.39-.71-.36-.93.22-1.45 1.19-1.06 1.56-2.8.92-4.24-.64-1.45-2.19-2.38-3.68-2.22-1.72.19-3 1.33-3.33 2.98-.04.22-.08.45-.12.71h-1.14c-.05-1.21.33-2.24 1.06-3.12 1.3-1.56 2.98-2.18 4.96-1.72 1.95.46 3.16 1.75 3.69 3.68.03.11.08.22.12.33v1.49ZM0 11.47c1.3-2.69 2.6-5.38 3.92-8.12-.15-.18-.6-.51-.55-.72.09-.37.45-.7.77-.97.53-.45.69-.37 1.34.55C8.32 1.09 11.3.49 14.31 0c-.41.33-.81.67-1.25.97-.61.42-.93.99-1.07 1.71-.04.2-.24.39-.4.54-.13.11-.31.19-.48.23-.82.2-1.22.73-1.36 1.55-.03.2-.28.4-.48.54-.2.14-.45.2-.79.34.43.63.84 1.21 1.27 1.84-.98.12-1.89.25-2.37-.9-.15.16-.28.24-.33.36-.29.66-.82.83-1.47.77-.38-.03-.65.1-.83.44-.08.16-.22.28-.31.43-.34.6-.78.92-1.54.85-.34-.03-.75.2-1.05.42-.61.45-1.17.97-1.75 1.45a.746.746 0 0 1-.12-.07Z" class="cls-1"/><path d="M15.01 7.77c-.03-1.5.92-2.72 2.33-3.06 1.33-.33 2.79.34 3.41 1.57.67 1.33.35 2.81-.86 3.82-.07-.12-.14-.22-.19-.34-.11-.24-.2-.49-.3-.74-.38-.89-.92-1.45-2.02-1.28-.76.11-1.55.02-2.37.02Zm3.2-.84c.09.05.18.09.27.14.21-.28.44-.55.6-.86.05-.09-.1-.29-.15-.44-.14.05-.35.07-.39.17-.14.32-.22.66-.33.99Zm.84.68.08.26c.36-.05.73-.07 1.08-.16.1-.03.14-.25.21-.38-.15-.07-.33-.24-.43-.2-.33.12-.63.32-.94.49Zm-1.79-.53c.08-.05.16-.09.24-.14-.1-.32-.18-.66-.33-.96-.05-.1-.3-.1-.45-.15-.03.16-.15.37-.09.47.17.28.42.52.63.78Z" class="cls-1"/></svg>