<svg viewBox="0 0 100 100" xmlns="http://www.w3.org/2000/svg">
<path d="M25.23,75.41,46.58,54.06a1.38,1.38,0,0,1,2,0L55,60.53a1.38,1.38,0,0,1,0,1.9L34.72,84.8a1.39,1.39,0,0,1-2,0l-7.49-7.49A1.38,1.38,0,0,1,25.23,75.41Z"></path>
<path d="M50.15,52.13l6.38,6.32A1,1,0,0,0,58,58.38l15.61-19a1,1,0,0,0-.08-1.3l-4.57-4.17a1,1,0,0,0-1.33,0L50.15,50.76A1,1,0,0,0,50.15,52.13Z"></path><path d="M50.23,15.18s14.92,7.74,16.18,10.35A65.27,65.27,0,0,1,68.92,32l7.83,6.87a7.8,7.8,0,0,1,6.87,2.23c3.1,3.09,10.15,11.8,10.15,11.8s-2.12-17.7-14.31-27.18C67.68,16.56,61.47,13.83,50.23,15.18Z"></path>
<path d="M35.74,12.63,48.12,25.15a1.38,1.38,0,0,1,0,1.94l-27.19,27a1.37,1.37,0,0,1-2,0l-12.33-13a1.39,1.39,0,0,1,0-2L33.82,12.59A1.36,1.36,0,0,1,35.74,12.63Z"></path><path d="M60.61,60.51l-6.78,7a1.44,1.44,0,0,0,0,1.93L65.94,82.79a1.44,1.44,0,0,0,2.11,0l7.37-7.66a1.42,1.42,0,0,0-.12-2L62.63,60.39A1.43,1.43,0,0,0,60.61,60.51Z"></path><path d="M33.34,45.24l8,9.48a.81.81,0,0,0,1.23,0L49,48.28a.82.82,0,0,0,0-1.15l-9.35-8a.81.81,0,0,0-1.13,0l-5.08,5A.81.81,0,0,0,33.34,45.24Z"></path>
<path d="M77.63,22.34s5,3.29,7.06,6.38a4.67,4.67,0,0,0,.23-3.65,6.74,6.74,0,0,0-3.83-3.38S78.79,21.18,77.63,22.34Z"></path>
<rect x="17.27" y="18.76" width="3" height="9.67" rx="0.43" transform="translate(22.34 -6.34) rotate(45.3)"></rect>
<rect x="72.37" y="76.26" width="3" height="9.67" rx="0.43" transform="translate(79.55 -28.46) rotate(45.3)"></rect>
<rect x="25.87" y="78.63" width="3" height="9.67" rx="0.43" transform="translate(105.54 123.54) rotate(135.3)"></rect>
</svg>