<svg xmlns="http://www.w3.org/2000/svg" viewBox="0 0 25.02 23.92"><path d="M25 9.2c-.13-.65-.69-1.08-1.37-1.05-.6.02-1.04.3-1.29.86 0 .01-.01.02-.02.03h-.05c-.67-.15-1.34-.3-2.01-.44-1.21-.26-2.43-.52-3.64-.77a.49.49 0 0 1-.36-.26c-.77-1.34-1.55-2.68-2.32-4.02-.2-.34-.4-.68-.61-1.03l.03-.03c.4-.35.54-.79.47-1.31-.11-.79-.84-1.31-1.6-1.13-.5.12-.83.44-.97.93-.15.52-.08 1 .31 1.41.04.05.09.09.14.13l-.03.06c-.33.57-.67 1.14-1 1.71-.66 1.15-1.32 2.3-1.99 3.44a.21.21 0 0 1-.11.07c-.22.05-.45.08-.67.13-1.57.34-3.15.68-4.72 1.03-.16.04-.32.07-.48.1-.05-.1-.09-.19-.15-.28-.24-.37-.6-.55-1.03-.61C.7 8.04-.04 8.68 0 9.5c.04.84.78 1.29 1.37 1.32.3.01.57-.06.82-.23l.06.06c.45.51.9 1.02 1.36 1.53.87.97 1.74 1.93 2.61 2.9.02.03.03.07.03.11l-.27 2.41c-.05.44-.08.89-.13 1.33-.05.48-.09.95-.14 1.43-.03.27-.05.55-.08.82-.04 0-.07 0-.1.01-.03 0-.07 0-.1.01-.57.12-.91.49-1.08 1.03-.21.68.14 1.39.79 1.62.92.32 1.65-.37 1.81-.96.07-.25.07-.5 0-.75.04-.02.08-.04.12-.05 1.71-.76 3.43-1.51 5.14-2.27.1-.05.21-.14.31-.13.11 0 .21.09.32.14 1.5.66 2.99 1.32 4.49 1.99.25.11.51.22.76.33v.03c-.13.57.04 1.04.47 1.42.42.37 1.01.46 1.5.2.49-.25.76-.77.69-1.33-.07-.53-.44-1.12-1.13-1.25l-.21-.03c-.02-.18-.03-.35-.05-.52-.1-1.01-.19-2.03-.3-3.04-.08-.81-.18-1.62-.27-2.43 0-.03.01-.07.03-.1.09-.1.18-.19.27-.28l3.35-3.74c.14-.15.27-.31.41-.46.02 0 .03.01.04.02.44.26.89.28 1.35.06.59-.28.9-.87.78-1.47Zm-8.4 5.66c-.1.29-.22.58-.34.87a.38.38 0 0 1-.09.13c-.69.57-1.41 1.11-2.18 1.57-.2.12-.42.15-.63.21-.66.17-1.33.31-2.01.39-.27.03-.54-.02-.81-.08s-.54-.12-.8-.18c-.41-.09-.75-.31-1.04-.6-.02-.01-.03-.03-.05-.06.05 0 .08-.02.12-.02L10 17c1.49-.14 2.82-.67 3.96-1.64.21-.18.41-.38.61-.58.13-.13.19-.28.17-.46-.05-.48-.09-.96-.14-1.44-.02-.23-.06-.45-.11-.67a.958.958 0 0 0-.12-.32c-.29-.48-.62-.92-.99-1.34-.05-.05-.1-.09-.15-.15-.12-.14-.27-.16-.44-.11-.8.19-1.55.48-2.25.92-.05.03-.1.05-.15.08-.14.09-.21.21-.24.37-.07.34-.14.68-.14 1.03 0 .3.1.54.37.7.25.15.51.26.79.33.25.06.47-.11.47-.37 0-.15-.04-.3-.08-.44-.04-.13-.11-.26-.16-.39a.401.401 0 0 1-.03-.15c0-.12.08-.18.18-.13.36.15.72.31 1.08.47.06.03.12.09.15.15.13.28.24.56.36.84.08.19.05.37-.07.54-.16.23-.31.45-.48.67-.1.13-.2.28-.32.38-.2.17-.44.29-.72.3-.28.01-.55.02-.83.02-.15 0-.3-.01-.44-.05a.766.766 0 0 1-.32-.14c-.53-.45-1.02-.93-1.5-1.43-.23-.25-.32-.54-.34-.86-.05-.65-.08-1.3-.04-1.96 0-.16.06-.28.18-.4.81-.78 1.72-1.42 2.72-1.93.49-.25 1-.47 1.51-.7.12-.05.23-.06.36-.02.87.26 1.71.58 2.45 1.14.19.15.37.31.56.47.25.21.39.49.46.82.17.8.29 1.6.38 2.41.03.24.05.48.07.73.04.4-.02.79-.15 1.17Z" style="stroke-width:0"/></svg>