<svg xmlns="http://www.w3.org/2000/svg" viewBox="0 0 15 15"><path d="M10.24 7.56c1.7.73 2.44-.17 2.44-.17-1.59-.47-2.83-2.11-2.83-2.11-1.49.08-1.73-.81-1.73-.81.98 1.03 2.05.5 2.05.5 1.94-1.14 1.77-2.8 1.77-2.8-1.1 1.2-4.08 1.47-4.08 1.47-.13-.59-.63-.8-.63-.8-1.18-.05-1.77-.45-1.77-.45-.14-.56-.63-.74-.63-.74.04.51-.13.57-.13.57.08-.65-.3-1.06-.3-1.06L3.55.97c.58-.04.61-.22.61-.22C3.8.21 3.13.23 3.13.23l-.25.59.08.17s-.22.11-.27 1c-.05.88.68 1.76.68 1.76-.1-.87.3-1.25.3-1.25-.12.67.64 1.38.64 1.38-.08-.33.19-.67.19-.67s.58.1.78 1.07c.19.97-.27 1.18-.27 1.18-.18-.57-.9-1.45-.9-1.45l.07.3c-.96-.08-1.87-1.03-1.87-1.03s-.01.34 0 .67.7 1.48.7 1.48c0-.35.28-.62.28-.62.1.53.55 1.1.55 1.1-.07-.49.21-.75.21-.75.47.73.24 1.71.24 1.71-.43 1.47-1.97 1.26-1.97 1.26 2.41 1.87 4.17-1.1 4.17-1.1.34.87 1.66 1.76 1.66 1.76-.08-.57.19-1.99.19-1.99.06.22.98.67.98.67-.43-.01-.81-.23-.81-.23l-.07 1.88c-1.33-.13-1.99-1.14-1.99-1.14-1.06.94-2.55 1.04-2.55 1.04s.27 0-.38 1.07c-.51.84-.74 1.67-.81 1.98-.02.09-.02.18-.02.27.17 1.32 1.19 1.57 1.19 1.57-.85-1.26-.39-1.92-.39-1.92-.12 1.87 1.79 2.56 1.79 2.56-.61-1.25 1.15-3.52 1.15-3.52-.35.78 0 2.11 0 2.11.13-1.53 2.07-2.64 2.07-2.64 1.41 1.04 2.16.84 2.16.84-.84-.62-.91-2.09-.91-2.09 2.46.41 3.1-.62 3.1-.62-1.26.27-2.65-1.07-2.65-1.07ZM5.89 3.25s1.73-.11 1.3.19c-.43.3.42.97.42.97-.52.23-1.71-1.16-1.71-1.16Z"/></svg>