<svg id="Layer_1" data-name="Layer 1" xmlns="http://www.w3.org/2000/svg" viewBox="0 0 100 100"><title>icon_cardset_boomsday</title><path d="M75,26.4a2.37,2.37,0,0,0,.18-3.09,17,17,0,0,0-14.65,4.36l-2-2.17h-.83l-5.74,4.31a15.83,15.83,0,0,1,2.49,2.57,1.16,1.16,0,0,1,0,.82,29.9,29.9,0,0,0-8.75-4.83c-.89,1.06-1.92,2.12-2.39,2-.64-.21-1.61-2.06-2.13-3.15A30,30,0,0,0,6.72,49.55a9.45,9.45,0,0,1,1.76,2c.15.43-1.34,1.82-2.5,2.63-.07.83-.12,1.66-.12,2.5A29.93,29.93,0,0,0,34.2,86.52c1-.72,2.28-1.63,2.8-2,.91-.61,2.22.5,2.32.9a6.16,6.16,0,0,0,.39.85,30.06,30.06,0,0,0,7.76-2.1,41.93,41.93,0,0,0,2-3.79c.67-1.54,2.37.15,2.95,1.09A29.94,29.94,0,0,0,65,50.14a7.07,7.07,0,0,1-2.47-1.46c-.29-.55.63-1.69,1.31-2.42a29.84,29.84,0,0,0-3.08-6.1l5.4-5.74v-.76L63,30.25C67.33,25.17,75,26.4,75,26.4ZM16.54,70.74c1.11,2,0,1.71,0,1.71-6.55-6.34-6-15.82-6-15.82.7-14.41,10.88-20.85,10.88-20.85l2.22,2.41C6.57,51.8,15.44,68.73,16.54,70.74ZM34.38,34.67A34.87,34.87,0,0,0,26,37.09L24.2,34.16a21.47,21.47,0,0,1,10.18-3.22Z"></path><path d="M96.14,27.2s-8.77-.76-11.49-3l9.82-10.73L83.08,20.59s-3.91,3.32-8.26-7.11c0,0,2.65,6.31,1.14,10.2,0,0,4.08,1.18,6.16,3.44a2,2,0,0,1,0,2.08c-.72.87-2.16.42-2.61.23a24.21,24.21,0,0,1-3.86-2.72L70,31.32s4.23-.23,6,.9c0,0-2.57,7.71-4.46,10.32,0,0,7.11-6.95,9.3-7.63,0,0,6.46,4,10,10.05,0,0-4.49-10.24-4.91-12.77A16.15,16.15,0,0,1,96.14,27.2Z"></path></svg>